<?xml version="1.0" encoding="UTF-8" standalone="no"?>
<!DOCTYPE svg PUBLIC "-//W3C//DTD SVG 1.1//EN"
 "http://www.w3.org/Graphics/SVG/1.1/DTD/svg11.dtd">
<!-- Generated by graphviz version 2.40.1 (20161225.0304)
 -->
<!-- Title: G Pages: 1 -->
<svg width="900pt" height="196pt"
 viewBox="0.00 0.00 900.20 195.58" xmlns="http://www.w3.org/2000/svg" xmlns:xlink="http://www.w3.org/1999/xlink">
<g id="graph0" class="graph" transform="scale(1 1) rotate(0) translate(21.6 173.9814)">
<title>G</title>
<polygon fill="#111111" stroke="transparent" points="-21.6,21.6 -21.6,-173.9814 878.6,-173.9814 878.6,21.6 -21.6,21.6"/>
<!-- client.js -->
<g id="node1" class="node">
<title>client.js</title>
<path fill="none" stroke="#c6c5fe" d="M159.3333,-122.3814C159.3333,-122.3814 109.6667,-122.3814 109.6667,-122.3814 105.8333,-122.3814 102,-118.5481 102,-114.7148 102,-114.7148 102,-107.0481 102,-107.0481 102,-103.2148 105.8333,-99.3814 109.6667,-99.3814 109.6667,-99.3814 159.3333,-99.3814 159.3333,-99.3814 163.1667,-99.3814 167,-103.2148 167,-107.0481 167,-107.0481 167,-114.7148 167,-114.7148 167,-118.5481 163.1667,-122.3814 159.3333,-122.3814"/>
<text text-anchor="middle" x="134.5" y="-107.1814" font-family="Arial" font-size="14.00" fill="#c6c5fe">client.js</text>
</g>
<!-- utils/CosmosClientWrapper.js -->
<g id="node2" class="node">
<title>utils/CosmosClientWrapper.js</title>
<path fill="none" stroke="#c6c5fe" d="M401.3333,-82.3814C401.3333,-82.3814 210.6667,-82.3814 210.6667,-82.3814 206.8333,-82.3814 203,-78.5481 203,-74.7148 203,-74.7148 203,-67.0481 203,-67.0481 203,-63.2148 206.8333,-59.3814 210.6667,-59.3814 210.6667,-59.3814 401.3333,-59.3814 401.3333,-59.3814 405.1667,-59.3814 409,-63.2148 409,-67.0481 409,-67.0481 409,-74.7148 409,-74.7148 409,-78.5481 405.1667,-82.3814 401.3333,-82.3814"/>
<text text-anchor="middle" x="306" y="-67.1814" font-family="Arial" font-size="14.00" fill="#c6c5fe">utils/CosmosClientWrapper.js</text>
</g>
<!-- client.js&#45;&gt;utils/CosmosClientWrapper.js -->
<g id="edge1" class="edge">
<title>client.js&#45;&gt;utils/CosmosClientWrapper.js</title>
<path fill="none" stroke="#757575" d="M167.1615,-103.2636C189.5674,-98.0377 219.9458,-90.9524 246.5739,-84.7418"/>
<polygon fill="#757575" stroke="#757575" points="247.6277,-88.09 256.5713,-82.41 246.0376,-81.273 247.6277,-88.09"/>
</g>
<!-- utils/useMongoNative.js -->
<g id="node3" class="node">
<title>utils/useMongoNative.js</title>
<path fill="none" stroke="#cfffac" d="M849.3333,-152.3814C849.3333,-152.3814 694.6667,-152.3814 694.6667,-152.3814 690.8333,-152.3814 687,-148.5481 687,-144.7148 687,-144.7148 687,-137.0481 687,-137.0481 687,-133.2148 690.8333,-129.3814 694.6667,-129.3814 694.6667,-129.3814 849.3333,-129.3814 849.3333,-129.3814 853.1667,-129.3814 857,-133.2148 857,-137.0481 857,-137.0481 857,-144.7148 857,-144.7148 857,-148.5481 853.1667,-152.3814 849.3333,-152.3814"/>
<text text-anchor="middle" x="772" y="-137.1814" font-family="Arial" font-size="14.00" fill="#cfffac">utils/useMongoNative.js</text>
</g>
<!-- client.js&#45;&gt;utils/useMongoNative.js -->
<g id="edge2" class="edge">
<title>client.js&#45;&gt;utils/useMongoNative.js</title>
<path fill="none" stroke="#757575" d="M167.1133,-113.3456C223.6556,-117.5364 343.5605,-126.0648 445,-130.8814 522.9514,-134.5828 611.4243,-137.1916 676.6696,-138.8145"/>
<polygon fill="#757575" stroke="#757575" points="676.8535,-142.32 686.9364,-139.0665 677.0254,-135.3221 676.8535,-142.32"/>
</g>
<!-- utils/adaptMongooseModel.js -->
<g id="node5" class="node">
<title>utils/adaptMongooseModel.js</title>
<path fill="none" stroke="#c6c5fe" d="M643.3333,-122.3814C643.3333,-122.3814 452.6667,-122.3814 452.6667,-122.3814 448.8333,-122.3814 445,-118.5481 445,-114.7148 445,-114.7148 445,-107.0481 445,-107.0481 445,-103.2148 448.8333,-99.3814 452.6667,-99.3814 452.6667,-99.3814 643.3333,-99.3814 643.3333,-99.3814 647.1667,-99.3814 651,-103.2148 651,-107.0481 651,-107.0481 651,-114.7148 651,-114.7148 651,-118.5481 647.1667,-122.3814 643.3333,-122.3814"/>
<text text-anchor="middle" x="548" y="-107.1814" font-family="Arial" font-size="14.00" fill="#c6c5fe">utils/adaptMongooseModel.js</text>
</g>
<!-- utils/CosmosClientWrapper.js&#45;&gt;utils/adaptMongooseModel.js -->
<g id="edge4" class="edge">
<title>utils/CosmosClientWrapper.js&#45;&gt;utils/adaptMongooseModel.js</title>
<path fill="none" stroke="#757575" d="M375.6718,-82.3974C404.6509,-87.1874 438.4516,-92.7743 468.4036,-97.725"/>
<polygon fill="#757575" stroke="#757575" points="467.9642,-101.1998 478.4011,-99.3775 469.1058,-94.2935 467.9642,-101.1998"/>
</g>
<!-- utils/cosmosDb.js -->
<g id="node6" class="node">
<title>utils/cosmosDb.js</title>
<path fill="none" stroke="#c6c5fe" d="M605.3333,-42.3814C605.3333,-42.3814 490.6667,-42.3814 490.6667,-42.3814 486.8333,-42.3814 483,-38.5481 483,-34.7148 483,-34.7148 483,-27.0481 483,-27.0481 483,-23.2148 486.8333,-19.3814 490.6667,-19.3814 490.6667,-19.3814 605.3333,-19.3814 605.3333,-19.3814 609.1667,-19.3814 613,-23.2148 613,-27.0481 613,-27.0481 613,-34.7148 613,-34.7148 613,-38.5481 609.1667,-42.3814 605.3333,-42.3814"/>
<text text-anchor="middle" x="548" y="-27.1814" font-family="Arial" font-size="14.00" fill="#c6c5fe">utils/cosmosDb.js</text>
</g>
<!-- utils/CosmosClientWrapper.js&#45;&gt;utils/cosmosDb.js -->
<g id="edge5" class="edge">
<title>utils/CosmosClientWrapper.js&#45;&gt;utils/cosmosDb.js</title>
<path fill="none" stroke="#757575" d="M375.6718,-59.3654C406.1628,-54.3256 441.9918,-48.4035 473.059,-43.2684"/>
<polygon fill="#757575" stroke="#757575" points="473.6704,-46.7149 482.9657,-41.6309 472.5288,-39.8086 473.6704,-46.7149"/>
</g>
<!-- utils/strategy.js -->
<g id="node7" class="node">
<title>utils/strategy.js</title>
<path fill="none" stroke="#cfffac" d="M819.8333,-102.3814C819.8333,-102.3814 724.1667,-102.3814 724.1667,-102.3814 720.3333,-102.3814 716.5,-98.5481 716.5,-94.7148 716.5,-94.7148 716.5,-87.0481 716.5,-87.0481 716.5,-83.2148 720.3333,-79.3814 724.1667,-79.3814 724.1667,-79.3814 819.8333,-79.3814 819.8333,-79.3814 823.6667,-79.3814 827.5,-83.2148 827.5,-87.0481 827.5,-87.0481 827.5,-94.7148 827.5,-94.7148 827.5,-98.5481 823.6667,-102.3814 819.8333,-102.3814"/>
<text text-anchor="middle" x="772" y="-87.1814" font-family="Arial" font-size="14.00" fill="#cfffac">utils/strategy.js</text>
</g>
<!-- utils/CosmosClientWrapper.js&#45;&gt;utils/strategy.js -->
<g id="edge6" class="edge">
<title>utils/CosmosClientWrapper.js&#45;&gt;utils/strategy.js</title>
<path fill="none" stroke="#757575" d="M409.1314,-75.3077C499.8277,-79.2002 629.0976,-84.7483 706.3665,-88.0645"/>
<polygon fill="#757575" stroke="#757575" points="706.3106,-91.5653 716.4515,-88.4974 706.6108,-84.5717 706.3106,-91.5653"/>
</g>
<!-- utils/validity.js -->
<g id="node8" class="node">
<title>utils/validity.js</title>
<path fill="none" stroke="#cfffac" d="M816.3333,-42.3814C816.3333,-42.3814 727.6667,-42.3814 727.6667,-42.3814 723.8333,-42.3814 720,-38.5481 720,-34.7148 720,-34.7148 720,-27.0481 720,-27.0481 720,-23.2148 723.8333,-19.3814 727.6667,-19.3814 727.6667,-19.3814 816.3333,-19.3814 816.3333,-19.3814 820.1667,-19.3814 824,-23.2148 824,-27.0481 824,-27.0481 824,-34.7148 824,-34.7148 824,-38.5481 820.1667,-42.3814 816.3333,-42.3814"/>
<text text-anchor="middle" x="772" y="-27.1814" font-family="Arial" font-size="14.00" fill="#cfffac">utils/validity.js</text>
</g>
<!-- utils/CosmosClientWrapper.js&#45;&gt;utils/validity.js -->
<g id="edge7" class="edge">
<title>utils/CosmosClientWrapper.js&#45;&gt;utils/validity.js</title>
<path fill="none" stroke="#757575" d="M325.3849,-59.2689C351.4825,-44.3783 399.8638,-19.3496 445,-9.8814 536.7488,9.3646 645.8756,-4.8689 711.9899,-17.4544"/>
<polygon fill="#757575" stroke="#757575" points="711.3381,-20.8932 721.8236,-19.3749 712.6799,-14.023 711.3381,-20.8932"/>
</g>
<!-- index.js -->
<g id="node4" class="node">
<title>index.js</title>
<path fill="none" stroke="#c6c5fe" d="M58.3333,-122.3814C58.3333,-122.3814 7.6667,-122.3814 7.6667,-122.3814 3.8333,-122.3814 0,-118.5481 0,-114.7148 0,-114.7148 0,-107.0481 0,-107.0481 0,-103.2148 3.8333,-99.3814 7.6667,-99.3814 7.6667,-99.3814 58.3333,-99.3814 58.3333,-99.3814 62.1667,-99.3814 66,-103.2148 66,-107.0481 66,-107.0481 66,-114.7148 66,-114.7148 66,-118.5481 62.1667,-122.3814 58.3333,-122.3814"/>
<text text-anchor="middle" x="33" y="-107.1814" font-family="Arial" font-size="14.00" fill="#c6c5fe">index.js</text>
</g>
<!-- index.js&#45;&gt;client.js -->
<g id="edge3" class="edge">
<title>index.js&#45;&gt;client.js</title>
<path fill="none" stroke="#757575" d="M66.2349,-110.8814C74.3734,-110.8814 83.1968,-110.8814 91.7134,-110.8814"/>
<polygon fill="#757575" stroke="#757575" points="91.8829,-114.3815 101.8829,-110.8814 91.8829,-107.3815 91.8829,-114.3815"/>
</g>
<!-- utils/adaptMongooseModel.js&#45;&gt;utils/useMongoNative.js -->
<g id="edge9" class="edge">
<title>utils/adaptMongooseModel.js&#45;&gt;utils/useMongoNative.js</title>
<path fill="none" stroke="#757575" d="M633.9636,-122.3944C647.8628,-124.2559 662.3284,-126.1933 676.4382,-128.083"/>
<polygon fill="#757575" stroke="#757575" points="676.2601,-131.5903 686.6362,-129.4488 677.1894,-124.6522 676.2601,-131.5903"/>
</g>
<!-- utils/adaptMongooseModel.js&#45;&gt;utils/strategy.js -->
<g id="edge8" class="edge">
<title>utils/adaptMongooseModel.js&#45;&gt;utils/strategy.js</title>
<path fill="none" stroke="#757575" d="M651.1488,-101.6717C669.9618,-99.992 689.1099,-98.2823 706.4522,-96.7339"/>
<polygon fill="#757575" stroke="#757575" points="706.7891,-100.2179 716.4381,-95.8423 706.1665,-93.2456 706.7891,-100.2179"/>
</g>
<!-- utils/adaptMongooseModel.js&#45;&gt;utils/validity.js -->
<g id="edge10" class="edge">
<title>utils/adaptMongooseModel.js&#45;&gt;utils/validity.js</title>
<path fill="none" stroke="#757575" d="M580.5715,-99.2487C620.0839,-85.1372 686.7695,-61.3209 730.0808,-45.8526"/>
<polygon fill="#757575" stroke="#757575" points="731.5124,-49.0579 739.7526,-42.3984 729.158,-42.4657 731.5124,-49.0579"/>
</g>
<!-- utils/cosmosDb.js&#45;&gt;utils/validity.js -->
<g id="edge11" class="edge">
<title>utils/cosmosDb.js&#45;&gt;utils/validity.js</title>
<path fill="none" stroke="#757575" d="M613.091,-30.8814C643.4804,-30.8814 679.4937,-30.8814 709.5462,-30.8814"/>
<polygon fill="#757575" stroke="#757575" points="709.9086,-34.3815 719.9086,-30.8814 709.9085,-27.3815 709.9086,-34.3815"/>
</g>
</g>
</svg>
