<?xml version="1.0" encoding="UTF-8" standalone="no"?>
<!DOCTYPE svg PUBLIC "-//W3C//DTD SVG 1.1//EN"
 "http://www.w3.org/Graphics/SVG/1.1/DTD/svg11.dtd">
<!-- Generated by graphviz version 2.40.1 (20161225.0304)
 -->
<!-- Title: G Pages: 1 -->
<svg width="1811pt" height="1005pt"
 viewBox="0.00 0.00 1811.20 1004.73" xmlns="http://www.w3.org/2000/svg" xmlns:xlink="http://www.w3.org/1999/xlink">
<g id="graph0" class="graph" transform="scale(1 1) rotate(0) translate(21.6 983.1251)">
<title>G</title>
<polygon fill="#111111" stroke="transparent" points="-21.6,21.6 -21.6,-983.1251 1789.6,-983.1251 1789.6,21.6 -21.6,21.6"/>
<!-- __mocks__/@azure/cosmos/Container.js -->
<g id="node1" class="node">
<title>__mocks__/@azure/cosmos/Container.js</title>
<path fill="none" stroke="#c6c5fe" d="M914.3333,-36.5251C914.3333,-36.5251 647.6667,-36.5251 647.6667,-36.5251 643.8333,-36.5251 640,-32.6918 640,-28.8584 640,-28.8584 640,-21.1918 640,-21.1918 640,-17.3584 643.8333,-13.5251 647.6667,-13.5251 647.6667,-13.5251 914.3333,-13.5251 914.3333,-13.5251 918.1667,-13.5251 922,-17.3584 922,-21.1918 922,-21.1918 922,-28.8584 922,-28.8584 922,-32.6918 918.1667,-36.5251 914.3333,-36.5251"/>
<text text-anchor="middle" x="781" y="-21.3251" font-family="Arial" font-size="14.00" fill="#c6c5fe">__mocks__/@azure/cosmos/Container.js</text>
</g>
<!-- __mocks__/@azure/cosmos/Error.js -->
<g id="node2" class="node">
<title>__mocks__/@azure/cosmos/Error.js</title>
<path fill="none" stroke="#cfffac" d="M1512.8333,-54.5251C1512.8333,-54.5251 1277.1667,-54.5251 1277.1667,-54.5251 1273.3333,-54.5251 1269.5,-50.6918 1269.5,-46.8584 1269.5,-46.8584 1269.5,-39.1918 1269.5,-39.1918 1269.5,-35.3584 1273.3333,-31.5251 1277.1667,-31.5251 1277.1667,-31.5251 1512.8333,-31.5251 1512.8333,-31.5251 1516.6667,-31.5251 1520.5,-35.3584 1520.5,-39.1918 1520.5,-39.1918 1520.5,-46.8584 1520.5,-46.8584 1520.5,-50.6918 1516.6667,-54.5251 1512.8333,-54.5251"/>
<text text-anchor="middle" x="1395" y="-39.3251" font-family="Arial" font-size="14.00" fill="#cfffac">__mocks__/@azure/cosmos/Error.js</text>
</g>
<!-- __mocks__/@azure/cosmos/Container.js&#45;&gt;__mocks__/@azure/cosmos/Error.js -->
<g id="edge1" class="edge">
<title>__mocks__/@azure/cosmos/Container.js&#45;&gt;__mocks__/@azure/cosmos/Error.js</title>
<path fill="none" stroke="#757575" d="M922.2493,-29.166C1023.4986,-32.1342 1159.1,-36.1095 1259.1081,-39.0413"/>
<polygon fill="#757575" stroke="#757575" points="1259.1849,-42.545 1269.2832,-39.3396 1259.3901,-35.548 1259.1849,-42.545"/>
</g>
<!-- __mocks__/@azure/cosmos/Offer.js -->
<g id="node3" class="node">
<title>__mocks__/@azure/cosmos/Offer.js</title>
<path fill="none" stroke="#c6c5fe" d="M1202.3333,-74.5251C1202.3333,-74.5251 966.6667,-74.5251 966.6667,-74.5251 962.8333,-74.5251 959,-70.6918 959,-66.8584 959,-66.8584 959,-59.1918 959,-59.1918 959,-55.3584 962.8333,-51.5251 966.6667,-51.5251 966.6667,-51.5251 1202.3333,-51.5251 1202.3333,-51.5251 1206.1667,-51.5251 1210,-55.3584 1210,-59.1918 1210,-59.1918 1210,-66.8584 1210,-66.8584 1210,-70.6918 1206.1667,-74.5251 1202.3333,-74.5251"/>
<text text-anchor="middle" x="1084.5" y="-59.3251" font-family="Arial" font-size="14.00" fill="#c6c5fe">__mocks__/@azure/cosmos/Offer.js</text>
</g>
<!-- __mocks__/@azure/cosmos/Container.js&#45;&gt;__mocks__/@azure/cosmos/Offer.js -->
<g id="edge2" class="edge">
<title>__mocks__/@azure/cosmos/Container.js&#45;&gt;__mocks__/@azure/cosmos/Offer.js</title>
<path fill="none" stroke="#757575" d="M872.8836,-36.5295C907.3419,-40.8438 946.7047,-45.7723 982.0608,-50.1991"/>
<polygon fill="#757575" stroke="#757575" points="982.048,-53.7247 992.4053,-51.4943 982.9177,-46.779 982.048,-53.7247"/>
</g>
<!-- __mocks__/@azure/cosmos/Offer.js&#45;&gt;__mocks__/@azure/cosmos/Error.js -->
<g id="edge5" class="edge">
<title>__mocks__/@azure/cosmos/Offer.js&#45;&gt;__mocks__/@azure/cosmos/Error.js</title>
<path fill="none" stroke="#757575" d="M1210.3446,-54.9192C1226.4932,-53.879 1243.0824,-52.8105 1259.3784,-51.7608"/>
<polygon fill="#757575" stroke="#757575" points="1259.7261,-55.2457 1269.4805,-51.1101 1259.2761,-48.2602 1259.7261,-55.2457"/>
</g>
<!-- __mocks__/@azure/cosmos/Database.js -->
<g id="node4" class="node">
<title>__mocks__/@azure/cosmos/Database.js</title>
<path fill="none" stroke="#c6c5fe" d="M589.8333,-36.5251C589.8333,-36.5251 322.1667,-36.5251 322.1667,-36.5251 318.3333,-36.5251 314.5,-32.6918 314.5,-28.8584 314.5,-28.8584 314.5,-21.1918 314.5,-21.1918 314.5,-17.3584 318.3333,-13.5251 322.1667,-13.5251 322.1667,-13.5251 589.8333,-13.5251 589.8333,-13.5251 593.6667,-13.5251 597.5,-17.3584 597.5,-21.1918 597.5,-21.1918 597.5,-28.8584 597.5,-28.8584 597.5,-32.6918 593.6667,-36.5251 589.8333,-36.5251"/>
<text text-anchor="middle" x="456" y="-21.3251" font-family="Arial" font-size="14.00" fill="#c6c5fe">__mocks__/@azure/cosmos/Database.js</text>
</g>
<!-- __mocks__/@azure/cosmos/Database.js&#45;&gt;__mocks__/@azure/cosmos/Container.js -->
<g id="edge3" class="edge">
<title>__mocks__/@azure/cosmos/Database.js&#45;&gt;__mocks__/@azure/cosmos/Container.js</title>
<path fill="none" stroke="#757575" d="M597.6043,-25.0251C608.2338,-25.0251 618.9847,-25.0251 629.6708,-25.0251"/>
<polygon fill="#757575" stroke="#757575" points="629.8904,-28.5252 639.8903,-25.0251 629.8903,-21.5252 629.8904,-28.5252"/>
</g>
<!-- __mocks__/@azure/cosmos/Database.js&#45;&gt;__mocks__/@azure/cosmos/Error.js -->
<g id="edge4" class="edge">
<title>__mocks__/@azure/cosmos/Database.js&#45;&gt;__mocks__/@azure/cosmos/Error.js</title>
<path fill="none" stroke="#757575" d="M538.7269,-13.5033C570.068,-9.6726 606.115,-5.9058 639,-4.0251 871.2445,9.2568 1143.743,-14.4719 1289.806,-30.3814"/>
<polygon fill="#757575" stroke="#757575" points="1289.7793,-33.8995 1300.1018,-31.5128 1290.5439,-26.9414 1289.7793,-33.8995"/>
</g>
<!-- __mocks__/@azure/cosmos/index.js -->
<g id="node5" class="node">
<title>__mocks__/@azure/cosmos/index.js</title>
<path fill="none" stroke="#c6c5fe" d="M256.3333,-76.5251C256.3333,-76.5251 16.6667,-76.5251 16.6667,-76.5251 12.8333,-76.5251 9,-72.6918 9,-68.8584 9,-68.8584 9,-61.1918 9,-61.1918 9,-57.3584 12.8333,-53.5251 16.6667,-53.5251 16.6667,-53.5251 256.3333,-53.5251 256.3333,-53.5251 260.1667,-53.5251 264,-57.3584 264,-61.1918 264,-61.1918 264,-68.8584 264,-68.8584 264,-72.6918 260.1667,-76.5251 256.3333,-76.5251"/>
<text text-anchor="middle" x="136.5" y="-61.3251" font-family="Arial" font-size="14.00" fill="#c6c5fe">__mocks__/@azure/cosmos/index.js</text>
</g>
<!-- __mocks__/@azure/cosmos/index.js&#45;&gt;__mocks__/@azure/cosmos/Error.js -->
<g id="edge7" class="edge">
<title>__mocks__/@azure/cosmos/index.js&#45;&gt;__mocks__/@azure/cosmos/Error.js</title>
<path fill="none" stroke="#757575" d="M255.6702,-76.5562C454.2272,-93.6364 865.0317,-119.893 1210,-83.0251 1255.8447,-78.1255 1307.0087,-66.581 1343.8899,-57.1472"/>
<polygon fill="#757575" stroke="#757575" points="1345.0974,-60.4499 1353.8973,-54.5497 1343.3387,-53.6744 1345.0974,-60.4499"/>
</g>
<!-- __mocks__/@azure/cosmos/index.js&#45;&gt;__mocks__/@azure/cosmos/Offer.js -->
<g id="edge8" class="edge">
<title>__mocks__/@azure/cosmos/index.js&#45;&gt;__mocks__/@azure/cosmos/Offer.js</title>
<path fill="none" stroke="#757575" d="M264.3515,-64.7554C442.9186,-64.3786 765.5968,-63.6979 948.4549,-63.3121"/>
<polygon fill="#757575" stroke="#757575" points="948.6816,-66.8117 958.6741,-63.2906 948.6667,-59.8118 948.6816,-66.8117"/>
</g>
<!-- __mocks__/@azure/cosmos/index.js&#45;&gt;__mocks__/@azure/cosmos/Database.js -->
<g id="edge6" class="edge">
<title>__mocks__/@azure/cosmos/index.js&#45;&gt;__mocks__/@azure/cosmos/Database.js</title>
<path fill="none" stroke="#757575" d="M228.484,-53.5091C267.7417,-48.5942 313.7016,-42.8402 353.9971,-37.7954"/>
<polygon fill="#757575" stroke="#757575" points="354.6245,-41.2443 364.1122,-36.529 353.7549,-34.2985 354.6245,-41.2443"/>
</g>
<!-- __mocks__/kth&#45;node&#45;log.js -->
<g id="node6" class="node">
<title>__mocks__/kth&#45;node&#45;log.js</title>
<path fill="none" stroke="#cfffac" d="M224.3333,-229.5251C224.3333,-229.5251 48.6667,-229.5251 48.6667,-229.5251 44.8333,-229.5251 41,-225.6918 41,-221.8584 41,-221.8584 41,-214.1918 41,-214.1918 41,-210.3584 44.8333,-206.5251 48.6667,-206.5251 48.6667,-206.5251 224.3333,-206.5251 224.3333,-206.5251 228.1667,-206.5251 232,-210.3584 232,-214.1918 232,-214.1918 232,-221.8584 232,-221.8584 232,-225.6918 228.1667,-229.5251 224.3333,-229.5251"/>
<text text-anchor="middle" x="136.5" y="-214.3251" font-family="Arial" font-size="14.00" fill="#cfffac">__mocks__/kth&#45;node&#45;log.js</text>
</g>
<!-- coverage/lcov&#45;report/block&#45;navigation.js -->
<g id="node7" class="node">
<title>coverage/lcov&#45;report/block&#45;navigation.js</title>
<path fill="none" stroke="#cfffac" d="M265.3333,-326.5251C265.3333,-326.5251 7.6667,-326.5251 7.6667,-326.5251 3.8333,-326.5251 0,-322.6918 0,-318.8584 0,-318.8584 0,-311.1918 0,-311.1918 0,-307.3584 3.8333,-303.5251 7.6667,-303.5251 7.6667,-303.5251 265.3333,-303.5251 265.3333,-303.5251 269.1667,-303.5251 273,-307.3584 273,-311.1918 273,-311.1918 273,-318.8584 273,-318.8584 273,-322.6918 269.1667,-326.5251 265.3333,-326.5251"/>
<text text-anchor="middle" x="136.5" y="-311.3251" font-family="Arial" font-size="14.00" fill="#cfffac">coverage/lcov&#45;report/block&#45;navigation.js</text>
</g>
<!-- coverage/lcov&#45;report/prettify.js -->
<g id="node8" class="node">
<title>coverage/lcov&#45;report/prettify.js</title>
<path fill="none" stroke="#cfffac" d="M233.3333,-395.5251C233.3333,-395.5251 39.6667,-395.5251 39.6667,-395.5251 35.8333,-395.5251 32,-391.6918 32,-387.8584 32,-387.8584 32,-380.1918 32,-380.1918 32,-376.3584 35.8333,-372.5251 39.6667,-372.5251 39.6667,-372.5251 233.3333,-372.5251 233.3333,-372.5251 237.1667,-372.5251 241,-376.3584 241,-380.1918 241,-380.1918 241,-387.8584 241,-387.8584 241,-391.6918 237.1667,-395.5251 233.3333,-395.5251"/>
<text text-anchor="middle" x="136.5" y="-380.3251" font-family="Arial" font-size="14.00" fill="#cfffac">coverage/lcov&#45;report/prettify.js</text>
</g>
<!-- coverage/lcov&#45;report/sorter.js -->
<g id="node9" class="node">
<title>coverage/lcov&#45;report/sorter.js</title>
<path fill="none" stroke="#cfffac" d="M230.3333,-450.5251C230.3333,-450.5251 42.6667,-450.5251 42.6667,-450.5251 38.8333,-450.5251 35,-446.6918 35,-442.8584 35,-442.8584 35,-435.1918 35,-435.1918 35,-431.3584 38.8333,-427.5251 42.6667,-427.5251 42.6667,-427.5251 230.3333,-427.5251 230.3333,-427.5251 234.1667,-427.5251 238,-431.3584 238,-435.1918 238,-435.1918 238,-442.8584 238,-442.8584 238,-446.6918 234.1667,-450.5251 230.3333,-450.5251"/>
<text text-anchor="middle" x="136.5" y="-435.3251" font-family="Arial" font-size="14.00" fill="#cfffac">coverage/lcov&#45;report/sorter.js</text>
</g>
<!-- jest.config.js -->
<g id="node10" class="node">
<title>jest.config.js</title>
<path fill="none" stroke="#cfffac" d="M176.8333,-498.5251C176.8333,-498.5251 96.1667,-498.5251 96.1667,-498.5251 92.3333,-498.5251 88.5,-494.6918 88.5,-490.8584 88.5,-490.8584 88.5,-483.1918 88.5,-483.1918 88.5,-479.3584 92.3333,-475.5251 96.1667,-475.5251 96.1667,-475.5251 176.8333,-475.5251 176.8333,-475.5251 180.6667,-475.5251 184.5,-479.3584 184.5,-483.1918 184.5,-483.1918 184.5,-490.8584 184.5,-490.8584 184.5,-494.6918 180.6667,-498.5251 176.8333,-498.5251"/>
<text text-anchor="middle" x="136.5" y="-483.3251" font-family="Arial" font-size="14.00" fill="#cfffac">jest.config.js</text>
</g>
<!-- jest.setup.js -->
<g id="node11" class="node">
<title>jest.setup.js</title>
<path fill="none" stroke="#cfffac" d="M175.3333,-542.5251C175.3333,-542.5251 97.6667,-542.5251 97.6667,-542.5251 93.8333,-542.5251 90,-538.6918 90,-534.8584 90,-534.8584 90,-527.1918 90,-527.1918 90,-523.3584 93.8333,-519.5251 97.6667,-519.5251 97.6667,-519.5251 175.3333,-519.5251 175.3333,-519.5251 179.1667,-519.5251 183,-523.3584 183,-527.1918 183,-527.1918 183,-534.8584 183,-534.8584 183,-538.6918 179.1667,-542.5251 175.3333,-542.5251"/>
<text text-anchor="middle" x="136.5" y="-527.3251" font-family="Arial" font-size="14.00" fill="#cfffac">jest.setup.js</text>
</g>
<!-- lib/client.js -->
<g id="node12" class="node">
<title>lib/client.js</title>
<path fill="none" stroke="#c6c5fe" d="M814.8333,-803.5251C814.8333,-803.5251 747.1667,-803.5251 747.1667,-803.5251 743.3333,-803.5251 739.5,-799.6918 739.5,-795.8584 739.5,-795.8584 739.5,-788.1918 739.5,-788.1918 739.5,-784.3584 743.3333,-780.5251 747.1667,-780.5251 747.1667,-780.5251 814.8333,-780.5251 814.8333,-780.5251 818.6667,-780.5251 822.5,-784.3584 822.5,-788.1918 822.5,-788.1918 822.5,-795.8584 822.5,-795.8584 822.5,-799.6918 818.6667,-803.5251 814.8333,-803.5251"/>
<text text-anchor="middle" x="781" y="-788.3251" font-family="Arial" font-size="14.00" fill="#c6c5fe">lib/client.js</text>
</g>
<!-- lib/utils/CosmosClientWrapper.js -->
<g id="node13" class="node">
<title>lib/utils/CosmosClientWrapper.js</title>
<path fill="none" stroke="#c6c5fe" d="M1188.8333,-912.5251C1188.8333,-912.5251 980.1667,-912.5251 980.1667,-912.5251 976.3333,-912.5251 972.5,-908.6918 972.5,-904.8584 972.5,-904.8584 972.5,-897.1918 972.5,-897.1918 972.5,-893.3584 976.3333,-889.5251 980.1667,-889.5251 980.1667,-889.5251 1188.8333,-889.5251 1188.8333,-889.5251 1192.6667,-889.5251 1196.5,-893.3584 1196.5,-897.1918 1196.5,-897.1918 1196.5,-904.8584 1196.5,-904.8584 1196.5,-908.6918 1192.6667,-912.5251 1188.8333,-912.5251"/>
<text text-anchor="middle" x="1084.5" y="-897.3251" font-family="Arial" font-size="14.00" fill="#c6c5fe">lib/utils/CosmosClientWrapper.js</text>
</g>
<!-- lib/client.js&#45;&gt;lib/utils/CosmosClientWrapper.js -->
<g id="edge9" class="edge">
<title>lib/client.js&#45;&gt;lib/utils/CosmosClientWrapper.js</title>
<path fill="none" stroke="#757575" d="M822.6099,-793.9051C851.4091,-796.1602 890.2889,-801.1196 923,-812.0251 974.6903,-829.258 1029.0341,-862.9158 1059.6553,-883.5415"/>
<polygon fill="#757575" stroke="#757575" points="1057.7719,-886.4935 1068.0045,-889.2402 1061.7182,-880.7119 1057.7719,-886.4935"/>
</g>
<!-- lib/utils/useMongoNative.js -->
<g id="node14" class="node">
<title>lib/utils/useMongoNative.js</title>
<path fill="none" stroke="#cfffac" d="M1760.3333,-820.5251C1760.3333,-820.5251 1587.6667,-820.5251 1587.6667,-820.5251 1583.8333,-820.5251 1580,-816.6918 1580,-812.8584 1580,-812.8584 1580,-805.1918 1580,-805.1918 1580,-801.3584 1583.8333,-797.5251 1587.6667,-797.5251 1587.6667,-797.5251 1760.3333,-797.5251 1760.3333,-797.5251 1764.1667,-797.5251 1768,-801.3584 1768,-805.1918 1768,-805.1918 1768,-812.8584 1768,-812.8584 1768,-816.6918 1764.1667,-820.5251 1760.3333,-820.5251"/>
<text text-anchor="middle" x="1674" y="-805.3251" font-family="Arial" font-size="14.00" fill="#cfffac">lib/utils/useMongoNative.js</text>
</g>
<!-- lib/client.js&#45;&gt;lib/utils/useMongoNative.js -->
<g id="edge10" class="edge">
<title>lib/client.js&#45;&gt;lib/utils/useMongoNative.js</title>
<path fill="none" stroke="#757575" d="M822.7986,-791.2315C937.8818,-789.289 1269.0878,-785.3319 1544,-798.0251 1552.3752,-798.4118 1561.0462,-798.9166 1569.7526,-799.4974"/>
<polygon fill="#757575" stroke="#757575" points="1569.754,-803.0059 1579.9737,-800.2115 1570.2419,-796.0229 1569.754,-803.0059"/>
</g>
<!-- lib/utils/adaptMongooseModel.js -->
<g id="node21" class="node">
<title>lib/utils/adaptMongooseModel.js</title>
<path fill="none" stroke="#c6c5fe" d="M1499.3333,-871.5251C1499.3333,-871.5251 1290.6667,-871.5251 1290.6667,-871.5251 1286.8333,-871.5251 1283,-867.6918 1283,-863.8584 1283,-863.8584 1283,-856.1918 1283,-856.1918 1283,-852.3584 1286.8333,-848.5251 1290.6667,-848.5251 1290.6667,-848.5251 1499.3333,-848.5251 1499.3333,-848.5251 1503.1667,-848.5251 1507,-852.3584 1507,-856.1918 1507,-856.1918 1507,-863.8584 1507,-863.8584 1507,-867.6918 1503.1667,-871.5251 1499.3333,-871.5251"/>
<text text-anchor="middle" x="1395" y="-856.3251" font-family="Arial" font-size="14.00" fill="#c6c5fe">lib/utils/adaptMongooseModel.js</text>
</g>
<!-- lib/utils/CosmosClientWrapper.js&#45;&gt;lib/utils/adaptMongooseModel.js -->
<g id="edge20" class="edge">
<title>lib/utils/CosmosClientWrapper.js&#45;&gt;lib/utils/adaptMongooseModel.js</title>
<path fill="none" stroke="#757575" d="M1171.8179,-889.4952C1211.0077,-884.3204 1257.3914,-878.1956 1297.693,-872.874"/>
<polygon fill="#757575" stroke="#757575" points="1298.3444,-876.3185 1307.8001,-871.5394 1297.4279,-869.3787 1298.3444,-876.3185"/>
</g>
<!-- lib/utils/cosmosDb.js -->
<g id="node22" class="node">
<title>lib/utils/cosmosDb.js</title>
<path fill="none" stroke="#c6c5fe" d="M1461.3333,-912.5251C1461.3333,-912.5251 1328.6667,-912.5251 1328.6667,-912.5251 1324.8333,-912.5251 1321,-908.6918 1321,-904.8584 1321,-904.8584 1321,-897.1918 1321,-897.1918 1321,-893.3584 1324.8333,-889.5251 1328.6667,-889.5251 1328.6667,-889.5251 1461.3333,-889.5251 1461.3333,-889.5251 1465.1667,-889.5251 1469,-893.3584 1469,-897.1918 1469,-897.1918 1469,-904.8584 1469,-904.8584 1469,-908.6918 1465.1667,-912.5251 1461.3333,-912.5251"/>
<text text-anchor="middle" x="1395" y="-897.3251" font-family="Arial" font-size="14.00" fill="#c6c5fe">lib/utils/cosmosDb.js</text>
</g>
<!-- lib/utils/CosmosClientWrapper.js&#45;&gt;lib/utils/cosmosDb.js -->
<g id="edge21" class="edge">
<title>lib/utils/CosmosClientWrapper.js&#45;&gt;lib/utils/cosmosDb.js</title>
<path fill="none" stroke="#757575" d="M1196.5976,-901.0251C1234.226,-901.0251 1275.5281,-901.0251 1310.6601,-901.0251"/>
<polygon fill="#757575" stroke="#757575" points="1310.8742,-904.5252 1320.8741,-901.0251 1310.8741,-897.5252 1310.8742,-904.5252"/>
</g>
<!-- lib/utils/strategy.js -->
<g id="node23" class="node">
<title>lib/utils/strategy.js</title>
<path fill="none" stroke="#cfffac" d="M1730.8333,-961.5251C1730.8333,-961.5251 1617.1667,-961.5251 1617.1667,-961.5251 1613.3333,-961.5251 1609.5,-957.6918 1609.5,-953.8584 1609.5,-953.8584 1609.5,-946.1918 1609.5,-946.1918 1609.5,-942.3584 1613.3333,-938.5251 1617.1667,-938.5251 1617.1667,-938.5251 1730.8333,-938.5251 1730.8333,-938.5251 1734.6667,-938.5251 1738.5,-942.3584 1738.5,-946.1918 1738.5,-946.1918 1738.5,-953.8584 1738.5,-953.8584 1738.5,-957.6918 1734.6667,-961.5251 1730.8333,-961.5251"/>
<text text-anchor="middle" x="1674" y="-946.3251" font-family="Arial" font-size="14.00" fill="#cfffac">lib/utils/strategy.js</text>
</g>
<!-- lib/utils/CosmosClientWrapper.js&#45;&gt;lib/utils/strategy.js -->
<g id="edge22" class="edge">
<title>lib/utils/CosmosClientWrapper.js&#45;&gt;lib/utils/strategy.js</title>
<path fill="none" stroke="#757575" d="M1119.9575,-912.5377C1152.3738,-922.4576 1201.8488,-936.0887 1246,-942.0251 1368.9777,-958.5601 1513.5991,-956.9298 1599.322,-953.7956"/>
<polygon fill="#757575" stroke="#757575" points="1599.6197,-957.2868 1609.4786,-953.407 1599.3521,-950.292 1599.6197,-957.2868"/>
</g>
<!-- lib/utils/validity.js -->
<g id="node24" class="node">
<title>lib/utils/validity.js</title>
<path fill="none" stroke="#cfffac" d="M1727.3333,-881.5251C1727.3333,-881.5251 1620.6667,-881.5251 1620.6667,-881.5251 1616.8333,-881.5251 1613,-877.6918 1613,-873.8584 1613,-873.8584 1613,-866.1918 1613,-866.1918 1613,-862.3584 1616.8333,-858.5251 1620.6667,-858.5251 1620.6667,-858.5251 1727.3333,-858.5251 1727.3333,-858.5251 1731.1667,-858.5251 1735,-862.3584 1735,-866.1918 1735,-866.1918 1735,-873.8584 1735,-873.8584 1735,-877.6918 1731.1667,-881.5251 1727.3333,-881.5251"/>
<text text-anchor="middle" x="1674" y="-866.3251" font-family="Arial" font-size="14.00" fill="#cfffac">lib/utils/validity.js</text>
</g>
<!-- lib/utils/CosmosClientWrapper.js&#45;&gt;lib/utils/validity.js -->
<g id="edge23" class="edge">
<title>lib/utils/CosmosClientWrapper.js&#45;&gt;lib/utils/validity.js</title>
<path fill="none" stroke="#757575" d="M1143.8927,-912.5401C1232.0787,-927.6635 1402.4579,-949.2836 1544,-922.0251 1579.3463,-915.218 1617.2987,-898.8868 1643.0154,-886.3275"/>
<polygon fill="#757575" stroke="#757575" points="1644.8546,-889.3215 1652.2415,-881.7265 1641.7305,-883.0572 1644.8546,-889.3215"/>
</g>
<!-- lib/client.test.js -->
<g id="node15" class="node">
<title>lib/client.test.js</title>
<path fill="none" stroke="#c6c5fe" d="M503.3333,-844.5251C503.3333,-844.5251 408.6667,-844.5251 408.6667,-844.5251 404.8333,-844.5251 401,-840.6918 401,-836.8584 401,-836.8584 401,-829.1918 401,-829.1918 401,-825.3584 404.8333,-821.5251 408.6667,-821.5251 408.6667,-821.5251 503.3333,-821.5251 503.3333,-821.5251 507.1667,-821.5251 511,-825.3584 511,-829.1918 511,-829.1918 511,-836.8584 511,-836.8584 511,-840.6918 507.1667,-844.5251 503.3333,-844.5251"/>
<text text-anchor="middle" x="456" y="-829.3251" font-family="Arial" font-size="14.00" fill="#c6c5fe">lib/client.test.js</text>
</g>
<!-- lib/client.test.js&#45;&gt;lib/client.js -->
<g id="edge11" class="edge">
<title>lib/client.test.js&#45;&gt;lib/client.js</title>
<path fill="none" stroke="#757575" d="M511.1318,-826.07C572.0781,-818.3814 669.4963,-806.0917 729.1108,-798.5711"/>
<polygon fill="#757575" stroke="#757575" points="729.5799,-802.0398 739.0632,-797.3156 728.7037,-795.0948 729.5799,-802.0398"/>
</g>
<!-- lib/client.test.js&#45;&gt;lib/utils/CosmosClientWrapper.js -->
<g id="edge12" class="edge">
<title>lib/client.test.js&#45;&gt;lib/utils/CosmosClientWrapper.js</title>
<path fill="none" stroke="#757575" d="M511.2534,-839.0859C547.5609,-843.0631 596.1058,-848.3704 639,-853.0251 750.2553,-865.0982 877.1521,-878.7599 966.979,-888.4124"/>
<polygon fill="#757575" stroke="#757575" points="966.6053,-891.8923 976.9221,-889.4807 967.3532,-884.9324 966.6053,-891.8923"/>
</g>
<!-- lib/utils/CosmosClientWrapper.test&#45;data.js -->
<g id="node16" class="node">
<title>lib/utils/CosmosClientWrapper.test&#45;data.js</title>
<path fill="none" stroke="#c6c5fe" d="M915.3333,-844.5251C915.3333,-844.5251 646.6667,-844.5251 646.6667,-844.5251 642.8333,-844.5251 639,-840.6918 639,-836.8584 639,-836.8584 639,-829.1918 639,-829.1918 639,-825.3584 642.8333,-821.5251 646.6667,-821.5251 646.6667,-821.5251 915.3333,-821.5251 915.3333,-821.5251 919.1667,-821.5251 923,-825.3584 923,-829.1918 923,-829.1918 923,-836.8584 923,-836.8584 923,-840.6918 919.1667,-844.5251 915.3333,-844.5251"/>
<text text-anchor="middle" x="781" y="-829.3251" font-family="Arial" font-size="14.00" fill="#c6c5fe">lib/utils/CosmosClientWrapper.test&#45;data.js</text>
</g>
<!-- lib/client.test.js&#45;&gt;lib/utils/CosmosClientWrapper.test&#45;data.js -->
<g id="edge13" class="edge">
<title>lib/client.test.js&#45;&gt;lib/utils/CosmosClientWrapper.test&#45;data.js</title>
<path fill="none" stroke="#757575" d="M511.1318,-833.0251C543.6579,-833.0251 586.5719,-833.0251 628.5836,-833.0251"/>
<polygon fill="#757575" stroke="#757575" points="628.6646,-836.5252 638.6645,-833.0251 628.6645,-829.5252 628.6646,-836.5252"/>
</g>
<!-- test/lib/index.js -->
<g id="node17" class="node">
<title>test/lib/index.js</title>
<path fill="none" stroke="#c6c5fe" d="M1132.3333,-505.5251C1132.3333,-505.5251 1036.6667,-505.5251 1036.6667,-505.5251 1032.8333,-505.5251 1029,-501.6918 1029,-497.8584 1029,-497.8584 1029,-490.1918 1029,-490.1918 1029,-486.3584 1032.8333,-482.5251 1036.6667,-482.5251 1036.6667,-482.5251 1132.3333,-482.5251 1132.3333,-482.5251 1136.1667,-482.5251 1140,-486.3584 1140,-490.1918 1140,-490.1918 1140,-497.8584 1140,-497.8584 1140,-501.6918 1136.1667,-505.5251 1132.3333,-505.5251"/>
<text text-anchor="middle" x="1084.5" y="-490.3251" font-family="Arial" font-size="14.00" fill="#c6c5fe">test/lib/index.js</text>
</g>
<!-- lib/client.test.js&#45;&gt;test/lib/index.js -->
<g id="edge14" class="edge">
<title>lib/client.test.js&#45;&gt;test/lib/index.js</title>
<path fill="none" stroke="#757575" d="M511.3078,-839.3043C541.9937,-839.6474 578.7437,-834.3974 603,-812.0251 656.2603,-762.9016 585.7761,-702.188 639,-653.0251 732.681,-566.492 804.9098,-660.179 923,-612.0251 980.9005,-588.4149 1037.2522,-539.6365 1065.5864,-512.7782"/>
<polygon fill="#757575" stroke="#757575" points="1068.0349,-515.2793 1072.8131,-505.8232 1063.1809,-510.2357 1068.0349,-515.2793"/>
</g>
<!-- lib/utils/CosmosClientWrapper.test&#45;data.js&#45;&gt;lib/utils/CosmosClientWrapper.js -->
<g id="edge24" class="edge">
<title>lib/utils/CosmosClientWrapper.test&#45;data.js&#45;&gt;lib/utils/CosmosClientWrapper.js</title>
<path fill="none" stroke="#757575" d="M849.8189,-844.5773C873.1277,-848.7681 899.2634,-853.7729 923,-859.0251 960.2655,-867.2707 1001.9463,-878.1526 1033.6289,-886.7737"/>
<polygon fill="#757575" stroke="#757575" points="1032.9767,-890.2238 1043.5459,-889.4871 1034.8242,-883.472 1032.9767,-890.2238"/>
</g>
<!-- lib/utils/CosmosClientWrapper.test&#45;data.js&#45;&gt;lib/utils/cosmosDb.js -->
<g id="edge25" class="edge">
<title>lib/utils/CosmosClientWrapper.test&#45;data.js&#45;&gt;lib/utils/cosmosDb.js</title>
<path fill="none" stroke="#757575" d="M887.2335,-844.547C974.0564,-853.9918 1099.9808,-867.7541 1210,-880.0251 1242.9013,-883.6947 1279.0867,-887.7893 1310.6626,-891.3814"/>
<polygon fill="#757575" stroke="#757575" points="1310.4109,-894.8752 1320.7426,-892.5288 1311.2026,-887.9202 1310.4109,-894.8752"/>
</g>
<!-- test/lib/CosmosDb.js -->
<g id="node33" class="node">
<title>test/lib/CosmosDb.js</title>
<path fill="none" stroke="#cfffac" d="M1740.8333,-485.5251C1740.8333,-485.5251 1607.1667,-485.5251 1607.1667,-485.5251 1603.3333,-485.5251 1599.5,-481.6918 1599.5,-477.8584 1599.5,-477.8584 1599.5,-470.1918 1599.5,-470.1918 1599.5,-466.3584 1603.3333,-462.5251 1607.1667,-462.5251 1607.1667,-462.5251 1740.8333,-462.5251 1740.8333,-462.5251 1744.6667,-462.5251 1748.5,-466.3584 1748.5,-470.1918 1748.5,-470.1918 1748.5,-477.8584 1748.5,-477.8584 1748.5,-481.6918 1744.6667,-485.5251 1740.8333,-485.5251"/>
<text text-anchor="middle" x="1674" y="-470.3251" font-family="Arial" font-size="14.00" fill="#cfffac">test/lib/CosmosDb.js</text>
</g>
<!-- test/lib/index.js&#45;&gt;test/lib/CosmosDb.js -->
<g id="edge48" class="edge">
<title>test/lib/index.js&#45;&gt;test/lib/CosmosDb.js</title>
<path fill="none" stroke="#757575" d="M1097.0353,-482.3613C1122.6281,-459.4425 1183.7477,-409.1868 1246,-391.0251 1373.144,-353.9316 1416.8651,-353.9004 1544,-391.0251 1586.9966,-403.5805 1629.3086,-435.1661 1653.4726,-455.5514"/>
<polygon fill="#757575" stroke="#757575" points="1651.3756,-458.3648 1661.2342,-462.2453 1655.9473,-453.0638 1651.3756,-458.3648"/>
</g>
<!-- test/lib/Environment.js -->
<g id="node34" class="node">
<title>test/lib/Environment.js</title>
<path fill="none" stroke="#cfffac" d="M1466.3333,-628.5251C1466.3333,-628.5251 1323.6667,-628.5251 1323.6667,-628.5251 1319.8333,-628.5251 1316,-624.6918 1316,-620.8584 1316,-620.8584 1316,-613.1918 1316,-613.1918 1316,-609.3584 1319.8333,-605.5251 1323.6667,-605.5251 1323.6667,-605.5251 1466.3333,-605.5251 1466.3333,-605.5251 1470.1667,-605.5251 1474,-609.3584 1474,-613.1918 1474,-613.1918 1474,-620.8584 1474,-620.8584 1474,-624.6918 1470.1667,-628.5251 1466.3333,-628.5251"/>
<text text-anchor="middle" x="1395" y="-613.3251" font-family="Arial" font-size="14.00" fill="#cfffac">test/lib/Environment.js</text>
</g>
<!-- test/lib/index.js&#45;&gt;test/lib/Environment.js -->
<g id="edge49" class="edge">
<title>test/lib/index.js&#45;&gt;test/lib/Environment.js</title>
<path fill="none" stroke="#757575" d="M1098.5266,-505.8503C1125.269,-527.6839 1186.2254,-574.0927 1246,-596.0251 1264.7774,-602.9149 1285.6508,-607.5619 1305.6868,-610.6914"/>
<polygon fill="#757575" stroke="#757575" points="1305.3575,-614.1801 1315.7562,-612.1511 1306.3618,-607.2526 1305.3575,-614.1801"/>
</g>
<!-- test/lib/Mongoose.js -->
<g id="node35" class="node">
<title>test/lib/Mongoose.js</title>
<path fill="none" stroke="#c6c5fe" d="M1459.8333,-587.5251C1459.8333,-587.5251 1330.1667,-587.5251 1330.1667,-587.5251 1326.3333,-587.5251 1322.5,-583.6918 1322.5,-579.8584 1322.5,-579.8584 1322.5,-572.1918 1322.5,-572.1918 1322.5,-568.3584 1326.3333,-564.5251 1330.1667,-564.5251 1330.1667,-564.5251 1459.8333,-564.5251 1459.8333,-564.5251 1463.6667,-564.5251 1467.5,-568.3584 1467.5,-572.1918 1467.5,-572.1918 1467.5,-579.8584 1467.5,-579.8584 1467.5,-583.6918 1463.6667,-587.5251 1459.8333,-587.5251"/>
<text text-anchor="middle" x="1395" y="-572.3251" font-family="Arial" font-size="14.00" fill="#c6c5fe">test/lib/Mongoose.js</text>
</g>
<!-- test/lib/index.js&#45;&gt;test/lib/Mongoose.js -->
<g id="edge50" class="edge">
<title>test/lib/index.js&#45;&gt;test/lib/Mongoose.js</title>
<path fill="none" stroke="#757575" d="M1109.6691,-505.5309C1140.9704,-519.3687 1196.3493,-542.3165 1246,-555.0251 1267.1923,-560.4495 1290.463,-564.5721 1312.1848,-567.6643"/>
<polygon fill="#757575" stroke="#757575" points="1311.9922,-571.1704 1322.3741,-569.0569 1312.9402,-564.2349 1311.9922,-571.1704"/>
</g>
<!-- test/lib/collectAllInternalMethods.js -->
<g id="node36" class="node">
<title>test/lib/collectAllInternalMethods.js</title>
<path fill="none" stroke="#cfffac" d="M1505.8333,-546.5251C1505.8333,-546.5251 1284.1667,-546.5251 1284.1667,-546.5251 1280.3333,-546.5251 1276.5,-542.6918 1276.5,-538.8584 1276.5,-538.8584 1276.5,-531.1918 1276.5,-531.1918 1276.5,-527.3584 1280.3333,-523.5251 1284.1667,-523.5251 1284.1667,-523.5251 1505.8333,-523.5251 1505.8333,-523.5251 1509.6667,-523.5251 1513.5,-527.3584 1513.5,-531.1918 1513.5,-531.1918 1513.5,-538.8584 1513.5,-538.8584 1513.5,-542.6918 1509.6667,-546.5251 1505.8333,-546.5251"/>
<text text-anchor="middle" x="1395" y="-531.3251" font-family="Arial" font-size="14.00" fill="#cfffac">test/lib/collectAllInternalMethods.js</text>
</g>
<!-- test/lib/index.js&#45;&gt;test/lib/collectAllInternalMethods.js -->
<g id="edge51" class="edge">
<title>test/lib/index.js&#45;&gt;test/lib/collectAllInternalMethods.js</title>
<path fill="none" stroke="#757575" d="M1140.0112,-501.3551C1183.6745,-507.1206 1245.5907,-515.2963 1297.4762,-522.1476"/>
<polygon fill="#757575" stroke="#757575" points="1297.3391,-525.6598 1307.7112,-523.499 1298.2555,-518.72 1297.3391,-525.6598"/>
</g>
<!-- test/lib/getObjectKeysWithDifferentValues.js -->
<g id="node37" class="node">
<title>test/lib/getObjectKeysWithDifferentValues.js</title>
<path fill="none" stroke="#cfffac" d="M1536.3333,-505.5251C1536.3333,-505.5251 1253.6667,-505.5251 1253.6667,-505.5251 1249.8333,-505.5251 1246,-501.6918 1246,-497.8584 1246,-497.8584 1246,-490.1918 1246,-490.1918 1246,-486.3584 1249.8333,-482.5251 1253.6667,-482.5251 1253.6667,-482.5251 1536.3333,-482.5251 1536.3333,-482.5251 1540.1667,-482.5251 1544,-486.3584 1544,-490.1918 1544,-490.1918 1544,-497.8584 1544,-497.8584 1544,-501.6918 1540.1667,-505.5251 1536.3333,-505.5251"/>
<text text-anchor="middle" x="1395" y="-490.3251" font-family="Arial" font-size="14.00" fill="#cfffac">test/lib/getObjectKeysWithDifferentValues.js</text>
</g>
<!-- test/lib/index.js&#45;&gt;test/lib/getObjectKeysWithDifferentValues.js -->
<g id="edge52" class="edge">
<title>test/lib/index.js&#45;&gt;test/lib/getObjectKeysWithDifferentValues.js</title>
<path fill="none" stroke="#757575" d="M1140.0112,-494.0251C1167.0803,-494.0251 1201.1648,-494.0251 1235.5254,-494.0251"/>
<polygon fill="#757575" stroke="#757575" points="1235.7024,-497.5252 1245.7024,-494.0251 1235.7024,-490.5252 1235.7024,-497.5252"/>
</g>
<!-- test/lib/removeCodeCoveragePollution.js -->
<g id="node38" class="node">
<title>test/lib/removeCodeCoveragePollution.js</title>
<path fill="none" stroke="#cfffac" d="M1526.8333,-464.5251C1526.8333,-464.5251 1263.1667,-464.5251 1263.1667,-464.5251 1259.3333,-464.5251 1255.5,-460.6918 1255.5,-456.8584 1255.5,-456.8584 1255.5,-449.1918 1255.5,-449.1918 1255.5,-445.3584 1259.3333,-441.5251 1263.1667,-441.5251 1263.1667,-441.5251 1526.8333,-441.5251 1526.8333,-441.5251 1530.6667,-441.5251 1534.5,-445.3584 1534.5,-449.1918 1534.5,-449.1918 1534.5,-456.8584 1534.5,-456.8584 1534.5,-460.6918 1530.6667,-464.5251 1526.8333,-464.5251"/>
<text text-anchor="middle" x="1395" y="-449.3251" font-family="Arial" font-size="14.00" fill="#cfffac">test/lib/removeCodeCoveragePollution.js</text>
</g>
<!-- test/lib/index.js&#45;&gt;test/lib/removeCodeCoveragePollution.js -->
<g id="edge53" class="edge">
<title>test/lib/index.js&#45;&gt;test/lib/removeCodeCoveragePollution.js</title>
<path fill="none" stroke="#757575" d="M1140.0112,-486.6951C1183.6745,-480.9296 1245.5907,-472.7539 1297.4762,-465.9026"/>
<polygon fill="#757575" stroke="#757575" points="1298.2555,-469.3302 1307.7112,-464.5512 1297.3391,-462.3904 1298.2555,-469.3302"/>
</g>
<!-- test/lib/testBasicFunctionExport.js -->
<g id="node39" class="node">
<title>test/lib/testBasicFunctionExport.js</title>
<path fill="none" stroke="#cfffac" d="M1503.8333,-423.5251C1503.8333,-423.5251 1286.1667,-423.5251 1286.1667,-423.5251 1282.3333,-423.5251 1278.5,-419.6918 1278.5,-415.8584 1278.5,-415.8584 1278.5,-408.1918 1278.5,-408.1918 1278.5,-404.3584 1282.3333,-400.5251 1286.1667,-400.5251 1286.1667,-400.5251 1503.8333,-400.5251 1503.8333,-400.5251 1507.6667,-400.5251 1511.5,-404.3584 1511.5,-408.1918 1511.5,-408.1918 1511.5,-415.8584 1511.5,-415.8584 1511.5,-419.6918 1507.6667,-423.5251 1503.8333,-423.5251"/>
<text text-anchor="middle" x="1395" y="-408.3251" font-family="Arial" font-size="14.00" fill="#cfffac">test/lib/testBasicFunctionExport.js</text>
</g>
<!-- test/lib/index.js&#45;&gt;test/lib/testBasicFunctionExport.js -->
<g id="edge54" class="edge">
<title>test/lib/index.js&#45;&gt;test/lib/testBasicFunctionExport.js</title>
<path fill="none" stroke="#757575" d="M1109.0867,-482.5077C1140.25,-468.3996 1195.9484,-444.8049 1246,-432.0251 1255.8695,-429.5051 1266.1927,-427.2886 1276.602,-425.3417"/>
<polygon fill="#757575" stroke="#757575" points="1277.3675,-428.7604 1286.5963,-423.5565 1276.1366,-421.8695 1277.3675,-428.7604"/>
</g>
<!-- lib/createModel.draft.js -->
<g id="node18" class="node">
<title>lib/createModel.draft.js</title>
<path fill="none" stroke="#c6c5fe" d="M528.8333,-902.5251C528.8333,-902.5251 383.1667,-902.5251 383.1667,-902.5251 379.3333,-902.5251 375.5,-898.6918 375.5,-894.8584 375.5,-894.8584 375.5,-887.1918 375.5,-887.1918 375.5,-883.3584 379.3333,-879.5251 383.1667,-879.5251 383.1667,-879.5251 528.8333,-879.5251 528.8333,-879.5251 532.6667,-879.5251 536.5,-883.3584 536.5,-887.1918 536.5,-887.1918 536.5,-894.8584 536.5,-894.8584 536.5,-898.6918 532.6667,-902.5251 528.8333,-902.5251"/>
<text text-anchor="middle" x="456" y="-887.3251" font-family="Arial" font-size="14.00" fill="#c6c5fe">lib/createModel.draft.js</text>
</g>
<!-- lib/createModel.draft.js&#45;&gt;lib/client.js -->
<g id="edge15" class="edge">
<title>lib/createModel.draft.js&#45;&gt;lib/client.js</title>
<path fill="none" stroke="#757575" d="M535.7818,-879.4953C558.6278,-873.8452 582.7948,-865.4576 603,-853.0251 623.6531,-840.3169 617.662,-823.5463 639,-812.0251 666.5102,-797.1714 701.2,-792.0778 729.4059,-790.743"/>
<polygon fill="#757575" stroke="#757575" points="729.6,-794.2386 739.4789,-790.4103 729.3688,-787.2425 729.6,-794.2386"/>
</g>
<!-- lib/createModel.draft.js&#45;&gt;lib/utils/CosmosClientWrapper.js -->
<g id="edge16" class="edge">
<title>lib/createModel.draft.js&#45;&gt;lib/utils/CosmosClientWrapper.js</title>
<path fill="none" stroke="#757575" d="M536.5583,-892.3069C644.3543,-894.022 836.4905,-897.079 962.1997,-899.0792"/>
<polygon fill="#757575" stroke="#757575" points="962.2092,-902.5797 972.2637,-899.2393 962.3207,-895.5806 962.2092,-902.5797"/>
</g>
<!-- lib/index.js -->
<g id="node19" class="node">
<title>lib/index.js</title>
<path fill="none" stroke="#c6c5fe" d="M490.3333,-803.5251C490.3333,-803.5251 421.6667,-803.5251 421.6667,-803.5251 417.8333,-803.5251 414,-799.6918 414,-795.8584 414,-795.8584 414,-788.1918 414,-788.1918 414,-784.3584 417.8333,-780.5251 421.6667,-780.5251 421.6667,-780.5251 490.3333,-780.5251 490.3333,-780.5251 494.1667,-780.5251 498,-784.3584 498,-788.1918 498,-788.1918 498,-795.8584 498,-795.8584 498,-799.6918 494.1667,-803.5251 490.3333,-803.5251"/>
<text text-anchor="middle" x="456" y="-788.3251" font-family="Arial" font-size="14.00" fill="#c6c5fe">lib/index.js</text>
</g>
<!-- lib/index.js&#45;&gt;lib/client.js -->
<g id="edge17" class="edge">
<title>lib/index.js&#45;&gt;lib/client.js</title>
<path fill="none" stroke="#757575" d="M498.1549,-792.0251C557.3758,-792.0251 665.1113,-792.0251 729.159,-792.0251"/>
<polygon fill="#757575" stroke="#757575" points="729.4335,-795.5252 739.4335,-792.0251 729.4334,-788.5252 729.4335,-795.5252"/>
</g>
<!-- lib/index.test.js -->
<g id="node20" class="node">
<title>lib/index.test.js</title>
<path fill="none" stroke="#c6c5fe" d="M184.3333,-585.5251C184.3333,-585.5251 88.6667,-585.5251 88.6667,-585.5251 84.8333,-585.5251 81,-581.6918 81,-577.8584 81,-577.8584 81,-570.1918 81,-570.1918 81,-566.3584 84.8333,-562.5251 88.6667,-562.5251 88.6667,-562.5251 184.3333,-562.5251 184.3333,-562.5251 188.1667,-562.5251 192,-566.3584 192,-570.1918 192,-570.1918 192,-577.8584 192,-577.8584 192,-581.6918 188.1667,-585.5251 184.3333,-585.5251"/>
<text text-anchor="middle" x="136.5" y="-570.3251" font-family="Arial" font-size="14.00" fill="#c6c5fe">lib/index.test.js</text>
</g>
<!-- lib/index.test.js&#45;&gt;test/lib/index.js -->
<g id="edge19" class="edge">
<title>lib/index.test.js&#45;&gt;test/lib/index.js</title>
<path fill="none" stroke="#757575" d="M192.0649,-577.9283C219.5657,-576.8616 251.4093,-570.6825 273,-551.0251 318.9166,-509.22 262.1278,-456.7559 309,-416.0251 420.518,-319.1185 491.5284,-384.9302 639,-376.0251 764.9927,-368.417 803.008,-336.8593 923,-376.0251 983.0464,-395.6245 1039.2982,-446.946 1066.8323,-475.0148"/>
<polygon fill="#757575" stroke="#757575" points="1064.3592,-477.4925 1073.8161,-482.2693 1069.4022,-472.6377 1064.3592,-477.4925"/>
</g>
<!-- lib/index.test.js&#45;&gt;lib/index.js -->
<g id="edge18" class="edge">
<title>lib/index.test.js&#45;&gt;lib/index.js</title>
<path fill="none" stroke="#757575" d="M192.1002,-568.2194C219.7806,-568.4574 251.7762,-573.9411 273,-594.0251 331.3086,-649.2025 250.5925,-715.9524 309,-771.0251 333.7721,-794.3828 372.1088,-799.2293 403.421,-798.4477"/>
<polygon fill="#757575" stroke="#757575" points="403.9075,-801.9295 413.7408,-797.9854 403.5942,-794.9365 403.9075,-801.9295"/>
</g>
<!-- lib/utils/adaptMongooseModel.js&#45;&gt;lib/utils/useMongoNative.js -->
<g id="edge30" class="edge">
<title>lib/utils/adaptMongooseModel.js&#45;&gt;lib/utils/useMongoNative.js</title>
<path fill="none" stroke="#757575" d="M1485.8178,-848.5059C1505.0769,-845.7053 1525.2495,-842.5032 1544,-839.0251 1568.5996,-834.4621 1595.5842,-828.4087 1618.5617,-822.9351"/>
<polygon fill="#757575" stroke="#757575" points="1619.5743,-826.2914 1628.4785,-820.5499 1617.9372,-819.4855 1619.5743,-826.2914"/>
</g>
<!-- lib/utils/adaptMongooseModel.js&#45;&gt;lib/utils/strategy.js -->
<g id="edge29" class="edge">
<title>lib/utils/adaptMongooseModel.js&#45;&gt;lib/utils/strategy.js</title>
<path fill="none" stroke="#757575" d="M1507.0472,-870.6023C1519.6613,-873.1052 1532.2074,-876.1996 1544,-880.0251 1582.6539,-892.5643 1623.2872,-916.4174 1648.6251,-932.7633"/>
<polygon fill="#757575" stroke="#757575" points="1646.9546,-935.8533 1657.2361,-938.4109 1650.7936,-929.9999 1646.9546,-935.8533"/>
</g>
<!-- lib/utils/adaptMongooseModel.js&#45;&gt;lib/utils/validity.js -->
<g id="edge31" class="edge">
<title>lib/utils/adaptMongooseModel.js&#45;&gt;lib/utils/validity.js</title>
<path fill="none" stroke="#757575" d="M1507.274,-864.0493C1539.5109,-865.2047 1573.7661,-866.4325 1602.7872,-867.4727"/>
<polygon fill="#757575" stroke="#757575" points="1602.7031,-870.9718 1612.8221,-867.8323 1602.954,-863.9763 1602.7031,-870.9718"/>
</g>
<!-- lib/utils/cosmosDb.js&#45;&gt;lib/utils/validity.js -->
<g id="edge40" class="edge">
<title>lib/utils/cosmosDb.js&#45;&gt;lib/utils/validity.js</title>
<path fill="none" stroke="#757575" d="M1469.0344,-892.7991C1510.4074,-888.2021 1561.716,-882.5011 1602.6477,-877.9531"/>
<polygon fill="#757575" stroke="#757575" points="1603.2658,-881.4061 1612.8181,-876.8231 1602.4927,-874.4489 1603.2658,-881.4061"/>
</g>
<!-- lib/utils/CosmosClientWrapper.test.js -->
<g id="node25" class="node">
<title>lib/utils/CosmosClientWrapper.test.js</title>
<path fill="none" stroke="#c6c5fe" d="M573.8333,-960.5251C573.8333,-960.5251 338.1667,-960.5251 338.1667,-960.5251 334.3333,-960.5251 330.5,-956.6918 330.5,-952.8584 330.5,-952.8584 330.5,-945.1918 330.5,-945.1918 330.5,-941.3584 334.3333,-937.5251 338.1667,-937.5251 338.1667,-937.5251 573.8333,-937.5251 573.8333,-937.5251 577.6667,-937.5251 581.5,-941.3584 581.5,-945.1918 581.5,-945.1918 581.5,-952.8584 581.5,-952.8584 581.5,-956.6918 577.6667,-960.5251 573.8333,-960.5251"/>
<text text-anchor="middle" x="456" y="-945.3251" font-family="Arial" font-size="14.00" fill="#c6c5fe">lib/utils/CosmosClientWrapper.test.js</text>
</g>
<!-- lib/utils/CosmosClientWrapper.test.js&#45;&gt;lib/utils/CosmosClientWrapper.js -->
<g id="edge26" class="edge">
<title>lib/utils/CosmosClientWrapper.test.js&#45;&gt;lib/utils/CosmosClientWrapper.js</title>
<path fill="none" stroke="#757575" d="M581.6758,-939.4269C692.4039,-930.9704 852.6995,-918.7282 962.3569,-910.3535"/>
<polygon fill="#757575" stroke="#757575" points="962.7714,-913.8321 972.4758,-909.5806 962.2383,-906.8524 962.7714,-913.8321"/>
</g>
<!-- lib/utils/CosmosClientWrapper.test.js&#45;&gt;lib/utils/CosmosClientWrapper.test&#45;data.js -->
<g id="edge27" class="edge">
<title>lib/utils/CosmosClientWrapper.test.js&#45;&gt;lib/utils/CosmosClientWrapper.test&#45;data.js</title>
<path fill="none" stroke="#757575" d="M511.1047,-937.5115C538.9801,-931.0958 573.1458,-922.3224 603,-912.0251 655.5872,-893.8868 714.1041,-866.4315 749.2068,-849.1275"/>
<polygon fill="#757575" stroke="#757575" points="751.0619,-852.1141 758.4623,-844.5322 747.949,-845.8444 751.0619,-852.1141"/>
</g>
<!-- lib/utils/CosmosClientWrapper.test.js&#45;&gt;lib/utils/cosmosDb.js -->
<g id="edge28" class="edge">
<title>lib/utils/CosmosClientWrapper.test.js&#45;&gt;lib/utils/cosmosDb.js</title>
<path fill="none" stroke="#757575" d="M581.6312,-948.2524C731.4764,-946.4698 989.4198,-940.6776 1210,-922.0251 1242.9875,-919.2356 1279.1902,-915.317 1310.7558,-911.6192"/>
<polygon fill="#757575" stroke="#757575" points="1311.3116,-915.078 1320.8315,-910.4281 1310.4897,-908.1264 1311.3116,-915.078"/>
</g>
<!-- lib/utils/__mocks__/cosmosDb.js -->
<g id="node26" class="node">
<title>lib/utils/__mocks__/cosmosDb.js</title>
<path fill="none" stroke="#cfffac" d="M242.3333,-626.5251C242.3333,-626.5251 30.6667,-626.5251 30.6667,-626.5251 26.8333,-626.5251 23,-622.6918 23,-618.8584 23,-618.8584 23,-611.1918 23,-611.1918 23,-607.3584 26.8333,-603.5251 30.6667,-603.5251 30.6667,-603.5251 242.3333,-603.5251 242.3333,-603.5251 246.1667,-603.5251 250,-607.3584 250,-611.1918 250,-611.1918 250,-618.8584 250,-618.8584 250,-622.6918 246.1667,-626.5251 242.3333,-626.5251"/>
<text text-anchor="middle" x="136.5" y="-611.3251" font-family="Arial" font-size="14.00" fill="#cfffac">lib/utils/__mocks__/cosmosDb.js</text>
</g>
<!-- lib/utils/adaptMongooseModel.test&#45;data.js -->
<g id="node27" class="node">
<title>lib/utils/adaptMongooseModel.test&#45;data.js</title>
<path fill="none" stroke="#c6c5fe" d="M915.3333,-567.5251C915.3333,-567.5251 646.6667,-567.5251 646.6667,-567.5251 642.8333,-567.5251 639,-563.6918 639,-559.8584 639,-559.8584 639,-552.1918 639,-552.1918 639,-548.3584 642.8333,-544.5251 646.6667,-544.5251 646.6667,-544.5251 915.3333,-544.5251 915.3333,-544.5251 919.1667,-544.5251 923,-548.3584 923,-552.1918 923,-552.1918 923,-559.8584 923,-559.8584 923,-563.6918 919.1667,-567.5251 915.3333,-567.5251"/>
<text text-anchor="middle" x="781" y="-552.3251" font-family="Arial" font-size="14.00" fill="#c6c5fe">lib/utils/adaptMongooseModel.test&#45;data.js</text>
</g>
<!-- lib/utils/adaptMongooseModel.test&#45;data.js&#45;&gt;test/lib/index.js -->
<g id="edge32" class="edge">
<title>lib/utils/adaptMongooseModel.test&#45;data.js&#45;&gt;test/lib/index.js</title>
<path fill="none" stroke="#757575" d="M868.7322,-544.4786C886.7398,-541.7084 905.5287,-538.5253 923,-535.0251 960.4953,-527.5134 1002.3307,-516.8269 1034.0258,-508.2474"/>
<polygon fill="#757575" stroke="#757575" points="1035.2154,-511.5508 1043.9418,-505.5425 1033.3732,-504.7976 1035.2154,-511.5508"/>
</g>
<!-- lib/utils/adaptMongooseModel.test.js -->
<g id="node28" class="node">
<title>lib/utils/adaptMongooseModel.test.js</title>
<path fill="none" stroke="#c6c5fe" d="M573.8333,-762.5251C573.8333,-762.5251 338.1667,-762.5251 338.1667,-762.5251 334.3333,-762.5251 330.5,-758.6918 330.5,-754.8584 330.5,-754.8584 330.5,-747.1918 330.5,-747.1918 330.5,-743.3584 334.3333,-739.5251 338.1667,-739.5251 338.1667,-739.5251 573.8333,-739.5251 573.8333,-739.5251 577.6667,-739.5251 581.5,-743.3584 581.5,-747.1918 581.5,-747.1918 581.5,-754.8584 581.5,-754.8584 581.5,-758.6918 577.6667,-762.5251 573.8333,-762.5251"/>
<text text-anchor="middle" x="456" y="-747.3251" font-family="Arial" font-size="14.00" fill="#c6c5fe">lib/utils/adaptMongooseModel.test.js</text>
</g>
<!-- lib/utils/adaptMongooseModel.test.js&#45;&gt;lib/client.js -->
<g id="edge33" class="edge">
<title>lib/utils/adaptMongooseModel.test.js&#45;&gt;lib/client.js</title>
<path fill="none" stroke="#757575" d="M547.3955,-762.555C606.1144,-769.9626 680.2626,-779.3167 729.0802,-785.4752"/>
<polygon fill="#757575" stroke="#757575" points="728.7388,-788.9598 739.0982,-786.739 729.615,-782.0148 728.7388,-788.9598"/>
</g>
<!-- lib/utils/adaptMongooseModel.test.js&#45;&gt;lib/utils/CosmosClientWrapper.test&#45;data.js -->
<g id="edge34" class="edge">
<title>lib/utils/adaptMongooseModel.test.js&#45;&gt;lib/utils/CosmosClientWrapper.test&#45;data.js</title>
<path fill="none" stroke="#757575" d="M581.5002,-761.7197C588.9615,-764.297 596.1924,-767.3701 603,-771.0251 624.3651,-782.4961 617.7018,-800.4304 639,-812.0251 642.8167,-814.1029 646.7722,-815.995 650.83,-817.7172"/>
<polygon fill="#757575" stroke="#757575" points="649.877,-821.1009 660.4666,-821.4345 652.3964,-814.57 649.877,-821.1009"/>
</g>
<!-- lib/utils/adaptMongooseModel.test.js&#45;&gt;test/lib/index.js -->
<g id="edge37" class="edge">
<title>lib/utils/adaptMongooseModel.test.js&#45;&gt;test/lib/index.js</title>
<path fill="none" stroke="#757575" d="M468.0531,-739.2009C495.6523,-712.8998 566.6494,-649.5535 639,-620.0251 757.2582,-571.7604 801.4292,-615.2042 923,-576.0251 973.1225,-559.8719 1026.7803,-529.7613 1057.8983,-510.8671"/>
<polygon fill="#757575" stroke="#757575" points="1059.7426,-513.8419 1066.4296,-505.6239 1056.0773,-507.8781 1059.7426,-513.8419"/>
</g>
<!-- lib/utils/adaptMongooseModel.test.js&#45;&gt;lib/utils/adaptMongooseModel.js -->
<g id="edge35" class="edge">
<title>lib/utils/adaptMongooseModel.test.js&#45;&gt;lib/utils/adaptMongooseModel.js</title>
<path fill="none" stroke="#757575" d="M581.8376,-750.8148C676.1005,-752.0129 808.0634,-756.5654 923,-771.0251 1068.555,-789.3368 1101.5067,-813.6626 1246,-839.0251 1262.0875,-841.8489 1279.2046,-844.546 1295.8887,-847.0099"/>
<polygon fill="#757575" stroke="#757575" points="1295.8079,-850.5349 1306.2079,-848.5129 1296.8168,-843.608 1295.8079,-850.5349"/>
</g>
<!-- lib/utils/adaptMongooseModel.test.js&#45;&gt;lib/utils/adaptMongooseModel.test&#45;data.js -->
<g id="edge36" class="edge">
<title>lib/utils/adaptMongooseModel.test.js&#45;&gt;lib/utils/adaptMongooseModel.test&#45;data.js</title>
<path fill="none" stroke="#757575" d="M464.7453,-739.2184C488.6946,-707.8385 558.92,-622.0373 639,-582.0251 648.3445,-577.3561 658.4103,-573.5182 668.7148,-570.3646"/>
<polygon fill="#757575" stroke="#757575" points="669.9865,-573.6421 678.6518,-567.5459 668.0762,-566.9078 669.9865,-573.6421"/>
</g>
<!-- lib/utils/adaptMongooseSchema.js -->
<g id="node29" class="node">
<title>lib/utils/adaptMongooseSchema.js</title>
<path fill="none" stroke="#c6c5fe" d="M1506.3333,-830.5251C1506.3333,-830.5251 1283.6667,-830.5251 1283.6667,-830.5251 1279.8333,-830.5251 1276,-826.6918 1276,-822.8584 1276,-822.8584 1276,-815.1918 1276,-815.1918 1276,-811.3584 1279.8333,-807.5251 1283.6667,-807.5251 1283.6667,-807.5251 1506.3333,-807.5251 1506.3333,-807.5251 1510.1667,-807.5251 1514,-811.3584 1514,-815.1918 1514,-815.1918 1514,-822.8584 1514,-822.8584 1514,-826.6918 1510.1667,-830.5251 1506.3333,-830.5251"/>
<text text-anchor="middle" x="1395" y="-815.3251" font-family="Arial" font-size="14.00" fill="#c6c5fe">lib/utils/adaptMongooseSchema.js</text>
</g>
<!-- lib/utils/adaptMongooseSchema.js&#45;&gt;lib/utils/useMongoNative.js -->
<g id="edge38" class="edge">
<title>lib/utils/adaptMongooseSchema.js&#45;&gt;lib/utils/useMongoNative.js</title>
<path fill="none" stroke="#757575" d="M1514.1304,-814.7552C1532.5398,-814.0954 1551.4328,-813.4182 1569.4898,-812.771"/>
<polygon fill="#757575" stroke="#757575" points="1569.8514,-816.2604 1579.7196,-812.4043 1569.6006,-809.2649 1569.8514,-816.2604"/>
</g>
<!-- lib/utils/adaptMongooseSchema.js&#45;&gt;lib/utils/validity.js -->
<g id="edge39" class="edge">
<title>lib/utils/adaptMongooseSchema.js&#45;&gt;lib/utils/validity.js</title>
<path fill="none" stroke="#757575" d="M1491.8074,-830.5778C1509.2313,-833.0667 1527.1923,-835.9013 1544,-839.0251 1569.4492,-843.755 1597.4061,-850.2497 1620.852,-856.0728"/>
<polygon fill="#757575" stroke="#757575" points="1620.0523,-859.4806 1630.6035,-858.5202 1621.7563,-852.6912 1620.0523,-859.4806"/>
</g>
<!-- lib/utils/cosmosDb.test&#45;data.js -->
<g id="node30" class="node">
<title>lib/utils/cosmosDb.test&#45;data.js</title>
<path fill="none" stroke="#c6c5fe" d="M877.3333,-408.5251C877.3333,-408.5251 684.6667,-408.5251 684.6667,-408.5251 680.8333,-408.5251 677,-404.6918 677,-400.8584 677,-400.8584 677,-393.1918 677,-393.1918 677,-389.3584 680.8333,-385.5251 684.6667,-385.5251 684.6667,-385.5251 877.3333,-385.5251 877.3333,-385.5251 881.1667,-385.5251 885,-389.3584 885,-393.1918 885,-393.1918 885,-400.8584 885,-400.8584 885,-404.6918 881.1667,-408.5251 877.3333,-408.5251"/>
<text text-anchor="middle" x="781" y="-393.3251" font-family="Arial" font-size="14.00" fill="#c6c5fe">lib/utils/cosmosDb.test&#45;data.js</text>
</g>
<!-- lib/utils/cosmosDb.test&#45;data.js&#45;&gt;test/lib/index.js -->
<g id="edge41" class="edge">
<title>lib/utils/cosmosDb.test&#45;data.js&#45;&gt;test/lib/index.js</title>
<path fill="none" stroke="#757575" d="M862.5123,-408.587C882.5129,-412.3417 903.7117,-417.1083 923,-423.0251 969.9692,-437.4332 1021.4845,-461.6608 1053.4083,-477.7456"/>
<polygon fill="#757575" stroke="#757575" points="1052.1604,-481.0378 1062.6599,-482.4562 1055.3366,-474.7999 1052.1604,-481.0378"/>
</g>
<!-- lib/utils/cosmosDb.test.js -->
<g id="node31" class="node">
<title>lib/utils/cosmosDb.test.js</title>
<path fill="none" stroke="#c6c5fe" d="M535.8333,-448.5251C535.8333,-448.5251 376.1667,-448.5251 376.1667,-448.5251 372.3333,-448.5251 368.5,-444.6918 368.5,-440.8584 368.5,-440.8584 368.5,-433.1918 368.5,-433.1918 368.5,-429.3584 372.3333,-425.5251 376.1667,-425.5251 376.1667,-425.5251 535.8333,-425.5251 535.8333,-425.5251 539.6667,-425.5251 543.5,-429.3584 543.5,-433.1918 543.5,-433.1918 543.5,-440.8584 543.5,-440.8584 543.5,-444.6918 539.6667,-448.5251 535.8333,-448.5251"/>
<text text-anchor="middle" x="456" y="-433.3251" font-family="Arial" font-size="14.00" fill="#c6c5fe">lib/utils/cosmosDb.test.js</text>
</g>
<!-- lib/utils/cosmosDb.test.js&#45;&gt;test/lib/index.js -->
<g id="edge44" class="edge">
<title>lib/utils/cosmosDb.test.js&#45;&gt;test/lib/index.js</title>
<path fill="none" stroke="#757575" d="M543.7209,-444.9807C671.1869,-456.5409 904.7774,-477.7257 1018.6265,-488.0509"/>
<polygon fill="#757575" stroke="#757575" points="1018.326,-491.5379 1028.6013,-488.9555 1018.9584,-484.5665 1018.326,-491.5379"/>
</g>
<!-- lib/utils/cosmosDb.test.js&#45;&gt;lib/utils/cosmosDb.js -->
<g id="edge42" class="edge">
<title>lib/utils/cosmosDb.test.js&#45;&gt;lib/utils/cosmosDb.js</title>
<path fill="none" stroke="#757575" d="M525.4542,-448.607C553.4683,-456.7527 583.6719,-470.5823 603,-494.0251 660.455,-563.7113 577.9625,-627.4544 639,-694.0251 727.382,-790.4193 796.8438,-736.5601 923,-771.0251 1050.6229,-805.8908 1092.7533,-788.7355 1210,-850.0251 1228.4576,-859.6736 1226.9606,-871.5824 1246,-880.0251 1265.9976,-888.8927 1288.8551,-894.206 1310.5619,-897.3414"/>
<polygon fill="#757575" stroke="#757575" points="1310.4039,-900.8503 1320.7726,-898.6727 1311.309,-893.9091 1310.4039,-900.8503"/>
</g>
<!-- lib/utils/cosmosDb.test.js&#45;&gt;lib/utils/cosmosDb.test&#45;data.js -->
<g id="edge43" class="edge">
<title>lib/utils/cosmosDb.test.js&#45;&gt;lib/utils/cosmosDb.test&#45;data.js</title>
<path fill="none" stroke="#757575" d="M543.5216,-426.2532C584.7723,-421.1762 634.2791,-415.0831 677.3907,-409.777"/>
<polygon fill="#757575" stroke="#757575" points="677.8444,-413.2477 687.3419,-408.5522 676.9892,-406.3001 677.8444,-413.2477"/>
</g>
<!-- lib/utils/useMongoNative.test.js -->
<g id="node32" class="node">
<title>lib/utils/useMongoNative.test.js</title>
<path fill="none" stroke="#c6c5fe" d="M880.8333,-685.5251C880.8333,-685.5251 681.1667,-685.5251 681.1667,-685.5251 677.3333,-685.5251 673.5,-681.6918 673.5,-677.8584 673.5,-677.8584 673.5,-670.1918 673.5,-670.1918 673.5,-666.3584 677.3333,-662.5251 681.1667,-662.5251 681.1667,-662.5251 880.8333,-662.5251 880.8333,-662.5251 884.6667,-662.5251 888.5,-666.3584 888.5,-670.1918 888.5,-670.1918 888.5,-677.8584 888.5,-677.8584 888.5,-681.6918 884.6667,-685.5251 880.8333,-685.5251"/>
<text text-anchor="middle" x="781" y="-670.3251" font-family="Arial" font-size="14.00" fill="#c6c5fe">lib/utils/useMongoNative.test.js</text>
</g>
<!-- lib/utils/useMongoNative.test.js&#45;&gt;lib/utils/useMongoNative.js -->
<g id="edge45" class="edge">
<title>lib/utils/useMongoNative.test.js&#45;&gt;lib/utils/useMongoNative.js</title>
<path fill="none" stroke="#757575" d="M888.6242,-675.4827C975.7055,-677.8766 1101.2912,-684.0808 1210,-700.0251 1363.6117,-722.5552 1541.2944,-770.6095 1625.2528,-794.6725"/>
<polygon fill="#757575" stroke="#757575" points="1624.441,-798.0809 1635.019,-797.4848 1626.378,-791.3543 1624.441,-798.0809"/>
</g>
<!-- lib/utils/useMongoNative.test.js&#45;&gt;test/lib/index.js -->
<g id="edge46" class="edge">
<title>lib/utils/useMongoNative.test.js&#45;&gt;test/lib/index.js</title>
<path fill="none" stroke="#757575" d="M884.1882,-662.4869C897.6528,-658.8806 910.942,-654.1708 923,-648.0251 987.9561,-614.9183 1044.683,-547.2691 1070.1794,-513.7508"/>
<polygon fill="#757575" stroke="#757575" points="1073.0649,-515.7364 1076.25,-505.6317 1067.4587,-511.5447 1073.0649,-515.7364"/>
</g>
<!-- test/lib/Mongoose.js&#45;&gt;test/lib/CosmosDb.js -->
<g id="edge47" class="edge">
<title>test/lib/Mongoose.js&#45;&gt;test/lib/CosmosDb.js</title>
<path fill="none" stroke="#757575" d="M1467.7156,-571.8951C1492.4642,-568.8976 1519.9388,-563.7704 1544,-555.0251 1585.1359,-540.0738 1627.1147,-510.8646 1651.8478,-491.9122"/>
<polygon fill="#757575" stroke="#757575" points="1654.1123,-494.5848 1659.8474,-485.6764 1649.8087,-489.064 1654.1123,-494.5848"/>
</g>
<!-- test/throughputSimulation.integration&#45;test.js -->
<g id="node40" class="node">
<title>test/throughputSimulation.integration&#45;test.js</title>
<path fill="none" stroke="#c6c5fe" d="M595.3333,-526.5251C595.3333,-526.5251 316.6667,-526.5251 316.6667,-526.5251 312.8333,-526.5251 309,-522.6918 309,-518.8584 309,-518.8584 309,-511.1918 309,-511.1918 309,-507.3584 312.8333,-503.5251 316.6667,-503.5251 316.6667,-503.5251 595.3333,-503.5251 595.3333,-503.5251 599.1667,-503.5251 603,-507.3584 603,-511.1918 603,-511.1918 603,-518.8584 603,-518.8584 603,-522.6918 599.1667,-526.5251 595.3333,-526.5251"/>
<text text-anchor="middle" x="456" y="-511.3251" font-family="Arial" font-size="14.00" fill="#c6c5fe">test/throughputSimulation.integration&#45;test.js</text>
</g>
<!-- test/throughputSimulation.integration&#45;test.js&#45;&gt;lib/client.js -->
<g id="edge55" class="edge">
<title>test/throughputSimulation.integration&#45;test.js&#45;&gt;lib/client.js</title>
<path fill="none" stroke="#757575" d="M463.3399,-526.7441C485.722,-561.6645 556.6264,-666.409 639,-728.0251 667.9869,-749.7076 705.4873,-766.2141 734.6711,-777.029"/>
<polygon fill="#757575" stroke="#757575" points="733.6308,-780.3744 744.2251,-780.4777 736.0075,-773.7902 733.6308,-780.3744"/>
</g>
<!-- test/throughputSimulation.integration&#45;test.js&#45;&gt;test/lib/index.js -->
<g id="edge56" class="edge">
<title>test/throughputSimulation.integration&#45;test.js&#45;&gt;test/lib/index.js</title>
<path fill="none" stroke="#757575" d="M538.7269,-503.5033C570.068,-499.6726 606.115,-495.9058 639,-494.0251 773.6753,-486.3231 931.6261,-489.1157 1018.6275,-491.6781"/>
<polygon fill="#757575" stroke="#757575" points="1018.7779,-495.1841 1028.8793,-491.9887 1018.9899,-488.1874 1018.7779,-495.1841"/>
</g>
<!-- test/throughputSimulation.test&#45;data.js -->
<g id="node41" class="node">
<title>test/throughputSimulation.test&#45;data.js</title>
<path fill="none" stroke="#cfffac" d="M900.8333,-526.5251C900.8333,-526.5251 661.1667,-526.5251 661.1667,-526.5251 657.3333,-526.5251 653.5,-522.6918 653.5,-518.8584 653.5,-518.8584 653.5,-511.1918 653.5,-511.1918 653.5,-507.3584 657.3333,-503.5251 661.1667,-503.5251 661.1667,-503.5251 900.8333,-503.5251 900.8333,-503.5251 904.6667,-503.5251 908.5,-507.3584 908.5,-511.1918 908.5,-511.1918 908.5,-518.8584 908.5,-518.8584 908.5,-522.6918 904.6667,-526.5251 900.8333,-526.5251"/>
<text text-anchor="middle" x="781" y="-511.3251" font-family="Arial" font-size="14.00" fill="#cfffac">test/throughputSimulation.test&#45;data.js</text>
</g>
<!-- test/throughputSimulation.integration&#45;test.js&#45;&gt;test/throughputSimulation.test&#45;data.js -->
<g id="edge57" class="edge">
<title>test/throughputSimulation.integration&#45;test.js&#45;&gt;test/throughputSimulation.test&#45;data.js</title>
<path fill="none" stroke="#757575" d="M603.2855,-515.0251C616.5352,-515.0251 629.9211,-515.0251 643.0865,-515.0251"/>
<polygon fill="#757575" stroke="#757575" points="643.1054,-518.5252 653.1054,-515.0251 643.1053,-511.5252 643.1054,-518.5252"/>
</g>
</g>
</svg>
