<?xml version="1.0" encoding="UTF-8" standalone="no"?>
<!DOCTYPE svg PUBLIC "-//W3C//DTD SVG 1.1//EN"
 "http://www.w3.org/Graphics/SVG/1.1/DTD/svg11.dtd">
<!-- Generated by graphviz version 2.40.1 (20161225.0304)
 -->
<!-- Title: G Pages: 1 -->
<svg width="1976pt" height="1011pt"
 viewBox="0.00 0.00 1976.20 1010.55" xmlns="http://www.w3.org/2000/svg" xmlns:xlink="http://www.w3.org/1999/xlink">
<g id="graph0" class="graph" transform="scale(1 1) rotate(0) translate(21.6 988.9522)">
<title>G</title>
<polygon fill="#111111" stroke="transparent" points="-21.6,21.6 -21.6,-988.9522 1954.6,-988.9522 1954.6,21.6 -21.6,21.6"/>
<!-- __mocks__/@azure/cosmos/Container.js -->
<g id="node1" class="node">
<title>__mocks__/@azure/cosmos/Container.js</title>
<path fill="none" stroke="#c6c5fe" d="M914.3333,-36.5251C914.3333,-36.5251 647.6667,-36.5251 647.6667,-36.5251 643.8333,-36.5251 640,-32.6918 640,-28.8584 640,-28.8584 640,-21.1918 640,-21.1918 640,-17.3584 643.8333,-13.5251 647.6667,-13.5251 647.6667,-13.5251 914.3333,-13.5251 914.3333,-13.5251 918.1667,-13.5251 922,-17.3584 922,-21.1918 922,-21.1918 922,-28.8584 922,-28.8584 922,-32.6918 918.1667,-36.5251 914.3333,-36.5251"/>
<text text-anchor="middle" x="781" y="-21.3251" font-family="Arial" font-size="14.00" fill="#c6c5fe">__mocks__/@azure/cosmos/Container.js</text>
</g>
<!-- __mocks__/@azure/cosmos/Error.js -->
<g id="node2" class="node">
<title>__mocks__/@azure/cosmos/Error.js</title>
<path fill="none" stroke="#cfffac" d="M1512.8333,-54.5251C1512.8333,-54.5251 1277.1667,-54.5251 1277.1667,-54.5251 1273.3333,-54.5251 1269.5,-50.6918 1269.5,-46.8584 1269.5,-46.8584 1269.5,-39.1918 1269.5,-39.1918 1269.5,-35.3584 1273.3333,-31.5251 1277.1667,-31.5251 1277.1667,-31.5251 1512.8333,-31.5251 1512.8333,-31.5251 1516.6667,-31.5251 1520.5,-35.3584 1520.5,-39.1918 1520.5,-39.1918 1520.5,-46.8584 1520.5,-46.8584 1520.5,-50.6918 1516.6667,-54.5251 1512.8333,-54.5251"/>
<text text-anchor="middle" x="1395" y="-39.3251" font-family="Arial" font-size="14.00" fill="#cfffac">__mocks__/@azure/cosmos/Error.js</text>
</g>
<!-- __mocks__/@azure/cosmos/Container.js&#45;&gt;__mocks__/@azure/cosmos/Error.js -->
<g id="edge1" class="edge">
<title>__mocks__/@azure/cosmos/Container.js&#45;&gt;__mocks__/@azure/cosmos/Error.js</title>
<path fill="none" stroke="#757575" d="M922.2493,-29.166C1023.4986,-32.1342 1159.1,-36.1095 1259.1081,-39.0413"/>
<polygon fill="#757575" stroke="#757575" points="1259.1849,-42.545 1269.2832,-39.3396 1259.3901,-35.548 1259.1849,-42.545"/>
</g>
<!-- __mocks__/@azure/cosmos/Offer.js -->
<g id="node3" class="node">
<title>__mocks__/@azure/cosmos/Offer.js</title>
<path fill="none" stroke="#c6c5fe" d="M1202.3333,-74.5251C1202.3333,-74.5251 966.6667,-74.5251 966.6667,-74.5251 962.8333,-74.5251 959,-70.6918 959,-66.8584 959,-66.8584 959,-59.1918 959,-59.1918 959,-55.3584 962.8333,-51.5251 966.6667,-51.5251 966.6667,-51.5251 1202.3333,-51.5251 1202.3333,-51.5251 1206.1667,-51.5251 1210,-55.3584 1210,-59.1918 1210,-59.1918 1210,-66.8584 1210,-66.8584 1210,-70.6918 1206.1667,-74.5251 1202.3333,-74.5251"/>
<text text-anchor="middle" x="1084.5" y="-59.3251" font-family="Arial" font-size="14.00" fill="#c6c5fe">__mocks__/@azure/cosmos/Offer.js</text>
</g>
<!-- __mocks__/@azure/cosmos/Container.js&#45;&gt;__mocks__/@azure/cosmos/Offer.js -->
<g id="edge2" class="edge">
<title>__mocks__/@azure/cosmos/Container.js&#45;&gt;__mocks__/@azure/cosmos/Offer.js</title>
<path fill="none" stroke="#757575" d="M872.8836,-36.5295C907.3419,-40.8438 946.7047,-45.7723 982.0608,-50.1991"/>
<polygon fill="#757575" stroke="#757575" points="982.048,-53.7247 992.4053,-51.4943 982.9177,-46.779 982.048,-53.7247"/>
</g>
<!-- __mocks__/@azure/cosmos/Offer.js&#45;&gt;__mocks__/@azure/cosmos/Error.js -->
<g id="edge5" class="edge">
<title>__mocks__/@azure/cosmos/Offer.js&#45;&gt;__mocks__/@azure/cosmos/Error.js</title>
<path fill="none" stroke="#757575" d="M1210.3446,-54.9192C1226.4932,-53.879 1243.0824,-52.8105 1259.3784,-51.7608"/>
<polygon fill="#757575" stroke="#757575" points="1259.7261,-55.2457 1269.4805,-51.1101 1259.2761,-48.2602 1259.7261,-55.2457"/>
</g>
<!-- __mocks__/@azure/cosmos/Database.js -->
<g id="node4" class="node">
<title>__mocks__/@azure/cosmos/Database.js</title>
<path fill="none" stroke="#c6c5fe" d="M589.8333,-36.5251C589.8333,-36.5251 322.1667,-36.5251 322.1667,-36.5251 318.3333,-36.5251 314.5,-32.6918 314.5,-28.8584 314.5,-28.8584 314.5,-21.1918 314.5,-21.1918 314.5,-17.3584 318.3333,-13.5251 322.1667,-13.5251 322.1667,-13.5251 589.8333,-13.5251 589.8333,-13.5251 593.6667,-13.5251 597.5,-17.3584 597.5,-21.1918 597.5,-21.1918 597.5,-28.8584 597.5,-28.8584 597.5,-32.6918 593.6667,-36.5251 589.8333,-36.5251"/>
<text text-anchor="middle" x="456" y="-21.3251" font-family="Arial" font-size="14.00" fill="#c6c5fe">__mocks__/@azure/cosmos/Database.js</text>
</g>
<!-- __mocks__/@azure/cosmos/Database.js&#45;&gt;__mocks__/@azure/cosmos/Container.js -->
<g id="edge3" class="edge">
<title>__mocks__/@azure/cosmos/Database.js&#45;&gt;__mocks__/@azure/cosmos/Container.js</title>
<path fill="none" stroke="#757575" d="M597.6043,-25.0251C608.2338,-25.0251 618.9847,-25.0251 629.6708,-25.0251"/>
<polygon fill="#757575" stroke="#757575" points="629.8904,-28.5252 639.8903,-25.0251 629.8903,-21.5252 629.8904,-28.5252"/>
</g>
<!-- __mocks__/@azure/cosmos/Database.js&#45;&gt;__mocks__/@azure/cosmos/Error.js -->
<g id="edge4" class="edge">
<title>__mocks__/@azure/cosmos/Database.js&#45;&gt;__mocks__/@azure/cosmos/Error.js</title>
<path fill="none" stroke="#757575" d="M538.7269,-13.5033C570.068,-9.6726 606.115,-5.9058 639,-4.0251 871.2445,9.2568 1143.743,-14.4719 1289.806,-30.3814"/>
<polygon fill="#757575" stroke="#757575" points="1289.7793,-33.8995 1300.1018,-31.5128 1290.5439,-26.9414 1289.7793,-33.8995"/>
</g>
<!-- __mocks__/@azure/cosmos/index.js -->
<g id="node5" class="node">
<title>__mocks__/@azure/cosmos/index.js</title>
<path fill="none" stroke="#c6c5fe" d="M256.3333,-76.5251C256.3333,-76.5251 16.6667,-76.5251 16.6667,-76.5251 12.8333,-76.5251 9,-72.6918 9,-68.8584 9,-68.8584 9,-61.1918 9,-61.1918 9,-57.3584 12.8333,-53.5251 16.6667,-53.5251 16.6667,-53.5251 256.3333,-53.5251 256.3333,-53.5251 260.1667,-53.5251 264,-57.3584 264,-61.1918 264,-61.1918 264,-68.8584 264,-68.8584 264,-72.6918 260.1667,-76.5251 256.3333,-76.5251"/>
<text text-anchor="middle" x="136.5" y="-61.3251" font-family="Arial" font-size="14.00" fill="#c6c5fe">__mocks__/@azure/cosmos/index.js</text>
</g>
<!-- __mocks__/@azure/cosmos/index.js&#45;&gt;__mocks__/@azure/cosmos/Error.js -->
<g id="edge7" class="edge">
<title>__mocks__/@azure/cosmos/index.js&#45;&gt;__mocks__/@azure/cosmos/Error.js</title>
<path fill="none" stroke="#757575" d="M255.6702,-76.5562C454.2272,-93.6364 865.0317,-119.893 1210,-83.0251 1255.8447,-78.1255 1307.0087,-66.581 1343.8899,-57.1472"/>
<polygon fill="#757575" stroke="#757575" points="1345.0974,-60.4499 1353.8973,-54.5497 1343.3387,-53.6744 1345.0974,-60.4499"/>
</g>
<!-- __mocks__/@azure/cosmos/index.js&#45;&gt;__mocks__/@azure/cosmos/Offer.js -->
<g id="edge8" class="edge">
<title>__mocks__/@azure/cosmos/index.js&#45;&gt;__mocks__/@azure/cosmos/Offer.js</title>
<path fill="none" stroke="#757575" d="M264.3515,-64.7554C442.9186,-64.3786 765.5968,-63.6979 948.4549,-63.3121"/>
<polygon fill="#757575" stroke="#757575" points="948.6816,-66.8117 958.6741,-63.2906 948.6667,-59.8118 948.6816,-66.8117"/>
</g>
<!-- __mocks__/@azure/cosmos/index.js&#45;&gt;__mocks__/@azure/cosmos/Database.js -->
<g id="edge6" class="edge">
<title>__mocks__/@azure/cosmos/index.js&#45;&gt;__mocks__/@azure/cosmos/Database.js</title>
<path fill="none" stroke="#757575" d="M228.484,-53.5091C267.7417,-48.5942 313.7016,-42.8402 353.9971,-37.7954"/>
<polygon fill="#757575" stroke="#757575" points="354.6245,-41.2443 364.1122,-36.529 353.7549,-34.2985 354.6245,-41.2443"/>
</g>
<!-- __mocks__/kth&#45;node&#45;log.js -->
<g id="node6" class="node">
<title>__mocks__/kth&#45;node&#45;log.js</title>
<path fill="none" stroke="#cfffac" d="M224.3333,-228.5251C224.3333,-228.5251 48.6667,-228.5251 48.6667,-228.5251 44.8333,-228.5251 41,-224.6918 41,-220.8584 41,-220.8584 41,-213.1918 41,-213.1918 41,-209.3584 44.8333,-205.5251 48.6667,-205.5251 48.6667,-205.5251 224.3333,-205.5251 224.3333,-205.5251 228.1667,-205.5251 232,-209.3584 232,-213.1918 232,-213.1918 232,-220.8584 232,-220.8584 232,-224.6918 228.1667,-228.5251 224.3333,-228.5251"/>
<text text-anchor="middle" x="136.5" y="-213.3251" font-family="Arial" font-size="14.00" fill="#cfffac">__mocks__/kth&#45;node&#45;log.js</text>
</g>
<!-- coverage/lcov&#45;report/block&#45;navigation.js -->
<g id="node7" class="node">
<title>coverage/lcov&#45;report/block&#45;navigation.js</title>
<path fill="none" stroke="#cfffac" d="M265.3333,-325.5251C265.3333,-325.5251 7.6667,-325.5251 7.6667,-325.5251 3.8333,-325.5251 0,-321.6918 0,-317.8584 0,-317.8584 0,-310.1918 0,-310.1918 0,-306.3584 3.8333,-302.5251 7.6667,-302.5251 7.6667,-302.5251 265.3333,-302.5251 265.3333,-302.5251 269.1667,-302.5251 273,-306.3584 273,-310.1918 273,-310.1918 273,-317.8584 273,-317.8584 273,-321.6918 269.1667,-325.5251 265.3333,-325.5251"/>
<text text-anchor="middle" x="136.5" y="-310.3251" font-family="Arial" font-size="14.00" fill="#cfffac">coverage/lcov&#45;report/block&#45;navigation.js</text>
</g>
<!-- coverage/lcov&#45;report/prettify.js -->
<g id="node8" class="node">
<title>coverage/lcov&#45;report/prettify.js</title>
<path fill="none" stroke="#cfffac" d="M233.3333,-394.5251C233.3333,-394.5251 39.6667,-394.5251 39.6667,-394.5251 35.8333,-394.5251 32,-390.6918 32,-386.8584 32,-386.8584 32,-379.1918 32,-379.1918 32,-375.3584 35.8333,-371.5251 39.6667,-371.5251 39.6667,-371.5251 233.3333,-371.5251 233.3333,-371.5251 237.1667,-371.5251 241,-375.3584 241,-379.1918 241,-379.1918 241,-386.8584 241,-386.8584 241,-390.6918 237.1667,-394.5251 233.3333,-394.5251"/>
<text text-anchor="middle" x="136.5" y="-379.3251" font-family="Arial" font-size="14.00" fill="#cfffac">coverage/lcov&#45;report/prettify.js</text>
</g>
<!-- coverage/lcov&#45;report/sorter.js -->
<g id="node9" class="node">
<title>coverage/lcov&#45;report/sorter.js</title>
<path fill="none" stroke="#cfffac" d="M230.3333,-449.5251C230.3333,-449.5251 42.6667,-449.5251 42.6667,-449.5251 38.8333,-449.5251 35,-445.6918 35,-441.8584 35,-441.8584 35,-434.1918 35,-434.1918 35,-430.3584 38.8333,-426.5251 42.6667,-426.5251 42.6667,-426.5251 230.3333,-426.5251 230.3333,-426.5251 234.1667,-426.5251 238,-430.3584 238,-434.1918 238,-434.1918 238,-441.8584 238,-441.8584 238,-445.6918 234.1667,-449.5251 230.3333,-449.5251"/>
<text text-anchor="middle" x="136.5" y="-434.3251" font-family="Arial" font-size="14.00" fill="#cfffac">coverage/lcov&#45;report/sorter.js</text>
</g>
<!-- jest.config.js -->
<g id="node10" class="node">
<title>jest.config.js</title>
<path fill="none" stroke="#cfffac" d="M176.8333,-497.5251C176.8333,-497.5251 96.1667,-497.5251 96.1667,-497.5251 92.3333,-497.5251 88.5,-493.6918 88.5,-489.8584 88.5,-489.8584 88.5,-482.1918 88.5,-482.1918 88.5,-478.3584 92.3333,-474.5251 96.1667,-474.5251 96.1667,-474.5251 176.8333,-474.5251 176.8333,-474.5251 180.6667,-474.5251 184.5,-478.3584 184.5,-482.1918 184.5,-482.1918 184.5,-489.8584 184.5,-489.8584 184.5,-493.6918 180.6667,-497.5251 176.8333,-497.5251"/>
<text text-anchor="middle" x="136.5" y="-482.3251" font-family="Arial" font-size="14.00" fill="#cfffac">jest.config.js</text>
</g>
<!-- jest.setup.js -->
<g id="node11" class="node">
<title>jest.setup.js</title>
<path fill="none" stroke="#cfffac" d="M175.3333,-541.5251C175.3333,-541.5251 97.6667,-541.5251 97.6667,-541.5251 93.8333,-541.5251 90,-537.6918 90,-533.8584 90,-533.8584 90,-526.1918 90,-526.1918 90,-522.3584 93.8333,-518.5251 97.6667,-518.5251 97.6667,-518.5251 175.3333,-518.5251 175.3333,-518.5251 179.1667,-518.5251 183,-522.3584 183,-526.1918 183,-526.1918 183,-533.8584 183,-533.8584 183,-537.6918 179.1667,-541.5251 175.3333,-541.5251"/>
<text text-anchor="middle" x="136.5" y="-526.3251" font-family="Arial" font-size="14.00" fill="#cfffac">jest.setup.js</text>
</g>
<!-- lib/client.js -->
<g id="node12" class="node">
<title>lib/client.js</title>
<path fill="none" stroke="#c6c5fe" d="M814.8333,-804.5251C814.8333,-804.5251 747.1667,-804.5251 747.1667,-804.5251 743.3333,-804.5251 739.5,-800.6918 739.5,-796.8584 739.5,-796.8584 739.5,-789.1918 739.5,-789.1918 739.5,-785.3584 743.3333,-781.5251 747.1667,-781.5251 747.1667,-781.5251 814.8333,-781.5251 814.8333,-781.5251 818.6667,-781.5251 822.5,-785.3584 822.5,-789.1918 822.5,-789.1918 822.5,-796.8584 822.5,-796.8584 822.5,-800.6918 818.6667,-804.5251 814.8333,-804.5251"/>
<text text-anchor="middle" x="781" y="-789.3251" font-family="Arial" font-size="14.00" fill="#c6c5fe">lib/client.js</text>
</g>
<!-- lib/utils/CosmosClientWrapper.js -->
<g id="node13" class="node">
<title>lib/utils/CosmosClientWrapper.js</title>
<path fill="none" stroke="#c6c5fe" d="M1188.8333,-844.5251C1188.8333,-844.5251 980.1667,-844.5251 980.1667,-844.5251 976.3333,-844.5251 972.5,-840.6918 972.5,-836.8584 972.5,-836.8584 972.5,-829.1918 972.5,-829.1918 972.5,-825.3584 976.3333,-821.5251 980.1667,-821.5251 980.1667,-821.5251 1188.8333,-821.5251 1188.8333,-821.5251 1192.6667,-821.5251 1196.5,-825.3584 1196.5,-829.1918 1196.5,-829.1918 1196.5,-836.8584 1196.5,-836.8584 1196.5,-840.6918 1192.6667,-844.5251 1188.8333,-844.5251"/>
<text text-anchor="middle" x="1084.5" y="-829.3251" font-family="Arial" font-size="14.00" fill="#c6c5fe">lib/utils/CosmosClientWrapper.js</text>
</g>
<!-- lib/client.js&#45;&gt;lib/utils/CosmosClientWrapper.js -->
<g id="edge9" class="edge">
<title>lib/client.js&#45;&gt;lib/utils/CosmosClientWrapper.js</title>
<path fill="none" stroke="#757575" d="M822.564,-798.5031C864.6696,-804.0524 931.3303,-812.838 986.8646,-820.1572"/>
<polygon fill="#757575" stroke="#757575" points="986.7246,-823.6689 997.0962,-821.5056 987.6393,-816.7289 986.7246,-823.6689"/>
</g>
<!-- lib/utils/useMongoNative.js -->
<g id="node14" class="node">
<title>lib/utils/useMongoNative.js</title>
<path fill="none" stroke="#cfffac" d="M1760.3333,-745.5251C1760.3333,-745.5251 1587.6667,-745.5251 1587.6667,-745.5251 1583.8333,-745.5251 1580,-741.6918 1580,-737.8584 1580,-737.8584 1580,-730.1918 1580,-730.1918 1580,-726.3584 1583.8333,-722.5251 1587.6667,-722.5251 1587.6667,-722.5251 1760.3333,-722.5251 1760.3333,-722.5251 1764.1667,-722.5251 1768,-726.3584 1768,-730.1918 1768,-730.1918 1768,-737.8584 1768,-737.8584 1768,-741.6918 1764.1667,-745.5251 1760.3333,-745.5251"/>
<text text-anchor="middle" x="1674" y="-730.3251" font-family="Arial" font-size="14.00" fill="#cfffac">lib/utils/useMongoNative.js</text>
</g>
<!-- lib/client.js&#45;&gt;lib/utils/useMongoNative.js -->
<g id="edge10" class="edge">
<title>lib/client.js&#45;&gt;lib/utils/useMongoNative.js</title>
<path fill="none" stroke="#757575" d="M822.5764,-790.2782C955.5126,-781.4952 1372.987,-753.9129 1569.6159,-740.9217"/>
<polygon fill="#757575" stroke="#757575" points="1569.9218,-744.4092 1579.6693,-740.2575 1569.4603,-737.4244 1569.9218,-744.4092"/>
</g>
<!-- lib/utils/adaptMongooseModel.js -->
<g id="node20" class="node">
<title>lib/utils/adaptMongooseModel.js</title>
<path fill="none" stroke="#c6c5fe" d="M1499.3333,-803.5251C1499.3333,-803.5251 1290.6667,-803.5251 1290.6667,-803.5251 1286.8333,-803.5251 1283,-799.6918 1283,-795.8584 1283,-795.8584 1283,-788.1918 1283,-788.1918 1283,-784.3584 1286.8333,-780.5251 1290.6667,-780.5251 1290.6667,-780.5251 1499.3333,-780.5251 1499.3333,-780.5251 1503.1667,-780.5251 1507,-784.3584 1507,-788.1918 1507,-788.1918 1507,-795.8584 1507,-795.8584 1507,-799.6918 1503.1667,-803.5251 1499.3333,-803.5251"/>
<text text-anchor="middle" x="1395" y="-788.3251" font-family="Arial" font-size="14.00" fill="#c6c5fe">lib/utils/adaptMongooseModel.js</text>
</g>
<!-- lib/utils/CosmosClientWrapper.js&#45;&gt;lib/utils/adaptMongooseModel.js -->
<g id="edge18" class="edge">
<title>lib/utils/CosmosClientWrapper.js&#45;&gt;lib/utils/adaptMongooseModel.js</title>
<path fill="none" stroke="#757575" d="M1171.8179,-821.4952C1211.0077,-816.3204 1257.3914,-810.1956 1297.693,-804.874"/>
<polygon fill="#757575" stroke="#757575" points="1298.3444,-808.3185 1307.8001,-803.5394 1297.4279,-801.3787 1298.3444,-808.3185"/>
</g>
<!-- lib/utils/cosmosDb.js -->
<g id="node21" class="node">
<title>lib/utils/cosmosDb.js</title>
<path fill="none" stroke="#c6c5fe" d="M1461.3333,-883.5251C1461.3333,-883.5251 1328.6667,-883.5251 1328.6667,-883.5251 1324.8333,-883.5251 1321,-879.6918 1321,-875.8584 1321,-875.8584 1321,-868.1918 1321,-868.1918 1321,-864.3584 1324.8333,-860.5251 1328.6667,-860.5251 1328.6667,-860.5251 1461.3333,-860.5251 1461.3333,-860.5251 1465.1667,-860.5251 1469,-864.3584 1469,-868.1918 1469,-868.1918 1469,-875.8584 1469,-875.8584 1469,-879.6918 1465.1667,-883.5251 1461.3333,-883.5251"/>
<text text-anchor="middle" x="1395" y="-868.3251" font-family="Arial" font-size="14.00" fill="#c6c5fe">lib/utils/cosmosDb.js</text>
</g>
<!-- lib/utils/CosmosClientWrapper.js&#45;&gt;lib/utils/cosmosDb.js -->
<g id="edge19" class="edge">
<title>lib/utils/CosmosClientWrapper.js&#45;&gt;lib/utils/cosmosDb.js</title>
<path fill="none" stroke="#757575" d="M1176.4,-844.5681C1218.9401,-849.9113 1269.1399,-856.2166 1310.6984,-861.4365"/>
<polygon fill="#757575" stroke="#757575" points="1310.4346,-864.9308 1320.7929,-862.7044 1311.307,-857.9853 1310.4346,-864.9308"/>
</g>
<!-- lib/utils/strategy.js -->
<g id="node22" class="node">
<title>lib/utils/strategy.js</title>
<path fill="none" stroke="#cfffac" d="M1925.3333,-959.5251C1925.3333,-959.5251 1811.6667,-959.5251 1811.6667,-959.5251 1807.8333,-959.5251 1804,-955.6918 1804,-951.8584 1804,-951.8584 1804,-944.1918 1804,-944.1918 1804,-940.3584 1807.8333,-936.5251 1811.6667,-936.5251 1811.6667,-936.5251 1925.3333,-936.5251 1925.3333,-936.5251 1929.1667,-936.5251 1933,-940.3584 1933,-944.1918 1933,-944.1918 1933,-951.8584 1933,-951.8584 1933,-955.6918 1929.1667,-959.5251 1925.3333,-959.5251"/>
<text text-anchor="middle" x="1868.5" y="-944.3251" font-family="Arial" font-size="14.00" fill="#cfffac">lib/utils/strategy.js</text>
</g>
<!-- lib/utils/CosmosClientWrapper.js&#45;&gt;lib/utils/strategy.js -->
<g id="edge20" class="edge">
<title>lib/utils/CosmosClientWrapper.js&#45;&gt;lib/utils/strategy.js</title>
<path fill="none" stroke="#757575" d="M1112.3939,-844.608C1144.2705,-857.5163 1198.2127,-878.3651 1246,-892.0251 1471.0622,-956.3594 1534.4836,-978.2118 1768,-962.0251 1776.3368,-961.4472 1785.0348,-960.6028 1793.6739,-959.6104"/>
<polygon fill="#757575" stroke="#757575" points="1794.2583,-963.0652 1803.7632,-958.3846 1793.414,-956.1163 1794.2583,-963.0652"/>
</g>
<!-- lib/utils/validity.js -->
<g id="node23" class="node">
<title>lib/utils/validity.js</title>
<path fill="none" stroke="#cfffac" d="M1921.8333,-841.5251C1921.8333,-841.5251 1815.1667,-841.5251 1815.1667,-841.5251 1811.3333,-841.5251 1807.5,-837.6918 1807.5,-833.8584 1807.5,-833.8584 1807.5,-826.1918 1807.5,-826.1918 1807.5,-822.3584 1811.3333,-818.5251 1815.1667,-818.5251 1815.1667,-818.5251 1921.8333,-818.5251 1921.8333,-818.5251 1925.6667,-818.5251 1929.5,-822.3584 1929.5,-826.1918 1929.5,-826.1918 1929.5,-833.8584 1929.5,-833.8584 1929.5,-837.6918 1925.6667,-841.5251 1921.8333,-841.5251"/>
<text text-anchor="middle" x="1868.5" y="-826.3251" font-family="Arial" font-size="14.00" fill="#cfffac">lib/utils/validity.js</text>
</g>
<!-- lib/utils/CosmosClientWrapper.js&#45;&gt;lib/utils/validity.js -->
<g id="edge21" class="edge">
<title>lib/utils/CosmosClientWrapper.js&#45;&gt;lib/utils/validity.js</title>
<path fill="none" stroke="#757575" d="M1196.8281,-832.5953C1360.4453,-831.9692 1659.6994,-830.8241 1796.6418,-830.3001"/>
<polygon fill="#757575" stroke="#757575" points="1797.0224,-833.7987 1807.0089,-830.2604 1796.9956,-826.7988 1797.0224,-833.7987"/>
</g>
<!-- lib/client.test.js -->
<g id="node15" class="node">
<title>lib/client.test.js</title>
<path fill="none" stroke="#c6c5fe" d="M503.3333,-843.5251C503.3333,-843.5251 408.6667,-843.5251 408.6667,-843.5251 404.8333,-843.5251 401,-839.6918 401,-835.8584 401,-835.8584 401,-828.1918 401,-828.1918 401,-824.3584 404.8333,-820.5251 408.6667,-820.5251 408.6667,-820.5251 503.3333,-820.5251 503.3333,-820.5251 507.1667,-820.5251 511,-824.3584 511,-828.1918 511,-828.1918 511,-835.8584 511,-835.8584 511,-839.6918 507.1667,-843.5251 503.3333,-843.5251"/>
<text text-anchor="middle" x="456" y="-828.3251" font-family="Arial" font-size="14.00" fill="#c6c5fe">lib/client.test.js</text>
</g>
<!-- lib/client.test.js&#45;&gt;lib/client.js -->
<g id="edge11" class="edge">
<title>lib/client.test.js&#45;&gt;lib/client.js</title>
<path fill="none" stroke="#757575" d="M511.1318,-825.4093C572.0781,-818.0957 669.4963,-806.4055 729.1108,-799.2518"/>
<polygon fill="#757575" stroke="#757575" points="729.5515,-802.7241 739.0632,-798.0575 728.7174,-795.774 729.5515,-802.7241"/>
</g>
<!-- lib/client.test.js&#45;&gt;lib/utils/CosmosClientWrapper.js -->
<g id="edge12" class="edge">
<title>lib/client.test.js&#45;&gt;lib/utils/CosmosClientWrapper.js</title>
<path fill="none" stroke="#757575" d="M511.2243,-832.113C611.532,-832.2726 825.8599,-832.6136 962.151,-832.8304"/>
<polygon fill="#757575" stroke="#757575" points="962.2278,-836.3305 972.2334,-832.8465 962.239,-829.3305 962.2278,-836.3305"/>
</g>
<!-- lib/utils/CosmosClientWrapper.test&#45;data.js -->
<g id="node16" class="node">
<title>lib/utils/CosmosClientWrapper.test&#45;data.js</title>
<path fill="none" stroke="#c6c5fe" d="M915.3333,-884.5251C915.3333,-884.5251 646.6667,-884.5251 646.6667,-884.5251 642.8333,-884.5251 639,-880.6918 639,-876.8584 639,-876.8584 639,-869.1918 639,-869.1918 639,-865.3584 642.8333,-861.5251 646.6667,-861.5251 646.6667,-861.5251 915.3333,-861.5251 915.3333,-861.5251 919.1667,-861.5251 923,-865.3584 923,-869.1918 923,-869.1918 923,-876.8584 923,-876.8584 923,-880.6918 919.1667,-884.5251 915.3333,-884.5251"/>
<text text-anchor="middle" x="781" y="-869.3251" font-family="Arial" font-size="14.00" fill="#c6c5fe">lib/utils/CosmosClientWrapper.test&#45;data.js</text>
</g>
<!-- lib/client.test.js&#45;&gt;lib/utils/CosmosClientWrapper.test&#45;data.js -->
<g id="edge13" class="edge">
<title>lib/client.test.js&#45;&gt;lib/utils/CosmosClientWrapper.test&#45;data.js</title>
<path fill="none" stroke="#757575" d="M511.1318,-838.9802C557.0789,-844.7766 623.755,-853.188 679.3345,-860.1996"/>
<polygon fill="#757575" stroke="#757575" points="679.2163,-863.7124 689.5757,-861.4916 680.0925,-856.7674 679.2163,-863.7124"/>
</g>
<!-- test/lib/index.js -->
<g id="node17" class="node">
<title>test/lib/index.js</title>
<path fill="none" stroke="#c6c5fe" d="M1132.3333,-486.5251C1132.3333,-486.5251 1036.6667,-486.5251 1036.6667,-486.5251 1032.8333,-486.5251 1029,-482.6918 1029,-478.8584 1029,-478.8584 1029,-471.1918 1029,-471.1918 1029,-467.3584 1032.8333,-463.5251 1036.6667,-463.5251 1036.6667,-463.5251 1132.3333,-463.5251 1132.3333,-463.5251 1136.1667,-463.5251 1140,-467.3584 1140,-471.1918 1140,-471.1918 1140,-478.8584 1140,-478.8584 1140,-482.6918 1136.1667,-486.5251 1132.3333,-486.5251"/>
<text text-anchor="middle" x="1084.5" y="-471.3251" font-family="Arial" font-size="14.00" fill="#c6c5fe">test/lib/index.js</text>
</g>
<!-- lib/client.test.js&#45;&gt;test/lib/index.js -->
<g id="edge14" class="edge">
<title>lib/client.test.js&#45;&gt;test/lib/index.js</title>
<path fill="none" stroke="#757575" d="M511.2848,-838.2794C541.9631,-838.6141 578.7131,-833.3641 603,-811.0251 655.6897,-762.5613 586.179,-702.3457 639,-654.0251 733.0058,-568.0286 806.9453,-667.597 923,-615.0251 985.7182,-586.6143 1042.3642,-525.8375 1068.7904,-494.5401"/>
<polygon fill="#757575" stroke="#757575" points="1071.7313,-496.4768 1075.4225,-486.5458 1066.3439,-492.0074 1071.7313,-496.4768"/>
</g>
<!-- lib/utils/CosmosClientWrapper.test&#45;data.js&#45;&gt;lib/utils/CosmosClientWrapper.js -->
<g id="edge22" class="edge">
<title>lib/utils/CosmosClientWrapper.test&#45;data.js&#45;&gt;lib/utils/CosmosClientWrapper.js</title>
<path fill="none" stroke="#757575" d="M868.3776,-861.5091C905.5113,-856.615 948.9577,-850.889 987.1184,-845.8596"/>
<polygon fill="#757575" stroke="#757575" points="987.7569,-849.3058 997.2138,-844.529 986.8422,-842.3658 987.7569,-849.3058"/>
</g>
<!-- lib/utils/CosmosClientWrapper.test&#45;data.js&#45;&gt;lib/utils/cosmosDb.js -->
<g id="edge23" class="edge">
<title>lib/utils/CosmosClientWrapper.test&#45;data.js&#45;&gt;lib/utils/cosmosDb.js</title>
<path fill="none" stroke="#757575" d="M923.0209,-872.7938C1043.0495,-872.5983 1210.9408,-872.3249 1310.7635,-872.1623"/>
<polygon fill="#757575" stroke="#757575" points="1310.8084,-875.6623 1320.8027,-872.1459 1310.797,-868.6623 1310.8084,-875.6623"/>
</g>
<!-- test/lib/CosmosDb.js -->
<g id="node34" class="node">
<title>test/lib/CosmosDb.js</title>
<path fill="none" stroke="#cfffac" d="M1740.8333,-424.5251C1740.8333,-424.5251 1607.1667,-424.5251 1607.1667,-424.5251 1603.3333,-424.5251 1599.5,-420.6918 1599.5,-416.8584 1599.5,-416.8584 1599.5,-409.1918 1599.5,-409.1918 1599.5,-405.3584 1603.3333,-401.5251 1607.1667,-401.5251 1607.1667,-401.5251 1740.8333,-401.5251 1740.8333,-401.5251 1744.6667,-401.5251 1748.5,-405.3584 1748.5,-409.1918 1748.5,-409.1918 1748.5,-416.8584 1748.5,-416.8584 1748.5,-420.6918 1744.6667,-424.5251 1740.8333,-424.5251"/>
<text text-anchor="middle" x="1674" y="-409.3251" font-family="Arial" font-size="14.00" fill="#cfffac">test/lib/CosmosDb.js</text>
</g>
<!-- test/lib/index.js&#45;&gt;test/lib/CosmosDb.js -->
<g id="edge52" class="edge">
<title>test/lib/index.js&#45;&gt;test/lib/CosmosDb.js</title>
<path fill="none" stroke="#757575" d="M1106.4479,-463.4132C1136.8084,-448.0721 1193.7965,-421.8468 1246,-412.0251 1363.482,-389.9218 1502.3356,-395.9945 1589.3016,-403.5589"/>
<polygon fill="#757575" stroke="#757575" points="1589.1104,-407.0557 1599.383,-404.4627 1589.7356,-400.0836 1589.1104,-407.0557"/>
</g>
<!-- test/lib/Environment.js -->
<g id="node35" class="node">
<title>test/lib/Environment.js</title>
<path fill="none" stroke="#cfffac" d="M1466.3333,-608.5251C1466.3333,-608.5251 1323.6667,-608.5251 1323.6667,-608.5251 1319.8333,-608.5251 1316,-604.6918 1316,-600.8584 1316,-600.8584 1316,-593.1918 1316,-593.1918 1316,-589.3584 1319.8333,-585.5251 1323.6667,-585.5251 1323.6667,-585.5251 1466.3333,-585.5251 1466.3333,-585.5251 1470.1667,-585.5251 1474,-589.3584 1474,-593.1918 1474,-593.1918 1474,-600.8584 1474,-600.8584 1474,-604.6918 1470.1667,-608.5251 1466.3333,-608.5251"/>
<text text-anchor="middle" x="1395" y="-593.3251" font-family="Arial" font-size="14.00" fill="#cfffac">test/lib/Environment.js</text>
</g>
<!-- test/lib/index.js&#45;&gt;test/lib/Environment.js -->
<g id="edge53" class="edge">
<title>test/lib/index.js&#45;&gt;test/lib/Environment.js</title>
<path fill="none" stroke="#757575" d="M1098.5488,-486.7303C1125.328,-508.3431 1186.3436,-554.2861 1246,-576.0251 1264.7926,-582.8732 1285.6721,-587.5034 1305.7092,-590.6299"/>
<polygon fill="#757575" stroke="#757575" points="1305.3801,-594.1187 1315.7788,-592.0893 1306.3842,-587.1911 1305.3801,-594.1187"/>
</g>
<!-- test/lib/Mongoose.js -->
<g id="node36" class="node">
<title>test/lib/Mongoose.js</title>
<path fill="none" stroke="#c6c5fe" d="M1459.8333,-444.5251C1459.8333,-444.5251 1330.1667,-444.5251 1330.1667,-444.5251 1326.3333,-444.5251 1322.5,-440.6918 1322.5,-436.8584 1322.5,-436.8584 1322.5,-429.1918 1322.5,-429.1918 1322.5,-425.3584 1326.3333,-421.5251 1330.1667,-421.5251 1330.1667,-421.5251 1459.8333,-421.5251 1459.8333,-421.5251 1463.6667,-421.5251 1467.5,-425.3584 1467.5,-429.1918 1467.5,-429.1918 1467.5,-436.8584 1467.5,-436.8584 1467.5,-440.6918 1463.6667,-444.5251 1459.8333,-444.5251"/>
<text text-anchor="middle" x="1395" y="-429.3251" font-family="Arial" font-size="14.00" fill="#c6c5fe">test/lib/Mongoose.js</text>
</g>
<!-- test/lib/index.js&#45;&gt;test/lib/Mongoose.js -->
<g id="edge54" class="edge">
<title>test/lib/index.js&#45;&gt;test/lib/Mongoose.js</title>
<path fill="none" stroke="#757575" d="M1140.1799,-467.4129C1171.3068,-463.1642 1210.8074,-457.784 1246,-453.0251 1267.4353,-450.1265 1290.6075,-447.0086 1312.1456,-444.1172"/>
<polygon fill="#757575" stroke="#757575" points="1312.7966,-447.5613 1322.2423,-442.7622 1311.8656,-440.6235 1312.7966,-447.5613"/>
</g>
<!-- test/lib/collectAllInternalMethods.js -->
<g id="node37" class="node">
<title>test/lib/collectAllInternalMethods.js</title>
<path fill="none" stroke="#cfffac" d="M1505.8333,-567.5251C1505.8333,-567.5251 1284.1667,-567.5251 1284.1667,-567.5251 1280.3333,-567.5251 1276.5,-563.6918 1276.5,-559.8584 1276.5,-559.8584 1276.5,-552.1918 1276.5,-552.1918 1276.5,-548.3584 1280.3333,-544.5251 1284.1667,-544.5251 1284.1667,-544.5251 1505.8333,-544.5251 1505.8333,-544.5251 1509.6667,-544.5251 1513.5,-548.3584 1513.5,-552.1918 1513.5,-552.1918 1513.5,-559.8584 1513.5,-559.8584 1513.5,-563.6918 1509.6667,-567.5251 1505.8333,-567.5251"/>
<text text-anchor="middle" x="1395" y="-552.3251" font-family="Arial" font-size="14.00" fill="#cfffac">test/lib/collectAllInternalMethods.js</text>
</g>
<!-- test/lib/index.js&#45;&gt;test/lib/collectAllInternalMethods.js -->
<g id="edge55" class="edge">
<title>test/lib/index.js&#45;&gt;test/lib/collectAllInternalMethods.js</title>
<path fill="none" stroke="#757575" d="M1110.2431,-486.5659C1141.6624,-500.1848 1196.7059,-522.5503 1246,-535.0251 1257.6902,-537.9835 1270.009,-540.5579 1282.3497,-542.7904"/>
<polygon fill="#757575" stroke="#757575" points="1281.7883,-546.2452 1292.2398,-544.5084 1282.9863,-539.3485 1281.7883,-546.2452"/>
</g>
<!-- test/lib/getObjectKeysWithDifferentValues.js -->
<g id="node38" class="node">
<title>test/lib/getObjectKeysWithDifferentValues.js</title>
<path fill="none" stroke="#cfffac" d="M1536.3333,-526.5251C1536.3333,-526.5251 1253.6667,-526.5251 1253.6667,-526.5251 1249.8333,-526.5251 1246,-522.6918 1246,-518.8584 1246,-518.8584 1246,-511.1918 1246,-511.1918 1246,-507.3584 1249.8333,-503.5251 1253.6667,-503.5251 1253.6667,-503.5251 1536.3333,-503.5251 1536.3333,-503.5251 1540.1667,-503.5251 1544,-507.3584 1544,-511.1918 1544,-511.1918 1544,-518.8584 1544,-518.8584 1544,-522.6918 1540.1667,-526.5251 1536.3333,-526.5251"/>
<text text-anchor="middle" x="1395" y="-511.3251" font-family="Arial" font-size="14.00" fill="#cfffac">test/lib/getObjectKeysWithDifferentValues.js</text>
</g>
<!-- test/lib/index.js&#45;&gt;test/lib/getObjectKeysWithDifferentValues.js -->
<g id="edge56" class="edge">
<title>test/lib/index.js&#45;&gt;test/lib/getObjectKeysWithDifferentValues.js</title>
<path fill="none" stroke="#757575" d="M1140.0112,-482.1763C1183.1021,-487.7275 1243.9706,-495.5688 1295.4307,-502.1981"/>
<polygon fill="#757575" stroke="#757575" points="1295.224,-505.7003 1305.5892,-503.5068 1296.1184,-498.7577 1295.224,-505.7003"/>
</g>
<!-- test/lib/removeCodeCoveragePollution.js -->
<g id="node39" class="node">
<title>test/lib/removeCodeCoveragePollution.js</title>
<path fill="none" stroke="#cfffac" d="M1526.8333,-485.5251C1526.8333,-485.5251 1263.1667,-485.5251 1263.1667,-485.5251 1259.3333,-485.5251 1255.5,-481.6918 1255.5,-477.8584 1255.5,-477.8584 1255.5,-470.1918 1255.5,-470.1918 1255.5,-466.3584 1259.3333,-462.5251 1263.1667,-462.5251 1263.1667,-462.5251 1526.8333,-462.5251 1526.8333,-462.5251 1530.6667,-462.5251 1534.5,-466.3584 1534.5,-470.1918 1534.5,-470.1918 1534.5,-477.8584 1534.5,-477.8584 1534.5,-481.6918 1530.6667,-485.5251 1526.8333,-485.5251"/>
<text text-anchor="middle" x="1395" y="-470.3251" font-family="Arial" font-size="14.00" fill="#cfffac">test/lib/removeCodeCoveragePollution.js</text>
</g>
<!-- test/lib/index.js&#45;&gt;test/lib/removeCodeCoveragePollution.js -->
<g id="edge57" class="edge">
<title>test/lib/index.js&#45;&gt;test/lib/removeCodeCoveragePollution.js</title>
<path fill="none" stroke="#757575" d="M1140.0112,-474.8463C1169.6345,-474.7509 1207.6595,-474.6285 1245.2536,-474.5074"/>
<polygon fill="#757575" stroke="#757575" points="1245.3268,-478.0073 1255.3154,-474.475 1245.3042,-471.0073 1245.3268,-478.0073"/>
</g>
<!-- test/lib/testBasicFunctionExport.js -->
<g id="node40" class="node">
<title>test/lib/testBasicFunctionExport.js</title>
<path fill="none" stroke="#cfffac" d="M1503.8333,-364.5251C1503.8333,-364.5251 1286.1667,-364.5251 1286.1667,-364.5251 1282.3333,-364.5251 1278.5,-360.6918 1278.5,-356.8584 1278.5,-356.8584 1278.5,-349.1918 1278.5,-349.1918 1278.5,-345.3584 1282.3333,-341.5251 1286.1667,-341.5251 1286.1667,-341.5251 1503.8333,-341.5251 1503.8333,-341.5251 1507.6667,-341.5251 1511.5,-345.3584 1511.5,-349.1918 1511.5,-349.1918 1511.5,-356.8584 1511.5,-356.8584 1511.5,-360.6918 1507.6667,-364.5251 1503.8333,-364.5251"/>
<text text-anchor="middle" x="1395" y="-349.3251" font-family="Arial" font-size="14.00" fill="#cfffac">test/lib/testBasicFunctionExport.js</text>
</g>
<!-- test/lib/index.js&#45;&gt;test/lib/testBasicFunctionExport.js -->
<g id="edge58" class="edge">
<title>test/lib/index.js&#45;&gt;test/lib/testBasicFunctionExport.js</title>
<path fill="none" stroke="#757575" d="M1099.5793,-463.4627C1127.0711,-442.9993 1187.8805,-400.5395 1246,-379.0251 1259.5057,-374.0256 1274.0632,-369.9749 1288.6019,-366.696"/>
<polygon fill="#757575" stroke="#757575" points="1289.604,-370.0609 1298.651,-364.5471 1288.1402,-363.2157 1289.604,-370.0609"/>
</g>
<!-- lib/index.js -->
<g id="node18" class="node">
<title>lib/index.js</title>
<path fill="none" stroke="#c6c5fe" d="M490.3333,-802.5251C490.3333,-802.5251 421.6667,-802.5251 421.6667,-802.5251 417.8333,-802.5251 414,-798.6918 414,-794.8584 414,-794.8584 414,-787.1918 414,-787.1918 414,-783.3584 417.8333,-779.5251 421.6667,-779.5251 421.6667,-779.5251 490.3333,-779.5251 490.3333,-779.5251 494.1667,-779.5251 498,-783.3584 498,-787.1918 498,-787.1918 498,-794.8584 498,-794.8584 498,-798.6918 494.1667,-802.5251 490.3333,-802.5251"/>
<text text-anchor="middle" x="456" y="-787.3251" font-family="Arial" font-size="14.00" fill="#c6c5fe">lib/index.js</text>
</g>
<!-- lib/index.js&#45;&gt;lib/client.js -->
<g id="edge15" class="edge">
<title>lib/index.js&#45;&gt;lib/client.js</title>
<path fill="none" stroke="#757575" d="M498.1549,-791.2845C557.3758,-791.649 665.1113,-792.3119 729.159,-792.7061"/>
<polygon fill="#757575" stroke="#757575" points="729.4121,-796.2076 739.4335,-792.7693 729.4552,-789.2077 729.4121,-796.2076"/>
</g>
<!-- lib/index.test.js -->
<g id="node19" class="node">
<title>lib/index.test.js</title>
<path fill="none" stroke="#c6c5fe" d="M184.3333,-584.5251C184.3333,-584.5251 88.6667,-584.5251 88.6667,-584.5251 84.8333,-584.5251 81,-580.6918 81,-576.8584 81,-576.8584 81,-569.1918 81,-569.1918 81,-565.3584 84.8333,-561.5251 88.6667,-561.5251 88.6667,-561.5251 184.3333,-561.5251 184.3333,-561.5251 188.1667,-561.5251 192,-565.3584 192,-569.1918 192,-569.1918 192,-576.8584 192,-576.8584 192,-580.6918 188.1667,-584.5251 184.3333,-584.5251"/>
<text text-anchor="middle" x="136.5" y="-569.3251" font-family="Arial" font-size="14.00" fill="#c6c5fe">lib/index.test.js</text>
</g>
<!-- lib/index.test.js&#45;&gt;test/lib/index.js -->
<g id="edge17" class="edge">
<title>lib/index.test.js&#45;&gt;test/lib/index.js</title>
<path fill="none" stroke="#757575" d="M192.0798,-576.9447C219.5846,-575.8823 251.4273,-569.7023 273,-550.0251 319.1957,-507.8885 260.3906,-453.3526 309,-414.0251 521.2224,-242.3261 656.7448,-337.8 923,-398.0251 973.7941,-409.5144 1027.3253,-438.9804 1058.2227,-457.9492"/>
<polygon fill="#757575" stroke="#757575" points="1056.7212,-461.138 1067.0568,-463.4675 1060.4298,-455.2011 1056.7212,-461.138"/>
</g>
<!-- lib/index.test.js&#45;&gt;lib/index.js -->
<g id="edge16" class="edge">
<title>lib/index.test.js&#45;&gt;lib/index.js</title>
<path fill="none" stroke="#757575" d="M192.1002,-567.2194C219.7806,-567.4574 251.7762,-572.9411 273,-593.0251 331.3086,-648.2025 250.5925,-714.9524 309,-770.0251 333.7721,-793.3828 372.1088,-798.2293 403.421,-797.4477"/>
<polygon fill="#757575" stroke="#757575" points="403.9075,-800.9295 413.7408,-796.9854 403.5942,-793.9365 403.9075,-800.9295"/>
</g>
<!-- lib/utils/adaptMongooseModel.js&#45;&gt;lib/utils/useMongoNative.js -->
<g id="edge28" class="edge">
<title>lib/utils/adaptMongooseModel.js&#45;&gt;lib/utils/useMongoNative.js</title>
<path fill="none" stroke="#757575" d="M1466.8099,-780.5194C1491.3611,-776.314 1518.9444,-771.2885 1544,-766.0251 1569.2773,-760.7152 1597.1052,-753.9855 1620.5066,-748.0691"/>
<polygon fill="#757575" stroke="#757575" points="1621.4171,-751.449 1630.2444,-745.5898 1619.6899,-744.6654 1621.4171,-751.449"/>
</g>
<!-- lib/utils/adaptMongooseModel.js&#45;&gt;lib/utils/strategy.js -->
<g id="edge27" class="edge">
<title>lib/utils/adaptMongooseModel.js&#45;&gt;lib/utils/strategy.js</title>
<path fill="none" stroke="#757575" d="M1451.4997,-803.6266C1481.9817,-812.3272 1518.4756,-826.9954 1544,-851.0251 1571.5062,-876.9205 1548.8492,-906.6525 1580,-928.0251 1645.6877,-973.0934 1740.7752,-969.9786 1803.5854,-961.095"/>
<polygon fill="#757575" stroke="#757575" points="1804.396,-964.5126 1813.7646,-959.565 1803.3555,-957.5903 1804.396,-964.5126"/>
</g>
<!-- lib/utils/adaptMongooseModel.js&#45;&gt;lib/utils/validity.js -->
<g id="edge29" class="edge">
<title>lib/utils/adaptMongooseModel.js&#45;&gt;lib/utils/validity.js</title>
<path fill="none" stroke="#757575" d="M1507.394,-797.0809C1581.5183,-800.9507 1680.6853,-807.1468 1768,-816.0251 1777.4955,-816.9906 1787.4733,-818.1745 1797.304,-819.4412"/>
<polygon fill="#757575" stroke="#757575" points="1797.0963,-822.9441 1807.4688,-820.7854 1798.014,-816.0045 1797.0963,-822.9441"/>
</g>
<!-- lib/utils/wrapCallback.js -->
<g id="node26" class="node">
<title>lib/utils/wrapCallback.js</title>
<path fill="none" stroke="#c6c5fe" d="M1749.3333,-919.5251C1749.3333,-919.5251 1598.6667,-919.5251 1598.6667,-919.5251 1594.8333,-919.5251 1591,-915.6918 1591,-911.8584 1591,-911.8584 1591,-904.1918 1591,-904.1918 1591,-900.3584 1594.8333,-896.5251 1598.6667,-896.5251 1598.6667,-896.5251 1749.3333,-896.5251 1749.3333,-896.5251 1753.1667,-896.5251 1757,-900.3584 1757,-904.1918 1757,-904.1918 1757,-911.8584 1757,-911.8584 1757,-915.6918 1753.1667,-919.5251 1749.3333,-919.5251"/>
<text text-anchor="middle" x="1674" y="-904.3251" font-family="Arial" font-size="14.00" fill="#c6c5fe">lib/utils/wrapCallback.js</text>
</g>
<!-- lib/utils/adaptMongooseModel.js&#45;&gt;lib/utils/wrapCallback.js -->
<g id="edge30" class="edge">
<title>lib/utils/adaptMongooseModel.js&#45;&gt;lib/utils/wrapCallback.js</title>
<path fill="none" stroke="#757575" d="M1425.0949,-803.5738C1455.2822,-815.2442 1503.0428,-833.9436 1544,-851.0251 1576.2692,-864.4832 1612.699,-880.5311 1638.7668,-892.1649"/>
<polygon fill="#757575" stroke="#757575" points="1637.6624,-895.505 1648.2199,-896.3929 1640.5204,-889.115 1637.6624,-895.505"/>
</g>
<!-- lib/utils/cosmosDb.js&#45;&gt;lib/utils/validity.js -->
<g id="edge39" class="edge">
<title>lib/utils/cosmosDb.js&#45;&gt;lib/utils/validity.js</title>
<path fill="none" stroke="#757575" d="M1469.0817,-867.854C1544.4382,-863.2848 1664.5265,-855.1046 1768,-844.0251 1777.4903,-843.0089 1787.465,-841.7958 1797.2941,-840.5146"/>
<polygon fill="#757575" stroke="#757575" points="1798.0079,-843.9505 1807.4579,-839.1602 1797.0832,-837.0118 1798.0079,-843.9505"/>
</g>
<!-- lib/utils/CosmosClientWrapper.test.js -->
<g id="node24" class="node">
<title>lib/utils/CosmosClientWrapper.test.js</title>
<path fill="none" stroke="#c6c5fe" d="M573.8333,-925.5251C573.8333,-925.5251 338.1667,-925.5251 338.1667,-925.5251 334.3333,-925.5251 330.5,-921.6918 330.5,-917.8584 330.5,-917.8584 330.5,-910.1918 330.5,-910.1918 330.5,-906.3584 334.3333,-902.5251 338.1667,-902.5251 338.1667,-902.5251 573.8333,-902.5251 573.8333,-902.5251 577.6667,-902.5251 581.5,-906.3584 581.5,-910.1918 581.5,-910.1918 581.5,-917.8584 581.5,-917.8584 581.5,-921.6918 577.6667,-925.5251 573.8333,-925.5251"/>
<text text-anchor="middle" x="456" y="-910.3251" font-family="Arial" font-size="14.00" fill="#c6c5fe">lib/utils/CosmosClientWrapper.test.js</text>
</g>
<!-- lib/utils/CosmosClientWrapper.test.js&#45;&gt;lib/utils/CosmosClientWrapper.js -->
<g id="edge24" class="edge">
<title>lib/utils/CosmosClientWrapper.test.js&#45;&gt;lib/utils/CosmosClientWrapper.js</title>
<path fill="none" stroke="#757575" d="M581.6661,-918.8553C676.4133,-919.9786 809.0657,-916.1594 923,-893.0251 968.9565,-883.6937 1019.1963,-863.2879 1051.2362,-848.8721"/>
<polygon fill="#757575" stroke="#757575" points="1052.928,-851.9473 1060.5704,-844.6095 1050.0201,-845.5798 1052.928,-851.9473"/>
</g>
<!-- lib/utils/CosmosClientWrapper.test.js&#45;&gt;lib/utils/CosmosClientWrapper.test&#45;data.js -->
<g id="edge25" class="edge">
<title>lib/utils/CosmosClientWrapper.test.js&#45;&gt;lib/utils/CosmosClientWrapper.test&#45;data.js</title>
<path fill="none" stroke="#757575" d="M547.3955,-902.4952C588.5893,-897.2985 637.3768,-891.1437 679.6848,-885.8064"/>
<polygon fill="#757575" stroke="#757575" points="680.2447,-889.2636 689.7279,-884.5394 679.3685,-882.3186 680.2447,-889.2636"/>
</g>
<!-- lib/utils/CosmosClientWrapper.test.js&#45;&gt;lib/utils/cosmosDb.js -->
<g id="edge26" class="edge">
<title>lib/utils/CosmosClientWrapper.test.js&#45;&gt;lib/utils/cosmosDb.js</title>
<path fill="none" stroke="#757575" d="M581.9931,-918.6985C601.0906,-919.2498 620.5655,-919.723 639,-920.0251 765.2053,-922.0935 796.9398,-926.4185 923,-920.0251 1059.1184,-913.1216 1216.47,-895.0884 1310.7362,-883.1976"/>
<polygon fill="#757575" stroke="#757575" points="1311.3052,-886.6536 1320.7853,-881.9231 1310.4244,-879.7092 1311.3052,-886.6536"/>
</g>
<!-- lib/utils/__mocks__/cosmosDb.js -->
<g id="node25" class="node">
<title>lib/utils/__mocks__/cosmosDb.js</title>
<path fill="none" stroke="#cfffac" d="M242.3333,-625.5251C242.3333,-625.5251 30.6667,-625.5251 30.6667,-625.5251 26.8333,-625.5251 23,-621.6918 23,-617.8584 23,-617.8584 23,-610.1918 23,-610.1918 23,-606.3584 26.8333,-602.5251 30.6667,-602.5251 30.6667,-602.5251 242.3333,-602.5251 242.3333,-602.5251 246.1667,-602.5251 250,-606.3584 250,-610.1918 250,-610.1918 250,-617.8584 250,-617.8584 250,-621.6918 246.1667,-625.5251 242.3333,-625.5251"/>
<text text-anchor="middle" x="136.5" y="-610.3251" font-family="Arial" font-size="14.00" fill="#cfffac">lib/utils/__mocks__/cosmosDb.js</text>
</g>
<!-- lib/utils/wrapCallback.js&#45;&gt;lib/utils/strategy.js -->
<g id="edge46" class="edge">
<title>lib/utils/wrapCallback.js&#45;&gt;lib/utils/strategy.js</title>
<path fill="none" stroke="#757575" d="M1729.9965,-919.5411C1752.68,-924.2061 1779.0391,-929.627 1802.6367,-934.4799"/>
<polygon fill="#757575" stroke="#757575" points="1802.062,-937.9349 1812.5621,-936.5212 1803.4721,-931.0784 1802.062,-937.9349"/>
</g>
<!-- lib/utils/wrapCallback.js&#45;&gt;lib/utils/validity.js -->
<g id="edge47" class="edge">
<title>lib/utils/wrapCallback.js&#45;&gt;lib/utils/validity.js</title>
<path fill="none" stroke="#757575" d="M1723.4186,-896.423C1737.9826,-892.4527 1753.8126,-887.5878 1768,-882.0251 1793.2624,-872.1201 1820.5212,-857.7656 1840.2678,-846.6466"/>
<polygon fill="#757575" stroke="#757575" points="1842.0954,-849.6335 1849.0466,-841.6378 1838.6264,-843.5535 1842.0954,-849.6335"/>
</g>
<!-- lib/utils/adaptMongooseModel.test&#45;data.js -->
<g id="node27" class="node">
<title>lib/utils/adaptMongooseModel.test&#45;data.js</title>
<path fill="none" stroke="#c6c5fe" d="M915.3333,-606.5251C915.3333,-606.5251 646.6667,-606.5251 646.6667,-606.5251 642.8333,-606.5251 639,-602.6918 639,-598.8584 639,-598.8584 639,-591.1918 639,-591.1918 639,-587.3584 642.8333,-583.5251 646.6667,-583.5251 646.6667,-583.5251 915.3333,-583.5251 915.3333,-583.5251 919.1667,-583.5251 923,-587.3584 923,-591.1918 923,-591.1918 923,-598.8584 923,-598.8584 923,-602.6918 919.1667,-606.5251 915.3333,-606.5251"/>
<text text-anchor="middle" x="781" y="-591.3251" font-family="Arial" font-size="14.00" fill="#c6c5fe">lib/utils/adaptMongooseModel.test&#45;data.js</text>
</g>
<!-- lib/utils/adaptMongooseModel.test&#45;data.js&#45;&gt;test/lib/index.js -->
<g id="edge31" class="edge">
<title>lib/utils/adaptMongooseModel.test&#45;data.js&#45;&gt;test/lib/index.js</title>
<path fill="none" stroke="#757575" d="M870.5184,-583.5053C888.2129,-579.8759 906.4271,-575.1518 923,-569.0251 975.3438,-549.6744 1030.2629,-513.8864 1060.6621,-492.4885"/>
<polygon fill="#757575" stroke="#757575" points="1062.8094,-495.256 1068.9216,-486.602 1058.7468,-489.5556 1062.8094,-495.256"/>
</g>
<!-- lib/utils/adaptMongooseModel.test.js -->
<g id="node28" class="node">
<title>lib/utils/adaptMongooseModel.test.js</title>
<path fill="none" stroke="#c6c5fe" d="M573.8333,-761.5251C573.8333,-761.5251 338.1667,-761.5251 338.1667,-761.5251 334.3333,-761.5251 330.5,-757.6918 330.5,-753.8584 330.5,-753.8584 330.5,-746.1918 330.5,-746.1918 330.5,-742.3584 334.3333,-738.5251 338.1667,-738.5251 338.1667,-738.5251 573.8333,-738.5251 573.8333,-738.5251 577.6667,-738.5251 581.5,-742.3584 581.5,-746.1918 581.5,-746.1918 581.5,-753.8584 581.5,-753.8584 581.5,-757.6918 577.6667,-761.5251 573.8333,-761.5251"/>
<text text-anchor="middle" x="456" y="-746.3251" font-family="Arial" font-size="14.00" fill="#c6c5fe">lib/utils/adaptMongooseModel.test.js</text>
</g>
<!-- lib/utils/adaptMongooseModel.test.js&#45;&gt;lib/client.js -->
<g id="edge32" class="edge">
<title>lib/utils/adaptMongooseModel.test.js&#45;&gt;lib/client.js</title>
<path fill="none" stroke="#757575" d="M543.094,-761.5483C602.5504,-769.4148 679.3119,-779.571 729.3241,-786.188"/>
<polygon fill="#757575" stroke="#757575" points="728.8926,-789.6613 739.2653,-787.5033 729.8108,-782.7218 728.8926,-789.6613"/>
</g>
<!-- lib/utils/adaptMongooseModel.test.js&#45;&gt;lib/utils/CosmosClientWrapper.test&#45;data.js -->
<g id="edge33" class="edge">
<title>lib/utils/adaptMongooseModel.test.js&#45;&gt;lib/utils/CosmosClientWrapper.test&#45;data.js</title>
<path fill="none" stroke="#757575" d="M581.6018,-760.533C589.0383,-763.156 596.2358,-766.2902 603,-770.0251 624.8194,-782.0729 618.9602,-798.2047 639,-813.0251 666.4291,-833.3103 701.7496,-848.2703 730.302,-858.179"/>
<polygon fill="#757575" stroke="#757575" points="729.5009,-861.6022 740.095,-861.4736 731.733,-854.9676 729.5009,-861.6022"/>
</g>
<!-- lib/utils/adaptMongooseModel.test.js&#45;&gt;test/lib/index.js -->
<g id="edge36" class="edge">
<title>lib/utils/adaptMongooseModel.test.js&#45;&gt;test/lib/index.js</title>
<path fill="none" stroke="#757575" d="M463.8564,-738.4683C486.5843,-706.0825 556.0923,-614.1954 639,-574.0251 753.6573,-518.4715 799.4317,-566.0634 923,-535.0251 967.6928,-523.799 1017.0834,-504.3545 1049.331,-490.6492"/>
<polygon fill="#757575" stroke="#757575" points="1050.9586,-493.7593 1058.7644,-486.5955 1048.1949,-487.328 1050.9586,-493.7593"/>
</g>
<!-- lib/utils/adaptMongooseModel.test.js&#45;&gt;lib/utils/adaptMongooseModel.js -->
<g id="edge34" class="edge">
<title>lib/utils/adaptMongooseModel.test.js&#45;&gt;lib/utils/adaptMongooseModel.js</title>
<path fill="none" stroke="#757575" d="M581.6634,-755.6458C762.4347,-763.7314 1093.7467,-778.5505 1272.6549,-786.5528"/>
<polygon fill="#757575" stroke="#757575" points="1272.7531,-790.0606 1282.8996,-787.011 1273.066,-783.0676 1272.7531,-790.0606"/>
</g>
<!-- lib/utils/adaptMongooseModel.test.js&#45;&gt;lib/utils/adaptMongooseModel.test&#45;data.js -->
<g id="edge35" class="edge">
<title>lib/utils/adaptMongooseModel.test.js&#45;&gt;lib/utils/adaptMongooseModel.test&#45;data.js</title>
<path fill="none" stroke="#757575" d="M468.5697,-738.1413C496.6599,-712.3116 567.6794,-650.9737 639,-621.0251 650.693,-616.115 663.3115,-612.1302 676.0327,-608.8967"/>
<polygon fill="#757575" stroke="#757575" points="676.8561,-612.2986 685.7671,-606.5676 675.2271,-605.4907 676.8561,-612.2986"/>
</g>
<!-- lib/utils/adaptMongooseSchema.js -->
<g id="node29" class="node">
<title>lib/utils/adaptMongooseSchema.js</title>
<path fill="none" stroke="#c6c5fe" d="M1506.3333,-649.5251C1506.3333,-649.5251 1283.6667,-649.5251 1283.6667,-649.5251 1279.8333,-649.5251 1276,-645.6918 1276,-641.8584 1276,-641.8584 1276,-634.1918 1276,-634.1918 1276,-630.3584 1279.8333,-626.5251 1283.6667,-626.5251 1283.6667,-626.5251 1506.3333,-626.5251 1506.3333,-626.5251 1510.1667,-626.5251 1514,-630.3584 1514,-634.1918 1514,-634.1918 1514,-641.8584 1514,-641.8584 1514,-645.6918 1510.1667,-649.5251 1506.3333,-649.5251"/>
<text text-anchor="middle" x="1395" y="-634.3251" font-family="Arial" font-size="14.00" fill="#c6c5fe">lib/utils/adaptMongooseSchema.js</text>
</g>
<!-- lib/utils/adaptMongooseSchema.js&#45;&gt;lib/utils/useMongoNative.js -->
<g id="edge37" class="edge">
<title>lib/utils/adaptMongooseSchema.js&#45;&gt;lib/utils/useMongoNative.js</title>
<path fill="none" stroke="#757575" d="M1488.3729,-649.5772C1507.0761,-653.2081 1526.3825,-657.9247 1544,-664.0251 1582.1842,-677.2472 1622.6366,-700.7287 1648.0848,-716.8207"/>
<polygon fill="#757575" stroke="#757575" points="1646.4433,-719.9261 1656.7495,-722.3823 1650.2245,-714.0352 1646.4433,-719.9261"/>
</g>
<!-- lib/utils/adaptMongooseSchema.js&#45;&gt;lib/utils/validity.js -->
<g id="edge38" class="edge">
<title>lib/utils/adaptMongooseSchema.js&#45;&gt;lib/utils/validity.js</title>
<path fill="none" stroke="#757575" d="M1514.0478,-641.7368C1591.1573,-648.8211 1691.1524,-667.1444 1768,-713.0251 1808.1344,-736.9867 1840.2639,-782.6713 1856.6442,-809.3124"/>
<polygon fill="#757575" stroke="#757575" points="1853.8165,-811.4035 1861.9521,-818.1904 1859.8246,-807.8114 1853.8165,-811.4035"/>
</g>
<!-- lib/utils/cosmosDb.test&#45;data.js -->
<g id="node30" class="node">
<title>lib/utils/cosmosDb.test&#45;data.js</title>
<path fill="none" stroke="#c6c5fe" d="M877.3333,-446.5251C877.3333,-446.5251 684.6667,-446.5251 684.6667,-446.5251 680.8333,-446.5251 677,-442.6918 677,-438.8584 677,-438.8584 677,-431.1918 677,-431.1918 677,-427.3584 680.8333,-423.5251 684.6667,-423.5251 684.6667,-423.5251 877.3333,-423.5251 877.3333,-423.5251 881.1667,-423.5251 885,-427.3584 885,-431.1918 885,-431.1918 885,-438.8584 885,-438.8584 885,-442.6918 881.1667,-446.5251 877.3333,-446.5251"/>
<text text-anchor="middle" x="781" y="-431.3251" font-family="Arial" font-size="14.00" fill="#c6c5fe">lib/utils/cosmosDb.test&#45;data.js</text>
</g>
<!-- lib/utils/cosmosDb.test&#45;data.js&#45;&gt;test/lib/index.js -->
<g id="edge40" class="edge">
<title>lib/utils/cosmosDb.test&#45;data.js&#45;&gt;test/lib/index.js</title>
<path fill="none" stroke="#757575" d="M868.3776,-446.5411C916.3039,-452.8576 974.7457,-460.56 1018.7674,-466.3618"/>
<polygon fill="#757575" stroke="#757575" points="1018.4087,-469.8447 1028.7803,-467.6815 1019.3234,-462.9047 1018.4087,-469.8447"/>
</g>
<!-- lib/utils/cosmosDb.test.js -->
<g id="node31" class="node">
<title>lib/utils/cosmosDb.test.js</title>
<path fill="none" stroke="#c6c5fe" d="M535.8333,-446.5251C535.8333,-446.5251 376.1667,-446.5251 376.1667,-446.5251 372.3333,-446.5251 368.5,-442.6918 368.5,-438.8584 368.5,-438.8584 368.5,-431.1918 368.5,-431.1918 368.5,-427.3584 372.3333,-423.5251 376.1667,-423.5251 376.1667,-423.5251 535.8333,-423.5251 535.8333,-423.5251 539.6667,-423.5251 543.5,-427.3584 543.5,-431.1918 543.5,-431.1918 543.5,-438.8584 543.5,-438.8584 543.5,-442.6918 539.6667,-446.5251 535.8333,-446.5251"/>
<text text-anchor="middle" x="456" y="-431.3251" font-family="Arial" font-size="14.00" fill="#c6c5fe">lib/utils/cosmosDb.test.js</text>
</g>
<!-- lib/utils/cosmosDb.test.js&#45;&gt;test/lib/index.js -->
<g id="edge43" class="edge">
<title>lib/utils/cosmosDb.test.js&#45;&gt;test/lib/index.js</title>
<path fill="none" stroke="#757575" d="M517.7911,-423.5112C607.7527,-408.7132 779.6894,-387.8623 923,-414.0251 969.7602,-422.5617 1020.5657,-443.9324 1052.4584,-458.9594"/>
<polygon fill="#757575" stroke="#757575" points="1051.1928,-462.234 1061.7235,-463.398 1054.2172,-455.921 1051.1928,-462.234"/>
</g>
<!-- lib/utils/cosmosDb.test.js&#45;&gt;lib/utils/cosmosDb.js -->
<g id="edge41" class="edge">
<title>lib/utils/cosmosDb.test.js&#45;&gt;lib/utils/cosmosDb.js</title>
<path fill="none" stroke="#757575" d="M522.1144,-446.5725C551.0692,-454.9757 582.95,-469.3912 603,-494.0251 660.2895,-564.4123 575.6299,-630.0584 639,-695.0251 684.2209,-741.3853 1147.3786,-795.5096 1210,-812.0251 1259.9008,-825.1857 1316.1603,-844.0188 1353.3984,-857.0599"/>
<polygon fill="#757575" stroke="#757575" points="1352.3128,-860.3882 1362.9076,-860.409 1354.6382,-853.7857 1352.3128,-860.3882"/>
</g>
<!-- lib/utils/cosmosDb.test.js&#45;&gt;lib/utils/cosmosDb.test&#45;data.js -->
<g id="edge42" class="edge">
<title>lib/utils/cosmosDb.test.js&#45;&gt;lib/utils/cosmosDb.test&#45;data.js</title>
<path fill="none" stroke="#757575" d="M543.5216,-435.0251C581.392,-435.0251 626.2209,-435.0251 666.6716,-435.0251"/>
<polygon fill="#757575" stroke="#757575" points="666.8545,-438.5252 676.8545,-435.0251 666.8544,-431.5252 666.8545,-438.5252"/>
</g>
<!-- lib/utils/useMongoNative.test.js -->
<g id="node32" class="node">
<title>lib/utils/useMongoNative.test.js</title>
<path fill="none" stroke="#c6c5fe" d="M880.8333,-686.5251C880.8333,-686.5251 681.1667,-686.5251 681.1667,-686.5251 677.3333,-686.5251 673.5,-682.6918 673.5,-678.8584 673.5,-678.8584 673.5,-671.1918 673.5,-671.1918 673.5,-667.3584 677.3333,-663.5251 681.1667,-663.5251 681.1667,-663.5251 880.8333,-663.5251 880.8333,-663.5251 884.6667,-663.5251 888.5,-667.3584 888.5,-671.1918 888.5,-671.1918 888.5,-678.8584 888.5,-678.8584 888.5,-682.6918 884.6667,-686.5251 880.8333,-686.5251"/>
<text text-anchor="middle" x="781" y="-671.3251" font-family="Arial" font-size="14.00" fill="#c6c5fe">lib/utils/useMongoNative.test.js</text>
</g>
<!-- lib/utils/useMongoNative.test.js&#45;&gt;lib/utils/useMongoNative.js -->
<g id="edge44" class="edge">
<title>lib/utils/useMongoNative.test.js&#45;&gt;lib/utils/useMongoNative.js</title>
<path fill="none" stroke="#757575" d="M888.5656,-681.2314C975.3451,-686.3138 1100.5519,-693.8167 1210,-701.0251 1333.6247,-709.1672 1475.7105,-719.4015 1569.7364,-726.2966"/>
<polygon fill="#757575" stroke="#757575" points="1569.5905,-729.7952 1579.82,-727.0367 1570.103,-722.814 1569.5905,-729.7952"/>
</g>
<!-- lib/utils/useMongoNative.test.js&#45;&gt;test/lib/index.js -->
<g id="edge45" class="edge">
<title>lib/utils/useMongoNative.test.js&#45;&gt;test/lib/index.js</title>
<path fill="none" stroke="#757575" d="M887.1528,-663.4314C899.6601,-659.8119 911.9041,-655.1137 923,-649.0251 992.2845,-611.0068 1048.3849,-532.3214 1072.1805,-495.2198"/>
<polygon fill="#757575" stroke="#757575" points="1075.1574,-497.0606 1077.5226,-486.7332 1069.2333,-493.3316 1075.1574,-497.0606"/>
</g>
<!-- lib/utils/wrapCallback.test.js -->
<g id="node33" class="node">
<title>lib/utils/wrapCallback.test.js</title>
<path fill="none" stroke="#c6c5fe" d="M544.8333,-884.5251C544.8333,-884.5251 367.1667,-884.5251 367.1667,-884.5251 363.3333,-884.5251 359.5,-880.6918 359.5,-876.8584 359.5,-876.8584 359.5,-869.1918 359.5,-869.1918 359.5,-865.3584 363.3333,-861.5251 367.1667,-861.5251 367.1667,-861.5251 544.8333,-861.5251 544.8333,-861.5251 548.6667,-861.5251 552.5,-865.3584 552.5,-869.1918 552.5,-869.1918 552.5,-876.8584 552.5,-876.8584 552.5,-880.6918 548.6667,-884.5251 544.8333,-884.5251"/>
<text text-anchor="middle" x="456" y="-869.3251" font-family="Arial" font-size="14.00" fill="#c6c5fe">lib/utils/wrapCallback.test.js</text>
</g>
<!-- lib/utils/wrapCallback.test.js&#45;&gt;lib/client.js -->
<g id="edge48" class="edge">
<title>lib/utils/wrapCallback.test.js&#45;&gt;lib/client.js</title>
<path fill="none" stroke="#757575" d="M552.5348,-861.743C569.4519,-859.0534 586.8135,-855.8318 603,-852.0251 651.8111,-840.5458 706.3194,-821.5231 742.0015,-808.189"/>
<polygon fill="#757575" stroke="#757575" points="743.4241,-811.3932 751.5461,-804.5899 740.9543,-804.8433 743.4241,-811.3932"/>
</g>
<!-- lib/utils/wrapCallback.test.js&#45;&gt;lib/utils/CosmosClientWrapper.test&#45;data.js -->
<g id="edge49" class="edge">
<title>lib/utils/wrapCallback.test.js&#45;&gt;lib/utils/CosmosClientWrapper.test&#45;data.js</title>
<path fill="none" stroke="#757575" d="M552.6308,-873.0251C576.4999,-873.0251 602.6515,-873.0251 628.4664,-873.0251"/>
<polygon fill="#757575" stroke="#757575" points="628.7227,-876.5252 638.7227,-873.0251 628.7227,-869.5252 628.7227,-876.5252"/>
</g>
<!-- lib/utils/wrapCallback.test.js&#45;&gt;lib/utils/wrapCallback.js -->
<g id="edge50" class="edge">
<title>lib/utils/wrapCallback.test.js&#45;&gt;lib/utils/wrapCallback.js</title>
<path fill="none" stroke="#757575" d="M545.6765,-884.5335C575.3343,-887.8829 608.5362,-891.1439 639,-893.0251 985.7922,-914.4405 1399.1239,-912.0639 1580.6742,-909.6178"/>
<polygon fill="#757575" stroke="#757575" points="1580.7698,-913.1169 1590.7205,-909.4791 1580.6731,-906.1176 1580.7698,-913.1169"/>
</g>
<!-- test/lib/Mongoose.js&#45;&gt;test/lib/CosmosDb.js -->
<g id="edge51" class="edge">
<title>test/lib/Mongoose.js&#45;&gt;test/lib/CosmosDb.js</title>
<path fill="none" stroke="#757575" d="M1467.5756,-427.8225C1504.7772,-425.1558 1550.3005,-421.8924 1589.1216,-419.1096"/>
<polygon fill="#757575" stroke="#757575" points="1589.6336,-422.5819 1599.3577,-418.3758 1589.133,-415.5999 1589.6336,-422.5819"/>
</g>
<!-- test/throughputSimulation.integration&#45;test.js -->
<g id="node41" class="node">
<title>test/throughputSimulation.integration&#45;test.js</title>
<path fill="none" stroke="#c6c5fe" d="M595.3333,-526.5251C595.3333,-526.5251 316.6667,-526.5251 316.6667,-526.5251 312.8333,-526.5251 309,-522.6918 309,-518.8584 309,-518.8584 309,-511.1918 309,-511.1918 309,-507.3584 312.8333,-503.5251 316.6667,-503.5251 316.6667,-503.5251 595.3333,-503.5251 595.3333,-503.5251 599.1667,-503.5251 603,-507.3584 603,-511.1918 603,-511.1918 603,-518.8584 603,-518.8584 603,-522.6918 599.1667,-526.5251 595.3333,-526.5251"/>
<text text-anchor="middle" x="456" y="-511.3251" font-family="Arial" font-size="14.00" fill="#c6c5fe">test/throughputSimulation.integration&#45;test.js</text>
</g>
<!-- test/throughputSimulation.integration&#45;test.js&#45;&gt;lib/client.js -->
<g id="edge59" class="edge">
<title>test/throughputSimulation.integration&#45;test.js&#45;&gt;lib/client.js</title>
<path fill="none" stroke="#757575" d="M463.1678,-526.5534C485.3333,-561.3939 556.2797,-667.0002 639,-729.0251 667.9618,-750.7411 705.4633,-767.2461 734.654,-778.0519"/>
<polygon fill="#757575" stroke="#757575" points="733.6161,-781.3981 744.2104,-781.4972 735.9902,-774.813 733.6161,-781.3981"/>
</g>
<!-- test/throughputSimulation.integration&#45;test.js&#45;&gt;test/lib/index.js -->
<g id="edge60" class="edge">
<title>test/throughputSimulation.integration&#45;test.js&#45;&gt;test/lib/index.js</title>
<path fill="none" stroke="#757575" d="M545.2315,-503.4887C575.0084,-499.9852 608.3942,-496.4307 639,-494.0251 773.6028,-483.4453 931.58,-478.4624 1018.6054,-476.3608"/>
<polygon fill="#757575" stroke="#757575" points="1018.9456,-479.8538 1028.8602,-476.1186 1018.7803,-472.8558 1018.9456,-479.8538"/>
</g>
<!-- test/throughputSimulation.test&#45;data.js -->
<g id="node42" class="node">
<title>test/throughputSimulation.test&#45;data.js</title>
<path fill="none" stroke="#cfffac" d="M900.8333,-526.5251C900.8333,-526.5251 661.1667,-526.5251 661.1667,-526.5251 657.3333,-526.5251 653.5,-522.6918 653.5,-518.8584 653.5,-518.8584 653.5,-511.1918 653.5,-511.1918 653.5,-507.3584 657.3333,-503.5251 661.1667,-503.5251 661.1667,-503.5251 900.8333,-503.5251 900.8333,-503.5251 904.6667,-503.5251 908.5,-507.3584 908.5,-511.1918 908.5,-511.1918 908.5,-518.8584 908.5,-518.8584 908.5,-522.6918 904.6667,-526.5251 900.8333,-526.5251"/>
<text text-anchor="middle" x="781" y="-511.3251" font-family="Arial" font-size="14.00" fill="#cfffac">test/throughputSimulation.test&#45;data.js</text>
</g>
<!-- test/throughputSimulation.integration&#45;test.js&#45;&gt;test/throughputSimulation.test&#45;data.js -->
<g id="edge61" class="edge">
<title>test/throughputSimulation.integration&#45;test.js&#45;&gt;test/throughputSimulation.test&#45;data.js</title>
<path fill="none" stroke="#757575" d="M603.2855,-515.0251C616.5352,-515.0251 629.9211,-515.0251 643.0865,-515.0251"/>
<polygon fill="#757575" stroke="#757575" points="643.1054,-518.5252 653.1054,-515.0251 643.1053,-511.5252 643.1054,-518.5252"/>
</g>
</g>
</svg>
