<?xml version="1.0" encoding="UTF-8" standalone="no"?>
<!DOCTYPE svg PUBLIC "-//W3C//DTD SVG 1.1//EN"
 "http://www.w3.org/Graphics/SVG/1.1/DTD/svg11.dtd">
<!-- Generated by graphviz version 2.40.1 (20161225.0304)
 -->
<!-- Title: G Pages: 1 -->
<svg width="900pt" height="207pt"
 viewBox="0.00 0.00 900.20 207.20" xmlns="http://www.w3.org/2000/svg" xmlns:xlink="http://www.w3.org/1999/xlink">
<g id="graph0" class="graph" transform="scale(1 1) rotate(0) translate(21.6 185.6)">
<title>G</title>
<polygon fill="#111111" stroke="transparent" points="-21.6,21.6 -21.6,-185.6 878.6,-185.6 878.6,21.6 -21.6,21.6"/>
<!-- client.js -->
<g id="node1" class="node">
<title>client.js</title>
<path fill="none" stroke="#c6c5fe" d="M159.3333,-43C159.3333,-43 109.6667,-43 109.6667,-43 105.8333,-43 102,-39.1667 102,-35.3333 102,-35.3333 102,-27.6667 102,-27.6667 102,-23.8333 105.8333,-20 109.6667,-20 109.6667,-20 159.3333,-20 159.3333,-20 163.1667,-20 167,-23.8333 167,-27.6667 167,-27.6667 167,-35.3333 167,-35.3333 167,-39.1667 163.1667,-43 159.3333,-43"/>
<text text-anchor="middle" x="134.5" y="-27.8" font-family="Arial" font-size="14.00" fill="#c6c5fe">client.js</text>
</g>
<!-- utils/CosmosClientWrapper.js -->
<g id="node2" class="node">
<title>utils/CosmosClientWrapper.js</title>
<path fill="none" stroke="#c6c5fe" d="M401.3333,-84C401.3333,-84 210.6667,-84 210.6667,-84 206.8333,-84 203,-80.1667 203,-76.3333 203,-76.3333 203,-68.6667 203,-68.6667 203,-64.8333 206.8333,-61 210.6667,-61 210.6667,-61 401.3333,-61 401.3333,-61 405.1667,-61 409,-64.8333 409,-68.6667 409,-68.6667 409,-76.3333 409,-76.3333 409,-80.1667 405.1667,-84 401.3333,-84"/>
<text text-anchor="middle" x="306" y="-68.8" font-family="Arial" font-size="14.00" fill="#c6c5fe">utils/CosmosClientWrapper.js</text>
</g>
<!-- client.js&#45;&gt;utils/CosmosClientWrapper.js -->
<g id="edge1" class="edge">
<title>client.js&#45;&gt;utils/CosmosClientWrapper.js</title>
<path fill="none" stroke="#757575" d="M167.1615,-39.3083C190.0123,-44.7712 221.1554,-52.2165 248.1557,-58.6713"/>
<polygon fill="#757575" stroke="#757575" points="247.3529,-62.078 257.8926,-60.9991 248.9805,-55.2698 247.3529,-62.078"/>
</g>
<!-- utils/useMongoNative.js -->
<g id="node3" class="node">
<title>utils/useMongoNative.js</title>
<path fill="none" stroke="#cfffac" d="M849.3333,-23C849.3333,-23 694.6667,-23 694.6667,-23 690.8333,-23 687,-19.1667 687,-15.3333 687,-15.3333 687,-7.6667 687,-7.6667 687,-3.8333 690.8333,0 694.6667,0 694.6667,0 849.3333,0 849.3333,0 853.1667,0 857,-3.8333 857,-7.6667 857,-7.6667 857,-15.3333 857,-15.3333 857,-19.1667 853.1667,-23 849.3333,-23"/>
<text text-anchor="middle" x="772" y="-7.8" font-family="Arial" font-size="14.00" fill="#cfffac">utils/useMongoNative.js</text>
</g>
<!-- client.js&#45;&gt;utils/useMongoNative.js -->
<g id="edge2" class="edge">
<title>client.js&#45;&gt;utils/useMongoNative.js</title>
<path fill="none" stroke="#757575" d="M167.0968,-28.5679C223.6142,-23.6471 343.4826,-13.929 445,-10.5 536.5034,-7.4092 559.4452,-10.1217 651,-10.5 659.3045,-10.5343 667.9296,-10.5819 676.5781,-10.6378"/>
<polygon fill="#757575" stroke="#757575" points="676.7001,-14.1386 686.7238,-10.7069 676.7479,-7.1388 676.7001,-14.1386"/>
</g>
<!-- utils/adaptMongooseModel.js -->
<g id="node5" class="node">
<title>utils/adaptMongooseModel.js</title>
<path fill="none" stroke="#c6c5fe" d="M643.3333,-43C643.3333,-43 452.6667,-43 452.6667,-43 448.8333,-43 445,-39.1667 445,-35.3333 445,-35.3333 445,-27.6667 445,-27.6667 445,-23.8333 448.8333,-20 452.6667,-20 452.6667,-20 643.3333,-20 643.3333,-20 647.1667,-20 651,-23.8333 651,-27.6667 651,-27.6667 651,-35.3333 651,-35.3333 651,-39.1667 647.1667,-43 643.3333,-43"/>
<text text-anchor="middle" x="548" y="-27.8" font-family="Arial" font-size="14.00" fill="#c6c5fe">utils/adaptMongooseModel.js</text>
</g>
<!-- utils/CosmosClientWrapper.js&#45;&gt;utils/adaptMongooseModel.js -->
<g id="edge4" class="edge">
<title>utils/CosmosClientWrapper.js&#45;&gt;utils/adaptMongooseModel.js</title>
<path fill="none" stroke="#757575" d="M374.0545,-60.9701C403.9515,-55.9049 439.2202,-49.9296 470.1574,-44.6882"/>
<polygon fill="#757575" stroke="#757575" points="470.7626,-48.1356 480.0374,-43.0143 469.5933,-41.234 470.7626,-48.1356"/>
</g>
<!-- utils/cosmosDb.js -->
<g id="node6" class="node">
<title>utils/cosmosDb.js</title>
<path fill="none" stroke="#cfffac" d="M605.3333,-84C605.3333,-84 490.6667,-84 490.6667,-84 486.8333,-84 483,-80.1667 483,-76.3333 483,-76.3333 483,-68.6667 483,-68.6667 483,-64.8333 486.8333,-61 490.6667,-61 490.6667,-61 605.3333,-61 605.3333,-61 609.1667,-61 613,-64.8333 613,-68.6667 613,-68.6667 613,-76.3333 613,-76.3333 613,-80.1667 609.1667,-84 605.3333,-84"/>
<text text-anchor="middle" x="548" y="-68.8" font-family="Arial" font-size="14.00" fill="#cfffac">utils/cosmosDb.js</text>
</g>
<!-- utils/CosmosClientWrapper.js&#45;&gt;utils/cosmosDb.js -->
<g id="edge5" class="edge">
<title>utils/CosmosClientWrapper.js&#45;&gt;utils/cosmosDb.js</title>
<path fill="none" stroke="#757575" d="M409.3317,-72.5C430.6522,-72.5 452.7205,-72.5 472.8118,-72.5"/>
<polygon fill="#757575" stroke="#757575" points="472.8127,-76.0001 482.8127,-72.5 472.8126,-69.0001 472.8127,-76.0001"/>
</g>
<!-- utils/strategy.js -->
<g id="node7" class="node">
<title>utils/strategy.js</title>
<path fill="none" stroke="#cfffac" d="M819.8333,-94C819.8333,-94 724.1667,-94 724.1667,-94 720.3333,-94 716.5,-90.1667 716.5,-86.3333 716.5,-86.3333 716.5,-78.6667 716.5,-78.6667 716.5,-74.8333 720.3333,-71 724.1667,-71 724.1667,-71 819.8333,-71 819.8333,-71 823.6667,-71 827.5,-74.8333 827.5,-78.6667 827.5,-78.6667 827.5,-86.3333 827.5,-86.3333 827.5,-90.1667 823.6667,-94 819.8333,-94"/>
<text text-anchor="middle" x="772" y="-78.8" font-family="Arial" font-size="14.00" fill="#cfffac">utils/strategy.js</text>
</g>
<!-- utils/CosmosClientWrapper.js&#45;&gt;utils/strategy.js -->
<g id="edge6" class="edge">
<title>utils/CosmosClientWrapper.js&#45;&gt;utils/strategy.js</title>
<path fill="none" stroke="#757575" d="M368.7408,-84.0194C392.5353,-87.8499 419.9326,-91.6171 445,-93.5 536.2984,-100.3577 559.5385,-97.6488 651,-93.5 668.9626,-92.6852 688.379,-91.1934 706.2893,-89.5657"/>
<polygon fill="#757575" stroke="#757575" points="706.7208,-93.0407 716.3509,-88.6235 706.068,-86.0712 706.7208,-93.0407"/>
</g>
<!-- utils/validity.js -->
<g id="node8" class="node">
<title>utils/validity.js</title>
<path fill="none" stroke="#cfffac" d="M592.3333,-164C592.3333,-164 503.6667,-164 503.6667,-164 499.8333,-164 496,-160.1667 496,-156.3333 496,-156.3333 496,-148.6667 496,-148.6667 496,-144.8333 499.8333,-141 503.6667,-141 503.6667,-141 592.3333,-141 592.3333,-141 596.1667,-141 600,-144.8333 600,-148.6667 600,-148.6667 600,-156.3333 600,-156.3333 600,-160.1667 596.1667,-164 592.3333,-164"/>
<text text-anchor="middle" x="548" y="-148.8" font-family="Arial" font-size="14.00" fill="#cfffac">utils/validity.js</text>
</g>
<!-- utils/CosmosClientWrapper.js&#45;&gt;utils/validity.js -->
<g id="edge7" class="edge">
<title>utils/CosmosClientWrapper.js&#45;&gt;utils/validity.js</title>
<path fill="none" stroke="#757575" d="M332.8137,-84.0549C360.5512,-95.737 405.2916,-113.8283 445,-126.5 458.5021,-130.8088 473.1794,-134.8736 487.1097,-138.4526"/>
<polygon fill="#757575" stroke="#757575" points="486.5413,-141.9188 497.0935,-140.9694 488.2524,-135.1311 486.5413,-141.9188"/>
</g>
<!-- index.js -->
<g id="node4" class="node">
<title>index.js</title>
<path fill="none" stroke="#c6c5fe" d="M58.3333,-43C58.3333,-43 7.6667,-43 7.6667,-43 3.8333,-43 0,-39.1667 0,-35.3333 0,-35.3333 0,-27.6667 0,-27.6667 0,-23.8333 3.8333,-20 7.6667,-20 7.6667,-20 58.3333,-20 58.3333,-20 62.1667,-20 66,-23.8333 66,-27.6667 66,-27.6667 66,-35.3333 66,-35.3333 66,-39.1667 62.1667,-43 58.3333,-43"/>
<text text-anchor="middle" x="33" y="-27.8" font-family="Arial" font-size="14.00" fill="#c6c5fe">index.js</text>
</g>
<!-- index.js&#45;&gt;client.js -->
<g id="edge3" class="edge">
<title>index.js&#45;&gt;client.js</title>
<path fill="none" stroke="#757575" d="M66.2349,-31.5C74.3734,-31.5 83.1968,-31.5 91.7134,-31.5"/>
<polygon fill="#757575" stroke="#757575" points="91.8829,-35.0001 101.8829,-31.5 91.8829,-28.0001 91.8829,-35.0001"/>
</g>
<!-- utils/adaptMongooseModel.js&#45;&gt;utils/useMongoNative.js -->
<g id="edge9" class="edge">
<title>utils/adaptMongooseModel.js&#45;&gt;utils/useMongoNative.js</title>
<path fill="none" stroke="#757575" d="M651.1488,-22.2903C659.6385,-21.5323 668.1965,-20.7682 676.6259,-20.0155"/>
<polygon fill="#757575" stroke="#757575" points="677.182,-23.4799 686.831,-19.1044 676.5594,-16.5076 677.182,-23.4799"/>
</g>
<!-- utils/adaptMongooseModel.js&#45;&gt;utils/strategy.js -->
<g id="edge8" class="edge">
<title>utils/adaptMongooseModel.js&#45;&gt;utils/strategy.js</title>
<path fill="none" stroke="#757575" d="M610.4888,-43.0202C623.8857,-45.6614 637.9378,-48.5613 651,-51.5 673.6475,-56.5952 698.5117,-62.8497 719.779,-68.403"/>
<polygon fill="#757575" stroke="#757575" points="719.0283,-71.8245 729.5896,-70.9813 720.8076,-65.0544 719.0283,-71.8245"/>
</g>
</g>
</svg>
