<?xml version="1.0" encoding="UTF-8" standalone="no"?>
<!DOCTYPE svg PUBLIC "-//W3C//DTD SVG 1.1//EN"
 "http://www.w3.org/Graphics/SVG/1.1/DTD/svg11.dtd">
<!-- Generated by graphviz version 2.40.1 (20161225.0304)
 -->
<!-- Title: G Pages: 1 -->
<svg width="1976pt" height="981pt"
 viewBox="0.00 0.00 1976.20 980.94" xmlns="http://www.w3.org/2000/svg" xmlns:xlink="http://www.w3.org/1999/xlink">
<g id="graph0" class="graph" transform="scale(1 1) rotate(0) translate(21.6 959.3376)">
<title>G</title>
<polygon fill="#111111" stroke="transparent" points="-21.6,21.6 -21.6,-959.3376 1954.6,-959.3376 1954.6,21.6 -21.6,21.6"/>
<!-- __mocks__/@azure/cosmos/Container.js -->
<g id="node1" class="node">
<title>__mocks__/@azure/cosmos/Container.js</title>
<path fill="none" stroke="#c6c5fe" d="M914.3333,-36.5251C914.3333,-36.5251 647.6667,-36.5251 647.6667,-36.5251 643.8333,-36.5251 640,-32.6918 640,-28.8584 640,-28.8584 640,-21.1918 640,-21.1918 640,-17.3584 643.8333,-13.5251 647.6667,-13.5251 647.6667,-13.5251 914.3333,-13.5251 914.3333,-13.5251 918.1667,-13.5251 922,-17.3584 922,-21.1918 922,-21.1918 922,-28.8584 922,-28.8584 922,-32.6918 918.1667,-36.5251 914.3333,-36.5251"/>
<text text-anchor="middle" x="781" y="-21.3251" font-family="Arial" font-size="14.00" fill="#c6c5fe">__mocks__/@azure/cosmos/Container.js</text>
</g>
<!-- __mocks__/@azure/cosmos/Error.js -->
<g id="node2" class="node">
<title>__mocks__/@azure/cosmos/Error.js</title>
<path fill="none" stroke="#cfffac" d="M1512.8333,-54.5251C1512.8333,-54.5251 1277.1667,-54.5251 1277.1667,-54.5251 1273.3333,-54.5251 1269.5,-50.6918 1269.5,-46.8584 1269.5,-46.8584 1269.5,-39.1918 1269.5,-39.1918 1269.5,-35.3584 1273.3333,-31.5251 1277.1667,-31.5251 1277.1667,-31.5251 1512.8333,-31.5251 1512.8333,-31.5251 1516.6667,-31.5251 1520.5,-35.3584 1520.5,-39.1918 1520.5,-39.1918 1520.5,-46.8584 1520.5,-46.8584 1520.5,-50.6918 1516.6667,-54.5251 1512.8333,-54.5251"/>
<text text-anchor="middle" x="1395" y="-39.3251" font-family="Arial" font-size="14.00" fill="#cfffac">__mocks__/@azure/cosmos/Error.js</text>
</g>
<!-- __mocks__/@azure/cosmos/Container.js&#45;&gt;__mocks__/@azure/cosmos/Error.js -->
<g id="edge1" class="edge">
<title>__mocks__/@azure/cosmos/Container.js&#45;&gt;__mocks__/@azure/cosmos/Error.js</title>
<path fill="none" stroke="#757575" d="M922.2493,-29.166C1023.4986,-32.1342 1159.1,-36.1095 1259.1081,-39.0413"/>
<polygon fill="#757575" stroke="#757575" points="1259.1849,-42.545 1269.2832,-39.3396 1259.3901,-35.548 1259.1849,-42.545"/>
</g>
<!-- __mocks__/@azure/cosmos/Offer.js -->
<g id="node3" class="node">
<title>__mocks__/@azure/cosmos/Offer.js</title>
<path fill="none" stroke="#c6c5fe" d="M1202.3333,-74.5251C1202.3333,-74.5251 966.6667,-74.5251 966.6667,-74.5251 962.8333,-74.5251 959,-70.6918 959,-66.8584 959,-66.8584 959,-59.1918 959,-59.1918 959,-55.3584 962.8333,-51.5251 966.6667,-51.5251 966.6667,-51.5251 1202.3333,-51.5251 1202.3333,-51.5251 1206.1667,-51.5251 1210,-55.3584 1210,-59.1918 1210,-59.1918 1210,-66.8584 1210,-66.8584 1210,-70.6918 1206.1667,-74.5251 1202.3333,-74.5251"/>
<text text-anchor="middle" x="1084.5" y="-59.3251" font-family="Arial" font-size="14.00" fill="#c6c5fe">__mocks__/@azure/cosmos/Offer.js</text>
</g>
<!-- __mocks__/@azure/cosmos/Container.js&#45;&gt;__mocks__/@azure/cosmos/Offer.js -->
<g id="edge2" class="edge">
<title>__mocks__/@azure/cosmos/Container.js&#45;&gt;__mocks__/@azure/cosmos/Offer.js</title>
<path fill="none" stroke="#757575" d="M872.8836,-36.5295C907.3419,-40.8438 946.7047,-45.7723 982.0608,-50.1991"/>
<polygon fill="#757575" stroke="#757575" points="982.048,-53.7247 992.4053,-51.4943 982.9177,-46.779 982.048,-53.7247"/>
</g>
<!-- __mocks__/@azure/cosmos/Offer.js&#45;&gt;__mocks__/@azure/cosmos/Error.js -->
<g id="edge5" class="edge">
<title>__mocks__/@azure/cosmos/Offer.js&#45;&gt;__mocks__/@azure/cosmos/Error.js</title>
<path fill="none" stroke="#757575" d="M1210.3446,-54.9192C1226.4932,-53.879 1243.0824,-52.8105 1259.3784,-51.7608"/>
<polygon fill="#757575" stroke="#757575" points="1259.7261,-55.2457 1269.4805,-51.1101 1259.2761,-48.2602 1259.7261,-55.2457"/>
</g>
<!-- __mocks__/@azure/cosmos/Database.js -->
<g id="node4" class="node">
<title>__mocks__/@azure/cosmos/Database.js</title>
<path fill="none" stroke="#c6c5fe" d="M589.8333,-36.5251C589.8333,-36.5251 322.1667,-36.5251 322.1667,-36.5251 318.3333,-36.5251 314.5,-32.6918 314.5,-28.8584 314.5,-28.8584 314.5,-21.1918 314.5,-21.1918 314.5,-17.3584 318.3333,-13.5251 322.1667,-13.5251 322.1667,-13.5251 589.8333,-13.5251 589.8333,-13.5251 593.6667,-13.5251 597.5,-17.3584 597.5,-21.1918 597.5,-21.1918 597.5,-28.8584 597.5,-28.8584 597.5,-32.6918 593.6667,-36.5251 589.8333,-36.5251"/>
<text text-anchor="middle" x="456" y="-21.3251" font-family="Arial" font-size="14.00" fill="#c6c5fe">__mocks__/@azure/cosmos/Database.js</text>
</g>
<!-- __mocks__/@azure/cosmos/Database.js&#45;&gt;__mocks__/@azure/cosmos/Container.js -->
<g id="edge3" class="edge">
<title>__mocks__/@azure/cosmos/Database.js&#45;&gt;__mocks__/@azure/cosmos/Container.js</title>
<path fill="none" stroke="#757575" d="M597.6043,-25.0251C608.2338,-25.0251 618.9847,-25.0251 629.6708,-25.0251"/>
<polygon fill="#757575" stroke="#757575" points="629.8904,-28.5252 639.8903,-25.0251 629.8903,-21.5252 629.8904,-28.5252"/>
</g>
<!-- __mocks__/@azure/cosmos/Database.js&#45;&gt;__mocks__/@azure/cosmos/Error.js -->
<g id="edge4" class="edge">
<title>__mocks__/@azure/cosmos/Database.js&#45;&gt;__mocks__/@azure/cosmos/Error.js</title>
<path fill="none" stroke="#757575" d="M538.7269,-13.5033C570.068,-9.6726 606.115,-5.9058 639,-4.0251 871.2445,9.2568 1143.743,-14.4719 1289.806,-30.3814"/>
<polygon fill="#757575" stroke="#757575" points="1289.7793,-33.8995 1300.1018,-31.5128 1290.5439,-26.9414 1289.7793,-33.8995"/>
</g>
<!-- __mocks__/@azure/cosmos/index.js -->
<g id="node5" class="node">
<title>__mocks__/@azure/cosmos/index.js</title>
<path fill="none" stroke="#c6c5fe" d="M256.3333,-76.5251C256.3333,-76.5251 16.6667,-76.5251 16.6667,-76.5251 12.8333,-76.5251 9,-72.6918 9,-68.8584 9,-68.8584 9,-61.1918 9,-61.1918 9,-57.3584 12.8333,-53.5251 16.6667,-53.5251 16.6667,-53.5251 256.3333,-53.5251 256.3333,-53.5251 260.1667,-53.5251 264,-57.3584 264,-61.1918 264,-61.1918 264,-68.8584 264,-68.8584 264,-72.6918 260.1667,-76.5251 256.3333,-76.5251"/>
<text text-anchor="middle" x="136.5" y="-61.3251" font-family="Arial" font-size="14.00" fill="#c6c5fe">__mocks__/@azure/cosmos/index.js</text>
</g>
<!-- __mocks__/@azure/cosmos/index.js&#45;&gt;__mocks__/@azure/cosmos/Error.js -->
<g id="edge7" class="edge">
<title>__mocks__/@azure/cosmos/index.js&#45;&gt;__mocks__/@azure/cosmos/Error.js</title>
<path fill="none" stroke="#757575" d="M255.6702,-76.5562C454.2272,-93.6364 865.0317,-119.893 1210,-83.0251 1255.8447,-78.1255 1307.0087,-66.581 1343.8899,-57.1472"/>
<polygon fill="#757575" stroke="#757575" points="1345.0974,-60.4499 1353.8973,-54.5497 1343.3387,-53.6744 1345.0974,-60.4499"/>
</g>
<!-- __mocks__/@azure/cosmos/index.js&#45;&gt;__mocks__/@azure/cosmos/Offer.js -->
<g id="edge8" class="edge">
<title>__mocks__/@azure/cosmos/index.js&#45;&gt;__mocks__/@azure/cosmos/Offer.js</title>
<path fill="none" stroke="#757575" d="M264.3515,-64.7554C442.9186,-64.3786 765.5968,-63.6979 948.4549,-63.3121"/>
<polygon fill="#757575" stroke="#757575" points="948.6816,-66.8117 958.6741,-63.2906 948.6667,-59.8118 948.6816,-66.8117"/>
</g>
<!-- __mocks__/@azure/cosmos/index.js&#45;&gt;__mocks__/@azure/cosmos/Database.js -->
<g id="edge6" class="edge">
<title>__mocks__/@azure/cosmos/index.js&#45;&gt;__mocks__/@azure/cosmos/Database.js</title>
<path fill="none" stroke="#757575" d="M228.484,-53.5091C267.7417,-48.5942 313.7016,-42.8402 353.9971,-37.7954"/>
<polygon fill="#757575" stroke="#757575" points="354.6245,-41.2443 364.1122,-36.529 353.7549,-34.2985 354.6245,-41.2443"/>
</g>
<!-- __mocks__/kth&#45;node&#45;log.js -->
<g id="node6" class="node">
<title>__mocks__/kth&#45;node&#45;log.js</title>
<path fill="none" stroke="#cfffac" d="M224.3333,-331.5251C224.3333,-331.5251 48.6667,-331.5251 48.6667,-331.5251 44.8333,-331.5251 41,-327.6918 41,-323.8584 41,-323.8584 41,-316.1918 41,-316.1918 41,-312.3584 44.8333,-308.5251 48.6667,-308.5251 48.6667,-308.5251 224.3333,-308.5251 224.3333,-308.5251 228.1667,-308.5251 232,-312.3584 232,-316.1918 232,-316.1918 232,-323.8584 232,-323.8584 232,-327.6918 228.1667,-331.5251 224.3333,-331.5251"/>
<text text-anchor="middle" x="136.5" y="-316.3251" font-family="Arial" font-size="14.00" fill="#cfffac">__mocks__/kth&#45;node&#45;log.js</text>
</g>
<!-- adaptMongooseModel.js -->
<g id="node7" class="node">
<title>adaptMongooseModel.js</title>
<path fill="none" stroke="#c6c5fe" d="M1475.3333,-671.5251C1475.3333,-671.5251 1314.6667,-671.5251 1314.6667,-671.5251 1310.8333,-671.5251 1307,-667.6918 1307,-663.8584 1307,-663.8584 1307,-656.1918 1307,-656.1918 1307,-652.3584 1310.8333,-648.5251 1314.6667,-648.5251 1314.6667,-648.5251 1475.3333,-648.5251 1475.3333,-648.5251 1479.1667,-648.5251 1483,-652.3584 1483,-656.1918 1483,-656.1918 1483,-663.8584 1483,-663.8584 1483,-667.6918 1479.1667,-671.5251 1475.3333,-671.5251"/>
<text text-anchor="middle" x="1395" y="-656.3251" font-family="Arial" font-size="14.00" fill="#c6c5fe">adaptMongooseModel.js</text>
</g>
<!-- lib/utils/useMongoNative.js -->
<g id="node8" class="node">
<title>lib/utils/useMongoNative.js</title>
<path fill="none" stroke="#cfffac" d="M1760.3333,-674.5251C1760.3333,-674.5251 1587.6667,-674.5251 1587.6667,-674.5251 1583.8333,-674.5251 1580,-670.6918 1580,-666.8584 1580,-666.8584 1580,-659.1918 1580,-659.1918 1580,-655.3584 1583.8333,-651.5251 1587.6667,-651.5251 1587.6667,-651.5251 1760.3333,-651.5251 1760.3333,-651.5251 1764.1667,-651.5251 1768,-655.3584 1768,-659.1918 1768,-659.1918 1768,-666.8584 1768,-666.8584 1768,-670.6918 1764.1667,-674.5251 1760.3333,-674.5251"/>
<text text-anchor="middle" x="1674" y="-659.3251" font-family="Arial" font-size="14.00" fill="#cfffac">lib/utils/useMongoNative.js</text>
</g>
<!-- adaptMongooseModel.js&#45;&gt;lib/utils/useMongoNative.js -->
<g id="edge9" class="edge">
<title>adaptMongooseModel.js&#45;&gt;lib/utils/useMongoNative.js</title>
<path fill="none" stroke="#757575" d="M1483.2773,-660.9743C1510.5767,-661.2679 1540.9151,-661.5941 1569.2176,-661.8984"/>
<polygon fill="#757575" stroke="#757575" points="1569.5062,-665.4016 1579.5433,-662.0094 1569.5816,-658.402 1569.5062,-665.4016"/>
</g>
<!-- lib/utils/validity.js -->
<g id="node9" class="node">
<title>lib/utils/validity.js</title>
<path fill="none" stroke="#cfffac" d="M1921.8333,-772.5251C1921.8333,-772.5251 1815.1667,-772.5251 1815.1667,-772.5251 1811.3333,-772.5251 1807.5,-768.6918 1807.5,-764.8584 1807.5,-764.8584 1807.5,-757.1918 1807.5,-757.1918 1807.5,-753.3584 1811.3333,-749.5251 1815.1667,-749.5251 1815.1667,-749.5251 1921.8333,-749.5251 1921.8333,-749.5251 1925.6667,-749.5251 1929.5,-753.3584 1929.5,-757.1918 1929.5,-757.1918 1929.5,-764.8584 1929.5,-764.8584 1929.5,-768.6918 1925.6667,-772.5251 1921.8333,-772.5251"/>
<text text-anchor="middle" x="1868.5" y="-757.3251" font-family="Arial" font-size="14.00" fill="#cfffac">lib/utils/validity.js</text>
</g>
<!-- adaptMongooseModel.js&#45;&gt;lib/utils/validity.js -->
<g id="edge10" class="edge">
<title>adaptMongooseModel.js&#45;&gt;lib/utils/validity.js</title>
<path fill="none" stroke="#757575" d="M1429.1564,-648.481C1497.2905,-627.5343 1653.3879,-590.0922 1768,-643.0251 1811.4878,-663.1097 1843.0904,-712.318 1858.3095,-740.4359"/>
<polygon fill="#757575" stroke="#757575" points="1855.2699,-742.1764 1863.002,-749.4196 1861.4744,-738.9355 1855.2699,-742.1764"/>
</g>
<!-- lib/utils/wrapCallback.js -->
<g id="node10" class="node">
<title>lib/utils/wrapCallback.js</title>
<path fill="none" stroke="#c6c5fe" d="M1749.3333,-792.5251C1749.3333,-792.5251 1598.6667,-792.5251 1598.6667,-792.5251 1594.8333,-792.5251 1591,-788.6918 1591,-784.8584 1591,-784.8584 1591,-777.1918 1591,-777.1918 1591,-773.3584 1594.8333,-769.5251 1598.6667,-769.5251 1598.6667,-769.5251 1749.3333,-769.5251 1749.3333,-769.5251 1753.1667,-769.5251 1757,-773.3584 1757,-777.1918 1757,-777.1918 1757,-784.8584 1757,-784.8584 1757,-788.6918 1753.1667,-792.5251 1749.3333,-792.5251"/>
<text text-anchor="middle" x="1674" y="-777.3251" font-family="Arial" font-size="14.00" fill="#c6c5fe">lib/utils/wrapCallback.js</text>
</g>
<!-- adaptMongooseModel.js&#45;&gt;lib/utils/wrapCallback.js -->
<g id="edge11" class="edge">
<title>adaptMongooseModel.js&#45;&gt;lib/utils/wrapCallback.js</title>
<path fill="none" stroke="#757575" d="M1425.1709,-671.6031C1455.4165,-683.3434 1503.221,-702.2637 1544,-720.0251 1577.385,-734.566 1614.9935,-752.3717 1641.138,-764.9832"/>
<polygon fill="#757575" stroke="#757575" points="1639.6963,-768.1737 1650.2224,-769.3788 1642.7452,-761.8726 1639.6963,-768.1737"/>
</g>
<!-- lib/utils/wrapCallback.js&#45;&gt;lib/utils/validity.js -->
<g id="edge50" class="edge">
<title>lib/utils/wrapCallback.js&#45;&gt;lib/utils/validity.js</title>
<path fill="none" stroke="#757575" d="M1757.0497,-772.4853C1770.411,-771.1114 1784.1378,-769.6999 1797.1918,-768.3576"/>
<polygon fill="#757575" stroke="#757575" points="1797.9073,-771.8025 1807.4968,-767.2979 1797.1912,-764.8393 1797.9073,-771.8025"/>
</g>
<!-- lib/utils/strategy.js -->
<g id="node28" class="node">
<title>lib/utils/strategy.js</title>
<path fill="none" stroke="#cfffac" d="M1925.3333,-899.5251C1925.3333,-899.5251 1811.6667,-899.5251 1811.6667,-899.5251 1807.8333,-899.5251 1804,-895.6918 1804,-891.8584 1804,-891.8584 1804,-884.1918 1804,-884.1918 1804,-880.3584 1807.8333,-876.5251 1811.6667,-876.5251 1811.6667,-876.5251 1925.3333,-876.5251 1925.3333,-876.5251 1929.1667,-876.5251 1933,-880.3584 1933,-884.1918 1933,-884.1918 1933,-891.8584 1933,-891.8584 1933,-895.6918 1929.1667,-899.5251 1925.3333,-899.5251"/>
<text text-anchor="middle" x="1868.5" y="-884.3251" font-family="Arial" font-size="14.00" fill="#cfffac">lib/utils/strategy.js</text>
</g>
<!-- lib/utils/wrapCallback.js&#45;&gt;lib/utils/strategy.js -->
<g id="edge49" class="edge">
<title>lib/utils/wrapCallback.js&#45;&gt;lib/utils/strategy.js</title>
<path fill="none" stroke="#757575" d="M1695.1852,-792.6797C1729.8221,-811.7344 1798.6846,-849.6176 1838.3871,-871.4592"/>
<polygon fill="#757575" stroke="#757575" points="1836.8922,-874.6314 1847.341,-876.3849 1840.2663,-868.4982 1836.8922,-874.6314"/>
</g>
<!-- adaptMongooseModel.no&#45;test.js -->
<g id="node11" class="node">
<title>adaptMongooseModel.no&#45;test.js</title>
<path fill="none" stroke="#c6c5fe" d="M560.3333,-708.5251C560.3333,-708.5251 351.6667,-708.5251 351.6667,-708.5251 347.8333,-708.5251 344,-704.6918 344,-700.8584 344,-700.8584 344,-693.1918 344,-693.1918 344,-689.3584 347.8333,-685.5251 351.6667,-685.5251 351.6667,-685.5251 560.3333,-685.5251 560.3333,-685.5251 564.1667,-685.5251 568,-689.3584 568,-693.1918 568,-693.1918 568,-700.8584 568,-700.8584 568,-704.6918 564.1667,-708.5251 560.3333,-708.5251"/>
<text text-anchor="middle" x="456" y="-693.3251" font-family="Arial" font-size="14.00" fill="#c6c5fe">adaptMongooseModel.no&#45;test.js</text>
</g>
<!-- adaptMongooseModel.no&#45;test.js&#45;&gt;adaptMongooseModel.js -->
<g id="edge12" class="edge">
<title>adaptMongooseModel.no&#45;test.js&#45;&gt;adaptMongooseModel.js</title>
<path fill="none" stroke="#757575" d="M568.3327,-692.5988C753.8524,-685.2886 1121.2006,-670.8138 1296.9075,-663.8903"/>
<polygon fill="#757575" stroke="#757575" points="1297.0665,-667.3868 1306.9209,-663.4957 1296.7908,-660.3923 1297.0665,-667.3868"/>
</g>
<!-- adaptMongooseModel.test&#45;data.js -->
<g id="node12" class="node">
<title>adaptMongooseModel.test&#45;data.js</title>
<path fill="none" stroke="#c6c5fe" d="M891.3333,-553.5251C891.3333,-553.5251 670.6667,-553.5251 670.6667,-553.5251 666.8333,-553.5251 663,-549.6918 663,-545.8584 663,-545.8584 663,-538.1918 663,-538.1918 663,-534.3584 666.8333,-530.5251 670.6667,-530.5251 670.6667,-530.5251 891.3333,-530.5251 891.3333,-530.5251 895.1667,-530.5251 899,-534.3584 899,-538.1918 899,-538.1918 899,-545.8584 899,-545.8584 899,-549.6918 895.1667,-553.5251 891.3333,-553.5251"/>
<text text-anchor="middle" x="781" y="-538.3251" font-family="Arial" font-size="14.00" fill="#c6c5fe">adaptMongooseModel.test&#45;data.js</text>
</g>
<!-- adaptMongooseModel.no&#45;test.js&#45;&gt;adaptMongooseModel.test&#45;data.js -->
<g id="edge13" class="edge">
<title>adaptMongooseModel.no&#45;test.js&#45;&gt;adaptMongooseModel.test&#45;data.js</title>
<path fill="none" stroke="#757575" d="M468.5697,-685.1413C496.6599,-659.3116 567.6794,-597.9737 639,-568.0251 650.693,-563.115 663.3115,-559.1302 676.0327,-555.8967"/>
<polygon fill="#757575" stroke="#757575" points="676.8561,-559.2986 685.7671,-553.5676 675.2271,-552.4907 676.8561,-559.2986"/>
</g>
<!-- lib/client.js -->
<g id="node13" class="node">
<title>lib/client.js</title>
<path fill="none" stroke="#c6c5fe" d="M814.8333,-751.5251C814.8333,-751.5251 747.1667,-751.5251 747.1667,-751.5251 743.3333,-751.5251 739.5,-747.6918 739.5,-743.8584 739.5,-743.8584 739.5,-736.1918 739.5,-736.1918 739.5,-732.3584 743.3333,-728.5251 747.1667,-728.5251 747.1667,-728.5251 814.8333,-728.5251 814.8333,-728.5251 818.6667,-728.5251 822.5,-732.3584 822.5,-736.1918 822.5,-736.1918 822.5,-743.8584 822.5,-743.8584 822.5,-747.6918 818.6667,-751.5251 814.8333,-751.5251"/>
<text text-anchor="middle" x="781" y="-736.3251" font-family="Arial" font-size="14.00" fill="#c6c5fe">lib/client.js</text>
</g>
<!-- adaptMongooseModel.no&#45;test.js&#45;&gt;lib/client.js -->
<g id="edge14" class="edge">
<title>adaptMongooseModel.no&#45;test.js&#45;&gt;lib/client.js</title>
<path fill="none" stroke="#757575" d="M543.094,-708.5483C602.5504,-716.4148 679.3119,-726.571 729.3241,-733.188"/>
<polygon fill="#757575" stroke="#757575" points="728.8926,-736.6613 739.2653,-734.5033 729.8108,-729.7218 728.8926,-736.6613"/>
</g>
<!-- lib/utils/CosmosClientWrapper.test&#45;data.js -->
<g id="node14" class="node">
<title>lib/utils/CosmosClientWrapper.test&#45;data.js</title>
<path fill="none" stroke="#c6c5fe" d="M915.3333,-831.5251C915.3333,-831.5251 646.6667,-831.5251 646.6667,-831.5251 642.8333,-831.5251 639,-827.6918 639,-823.8584 639,-823.8584 639,-816.1918 639,-816.1918 639,-812.3584 642.8333,-808.5251 646.6667,-808.5251 646.6667,-808.5251 915.3333,-808.5251 915.3333,-808.5251 919.1667,-808.5251 923,-812.3584 923,-816.1918 923,-816.1918 923,-823.8584 923,-823.8584 923,-827.6918 919.1667,-831.5251 915.3333,-831.5251"/>
<text text-anchor="middle" x="781" y="-816.3251" font-family="Arial" font-size="14.00" fill="#c6c5fe">lib/utils/CosmosClientWrapper.test&#45;data.js</text>
</g>
<!-- adaptMongooseModel.no&#45;test.js&#45;&gt;lib/utils/CosmosClientWrapper.test&#45;data.js -->
<g id="edge15" class="edge">
<title>adaptMongooseModel.no&#45;test.js&#45;&gt;lib/utils/CosmosClientWrapper.test&#45;data.js</title>
<path fill="none" stroke="#757575" d="M568.0198,-704.1696C580.2614,-707.5084 592.1873,-712.0076 603,-718.0251 624.7791,-730.1456 618.9159,-746.2648 639,-761.0251 666.1322,-780.9652 700.9986,-795.5786 729.3917,-805.2738"/>
<polygon fill="#757575" stroke="#757575" points="728.5482,-808.6813 739.1415,-808.4987 730.7465,-802.0354 728.5482,-808.6813"/>
</g>
<!-- test/lib/index.js -->
<g id="node15" class="node">
<title>test/lib/index.js</title>
<path fill="none" stroke="#c6c5fe" d="M1132.3333,-473.5251C1132.3333,-473.5251 1036.6667,-473.5251 1036.6667,-473.5251 1032.8333,-473.5251 1029,-469.6918 1029,-465.8584 1029,-465.8584 1029,-458.1918 1029,-458.1918 1029,-454.3584 1032.8333,-450.5251 1036.6667,-450.5251 1036.6667,-450.5251 1132.3333,-450.5251 1132.3333,-450.5251 1136.1667,-450.5251 1140,-454.3584 1140,-458.1918 1140,-458.1918 1140,-465.8584 1140,-465.8584 1140,-469.6918 1136.1667,-473.5251 1132.3333,-473.5251"/>
<text text-anchor="middle" x="1084.5" y="-458.3251" font-family="Arial" font-size="14.00" fill="#c6c5fe">test/lib/index.js</text>
</g>
<!-- adaptMongooseModel.no&#45;test.js&#45;&gt;test/lib/index.js -->
<g id="edge16" class="edge">
<title>adaptMongooseModel.no&#45;test.js&#45;&gt;test/lib/index.js</title>
<path fill="none" stroke="#757575" d="M463.8683,-685.5232C486.6274,-653.2931 556.2096,-561.8608 639,-522.0251 643.2537,-519.9784 895.7538,-486.7265 1018.6762,-470.6272"/>
<polygon fill="#757575" stroke="#757575" points="1019.2666,-474.0799 1028.7275,-469.3112 1018.3578,-467.1391 1019.2666,-474.0799"/>
</g>
<!-- adaptMongooseModel.test&#45;data.js&#45;&gt;test/lib/index.js -->
<g id="edge17" class="edge">
<title>adaptMongooseModel.test&#45;data.js&#45;&gt;test/lib/index.js</title>
<path fill="none" stroke="#757575" d="M855.1333,-530.4974C877.1197,-526.5293 901.1554,-521.6468 923,-516.0251 965.1638,-505.1742 1012.2611,-488.9377 1044.6631,-477.1026"/>
<polygon fill="#757575" stroke="#757575" points="1046.0506,-480.3215 1054.2254,-473.5818 1043.6319,-473.7526 1046.0506,-480.3215"/>
</g>
<!-- lib/client.js&#45;&gt;lib/utils/useMongoNative.js -->
<g id="edge22" class="edge">
<title>lib/client.js&#45;&gt;lib/utils/useMongoNative.js</title>
<path fill="none" stroke="#757575" d="M822.6658,-734.8032C858.705,-730.4159 912.23,-724.2095 959,-720.0251 1218.5405,-696.8048 1284.7793,-707.578 1544,-681.0251 1558.0884,-679.582 1572.9992,-677.7785 1587.5024,-675.8748"/>
<polygon fill="#757575" stroke="#757575" points="1588.0145,-679.3375 1597.4629,-674.5439 1587.0874,-672.3992 1588.0145,-679.3375"/>
</g>
<!-- lib/utils/CosmosClientWrapper.js -->
<g id="node22" class="node">
<title>lib/utils/CosmosClientWrapper.js</title>
<path fill="none" stroke="#c6c5fe" d="M1188.8333,-831.5251C1188.8333,-831.5251 980.1667,-831.5251 980.1667,-831.5251 976.3333,-831.5251 972.5,-827.6918 972.5,-823.8584 972.5,-823.8584 972.5,-816.1918 972.5,-816.1918 972.5,-812.3584 976.3333,-808.5251 980.1667,-808.5251 980.1667,-808.5251 1188.8333,-808.5251 1188.8333,-808.5251 1192.6667,-808.5251 1196.5,-812.3584 1196.5,-816.1918 1196.5,-816.1918 1196.5,-823.8584 1196.5,-823.8584 1196.5,-827.6918 1192.6667,-831.5251 1188.8333,-831.5251"/>
<text text-anchor="middle" x="1084.5" y="-816.3251" font-family="Arial" font-size="14.00" fill="#c6c5fe">lib/utils/CosmosClientWrapper.js</text>
</g>
<!-- lib/client.js&#45;&gt;lib/utils/CosmosClientWrapper.js -->
<g id="edge21" class="edge">
<title>lib/client.js&#45;&gt;lib/utils/CosmosClientWrapper.js</title>
<path fill="none" stroke="#757575" d="M822.633,-742.3994C851.7928,-745.2982 891.0915,-751.7348 923,-766.0251 941.4993,-774.3101 940.598,-785.5262 959,-794.0251 969.3117,-798.7875 980.5011,-802.6845 991.8081,-805.8718"/>
<polygon fill="#757575" stroke="#757575" points="991.194,-809.3293 1001.7558,-808.4939 992.9782,-802.5606 991.194,-809.3293"/>
</g>
<!-- lib/utils/CosmosClientWrapper.test&#45;data.js&#45;&gt;lib/utils/CosmosClientWrapper.js -->
<g id="edge34" class="edge">
<title>lib/utils/CosmosClientWrapper.test&#45;data.js&#45;&gt;lib/utils/CosmosClientWrapper.js</title>
<path fill="none" stroke="#757575" d="M923.4191,-820.0251C936.3007,-820.0251 949.2724,-820.0251 961.9609,-820.0251"/>
<polygon fill="#757575" stroke="#757575" points="962.069,-823.5252 972.069,-820.0251 962.0689,-816.5252 962.069,-823.5252"/>
</g>
<!-- lib/utils/cosmosDb.js -->
<g id="node27" class="node">
<title>lib/utils/cosmosDb.js</title>
<path fill="none" stroke="#c6c5fe" d="M1461.3333,-872.5251C1461.3333,-872.5251 1328.6667,-872.5251 1328.6667,-872.5251 1324.8333,-872.5251 1321,-868.6918 1321,-864.8584 1321,-864.8584 1321,-857.1918 1321,-857.1918 1321,-853.3584 1324.8333,-849.5251 1328.6667,-849.5251 1328.6667,-849.5251 1461.3333,-849.5251 1461.3333,-849.5251 1465.1667,-849.5251 1469,-853.3584 1469,-857.1918 1469,-857.1918 1469,-864.8584 1469,-864.8584 1469,-868.6918 1465.1667,-872.5251 1461.3333,-872.5251"/>
<text text-anchor="middle" x="1395" y="-857.3251" font-family="Arial" font-size="14.00" fill="#c6c5fe">lib/utils/cosmosDb.js</text>
</g>
<!-- lib/utils/CosmosClientWrapper.test&#45;data.js&#45;&gt;lib/utils/cosmosDb.js -->
<g id="edge35" class="edge">
<title>lib/utils/CosmosClientWrapper.test&#45;data.js&#45;&gt;lib/utils/cosmosDb.js</title>
<path fill="none" stroke="#757575" d="M867.7895,-831.5259C896.7526,-835.027 929.2271,-838.5891 959,-841.0251 1081.0442,-851.0106 1222.7453,-856.359 1310.6534,-858.9456"/>
<polygon fill="#757575" stroke="#757575" points="1310.7408,-862.4495 1320.8378,-859.24 1310.9431,-855.4524 1310.7408,-862.4495"/>
</g>
<!-- test/lib/CosmosDb.js -->
<g id="node36" class="node">
<title>test/lib/CosmosDb.js</title>
<path fill="none" stroke="#cfffac" d="M1740.8333,-429.5251C1740.8333,-429.5251 1607.1667,-429.5251 1607.1667,-429.5251 1603.3333,-429.5251 1599.5,-425.6918 1599.5,-421.8584 1599.5,-421.8584 1599.5,-414.1918 1599.5,-414.1918 1599.5,-410.3584 1603.3333,-406.5251 1607.1667,-406.5251 1607.1667,-406.5251 1740.8333,-406.5251 1740.8333,-406.5251 1744.6667,-406.5251 1748.5,-410.3584 1748.5,-414.1918 1748.5,-414.1918 1748.5,-421.8584 1748.5,-421.8584 1748.5,-425.6918 1744.6667,-429.5251 1740.8333,-429.5251"/>
<text text-anchor="middle" x="1674" y="-414.3251" font-family="Arial" font-size="14.00" fill="#cfffac">test/lib/CosmosDb.js</text>
</g>
<!-- test/lib/index.js&#45;&gt;test/lib/CosmosDb.js -->
<g id="edge55" class="edge">
<title>test/lib/index.js&#45;&gt;test/lib/CosmosDb.js</title>
<path fill="none" stroke="#757575" d="M1140.1636,-473.3816C1227.4525,-489.1512 1401.3082,-512.3098 1544,-480.0251 1582.2288,-471.3757 1622.3815,-450.0736 1647.7694,-434.8562"/>
<polygon fill="#757575" stroke="#757575" points="1649.7213,-437.7651 1656.4239,-429.5598 1646.0674,-431.7944 1649.7213,-437.7651"/>
</g>
<!-- test/lib/Environment.js -->
<g id="node37" class="node">
<title>test/lib/Environment.js</title>
<path fill="none" stroke="#cfffac" d="M1466.3333,-550.5251C1466.3333,-550.5251 1323.6667,-550.5251 1323.6667,-550.5251 1319.8333,-550.5251 1316,-546.6918 1316,-542.8584 1316,-542.8584 1316,-535.1918 1316,-535.1918 1316,-531.3584 1319.8333,-527.5251 1323.6667,-527.5251 1323.6667,-527.5251 1466.3333,-527.5251 1466.3333,-527.5251 1470.1667,-527.5251 1474,-531.3584 1474,-535.1918 1474,-535.1918 1474,-542.8584 1474,-542.8584 1474,-546.6918 1470.1667,-550.5251 1466.3333,-550.5251"/>
<text text-anchor="middle" x="1395" y="-535.3251" font-family="Arial" font-size="14.00" fill="#cfffac">test/lib/Environment.js</text>
</g>
<!-- test/lib/index.js&#45;&gt;test/lib/Environment.js -->
<g id="edge56" class="edge">
<title>test/lib/index.js&#45;&gt;test/lib/Environment.js</title>
<path fill="none" stroke="#757575" d="M1116.6218,-473.5632C1148.9589,-484.8466 1200.4388,-501.9084 1246,-513.0251 1265.6411,-517.8174 1286.9453,-522.0789 1307.1356,-525.6953"/>
<polygon fill="#757575" stroke="#757575" points="1306.8057,-529.1908 1317.2603,-527.4725 1308.016,-522.2963 1306.8057,-529.1908"/>
</g>
<!-- test/lib/Mongoose.js -->
<g id="node38" class="node">
<title>test/lib/Mongoose.js</title>
<path fill="none" stroke="#c6c5fe" d="M1459.8333,-347.5251C1459.8333,-347.5251 1330.1667,-347.5251 1330.1667,-347.5251 1326.3333,-347.5251 1322.5,-343.6918 1322.5,-339.8584 1322.5,-339.8584 1322.5,-332.1918 1322.5,-332.1918 1322.5,-328.3584 1326.3333,-324.5251 1330.1667,-324.5251 1330.1667,-324.5251 1459.8333,-324.5251 1459.8333,-324.5251 1463.6667,-324.5251 1467.5,-328.3584 1467.5,-332.1918 1467.5,-332.1918 1467.5,-339.8584 1467.5,-339.8584 1467.5,-343.6918 1463.6667,-347.5251 1459.8333,-347.5251"/>
<text text-anchor="middle" x="1395" y="-332.3251" font-family="Arial" font-size="14.00" fill="#c6c5fe">test/lib/Mongoose.js</text>
</g>
<!-- test/lib/index.js&#45;&gt;test/lib/Mongoose.js -->
<g id="edge57" class="edge">
<title>test/lib/index.js&#45;&gt;test/lib/Mongoose.js</title>
<path fill="none" stroke="#757575" d="M1097.6033,-450.3868C1123.727,-427.916 1185.0413,-378.7704 1246,-356.0251 1266.7815,-348.271 1290.1857,-343.4611 1312.1811,-340.4951"/>
<polygon fill="#757575" stroke="#757575" points="1312.6793,-343.9602 1322.1735,-339.2581 1311.8193,-337.0132 1312.6793,-343.9602"/>
</g>
<!-- test/lib/collectAllInternalMethods.js -->
<g id="node39" class="node">
<title>test/lib/collectAllInternalMethods.js</title>
<path fill="none" stroke="#cfffac" d="M1505.8333,-470.5251C1505.8333,-470.5251 1284.1667,-470.5251 1284.1667,-470.5251 1280.3333,-470.5251 1276.5,-466.6918 1276.5,-462.8584 1276.5,-462.8584 1276.5,-455.1918 1276.5,-455.1918 1276.5,-451.3584 1280.3333,-447.5251 1284.1667,-447.5251 1284.1667,-447.5251 1505.8333,-447.5251 1505.8333,-447.5251 1509.6667,-447.5251 1513.5,-451.3584 1513.5,-455.1918 1513.5,-455.1918 1513.5,-462.8584 1513.5,-462.8584 1513.5,-466.6918 1509.6667,-470.5251 1505.8333,-470.5251"/>
<text text-anchor="middle" x="1395" y="-455.3251" font-family="Arial" font-size="14.00" fill="#cfffac">test/lib/collectAllInternalMethods.js</text>
</g>
<!-- test/lib/index.js&#45;&gt;test/lib/collectAllInternalMethods.js -->
<g id="edge58" class="edge">
<title>test/lib/index.js&#45;&gt;test/lib/collectAllInternalMethods.js</title>
<path fill="none" stroke="#757575" d="M1140.0112,-461.4888C1175.1282,-461.1495 1222.052,-460.6961 1266.0685,-460.2708"/>
<polygon fill="#757575" stroke="#757575" points="1266.3289,-463.7686 1276.2946,-460.172 1266.2612,-456.7689 1266.3289,-463.7686"/>
</g>
<!-- test/lib/getObjectKeysWithDifferentValues.js -->
<g id="node40" class="node">
<title>test/lib/getObjectKeysWithDifferentValues.js</title>
<path fill="none" stroke="#cfffac" d="M1536.3333,-429.5251C1536.3333,-429.5251 1253.6667,-429.5251 1253.6667,-429.5251 1249.8333,-429.5251 1246,-425.6918 1246,-421.8584 1246,-421.8584 1246,-414.1918 1246,-414.1918 1246,-410.3584 1249.8333,-406.5251 1253.6667,-406.5251 1253.6667,-406.5251 1536.3333,-406.5251 1536.3333,-406.5251 1540.1667,-406.5251 1544,-410.3584 1544,-414.1918 1544,-414.1918 1544,-421.8584 1544,-421.8584 1544,-425.6918 1540.1667,-429.5251 1536.3333,-429.5251"/>
<text text-anchor="middle" x="1395" y="-414.3251" font-family="Arial" font-size="14.00" fill="#cfffac">test/lib/getObjectKeysWithDifferentValues.js</text>
</g>
<!-- test/lib/index.js&#45;&gt;test/lib/getObjectKeysWithDifferentValues.js -->
<g id="edge59" class="edge">
<title>test/lib/index.js&#45;&gt;test/lib/getObjectKeysWithDifferentValues.js</title>
<path fill="none" stroke="#757575" d="M1140.1807,-454.0751C1171.3079,-449.6359 1210.8085,-444.0109 1246,-439.0251 1264.417,-436.4158 1284.1158,-433.6335 1302.9585,-430.9762"/>
<polygon fill="#757575" stroke="#757575" points="1303.6092,-434.4191 1313.0227,-429.5573 1302.6319,-427.4877 1303.6092,-434.4191"/>
</g>
<!-- test/lib/removeCodeCoveragePollution.js -->
<g id="node41" class="node">
<title>test/lib/removeCodeCoveragePollution.js</title>
<path fill="none" stroke="#cfffac" d="M1526.8333,-388.5251C1526.8333,-388.5251 1263.1667,-388.5251 1263.1667,-388.5251 1259.3333,-388.5251 1255.5,-384.6918 1255.5,-380.8584 1255.5,-380.8584 1255.5,-373.1918 1255.5,-373.1918 1255.5,-369.3584 1259.3333,-365.5251 1263.1667,-365.5251 1263.1667,-365.5251 1526.8333,-365.5251 1526.8333,-365.5251 1530.6667,-365.5251 1534.5,-369.3584 1534.5,-373.1918 1534.5,-373.1918 1534.5,-380.8584 1534.5,-380.8584 1534.5,-384.6918 1530.6667,-388.5251 1526.8333,-388.5251"/>
<text text-anchor="middle" x="1395" y="-373.3251" font-family="Arial" font-size="14.00" fill="#cfffac">test/lib/removeCodeCoveragePollution.js</text>
</g>
<!-- test/lib/index.js&#45;&gt;test/lib/removeCodeCoveragePollution.js -->
<g id="edge60" class="edge">
<title>test/lib/index.js&#45;&gt;test/lib/removeCodeCoveragePollution.js</title>
<path fill="none" stroke="#757575" d="M1108.5148,-450.4135C1139.5388,-435.9065 1195.5597,-411.3709 1246,-398.0251 1257.1476,-395.0756 1268.8807,-392.5189 1280.6661,-390.3073"/>
<polygon fill="#757575" stroke="#757575" points="1281.3424,-393.7419 1290.5663,-388.5296 1280.1052,-386.8521 1281.3424,-393.7419"/>
</g>
<!-- test/lib/testBasicFunctionExport.js -->
<g id="node42" class="node">
<title>test/lib/testBasicFunctionExport.js</title>
<path fill="none" stroke="#cfffac" d="M1503.8333,-591.5251C1503.8333,-591.5251 1286.1667,-591.5251 1286.1667,-591.5251 1282.3333,-591.5251 1278.5,-587.6918 1278.5,-583.8584 1278.5,-583.8584 1278.5,-576.1918 1278.5,-576.1918 1278.5,-572.3584 1282.3333,-568.5251 1286.1667,-568.5251 1286.1667,-568.5251 1503.8333,-568.5251 1503.8333,-568.5251 1507.6667,-568.5251 1511.5,-572.3584 1511.5,-576.1918 1511.5,-576.1918 1511.5,-583.8584 1511.5,-583.8584 1511.5,-587.6918 1507.6667,-591.5251 1503.8333,-591.5251"/>
<text text-anchor="middle" x="1395" y="-576.3251" font-family="Arial" font-size="14.00" fill="#cfffac">test/lib/testBasicFunctionExport.js</text>
</g>
<!-- test/lib/index.js&#45;&gt;test/lib/testBasicFunctionExport.js -->
<g id="edge61" class="edge">
<title>test/lib/index.js&#45;&gt;test/lib/testBasicFunctionExport.js</title>
<path fill="none" stroke="#757575" d="M1099.0238,-473.7368C1126.1048,-494.8819 1186.9325,-539.1692 1246,-560.0251 1253.2679,-562.5913 1260.8418,-564.8316 1268.5543,-566.787"/>
<polygon fill="#757575" stroke="#757575" points="1267.8477,-570.2164 1278.3851,-569.1146 1269.4606,-563.4047 1267.8477,-570.2164"/>
</g>
<!-- adaptMongooseSchema.js -->
<g id="node16" class="node">
<title>adaptMongooseSchema.js</title>
<path fill="none" stroke="#c6c5fe" d="M1482.8333,-751.5251C1482.8333,-751.5251 1307.1667,-751.5251 1307.1667,-751.5251 1303.3333,-751.5251 1299.5,-747.6918 1299.5,-743.8584 1299.5,-743.8584 1299.5,-736.1918 1299.5,-736.1918 1299.5,-732.3584 1303.3333,-728.5251 1307.1667,-728.5251 1307.1667,-728.5251 1482.8333,-728.5251 1482.8333,-728.5251 1486.6667,-728.5251 1490.5,-732.3584 1490.5,-736.1918 1490.5,-736.1918 1490.5,-743.8584 1490.5,-743.8584 1490.5,-747.6918 1486.6667,-751.5251 1482.8333,-751.5251"/>
<text text-anchor="middle" x="1395" y="-736.3251" font-family="Arial" font-size="14.00" fill="#c6c5fe">adaptMongooseSchema.js</text>
</g>
<!-- adaptMongooseSchema.js&#45;&gt;lib/utils/useMongoNative.js -->
<g id="edge18" class="edge">
<title>adaptMongooseSchema.js&#45;&gt;lib/utils/useMongoNative.js</title>
<path fill="none" stroke="#757575" d="M1490.5348,-729.6968C1508.6917,-725.9745 1527.241,-720.9115 1544,-714.0251 1562.0178,-706.6215 1562.3627,-697.2944 1580,-689.0251 1589.5267,-684.5585 1599.967,-680.7284 1610.3161,-677.4889"/>
<polygon fill="#757575" stroke="#757575" points="1611.5866,-680.7628 1620.1776,-674.5625 1609.5951,-674.0521 1611.5866,-680.7628"/>
</g>
<!-- adaptMongooseSchema.js&#45;&gt;lib/utils/validity.js -->
<g id="edge19" class="edge">
<title>adaptMongooseSchema.js&#45;&gt;lib/utils/validity.js</title>
<path fill="none" stroke="#757575" d="M1490.8811,-742.1912C1566.2528,-744.1779 1673.8753,-747.6413 1768,-753.0251 1777.4677,-753.5666 1787.4294,-754.2373 1797.252,-754.9581"/>
<polygon fill="#757575" stroke="#757575" points="1797.1763,-758.4623 1807.4112,-755.7242 1797.7027,-751.4821 1797.1763,-758.4623"/>
</g>
<!-- adaptMongooseSchema.js&#45;&gt;lib/utils/wrapCallback.js -->
<g id="edge20" class="edge">
<title>adaptMongooseSchema.js&#45;&gt;lib/utils/wrapCallback.js</title>
<path fill="none" stroke="#757575" d="M1478.1698,-751.5576C1499.6247,-754.5845 1522.6783,-757.8826 1544,-761.0251 1558.918,-763.2238 1574.7897,-765.619 1590.1306,-767.9629"/>
<polygon fill="#757575" stroke="#757575" points="1589.7049,-771.4385 1600.1197,-769.4933 1590.765,-764.5192 1589.7049,-771.4385"/>
</g>
<!-- coverage/lcov&#45;report/block&#45;navigation.js -->
<g id="node17" class="node">
<title>coverage/lcov&#45;report/block&#45;navigation.js</title>
<path fill="none" stroke="#cfffac" d="M265.3333,-520.5251C265.3333,-520.5251 7.6667,-520.5251 7.6667,-520.5251 3.8333,-520.5251 0,-516.6918 0,-512.8584 0,-512.8584 0,-505.1918 0,-505.1918 0,-501.3584 3.8333,-497.5251 7.6667,-497.5251 7.6667,-497.5251 265.3333,-497.5251 265.3333,-497.5251 269.1667,-497.5251 273,-501.3584 273,-505.1918 273,-505.1918 273,-512.8584 273,-512.8584 273,-516.6918 269.1667,-520.5251 265.3333,-520.5251"/>
<text text-anchor="middle" x="136.5" y="-505.3251" font-family="Arial" font-size="14.00" fill="#cfffac">coverage/lcov&#45;report/block&#45;navigation.js</text>
</g>
<!-- coverage/lcov&#45;report/prettify.js -->
<g id="node18" class="node">
<title>coverage/lcov&#45;report/prettify.js</title>
<path fill="none" stroke="#cfffac" d="M233.3333,-561.5251C233.3333,-561.5251 39.6667,-561.5251 39.6667,-561.5251 35.8333,-561.5251 32,-557.6918 32,-553.8584 32,-553.8584 32,-546.1918 32,-546.1918 32,-542.3584 35.8333,-538.5251 39.6667,-538.5251 39.6667,-538.5251 233.3333,-538.5251 233.3333,-538.5251 237.1667,-538.5251 241,-542.3584 241,-546.1918 241,-546.1918 241,-553.8584 241,-553.8584 241,-557.6918 237.1667,-561.5251 233.3333,-561.5251"/>
<text text-anchor="middle" x="136.5" y="-546.3251" font-family="Arial" font-size="14.00" fill="#cfffac">coverage/lcov&#45;report/prettify.js</text>
</g>
<!-- coverage/lcov&#45;report/sorter.js -->
<g id="node19" class="node">
<title>coverage/lcov&#45;report/sorter.js</title>
<path fill="none" stroke="#cfffac" d="M230.3333,-602.5251C230.3333,-602.5251 42.6667,-602.5251 42.6667,-602.5251 38.8333,-602.5251 35,-598.6918 35,-594.8584 35,-594.8584 35,-587.1918 35,-587.1918 35,-583.3584 38.8333,-579.5251 42.6667,-579.5251 42.6667,-579.5251 230.3333,-579.5251 230.3333,-579.5251 234.1667,-579.5251 238,-583.3584 238,-587.1918 238,-587.1918 238,-594.8584 238,-594.8584 238,-598.6918 234.1667,-602.5251 230.3333,-602.5251"/>
<text text-anchor="middle" x="136.5" y="-587.3251" font-family="Arial" font-size="14.00" fill="#cfffac">coverage/lcov&#45;report/sorter.js</text>
</g>
<!-- jest.config.js -->
<g id="node20" class="node">
<title>jest.config.js</title>
<path fill="none" stroke="#cfffac" d="M176.8333,-643.5251C176.8333,-643.5251 96.1667,-643.5251 96.1667,-643.5251 92.3333,-643.5251 88.5,-639.6918 88.5,-635.8584 88.5,-635.8584 88.5,-628.1918 88.5,-628.1918 88.5,-624.3584 92.3333,-620.5251 96.1667,-620.5251 96.1667,-620.5251 176.8333,-620.5251 176.8333,-620.5251 180.6667,-620.5251 184.5,-624.3584 184.5,-628.1918 184.5,-628.1918 184.5,-635.8584 184.5,-635.8584 184.5,-639.6918 180.6667,-643.5251 176.8333,-643.5251"/>
<text text-anchor="middle" x="136.5" y="-628.3251" font-family="Arial" font-size="14.00" fill="#cfffac">jest.config.js</text>
</g>
<!-- jest.setup.js -->
<g id="node21" class="node">
<title>jest.setup.js</title>
<path fill="none" stroke="#cfffac" d="M175.3333,-684.5251C175.3333,-684.5251 97.6667,-684.5251 97.6667,-684.5251 93.8333,-684.5251 90,-680.6918 90,-676.8584 90,-676.8584 90,-669.1918 90,-669.1918 90,-665.3584 93.8333,-661.5251 97.6667,-661.5251 97.6667,-661.5251 175.3333,-661.5251 175.3333,-661.5251 179.1667,-661.5251 183,-665.3584 183,-669.1918 183,-669.1918 183,-676.8584 183,-676.8584 183,-680.6918 179.1667,-684.5251 175.3333,-684.5251"/>
<text text-anchor="middle" x="136.5" y="-669.3251" font-family="Arial" font-size="14.00" fill="#cfffac">jest.setup.js</text>
</g>
<!-- lib/utils/CosmosClientWrapper.js&#45;&gt;lib/utils/validity.js -->
<g id="edge33" class="edge">
<title>lib/utils/CosmosClientWrapper.js&#45;&gt;lib/utils/validity.js</title>
<path fill="none" stroke="#757575" d="M1196.6146,-829.2893C1333.2022,-837.7903 1570.2135,-843.5287 1768,-802.0251 1792.2963,-796.9267 1818.2016,-786.2177 1837.6254,-777.0229"/>
<polygon fill="#757575" stroke="#757575" points="1839.4124,-780.0459 1846.8763,-772.5265 1836.3523,-773.7502 1839.4124,-780.0459"/>
</g>
<!-- lib/utils/adaptMongoose.js -->
<g id="node26" class="node">
<title>lib/utils/adaptMongoose.js</title>
<path fill="none" stroke="#c6c5fe" d="M1479.3333,-792.5251C1479.3333,-792.5251 1310.6667,-792.5251 1310.6667,-792.5251 1306.8333,-792.5251 1303,-788.6918 1303,-784.8584 1303,-784.8584 1303,-777.1918 1303,-777.1918 1303,-773.3584 1306.8333,-769.5251 1310.6667,-769.5251 1310.6667,-769.5251 1479.3333,-769.5251 1479.3333,-769.5251 1483.1667,-769.5251 1487,-773.3584 1487,-777.1918 1487,-777.1918 1487,-784.8584 1487,-784.8584 1487,-788.6918 1483.1667,-792.5251 1479.3333,-792.5251"/>
<text text-anchor="middle" x="1395" y="-777.3251" font-family="Arial" font-size="14.00" fill="#c6c5fe">lib/utils/adaptMongoose.js</text>
</g>
<!-- lib/utils/CosmosClientWrapper.js&#45;&gt;lib/utils/adaptMongoose.js -->
<g id="edge30" class="edge">
<title>lib/utils/CosmosClientWrapper.js&#45;&gt;lib/utils/adaptMongoose.js</title>
<path fill="none" stroke="#757575" d="M1176.4,-808.4821C1213.1711,-803.8635 1255.6651,-798.5261 1293.3545,-793.7922"/>
<polygon fill="#757575" stroke="#757575" points="1293.85,-797.2575 1303.3358,-792.5385 1292.9776,-790.3121 1293.85,-797.2575"/>
</g>
<!-- lib/utils/CosmosClientWrapper.js&#45;&gt;lib/utils/cosmosDb.js -->
<g id="edge31" class="edge">
<title>lib/utils/CosmosClientWrapper.js&#45;&gt;lib/utils/cosmosDb.js</title>
<path fill="none" stroke="#757575" d="M1171.8179,-831.555C1215.3252,-837.2999 1267.6989,-844.2156 1310.7738,-849.9034"/>
<polygon fill="#757575" stroke="#757575" points="1310.5728,-853.4072 1320.945,-851.2465 1311.4893,-846.4674 1310.5728,-853.4072"/>
</g>
<!-- lib/utils/CosmosClientWrapper.js&#45;&gt;lib/utils/strategy.js -->
<g id="edge32" class="edge">
<title>lib/utils/CosmosClientWrapper.js&#45;&gt;lib/utils/strategy.js</title>
<path fill="none" stroke="#757575" d="M1107.0048,-831.6377C1137.5351,-846.6883 1194.2211,-872.1693 1246,-882.0251 1440.7237,-919.0898 1675.9444,-906.126 1793.6915,-895.793"/>
<polygon fill="#757575" stroke="#757575" points="1794.036,-899.2762 1803.6837,-894.8975 1793.4111,-892.3042 1794.036,-899.2762"/>
</g>
<!-- lib/client.test.js -->
<g id="node23" class="node">
<title>lib/client.test.js</title>
<path fill="none" stroke="#c6c5fe" d="M503.3333,-790.5251C503.3333,-790.5251 408.6667,-790.5251 408.6667,-790.5251 404.8333,-790.5251 401,-786.6918 401,-782.8584 401,-782.8584 401,-775.1918 401,-775.1918 401,-771.3584 404.8333,-767.5251 408.6667,-767.5251 408.6667,-767.5251 503.3333,-767.5251 503.3333,-767.5251 507.1667,-767.5251 511,-771.3584 511,-775.1918 511,-775.1918 511,-782.8584 511,-782.8584 511,-786.6918 507.1667,-790.5251 503.3333,-790.5251"/>
<text text-anchor="middle" x="456" y="-775.3251" font-family="Arial" font-size="14.00" fill="#c6c5fe">lib/client.test.js</text>
</g>
<!-- lib/client.test.js&#45;&gt;lib/client.js -->
<g id="edge23" class="edge">
<title>lib/client.test.js&#45;&gt;lib/client.js</title>
<path fill="none" stroke="#757575" d="M511.1318,-772.4093C572.0781,-765.0957 669.4963,-753.4055 729.1108,-746.2518"/>
<polygon fill="#757575" stroke="#757575" points="729.5515,-749.7241 739.0632,-745.0575 728.7174,-742.774 729.5515,-749.7241"/>
</g>
<!-- lib/client.test.js&#45;&gt;lib/utils/CosmosClientWrapper.test&#45;data.js -->
<g id="edge25" class="edge">
<title>lib/client.test.js&#45;&gt;lib/utils/CosmosClientWrapper.test&#45;data.js</title>
<path fill="none" stroke="#757575" d="M511.1318,-785.9802C557.0789,-791.7766 623.755,-800.188 679.3345,-807.1996"/>
<polygon fill="#757575" stroke="#757575" points="679.2163,-810.7124 689.5757,-808.4916 680.0925,-803.7674 679.2163,-810.7124"/>
</g>
<!-- lib/client.test.js&#45;&gt;test/lib/index.js -->
<g id="edge26" class="edge">
<title>lib/client.test.js&#45;&gt;test/lib/index.js</title>
<path fill="none" stroke="#757575" d="M511.246,-785.703C541.9113,-786.2623 578.6613,-781.2623 603,-759.0251 655.8511,-710.7374 586.179,-650.3457 639,-602.0251 733.0058,-516.0286 803.2162,-606.4341 923,-563.0251 977.3317,-543.3356 1032.7414,-503.4643 1062.4407,-480.1387"/>
<polygon fill="#757575" stroke="#757575" points="1064.8187,-482.7192 1070.4584,-473.7501 1060.4564,-477.2446 1064.8187,-482.7192"/>
</g>
<!-- lib/client.test.js&#45;&gt;lib/utils/CosmosClientWrapper.js -->
<g id="edge24" class="edge">
<title>lib/client.test.js&#45;&gt;lib/utils/CosmosClientWrapper.js</title>
<path fill="none" stroke="#757575" d="M511.0868,-780.1065C598.5235,-782.1372 774.3983,-787.5019 923,-800.0251 945.2163,-801.8973 969.0822,-804.5158 991.4695,-807.2425"/>
<polygon fill="#757575" stroke="#757575" points="991.2862,-810.7464 1001.6403,-808.5006 992.1456,-803.7993 991.2862,-810.7464"/>
</g>
<!-- lib/index.js -->
<g id="node24" class="node">
<title>lib/index.js</title>
<path fill="none" stroke="#c6c5fe" d="M490.3333,-749.5251C490.3333,-749.5251 421.6667,-749.5251 421.6667,-749.5251 417.8333,-749.5251 414,-745.6918 414,-741.8584 414,-741.8584 414,-734.1918 414,-734.1918 414,-730.3584 417.8333,-726.5251 421.6667,-726.5251 421.6667,-726.5251 490.3333,-726.5251 490.3333,-726.5251 494.1667,-726.5251 498,-730.3584 498,-734.1918 498,-734.1918 498,-741.8584 498,-741.8584 498,-745.6918 494.1667,-749.5251 490.3333,-749.5251"/>
<text text-anchor="middle" x="456" y="-734.3251" font-family="Arial" font-size="14.00" fill="#c6c5fe">lib/index.js</text>
</g>
<!-- lib/index.js&#45;&gt;lib/client.js -->
<g id="edge27" class="edge">
<title>lib/index.js&#45;&gt;lib/client.js</title>
<path fill="none" stroke="#757575" d="M498.1549,-738.2845C557.3758,-738.649 665.1113,-739.3119 729.159,-739.7061"/>
<polygon fill="#757575" stroke="#757575" points="729.4121,-743.2076 739.4335,-739.7693 729.4552,-736.2077 729.4121,-743.2076"/>
</g>
<!-- lib/index.test.js -->
<g id="node25" class="node">
<title>lib/index.test.js</title>
<path fill="none" stroke="#c6c5fe" d="M184.3333,-479.5251C184.3333,-479.5251 88.6667,-479.5251 88.6667,-479.5251 84.8333,-479.5251 81,-475.6918 81,-471.8584 81,-471.8584 81,-464.1918 81,-464.1918 81,-460.3584 84.8333,-456.5251 88.6667,-456.5251 88.6667,-456.5251 184.3333,-456.5251 184.3333,-456.5251 188.1667,-456.5251 192,-460.3584 192,-464.1918 192,-464.1918 192,-471.8584 192,-471.8584 192,-475.6918 188.1667,-479.5251 184.3333,-479.5251"/>
<text text-anchor="middle" x="136.5" y="-464.3251" font-family="Arial" font-size="14.00" fill="#c6c5fe">lib/index.test.js</text>
</g>
<!-- lib/index.test.js&#45;&gt;test/lib/index.js -->
<g id="edge29" class="edge">
<title>lib/index.test.js&#45;&gt;test/lib/index.js</title>
<path fill="none" stroke="#757575" d="M150.0815,-456.3089C177.7634,-433.2204 243.6372,-382.2442 309,-361.0251 568.7526,-276.7002 664.5801,-248.7002 923,-337.0251 984.6402,-358.093 1040.9876,-413.3042 1067.8905,-442.7993"/>
<polygon fill="#757575" stroke="#757575" points="1065.4019,-445.267 1074.6776,-450.3867 1070.6192,-440.6 1065.4019,-445.267"/>
</g>
<!-- lib/index.test.js&#45;&gt;lib/index.js -->
<g id="edge28" class="edge">
<title>lib/index.test.js&#45;&gt;lib/index.js</title>
<path fill="none" stroke="#757575" d="M192.1745,-462.2853C220.0479,-462.5909 252.1972,-468.2904 273,-489.0251 345.971,-561.7572 235.3981,-645.9316 309,-718.0251 333.3833,-741.9087 371.9134,-746.4247 403.41,-745.2246"/>
<polygon fill="#757575" stroke="#757575" points="404.0124,-748.6955 413.7913,-744.6182 403.6042,-741.7074 404.0124,-748.6955"/>
</g>
<!-- lib/utils/adaptMongoose.js&#45;&gt;lib/utils/validity.js -->
<g id="edge39" class="edge">
<title>lib/utils/adaptMongoose.js&#45;&gt;lib/utils/validity.js</title>
<path fill="none" stroke="#757575" d="M1483.2977,-769.521C1513.8665,-766.0592 1548.3868,-762.729 1580,-761.0251 1653.9568,-757.039 1738.7329,-757.6579 1797.1538,-758.8917"/>
<polygon fill="#757575" stroke="#757575" points="1797.3082,-762.396 1807.3837,-759.1198 1797.4642,-755.3977 1797.3082,-762.396"/>
</g>
<!-- lib/utils/adaptMongoose.js&#45;&gt;lib/utils/wrapCallback.js -->
<g id="edge40" class="edge">
<title>lib/utils/adaptMongoose.js&#45;&gt;lib/utils/wrapCallback.js</title>
<path fill="none" stroke="#757575" d="M1487.1283,-781.0251C1517.2176,-781.0251 1550.6434,-781.0251 1580.8102,-781.0251"/>
<polygon fill="#757575" stroke="#757575" points="1580.9062,-784.5252 1590.9062,-781.0251 1580.9061,-777.5252 1580.9062,-784.5252"/>
</g>
<!-- lib/utils/cosmosDb.js&#45;&gt;lib/utils/validity.js -->
<g id="edge42" class="edge">
<title>lib/utils/cosmosDb.js&#45;&gt;lib/utils/validity.js</title>
<path fill="none" stroke="#757575" d="M1469.0137,-867.7537C1546.143,-872.0731 1669.2922,-871.2958 1768,-835.0251 1800.3881,-823.1239 1831.3715,-797.3936 1850.1646,-779.6449"/>
<polygon fill="#757575" stroke="#757575" points="1852.6974,-782.0643 1857.4409,-772.5906 1847.8249,-777.0384 1852.6974,-782.0643"/>
</g>
<!-- lib/utils/CosmosClientWrapper.test.js -->
<g id="node29" class="node">
<title>lib/utils/CosmosClientWrapper.test.js</title>
<path fill="none" stroke="#c6c5fe" d="M573.8333,-872.5251C573.8333,-872.5251 338.1667,-872.5251 338.1667,-872.5251 334.3333,-872.5251 330.5,-868.6918 330.5,-864.8584 330.5,-864.8584 330.5,-857.1918 330.5,-857.1918 330.5,-853.3584 334.3333,-849.5251 338.1667,-849.5251 338.1667,-849.5251 573.8333,-849.5251 573.8333,-849.5251 577.6667,-849.5251 581.5,-853.3584 581.5,-857.1918 581.5,-857.1918 581.5,-864.8584 581.5,-864.8584 581.5,-868.6918 577.6667,-872.5251 573.8333,-872.5251"/>
<text text-anchor="middle" x="456" y="-857.3251" font-family="Arial" font-size="14.00" fill="#c6c5fe">lib/utils/CosmosClientWrapper.test.js</text>
</g>
<!-- lib/utils/CosmosClientWrapper.test.js&#45;&gt;lib/utils/CosmosClientWrapper.test&#45;data.js -->
<g id="edge37" class="edge">
<title>lib/utils/CosmosClientWrapper.test.js&#45;&gt;lib/utils/CosmosClientWrapper.test&#45;data.js</title>
<path fill="none" stroke="#757575" d="M547.3955,-849.4952C588.5893,-844.2985 637.3768,-838.1437 679.6848,-832.8064"/>
<polygon fill="#757575" stroke="#757575" points="680.2447,-836.2636 689.7279,-831.5394 679.3685,-829.3186 680.2447,-836.2636"/>
</g>
<!-- lib/utils/CosmosClientWrapper.test.js&#45;&gt;lib/utils/CosmosClientWrapper.js -->
<g id="edge36" class="edge">
<title>lib/utils/CosmosClientWrapper.test.js&#45;&gt;lib/utils/CosmosClientWrapper.js</title>
<path fill="none" stroke="#757575" d="M581.5574,-858.5914C675.6781,-856.0528 807.586,-850.9814 923,-841.0251 946.909,-838.9626 972.7164,-835.9593 996.5354,-832.8659"/>
<polygon fill="#757575" stroke="#757575" points="997.154,-836.3147 1006.6105,-831.5371 996.2387,-829.3748 997.154,-836.3147"/>
</g>
<!-- lib/utils/CosmosClientWrapper.test.js&#45;&gt;lib/utils/cosmosDb.js -->
<g id="edge38" class="edge">
<title>lib/utils/CosmosClientWrapper.test.js&#45;&gt;lib/utils/cosmosDb.js</title>
<path fill="none" stroke="#757575" d="M581.5123,-861.8016C600.766,-861.8945 620.4139,-861.9743 639,-862.0251 892.7768,-862.7185 956.2231,-862.711 1210,-862.0251 1242.8944,-861.9362 1279.0784,-861.7584 1310.6552,-861.577"/>
<polygon fill="#757575" stroke="#757575" points="1310.7562,-865.0766 1320.7355,-861.5181 1310.7152,-858.0767 1310.7562,-865.0766"/>
</g>
<!-- lib/utils/__mocks__/cosmosDb.js -->
<g id="node30" class="node">
<title>lib/utils/__mocks__/cosmosDb.js</title>
<path fill="none" stroke="#cfffac" d="M242.3333,-725.5251C242.3333,-725.5251 30.6667,-725.5251 30.6667,-725.5251 26.8333,-725.5251 23,-721.6918 23,-717.8584 23,-717.8584 23,-710.1918 23,-710.1918 23,-706.3584 26.8333,-702.5251 30.6667,-702.5251 30.6667,-702.5251 242.3333,-702.5251 242.3333,-702.5251 246.1667,-702.5251 250,-706.3584 250,-710.1918 250,-710.1918 250,-717.8584 250,-717.8584 250,-721.6918 246.1667,-725.5251 242.3333,-725.5251"/>
<text text-anchor="middle" x="136.5" y="-710.3251" font-family="Arial" font-size="14.00" fill="#cfffac">lib/utils/__mocks__/cosmosDb.js</text>
</g>
<!-- lib/utils/adaptMongoose.no&#45;test.js -->
<g id="node31" class="node">
<title>lib/utils/adaptMongoose.no&#45;test.js</title>
<path fill="none" stroke="#c6c5fe" d="M1192.8333,-751.5251C1192.8333,-751.5251 976.1667,-751.5251 976.1667,-751.5251 972.3333,-751.5251 968.5,-747.6918 968.5,-743.8584 968.5,-743.8584 968.5,-736.1918 968.5,-736.1918 968.5,-732.3584 972.3333,-728.5251 976.1667,-728.5251 976.1667,-728.5251 1192.8333,-728.5251 1192.8333,-728.5251 1196.6667,-728.5251 1200.5,-732.3584 1200.5,-736.1918 1200.5,-736.1918 1200.5,-743.8584 1200.5,-743.8584 1200.5,-747.6918 1196.6667,-751.5251 1192.8333,-751.5251"/>
<text text-anchor="middle" x="1084.5" y="-736.3251" font-family="Arial" font-size="14.00" fill="#c6c5fe">lib/utils/adaptMongoose.no&#45;test.js</text>
</g>
<!-- lib/utils/adaptMongoose.no&#45;test.js&#45;&gt;lib/utils/adaptMongoose.js -->
<g id="edge41" class="edge">
<title>lib/utils/adaptMongoose.no&#45;test.js&#45;&gt;lib/utils/adaptMongoose.js</title>
<path fill="none" stroke="#757575" d="M1171.8179,-751.555C1211.0077,-756.7298 1257.3914,-762.8546 1297.693,-768.1762"/>
<polygon fill="#757575" stroke="#757575" points="1297.4279,-771.6715 1307.8001,-769.5108 1298.3444,-764.7317 1297.4279,-771.6715"/>
</g>
<!-- lib/utils/cosmosDb.test&#45;data.js -->
<g id="node32" class="node">
<title>lib/utils/cosmosDb.test&#45;data.js</title>
<path fill="none" stroke="#c6c5fe" d="M877.3333,-473.5251C877.3333,-473.5251 684.6667,-473.5251 684.6667,-473.5251 680.8333,-473.5251 677,-469.6918 677,-465.8584 677,-465.8584 677,-458.1918 677,-458.1918 677,-454.3584 680.8333,-450.5251 684.6667,-450.5251 684.6667,-450.5251 877.3333,-450.5251 877.3333,-450.5251 881.1667,-450.5251 885,-454.3584 885,-458.1918 885,-458.1918 885,-465.8584 885,-465.8584 885,-469.6918 881.1667,-473.5251 877.3333,-473.5251"/>
<text text-anchor="middle" x="781" y="-458.3251" font-family="Arial" font-size="14.00" fill="#c6c5fe">lib/utils/cosmosDb.test&#45;data.js</text>
</g>
<!-- lib/utils/cosmosDb.test&#45;data.js&#45;&gt;test/lib/index.js -->
<g id="edge43" class="edge">
<title>lib/utils/cosmosDb.test&#45;data.js&#45;&gt;test/lib/index.js</title>
<path fill="none" stroke="#757575" d="M885.0229,-462.0251C929.2859,-462.0251 979.5805,-462.0251 1018.5942,-462.0251"/>
<polygon fill="#757575" stroke="#757575" points="1018.7707,-465.5252 1028.7706,-462.0251 1018.7706,-458.5252 1018.7707,-465.5252"/>
</g>
<!-- lib/utils/cosmosDb.test.js -->
<g id="node33" class="node">
<title>lib/utils/cosmosDb.test.js</title>
<path fill="none" stroke="#c6c5fe" d="M535.8333,-473.5251C535.8333,-473.5251 376.1667,-473.5251 376.1667,-473.5251 372.3333,-473.5251 368.5,-469.6918 368.5,-465.8584 368.5,-465.8584 368.5,-458.1918 368.5,-458.1918 368.5,-454.3584 372.3333,-450.5251 376.1667,-450.5251 376.1667,-450.5251 535.8333,-450.5251 535.8333,-450.5251 539.6667,-450.5251 543.5,-454.3584 543.5,-458.1918 543.5,-458.1918 543.5,-465.8584 543.5,-465.8584 543.5,-469.6918 539.6667,-473.5251 535.8333,-473.5251"/>
<text text-anchor="middle" x="456" y="-458.3251" font-family="Arial" font-size="14.00" fill="#c6c5fe">lib/utils/cosmosDb.test.js</text>
</g>
<!-- lib/utils/cosmosDb.test.js&#45;&gt;test/lib/index.js -->
<g id="edge46" class="edge">
<title>lib/utils/cosmosDb.test.js&#45;&gt;test/lib/index.js</title>
<path fill="none" stroke="#757575" d="M543.3398,-450.521C573.5778,-447.0593 607.7256,-443.729 639,-442.0251 765.0353,-435.1584 797.0172,-434.254 923,-442.0251 954.657,-443.9778 989.6067,-448.0641 1018.8734,-452.0371"/>
<polygon fill="#757575" stroke="#757575" points="1018.5884,-455.5309 1028.9736,-453.434 1019.5474,-448.5969 1018.5884,-455.5309"/>
</g>
<!-- lib/utils/cosmosDb.test.js&#45;&gt;lib/utils/cosmosDb.js -->
<g id="edge44" class="edge">
<title>lib/utils/cosmosDb.test.js&#45;&gt;lib/utils/cosmosDb.js</title>
<path fill="none" stroke="#757575" d="M464.3924,-473.838C487.9841,-506.1475 558.4471,-596.6537 639,-643.0251 752.3408,-708.2713 812.0234,-650.834 923,-720.0251 943.5778,-732.8549 937.7444,-749.3525 959,-761.0251 1057.9549,-815.3667 1100.2438,-773.5931 1210,-800.0251 1261.1583,-812.3453 1318.4709,-832.2235 1355.558,-845.921"/>
<polygon fill="#757575" stroke="#757575" points="1354.4044,-849.2262 1364.9971,-849.4352 1356.8468,-842.6661 1354.4044,-849.2262"/>
</g>
<!-- lib/utils/cosmosDb.test.js&#45;&gt;lib/utils/cosmosDb.test&#45;data.js -->
<g id="edge45" class="edge">
<title>lib/utils/cosmosDb.test.js&#45;&gt;lib/utils/cosmosDb.test&#45;data.js</title>
<path fill="none" stroke="#757575" d="M543.5216,-462.0251C581.392,-462.0251 626.2209,-462.0251 666.6716,-462.0251"/>
<polygon fill="#757575" stroke="#757575" points="666.8545,-465.5252 676.8545,-462.0251 666.8544,-458.5252 666.8545,-465.5252"/>
</g>
<!-- lib/utils/useMongoNative.test.js -->
<g id="node34" class="node">
<title>lib/utils/useMongoNative.test.js</title>
<path fill="none" stroke="#c6c5fe" d="M880.8333,-633.5251C880.8333,-633.5251 681.1667,-633.5251 681.1667,-633.5251 677.3333,-633.5251 673.5,-629.6918 673.5,-625.8584 673.5,-625.8584 673.5,-618.1918 673.5,-618.1918 673.5,-614.3584 677.3333,-610.5251 681.1667,-610.5251 681.1667,-610.5251 880.8333,-610.5251 880.8333,-610.5251 884.6667,-610.5251 888.5,-614.3584 888.5,-618.1918 888.5,-618.1918 888.5,-625.8584 888.5,-625.8584 888.5,-629.6918 884.6667,-633.5251 880.8333,-633.5251"/>
<text text-anchor="middle" x="781" y="-618.3251" font-family="Arial" font-size="14.00" fill="#c6c5fe">lib/utils/useMongoNative.test.js</text>
</g>
<!-- lib/utils/useMongoNative.test.js&#45;&gt;lib/utils/useMongoNative.js -->
<g id="edge47" class="edge">
<title>lib/utils/useMongoNative.test.js&#45;&gt;lib/utils/useMongoNative.js</title>
<path fill="none" stroke="#757575" d="M888.7195,-619.4436C1036.7747,-617.0619 1311.2869,-616.829 1544,-640.0251 1565.4617,-642.1643 1588.7108,-645.8386 1609.5334,-649.6303"/>
<polygon fill="#757575" stroke="#757575" points="1609.0701,-653.1042 1619.542,-651.4949 1610.3522,-646.2226 1609.0701,-653.1042"/>
</g>
<!-- lib/utils/useMongoNative.test.js&#45;&gt;test/lib/index.js -->
<g id="edge48" class="edge">
<title>lib/utils/useMongoNative.test.js&#45;&gt;test/lib/index.js</title>
<path fill="none" stroke="#757575" d="M880.7987,-610.4612C895.3368,-606.8731 909.8288,-602.1752 923,-596.0251 983.6507,-567.7051 1040.4289,-511.0156 1067.6539,-481.2638"/>
<polygon fill="#757575" stroke="#757575" points="1070.4356,-483.4053 1074.5277,-473.6326 1065.2344,-478.7204 1070.4356,-483.4053"/>
</g>
<!-- lib/utils/wrapCallback.test.js -->
<g id="node35" class="node">
<title>lib/utils/wrapCallback.test.js</title>
<path fill="none" stroke="#c6c5fe" d="M544.8333,-831.5251C544.8333,-831.5251 367.1667,-831.5251 367.1667,-831.5251 363.3333,-831.5251 359.5,-827.6918 359.5,-823.8584 359.5,-823.8584 359.5,-816.1918 359.5,-816.1918 359.5,-812.3584 363.3333,-808.5251 367.1667,-808.5251 367.1667,-808.5251 544.8333,-808.5251 544.8333,-808.5251 548.6667,-808.5251 552.5,-812.3584 552.5,-816.1918 552.5,-816.1918 552.5,-823.8584 552.5,-823.8584 552.5,-827.6918 548.6667,-831.5251 544.8333,-831.5251"/>
<text text-anchor="middle" x="456" y="-816.3251" font-family="Arial" font-size="14.00" fill="#c6c5fe">lib/utils/wrapCallback.test.js</text>
</g>
<!-- lib/utils/wrapCallback.test.js&#45;&gt;lib/utils/wrapCallback.js -->
<g id="edge53" class="edge">
<title>lib/utils/wrapCallback.test.js&#45;&gt;lib/utils/wrapCallback.js</title>
<path fill="none" stroke="#757575" d="M549.01,-831.5517C577.8253,-834.8931 609.7003,-838.3559 639,-841.0251 1039.9744,-877.5536 1163.1238,-1012.5933 1544,-882.0251 1591.1229,-865.8709 1634.3407,-824.8949 1657.127,-800.3852"/>
<polygon fill="#757575" stroke="#757575" points="1659.9159,-802.5202 1664.0474,-792.7641 1654.7337,-797.8144 1659.9159,-802.5202"/>
</g>
<!-- lib/utils/wrapCallback.test.js&#45;&gt;lib/client.js -->
<g id="edge51" class="edge">
<title>lib/utils/wrapCallback.test.js&#45;&gt;lib/client.js</title>
<path fill="none" stroke="#757575" d="M552.555,-809.5566C569.4699,-806.965 586.8255,-803.8152 603,-800.0251 652.1932,-788.498 707.0396,-768.9468 742.678,-755.3062"/>
<polygon fill="#757575" stroke="#757575" points="744.1334,-758.4961 752.1999,-751.6271 741.6105,-751.9665 744.1334,-758.4961"/>
</g>
<!-- lib/utils/wrapCallback.test.js&#45;&gt;lib/utils/CosmosClientWrapper.test&#45;data.js -->
<g id="edge52" class="edge">
<title>lib/utils/wrapCallback.test.js&#45;&gt;lib/utils/CosmosClientWrapper.test&#45;data.js</title>
<path fill="none" stroke="#757575" d="M552.6308,-820.0251C576.4999,-820.0251 602.6515,-820.0251 628.4664,-820.0251"/>
<polygon fill="#757575" stroke="#757575" points="628.7227,-823.5252 638.7227,-820.0251 628.7227,-816.5252 628.7227,-823.5252"/>
</g>
<!-- test/lib/Mongoose.js&#45;&gt;test/lib/CosmosDb.js -->
<g id="edge54" class="edge">
<title>test/lib/Mongoose.js&#45;&gt;test/lib/CosmosDb.js</title>
<path fill="none" stroke="#757575" d="M1467.5746,-341.1851C1492.1845,-344.1368 1519.6094,-348.7673 1544,-356.0251 1580.7133,-366.9498 1620.0379,-387.0003 1645.7028,-401.3433"/>
<polygon fill="#757575" stroke="#757575" points="1644.0856,-404.4498 1654.5101,-406.3419 1647.5408,-398.362 1644.0856,-404.4498"/>
</g>
<!-- test/throughputSimulation.integration&#45;test.js -->
<g id="node43" class="node">
<title>test/throughputSimulation.integration&#45;test.js</title>
<path fill="none" stroke="#c6c5fe" d="M595.3333,-393.5251C595.3333,-393.5251 316.6667,-393.5251 316.6667,-393.5251 312.8333,-393.5251 309,-389.6918 309,-385.8584 309,-385.8584 309,-378.1918 309,-378.1918 309,-374.3584 312.8333,-370.5251 316.6667,-370.5251 316.6667,-370.5251 595.3333,-370.5251 595.3333,-370.5251 599.1667,-370.5251 603,-374.3584 603,-378.1918 603,-378.1918 603,-385.8584 603,-385.8584 603,-389.6918 599.1667,-393.5251 595.3333,-393.5251"/>
<text text-anchor="middle" x="456" y="-378.3251" font-family="Arial" font-size="14.00" fill="#c6c5fe">test/throughputSimulation.integration&#45;test.js</text>
</g>
<!-- test/throughputSimulation.integration&#45;test.js&#45;&gt;lib/client.js -->
<g id="edge62" class="edge">
<title>test/throughputSimulation.integration&#45;test.js&#45;&gt;lib/client.js</title>
<path fill="none" stroke="#757575" d="M520.6351,-393.5983C549.9888,-402.1401 582.628,-416.8456 603,-442.0251 660.0836,-512.5794 589.6928,-566.833 639,-643.0251 663.8023,-681.3508 709.6355,-708.4987 742.5282,-724.1486"/>
<polygon fill="#757575" stroke="#757575" points="741.311,-727.4414 751.858,-728.4467 744.2399,-721.0836 741.311,-727.4414"/>
</g>
<!-- test/throughputSimulation.integration&#45;test.js&#45;&gt;test/lib/index.js -->
<g id="edge63" class="edge">
<title>test/throughputSimulation.integration&#45;test.js&#45;&gt;test/lib/index.js</title>
<path fill="none" stroke="#757575" d="M501.8805,-370.4581C586.8893,-351.0892 773.8055,-318.2142 923,-361.0251 979.1263,-377.1304 1034.6584,-419.0673 1063.7153,-443.5406"/>
<polygon fill="#757575" stroke="#757575" points="1061.6522,-446.3821 1071.5213,-450.2359 1066.2095,-441.0688 1061.6522,-446.3821"/>
</g>
<!-- test/throughputSimulation.test&#45;data.js -->
<g id="node44" class="node">
<title>test/throughputSimulation.test&#45;data.js</title>
<path fill="none" stroke="#cfffac" d="M900.8333,-393.5251C900.8333,-393.5251 661.1667,-393.5251 661.1667,-393.5251 657.3333,-393.5251 653.5,-389.6918 653.5,-385.8584 653.5,-385.8584 653.5,-378.1918 653.5,-378.1918 653.5,-374.3584 657.3333,-370.5251 661.1667,-370.5251 661.1667,-370.5251 900.8333,-370.5251 900.8333,-370.5251 904.6667,-370.5251 908.5,-374.3584 908.5,-378.1918 908.5,-378.1918 908.5,-385.8584 908.5,-385.8584 908.5,-389.6918 904.6667,-393.5251 900.8333,-393.5251"/>
<text text-anchor="middle" x="781" y="-378.3251" font-family="Arial" font-size="14.00" fill="#cfffac">test/throughputSimulation.test&#45;data.js</text>
</g>
<!-- test/throughputSimulation.integration&#45;test.js&#45;&gt;test/throughputSimulation.test&#45;data.js -->
<g id="edge64" class="edge">
<title>test/throughputSimulation.integration&#45;test.js&#45;&gt;test/throughputSimulation.test&#45;data.js</title>
<path fill="none" stroke="#757575" d="M603.2855,-382.0251C616.5352,-382.0251 629.9211,-382.0251 643.0865,-382.0251"/>
<polygon fill="#757575" stroke="#757575" points="643.1054,-385.5252 653.1054,-382.0251 643.1053,-378.5252 643.1054,-385.5252"/>
</g>
</g>
</svg>
