<?xml version="1.0" encoding="UTF-8" standalone="no"?>
<!DOCTYPE svg PUBLIC "-//W3C//DTD SVG 1.1//EN"
 "http://www.w3.org/Graphics/SVG/1.1/DTD/svg11.dtd">
<!-- Generated by graphviz version 2.40.1 (20161225.0304)
 -->
<!-- Title: G Pages: 1 -->
<svg width="985pt" height="201pt"
 viewBox="0.00 0.00 985.20 200.63" xmlns="http://www.w3.org/2000/svg" xmlns:xlink="http://www.w3.org/1999/xlink">
<g id="graph0" class="graph" transform="scale(1 1) rotate(0) translate(21.6 179.0309)">
<title>G</title>
<polygon fill="#111111" stroke="transparent" points="-21.6,21.6 -21.6,-179.0309 963.6,-179.0309 963.6,21.6 -21.6,21.6"/>
<!-- client.js -->
<g id="node1" class="node">
<title>client.js</title>
<path fill="none" stroke="#c6c5fe" d="M159.3333,-76.4309C159.3333,-76.4309 109.6667,-76.4309 109.6667,-76.4309 105.8333,-76.4309 102,-72.5976 102,-68.7642 102,-68.7642 102,-61.0976 102,-61.0976 102,-57.2642 105.8333,-53.4309 109.6667,-53.4309 109.6667,-53.4309 159.3333,-53.4309 159.3333,-53.4309 163.1667,-53.4309 167,-57.2642 167,-61.0976 167,-61.0976 167,-68.7642 167,-68.7642 167,-72.5976 163.1667,-76.4309 159.3333,-76.4309"/>
<text text-anchor="middle" x="134.5" y="-61.2309" font-family="Arial" font-size="14.00" fill="#c6c5fe">client.js</text>
</g>
<!-- utils/CosmosClientWrapper.js -->
<g id="node2" class="node">
<title>utils/CosmosClientWrapper.js</title>
<path fill="none" stroke="#c6c5fe" d="M401.3333,-97.4309C401.3333,-97.4309 210.6667,-97.4309 210.6667,-97.4309 206.8333,-97.4309 203,-93.5976 203,-89.7642 203,-89.7642 203,-82.0976 203,-82.0976 203,-78.2642 206.8333,-74.4309 210.6667,-74.4309 210.6667,-74.4309 401.3333,-74.4309 401.3333,-74.4309 405.1667,-74.4309 409,-78.2642 409,-82.0976 409,-82.0976 409,-89.7642 409,-89.7642 409,-93.5976 405.1667,-97.4309 401.3333,-97.4309"/>
<text text-anchor="middle" x="306" y="-82.2309" font-family="Arial" font-size="14.00" fill="#c6c5fe">utils/CosmosClientWrapper.js</text>
</g>
<!-- client.js&#45;&gt;utils/CosmosClientWrapper.js -->
<g id="edge1" class="edge">
<title>client.js&#45;&gt;utils/CosmosClientWrapper.js</title>
<path fill="none" stroke="#757575" d="M167.1615,-68.9303C177.4374,-70.1885 189.3902,-71.6521 201.889,-73.1826"/>
<polygon fill="#757575" stroke="#757575" points="201.657,-76.6803 212.0083,-74.4217 202.5079,-69.7322 201.657,-76.6803"/>
</g>
<!-- utils/useMongoNative.js -->
<g id="node3" class="node">
<title>utils/useMongoNative.js</title>
<path fill="none" stroke="#cfffac" d="M383.3333,-56.4309C383.3333,-56.4309 228.6667,-56.4309 228.6667,-56.4309 224.8333,-56.4309 221,-52.5976 221,-48.7642 221,-48.7642 221,-41.0976 221,-41.0976 221,-37.2642 224.8333,-33.4309 228.6667,-33.4309 228.6667,-33.4309 383.3333,-33.4309 383.3333,-33.4309 387.1667,-33.4309 391,-37.2642 391,-41.0976 391,-41.0976 391,-48.7642 391,-48.7642 391,-52.5976 387.1667,-56.4309 383.3333,-56.4309"/>
<text text-anchor="middle" x="306" y="-41.2309" font-family="Arial" font-size="14.00" fill="#cfffac">utils/useMongoNative.js</text>
</g>
<!-- client.js&#45;&gt;utils/useMongoNative.js -->
<g id="edge2" class="edge">
<title>client.js&#45;&gt;utils/useMongoNative.js</title>
<path fill="none" stroke="#757575" d="M167.1615,-61.122C179.7577,-59.653 194.8736,-57.8902 210.4263,-56.0765"/>
<polygon fill="#757575" stroke="#757575" points="211.1604,-59.5147 220.6877,-54.8798 210.3495,-52.5618 211.1604,-59.5147"/>
</g>
<!-- utils/adaptMongoose.js -->
<g id="node5" class="node">
<title>utils/adaptMongoose.js</title>
<path fill="none" stroke="#c6c5fe" d="M603.3333,-77.4309C603.3333,-77.4309 452.6667,-77.4309 452.6667,-77.4309 448.8333,-77.4309 445,-73.5976 445,-69.7642 445,-69.7642 445,-62.0976 445,-62.0976 445,-58.2642 448.8333,-54.4309 452.6667,-54.4309 452.6667,-54.4309 603.3333,-54.4309 603.3333,-54.4309 607.1667,-54.4309 611,-58.2642 611,-62.0976 611,-62.0976 611,-69.7642 611,-69.7642 611,-73.5976 607.1667,-77.4309 603.3333,-77.4309"/>
<text text-anchor="middle" x="528" y="-62.2309" font-family="Arial" font-size="14.00" fill="#c6c5fe">utils/adaptMongoose.js</text>
</g>
<!-- utils/CosmosClientWrapper.js&#45;&gt;utils/adaptMongoose.js -->
<g id="edge4" class="edge">
<title>utils/CosmosClientWrapper.js&#45;&gt;utils/adaptMongoose.js</title>
<path fill="none" stroke="#757575" d="M409.201,-76.6335C417.6535,-75.872 426.1666,-75.1051 434.5429,-74.3504"/>
<polygon fill="#757575" stroke="#757575" points="435.0335,-77.8205 444.6791,-73.4373 434.4054,-70.8488 435.0335,-77.8205"/>
</g>
<!-- utils/cosmosDb.js -->
<g id="node6" class="node">
<title>utils/cosmosDb.js</title>
<path fill="none" stroke="#c6c5fe" d="M778.3333,-157.4309C778.3333,-157.4309 663.6667,-157.4309 663.6667,-157.4309 659.8333,-157.4309 656,-153.5976 656,-149.7642 656,-149.7642 656,-142.0976 656,-142.0976 656,-138.2642 659.8333,-134.4309 663.6667,-134.4309 663.6667,-134.4309 778.3333,-134.4309 778.3333,-134.4309 782.1667,-134.4309 786,-138.2642 786,-142.0976 786,-142.0976 786,-149.7642 786,-149.7642 786,-153.5976 782.1667,-157.4309 778.3333,-157.4309"/>
<text text-anchor="middle" x="721" y="-142.2309" font-family="Arial" font-size="14.00" fill="#c6c5fe">utils/cosmosDb.js</text>
</g>
<!-- utils/CosmosClientWrapper.js&#45;&gt;utils/cosmosDb.js -->
<g id="edge5" class="edge">
<title>utils/CosmosClientWrapper.js&#45;&gt;utils/cosmosDb.js</title>
<path fill="none" stroke="#757575" d="M346.4255,-97.4754C373.9889,-104.9366 411.4376,-114.2764 445,-119.9309 512.4654,-131.2973 590.1076,-138.0574 645.8224,-141.822"/>
<polygon fill="#757575" stroke="#757575" points="645.7544,-145.3251 655.963,-142.4906 646.2149,-138.3402 645.7544,-145.3251"/>
</g>
<!-- utils/strategy.js -->
<g id="node7" class="node">
<title>utils/strategy.js</title>
<path fill="none" stroke="#cfffac" d="M934.3333,-29.4309C934.3333,-29.4309 838.6667,-29.4309 838.6667,-29.4309 834.8333,-29.4309 831,-25.5976 831,-21.7642 831,-21.7642 831,-14.0976 831,-14.0976 831,-10.2642 834.8333,-6.4309 838.6667,-6.4309 838.6667,-6.4309 934.3333,-6.4309 934.3333,-6.4309 938.1667,-6.4309 942,-10.2642 942,-14.0976 942,-14.0976 942,-21.7642 942,-21.7642 942,-25.5976 938.1667,-29.4309 934.3333,-29.4309"/>
<text text-anchor="middle" x="886.5" y="-14.2309" font-family="Arial" font-size="14.00" fill="#cfffac">utils/strategy.js</text>
</g>
<!-- utils/CosmosClientWrapper.js&#45;&gt;utils/strategy.js -->
<g id="edge6" class="edge">
<title>utils/CosmosClientWrapper.js&#45;&gt;utils/strategy.js</title>
<path fill="none" stroke="#757575" d="M381.0885,-74.4269C390.6212,-72.0732 400.1347,-69.2671 409,-65.9309 426.3363,-59.4068 427.6447,-51.4043 445,-44.9309 591.6036,9.7513 638.8102,2.4239 795,-6.9309 803.3799,-7.4328 812.1684,-8.191 820.846,-9.0795"/>
<polygon fill="#757575" stroke="#757575" points="820.6318,-12.5766 830.9507,-10.1746 821.3861,-5.6174 820.6318,-12.5766"/>
</g>
<!-- utils/validity.js -->
<g id="node8" class="node">
<title>utils/validity.js</title>
<path fill="none" stroke="#cfffac" d="M930.8333,-89.4309C930.8333,-89.4309 842.1667,-89.4309 842.1667,-89.4309 838.3333,-89.4309 834.5,-85.5976 834.5,-81.7642 834.5,-81.7642 834.5,-74.0976 834.5,-74.0976 834.5,-70.2642 838.3333,-66.4309 842.1667,-66.4309 842.1667,-66.4309 930.8333,-66.4309 930.8333,-66.4309 934.6667,-66.4309 938.5,-70.2642 938.5,-74.0976 938.5,-74.0976 938.5,-81.7642 938.5,-81.7642 938.5,-85.5976 934.6667,-89.4309 930.8333,-89.4309"/>
<text text-anchor="middle" x="886.5" y="-74.2309" font-family="Arial" font-size="14.00" fill="#cfffac">utils/validity.js</text>
</g>
<!-- utils/CosmosClientWrapper.js&#45;&gt;utils/validity.js -->
<g id="edge7" class="edge">
<title>utils/CosmosClientWrapper.js&#45;&gt;utils/validity.js</title>
<path fill="none" stroke="#757575" d="M409.2315,-86.7561C421.29,-86.828 433.4164,-86.8892 445,-86.9309 600.5552,-87.4904 639.6107,-93.134 795,-85.9309 804.4578,-85.4925 814.4505,-84.8271 824.2212,-84.0636"/>
<polygon fill="#757575" stroke="#757575" points="824.6108,-87.5435 834.2913,-83.2378 824.0387,-80.5669 824.6108,-87.5435"/>
</g>
<!-- index.js -->
<g id="node4" class="node">
<title>index.js</title>
<path fill="none" stroke="#c6c5fe" d="M58.3333,-76.4309C58.3333,-76.4309 7.6667,-76.4309 7.6667,-76.4309 3.8333,-76.4309 0,-72.5976 0,-68.7642 0,-68.7642 0,-61.0976 0,-61.0976 0,-57.2642 3.8333,-53.4309 7.6667,-53.4309 7.6667,-53.4309 58.3333,-53.4309 58.3333,-53.4309 62.1667,-53.4309 66,-57.2642 66,-61.0976 66,-61.0976 66,-68.7642 66,-68.7642 66,-72.5976 62.1667,-76.4309 58.3333,-76.4309"/>
<text text-anchor="middle" x="33" y="-61.2309" font-family="Arial" font-size="14.00" fill="#c6c5fe">index.js</text>
</g>
<!-- index.js&#45;&gt;client.js -->
<g id="edge3" class="edge">
<title>index.js&#45;&gt;client.js</title>
<path fill="none" stroke="#757575" d="M66.2349,-64.9309C74.3734,-64.9309 83.1968,-64.9309 91.7134,-64.9309"/>
<polygon fill="#757575" stroke="#757575" points="91.8829,-68.431 101.8829,-64.9309 91.8829,-61.431 91.8829,-68.431"/>
</g>
<!-- utils/adaptMongoose.js&#45;&gt;utils/validity.js -->
<g id="edge8" class="edge">
<title>utils/adaptMongoose.js&#45;&gt;utils/validity.js</title>
<path fill="none" stroke="#757575" d="M611.1482,-68.7141C676.1261,-70.8891 765.0245,-73.8648 824.0298,-75.8398"/>
<polygon fill="#757575" stroke="#757575" points="824.2116,-79.3478 834.3231,-76.1844 824.4458,-72.3517 824.2116,-79.3478"/>
</g>
<!-- utils/wrapCallback.js -->
<g id="node9" class="node">
<title>utils/wrapCallback.js</title>
<path fill="none" stroke="#c6c5fe" d="M787.3333,-39.4309C787.3333,-39.4309 654.6667,-39.4309 654.6667,-39.4309 650.8333,-39.4309 647,-35.5976 647,-31.7642 647,-31.7642 647,-24.0976 647,-24.0976 647,-20.2642 650.8333,-16.4309 654.6667,-16.4309 654.6667,-16.4309 787.3333,-16.4309 787.3333,-16.4309 791.1667,-16.4309 795,-20.2642 795,-24.0976 795,-24.0976 795,-31.7642 795,-31.7642 795,-35.5976 791.1667,-39.4309 787.3333,-39.4309"/>
<text text-anchor="middle" x="721" y="-24.2309" font-family="Arial" font-size="14.00" fill="#c6c5fe">utils/wrapCallback.js</text>
</g>
<!-- utils/adaptMongoose.js&#45;&gt;utils/wrapCallback.js -->
<g id="edge9" class="edge">
<title>utils/adaptMongoose.js&#45;&gt;utils/wrapCallback.js</title>
<path fill="none" stroke="#757575" d="M586.4301,-54.4265C607.2141,-50.3343 630.8039,-45.6897 652.3641,-41.4447"/>
<polygon fill="#757575" stroke="#757575" points="653.3002,-44.8277 662.4357,-39.4617 651.9479,-37.9595 653.3002,-44.8277"/>
</g>
<!-- utils/cosmosDb.js&#45;&gt;utils/validity.js -->
<g id="edge10" class="edge">
<title>utils/cosmosDb.js&#45;&gt;utils/validity.js</title>
<path fill="none" stroke="#757575" d="M755.8826,-134.4178C768.3219,-130.1171 782.3751,-125.0336 795,-119.9309 814.6895,-111.9728 836.3001,-102.108 853.5732,-93.939"/>
<polygon fill="#757575" stroke="#757575" points="855.1614,-97.0593 862.6833,-89.598 852.1502,-90.7401 855.1614,-97.0593"/>
</g>
<!-- utils/wrapCallback.js&#45;&gt;utils/strategy.js -->
<g id="edge11" class="edge">
<title>utils/wrapCallback.js&#45;&gt;utils/strategy.js</title>
<path fill="none" stroke="#757575" d="M795.0368,-23.4574C803.603,-22.9398 812.2951,-22.4146 820.7404,-21.9043"/>
<polygon fill="#757575" stroke="#757575" points="821.1238,-25.3876 830.8945,-21.2907 820.7016,-18.4003 821.1238,-25.3876"/>
</g>
<!-- utils/wrapCallback.js&#45;&gt;utils/validity.js -->
<g id="edge12" class="edge">
<title>utils/wrapCallback.js&#45;&gt;utils/validity.js</title>
<path fill="none" stroke="#757575" d="M759.385,-39.5276C782.9887,-46.6586 813.4297,-55.8553 838.6045,-63.461"/>
<polygon fill="#757575" stroke="#757575" points="837.7382,-66.8554 848.3232,-66.3971 839.7627,-60.1545 837.7382,-66.8554"/>
</g>
</g>
</svg>
