<?xml version="1.0" encoding="UTF-8" standalone="no"?>
<!DOCTYPE svg PUBLIC "-//W3C//DTD SVG 1.1//EN"
 "http://www.w3.org/Graphics/SVG/1.1/DTD/svg11.dtd">
<!-- Generated by graphviz version 2.40.1 (20161225.0304)
 -->
<!-- Title: G Pages: 1 -->
<svg width="1047pt" height="255pt"
 viewBox="0.00 0.00 1047.20 255.33" xmlns="http://www.w3.org/2000/svg" xmlns:xlink="http://www.w3.org/1999/xlink">
<g id="graph0" class="graph" transform="scale(1 1) rotate(0) translate(21.6 233.7302)">
<title>G</title>
<polygon fill="#111111" stroke="transparent" points="-21.6,21.6 -21.6,-233.7302 1025.6,-233.7302 1025.6,21.6 -21.6,21.6"/>
<!-- client.js -->
<g id="node1" class="node">
<title>client.js</title>
<path fill="none" stroke="#c6c5fe" d="M159.3333,-133.7527C159.3333,-133.7527 109.6667,-133.7527 109.6667,-133.7527 105.8333,-133.7527 102,-129.9194 102,-126.0861 102,-126.0861 102,-118.4194 102,-118.4194 102,-114.5861 105.8333,-110.7527 109.6667,-110.7527 109.6667,-110.7527 159.3333,-110.7527 159.3333,-110.7527 163.1667,-110.7527 167,-114.5861 167,-118.4194 167,-118.4194 167,-126.0861 167,-126.0861 167,-129.9194 163.1667,-133.7527 159.3333,-133.7527"/>
<text text-anchor="middle" x="134.5" y="-118.5527" font-family="Arial" font-size="14.00" fill="#c6c5fe">client.js</text>
</g>
<!-- utils/CosmosClientWrapper.js -->
<g id="node2" class="node">
<title>utils/CosmosClientWrapper.js</title>
<path fill="none" stroke="#c6c5fe" d="M401.3333,-113.7527C401.3333,-113.7527 210.6667,-113.7527 210.6667,-113.7527 206.8333,-113.7527 203,-109.9194 203,-106.0861 203,-106.0861 203,-98.4194 203,-98.4194 203,-94.5861 206.8333,-90.7527 210.6667,-90.7527 210.6667,-90.7527 401.3333,-90.7527 401.3333,-90.7527 405.1667,-90.7527 409,-94.5861 409,-98.4194 409,-98.4194 409,-106.0861 409,-106.0861 409,-109.9194 405.1667,-113.7527 401.3333,-113.7527"/>
<text text-anchor="middle" x="306" y="-98.5527" font-family="Arial" font-size="14.00" fill="#c6c5fe">utils/CosmosClientWrapper.js</text>
</g>
<!-- client.js&#45;&gt;utils/CosmosClientWrapper.js -->
<g id="edge1" class="edge">
<title>client.js&#45;&gt;utils/CosmosClientWrapper.js</title>
<path fill="none" stroke="#757575" d="M167.1615,-118.4438C176.1649,-117.3939 186.4555,-116.1938 197.2729,-114.9323"/>
<polygon fill="#757575" stroke="#757575" points="197.8062,-118.3939 207.3334,-113.759 196.9953,-111.441 197.8062,-118.3939"/>
</g>
<!-- utils/useMongoNative.js -->
<g id="node3" class="node">
<title>utils/useMongoNative.js</title>
<path fill="none" stroke="#cfffac" d="M849.3333,-183.7527C849.3333,-183.7527 694.6667,-183.7527 694.6667,-183.7527 690.8333,-183.7527 687,-179.9194 687,-176.0861 687,-176.0861 687,-168.4194 687,-168.4194 687,-164.5861 690.8333,-160.7527 694.6667,-160.7527 694.6667,-160.7527 849.3333,-160.7527 849.3333,-160.7527 853.1667,-160.7527 857,-164.5861 857,-168.4194 857,-168.4194 857,-176.0861 857,-176.0861 857,-179.9194 853.1667,-183.7527 849.3333,-183.7527"/>
<text text-anchor="middle" x="772" y="-168.5527" font-family="Arial" font-size="14.00" fill="#cfffac">utils/useMongoNative.js</text>
</g>
<!-- client.js&#45;&gt;utils/useMongoNative.js -->
<g id="edge2" class="edge">
<title>client.js&#45;&gt;utils/useMongoNative.js</title>
<path fill="none" stroke="#757575" d="M167.4324,-124.8357C261.0524,-132.1784 531.3337,-153.377 676.7355,-164.781"/>
<polygon fill="#757575" stroke="#757575" points="676.7414,-168.2921 686.9845,-165.5849 677.2888,-161.3136 676.7414,-168.2921"/>
</g>
<!-- utils/adaptMongooseModel.js -->
<g id="node5" class="node">
<title>utils/adaptMongooseModel.js</title>
<path fill="none" stroke="#c6c5fe" d="M643.3333,-113.7527C643.3333,-113.7527 452.6667,-113.7527 452.6667,-113.7527 448.8333,-113.7527 445,-109.9194 445,-106.0861 445,-106.0861 445,-98.4194 445,-98.4194 445,-94.5861 448.8333,-90.7527 452.6667,-90.7527 452.6667,-90.7527 643.3333,-90.7527 643.3333,-90.7527 647.1667,-90.7527 651,-94.5861 651,-98.4194 651,-98.4194 651,-106.0861 651,-106.0861 651,-109.9194 647.1667,-113.7527 643.3333,-113.7527"/>
<text text-anchor="middle" x="548" y="-98.5527" font-family="Arial" font-size="14.00" fill="#c6c5fe">utils/adaptMongooseModel.js</text>
</g>
<!-- utils/CosmosClientWrapper.js&#45;&gt;utils/adaptMongooseModel.js -->
<g id="edge4" class="edge">
<title>utils/CosmosClientWrapper.js&#45;&gt;utils/adaptMongooseModel.js</title>
<path fill="none" stroke="#757575" d="M409.3317,-102.2527C417.6429,-102.2527 426.0678,-102.2527 434.4448,-102.2527"/>
<polygon fill="#757575" stroke="#757575" points="434.6285,-105.7528 444.6285,-102.2527 434.6285,-98.7528 434.6285,-105.7528"/>
</g>
<!-- utils/cosmosDb.js -->
<g id="node6" class="node">
<title>utils/cosmosDb.js</title>
<path fill="none" stroke="#c6c5fe" d="M605.3333,-55.7527C605.3333,-55.7527 490.6667,-55.7527 490.6667,-55.7527 486.8333,-55.7527 483,-51.9194 483,-48.0861 483,-48.0861 483,-40.4194 483,-40.4194 483,-36.5861 486.8333,-32.7527 490.6667,-32.7527 490.6667,-32.7527 605.3333,-32.7527 605.3333,-32.7527 609.1667,-32.7527 613,-36.5861 613,-40.4194 613,-40.4194 613,-48.0861 613,-48.0861 613,-51.9194 609.1667,-55.7527 605.3333,-55.7527"/>
<text text-anchor="middle" x="548" y="-40.5527" font-family="Arial" font-size="14.00" fill="#c6c5fe">utils/cosmosDb.js</text>
</g>
<!-- utils/CosmosClientWrapper.js&#45;&gt;utils/cosmosDb.js -->
<g id="edge5" class="edge">
<title>utils/CosmosClientWrapper.js&#45;&gt;utils/cosmosDb.js</title>
<path fill="none" stroke="#757575" d="M354.1008,-90.7245C393.1945,-81.3549 448.4744,-68.106 490.0126,-58.1506"/>
<polygon fill="#757575" stroke="#757575" points="491.0815,-61.4936 499.9903,-55.7592 489.4499,-54.6864 491.0815,-61.4936"/>
</g>
<!-- utils/strategy.js -->
<g id="node7" class="node">
<title>utils/strategy.js</title>
<path fill="none" stroke="#cfffac" d="M996.3333,-143.7527C996.3333,-143.7527 900.6667,-143.7527 900.6667,-143.7527 896.8333,-143.7527 893,-139.9194 893,-136.0861 893,-136.0861 893,-128.4194 893,-128.4194 893,-124.5861 896.8333,-120.7527 900.6667,-120.7527 900.6667,-120.7527 996.3333,-120.7527 996.3333,-120.7527 1000.1667,-120.7527 1004,-124.5861 1004,-128.4194 1004,-128.4194 1004,-136.0861 1004,-136.0861 1004,-139.9194 1000.1667,-143.7527 996.3333,-143.7527"/>
<text text-anchor="middle" x="948.5" y="-128.5527" font-family="Arial" font-size="14.00" fill="#cfffac">utils/strategy.js</text>
</g>
<!-- utils/CosmosClientWrapper.js&#45;&gt;utils/strategy.js -->
<g id="edge6" class="edge">
<title>utils/CosmosClientWrapper.js&#45;&gt;utils/strategy.js</title>
<path fill="none" stroke="#757575" d="M329.8625,-113.7779C407.3939,-149.6342 658.6499,-253.3083 857,-193.2527 884.4804,-184.9323 911.2512,-165.3359 928.6623,-150.5834"/>
<polygon fill="#757575" stroke="#757575" points="931.1951,-153.0181 936.4198,-143.801 926.5876,-147.7482 931.1951,-153.0181"/>
</g>
<!-- utils/validity.js -->
<g id="node8" class="node">
<title>utils/validity.js</title>
<path fill="none" stroke="#cfffac" d="M992.8333,-44.7527C992.8333,-44.7527 904.1667,-44.7527 904.1667,-44.7527 900.3333,-44.7527 896.5,-40.9194 896.5,-37.0861 896.5,-37.0861 896.5,-29.4194 896.5,-29.4194 896.5,-25.5861 900.3333,-21.7527 904.1667,-21.7527 904.1667,-21.7527 992.8333,-21.7527 992.8333,-21.7527 996.6667,-21.7527 1000.5,-25.5861 1000.5,-29.4194 1000.5,-29.4194 1000.5,-37.0861 1000.5,-37.0861 1000.5,-40.9194 996.6667,-44.7527 992.8333,-44.7527"/>
<text text-anchor="middle" x="948.5" y="-29.5527" font-family="Arial" font-size="14.00" fill="#cfffac">utils/validity.js</text>
</g>
<!-- utils/CosmosClientWrapper.js&#45;&gt;utils/validity.js -->
<g id="edge7" class="edge">
<title>utils/CosmosClientWrapper.js&#45;&gt;utils/validity.js</title>
<path fill="none" stroke="#757575" d="M320.2988,-90.7222C344.3261,-72.1714 395.0859,-36.446 445,-23.2527 599.5007,17.5847 790.0527,-4.9907 886.4137,-21.2449"/>
<polygon fill="#757575" stroke="#757575" points="885.8357,-24.6968 896.2845,-22.9437 887.0231,-17.7982 885.8357,-24.6968"/>
</g>
<!-- index.js -->
<g id="node4" class="node">
<title>index.js</title>
<path fill="none" stroke="#c6c5fe" d="M58.3333,-133.7527C58.3333,-133.7527 7.6667,-133.7527 7.6667,-133.7527 3.8333,-133.7527 0,-129.9194 0,-126.0861 0,-126.0861 0,-118.4194 0,-118.4194 0,-114.5861 3.8333,-110.7527 7.6667,-110.7527 7.6667,-110.7527 58.3333,-110.7527 58.3333,-110.7527 62.1667,-110.7527 66,-114.5861 66,-118.4194 66,-118.4194 66,-126.0861 66,-126.0861 66,-129.9194 62.1667,-133.7527 58.3333,-133.7527"/>
<text text-anchor="middle" x="33" y="-118.5527" font-family="Arial" font-size="14.00" fill="#c6c5fe">index.js</text>
</g>
<!-- index.js&#45;&gt;client.js -->
<g id="edge3" class="edge">
<title>index.js&#45;&gt;client.js</title>
<path fill="none" stroke="#757575" d="M66.2349,-122.2527C74.3734,-122.2527 83.1968,-122.2527 91.7134,-122.2527"/>
<polygon fill="#757575" stroke="#757575" points="91.8829,-125.7528 101.8829,-122.2527 91.8829,-118.7528 91.8829,-125.7528"/>
</g>
<!-- utils/adaptMongooseModel.js&#45;&gt;utils/useMongoNative.js -->
<g id="edge9" class="edge">
<title>utils/adaptMongooseModel.js&#45;&gt;utils/useMongoNative.js</title>
<path fill="none" stroke="#757575" d="M584.2606,-113.8371C612.2916,-122.7665 652.0761,-135.3842 687,-146.2527 698.972,-149.9785 711.9069,-153.9583 723.9873,-157.6556"/>
<polygon fill="#757575" stroke="#757575" points="723.3078,-161.1077 733.8941,-160.6831 725.3536,-154.4133 723.3078,-161.1077"/>
</g>
<!-- utils/adaptMongooseModel.js&#45;&gt;utils/strategy.js -->
<g id="edge8" class="edge">
<title>utils/adaptMongooseModel.js&#45;&gt;utils/strategy.js</title>
<path fill="none" stroke="#757575" d="M651.1387,-109.9785C724.1378,-115.4466 819.8543,-122.6164 882.7131,-127.3249"/>
<polygon fill="#757575" stroke="#757575" points="882.6625,-130.8308 892.8961,-128.0877 883.1855,-123.8504 882.6625,-130.8308"/>
</g>
<!-- utils/adaptMongooseModel.js&#45;&gt;utils/validity.js -->
<g id="edge10" class="edge">
<title>utils/adaptMongooseModel.js&#45;&gt;utils/validity.js</title>
<path fill="none" stroke="#757575" d="M595.4255,-90.7485C622.2092,-84.4851 656.3605,-76.8873 687,-71.2527 754.8203,-58.7806 833.1515,-47.854 886.2691,-40.9578"/>
<polygon fill="#757575" stroke="#757575" points="886.7452,-44.4255 896.2154,-39.6754 885.8499,-37.483 886.7452,-44.4255"/>
</g>
<!-- utils/wrapCallback.js -->
<g id="node9" class="node">
<title>utils/wrapCallback.js</title>
<path fill="none" stroke="#c6c5fe" d="M838.3333,-103.7527C838.3333,-103.7527 705.6667,-103.7527 705.6667,-103.7527 701.8333,-103.7527 698,-99.9194 698,-96.0861 698,-96.0861 698,-88.4194 698,-88.4194 698,-84.5861 701.8333,-80.7527 705.6667,-80.7527 705.6667,-80.7527 838.3333,-80.7527 838.3333,-80.7527 842.1667,-80.7527 846,-84.5861 846,-88.4194 846,-88.4194 846,-96.0861 846,-96.0861 846,-99.9194 842.1667,-103.7527 838.3333,-103.7527"/>
<text text-anchor="middle" x="772" y="-88.5527" font-family="Arial" font-size="14.00" fill="#c6c5fe">utils/wrapCallback.js</text>
</g>
<!-- utils/adaptMongooseModel.js&#45;&gt;utils/wrapCallback.js -->
<g id="edge11" class="edge">
<title>utils/adaptMongooseModel.js&#45;&gt;utils/wrapCallback.js</title>
<path fill="none" stroke="#757575" d="M651.1488,-97.6479C663.3155,-97.1047 675.6224,-96.5553 687.4904,-96.0255"/>
<polygon fill="#757575" stroke="#757575" points="687.9583,-99.5082 697.7922,-95.5656 687.646,-92.5151 687.9583,-99.5082"/>
</g>
<!-- utils/cosmosDb.js&#45;&gt;utils/validity.js -->
<g id="edge12" class="edge">
<title>utils/cosmosDb.js&#45;&gt;utils/validity.js</title>
<path fill="none" stroke="#757575" d="M613.0456,-41.1215C636.3664,-40.0845 662.8573,-39.0045 687,-38.2527 755.0784,-36.1329 833.1563,-34.7806 886.1427,-34.0242"/>
<polygon fill="#757575" stroke="#757575" points="886.445,-37.5204 896.395,-33.8808 886.347,-30.5211 886.445,-37.5204"/>
</g>
<!-- utils/wrapCallback.js&#45;&gt;utils/strategy.js -->
<g id="edge13" class="edge">
<title>utils/wrapCallback.js&#45;&gt;utils/strategy.js</title>
<path fill="none" stroke="#757575" d="M823.0511,-103.8224C843.2661,-108.4037 866.6686,-113.7074 887.7462,-118.4842"/>
<polygon fill="#757575" stroke="#757575" points="887.0373,-121.9122 897.5636,-120.7091 888.5845,-115.0853 887.0373,-121.9122"/>
</g>
<!-- utils/wrapCallback.js&#45;&gt;utils/validity.js -->
<g id="edge14" class="edge">
<title>utils/wrapCallback.js&#45;&gt;utils/validity.js</title>
<path fill="none" stroke="#757575" d="M811.0582,-80.7459C825.5385,-76.3643 842.0659,-71.2264 857,-66.2527 873.8504,-60.6408 892.2989,-54.0702 908.1884,-48.2759"/>
<polygon fill="#757575" stroke="#757575" points="909.5297,-51.512 917.714,-44.7839 907.1203,-44.9397 909.5297,-51.512"/>
</g>
</g>
</svg>
