<?xml version="1.0" encoding="UTF-8" standalone="no"?>
<!DOCTYPE svg PUBLIC "-//W3C//DTD SVG 1.1//EN"
 "http://www.w3.org/Graphics/SVG/1.1/DTD/svg11.dtd">
<!-- Generated by graphviz version 2.40.1 (20161225.0304)
 -->
<!-- Title: G Pages: 1 -->
<svg width="1935pt" height="960pt"
 viewBox="0.00 0.00 1935.20 959.68" xmlns="http://www.w3.org/2000/svg" xmlns:xlink="http://www.w3.org/1999/xlink">
<g id="graph0" class="graph" transform="scale(1 1) rotate(0) translate(21.6 938.0828)">
<title>G</title>
<polygon fill="#111111" stroke="transparent" points="-21.6,21.6 -21.6,-938.0828 1913.6,-938.0828 1913.6,21.6 -21.6,21.6"/>
<!-- __mocks__/@azure/cosmos/Container.js -->
<g id="node1" class="node">
<title>__mocks__/@azure/cosmos/Container.js</title>
<path fill="none" stroke="#c6c5fe" d="M914.3333,-36.5617C914.3333,-36.5617 647.6667,-36.5617 647.6667,-36.5617 643.8333,-36.5617 640,-32.7284 640,-28.8951 640,-28.8951 640,-21.2284 640,-21.2284 640,-17.3951 643.8333,-13.5617 647.6667,-13.5617 647.6667,-13.5617 914.3333,-13.5617 914.3333,-13.5617 918.1667,-13.5617 922,-17.3951 922,-21.2284 922,-21.2284 922,-28.8951 922,-28.8951 922,-32.7284 918.1667,-36.5617 914.3333,-36.5617"/>
<text text-anchor="middle" x="781" y="-21.3617" font-family="Arial" font-size="14.00" fill="#c6c5fe">__mocks__/@azure/cosmos/Container.js</text>
</g>
<!-- __mocks__/@azure/cosmos/Error.js -->
<g id="node2" class="node">
<title>__mocks__/@azure/cosmos/Error.js</title>
<path fill="none" stroke="#cfffac" d="M1517.3333,-54.5617C1517.3333,-54.5617 1281.6667,-54.5617 1281.6667,-54.5617 1277.8333,-54.5617 1274,-50.7284 1274,-46.8951 1274,-46.8951 1274,-39.2284 1274,-39.2284 1274,-35.3951 1277.8333,-31.5617 1281.6667,-31.5617 1281.6667,-31.5617 1517.3333,-31.5617 1517.3333,-31.5617 1521.1667,-31.5617 1525,-35.3951 1525,-39.2284 1525,-39.2284 1525,-46.8951 1525,-46.8951 1525,-50.7284 1521.1667,-54.5617 1517.3333,-54.5617"/>
<text text-anchor="middle" x="1399.5" y="-39.3617" font-family="Arial" font-size="14.00" fill="#cfffac">__mocks__/@azure/cosmos/Error.js</text>
</g>
<!-- __mocks__/@azure/cosmos/Container.js&#45;&gt;__mocks__/@azure/cosmos/Error.js -->
<g id="edge1" class="edge">
<title>__mocks__/@azure/cosmos/Container.js&#45;&gt;__mocks__/@azure/cosmos/Error.js</title>
<path fill="none" stroke="#757575" d="M922.1211,-29.1687C1024.5813,-32.1506 1162.4182,-36.162 1263.6389,-39.1078"/>
<polygon fill="#757575" stroke="#757575" points="1263.8376,-42.615 1273.9352,-39.4074 1264.0413,-35.6179 1263.8376,-42.615"/>
</g>
<!-- __mocks__/@azure/cosmos/Offer.js -->
<g id="node3" class="node">
<title>__mocks__/@azure/cosmos/Offer.js</title>
<path fill="none" stroke="#c6c5fe" d="M1216.3333,-74.5617C1216.3333,-74.5617 980.6667,-74.5617 980.6667,-74.5617 976.8333,-74.5617 973,-70.7284 973,-66.8951 973,-66.8951 973,-59.2284 973,-59.2284 973,-55.3951 976.8333,-51.5617 980.6667,-51.5617 980.6667,-51.5617 1216.3333,-51.5617 1216.3333,-51.5617 1220.1667,-51.5617 1224,-55.3951 1224,-59.2284 1224,-59.2284 1224,-66.8951 1224,-66.8951 1224,-70.7284 1220.1667,-74.5617 1216.3333,-74.5617"/>
<text text-anchor="middle" x="1098.5" y="-59.3617" font-family="Arial" font-size="14.00" fill="#c6c5fe">__mocks__/@azure/cosmos/Offer.js</text>
</g>
<!-- __mocks__/@azure/cosmos/Container.js&#45;&gt;__mocks__/@azure/cosmos/Offer.js -->
<g id="edge2" class="edge">
<title>__mocks__/@azure/cosmos/Container.js&#45;&gt;__mocks__/@azure/cosmos/Offer.js</title>
<path fill="none" stroke="#757575" d="M877.1221,-36.5661C913.3245,-40.899 954.702,-45.8512 991.8114,-50.2927"/>
<polygon fill="#757575" stroke="#757575" points="991.812,-53.8177 1002.1571,-51.5309 992.644,-46.8673 991.812,-53.8177"/>
</g>
<!-- __mocks__/@azure/cosmos/Offer.js&#45;&gt;__mocks__/@azure/cosmos/Error.js -->
<g id="edge5" class="edge">
<title>__mocks__/@azure/cosmos/Offer.js&#45;&gt;__mocks__/@azure/cosmos/Error.js</title>
<path fill="none" stroke="#757575" d="M1224.4071,-54.6958C1237.2458,-53.8427 1250.3299,-52.9734 1263.2719,-52.1134"/>
<polygon fill="#757575" stroke="#757575" points="1263.8674,-55.5817 1273.6134,-51.4263 1263.4033,-48.5971 1263.8674,-55.5817"/>
</g>
<!-- __mocks__/@azure/cosmos/Database.js -->
<g id="node4" class="node">
<title>__mocks__/@azure/cosmos/Database.js</title>
<path fill="none" stroke="#c6c5fe" d="M589.8333,-36.5617C589.8333,-36.5617 322.1667,-36.5617 322.1667,-36.5617 318.3333,-36.5617 314.5,-32.7284 314.5,-28.8951 314.5,-28.8951 314.5,-21.2284 314.5,-21.2284 314.5,-17.3951 318.3333,-13.5617 322.1667,-13.5617 322.1667,-13.5617 589.8333,-13.5617 589.8333,-13.5617 593.6667,-13.5617 597.5,-17.3951 597.5,-21.2284 597.5,-21.2284 597.5,-28.8951 597.5,-28.8951 597.5,-32.7284 593.6667,-36.5617 589.8333,-36.5617"/>
<text text-anchor="middle" x="456" y="-21.3617" font-family="Arial" font-size="14.00" fill="#c6c5fe">__mocks__/@azure/cosmos/Database.js</text>
</g>
<!-- __mocks__/@azure/cosmos/Database.js&#45;&gt;__mocks__/@azure/cosmos/Container.js -->
<g id="edge3" class="edge">
<title>__mocks__/@azure/cosmos/Database.js&#45;&gt;__mocks__/@azure/cosmos/Container.js</title>
<path fill="none" stroke="#757575" d="M597.6043,-25.0617C608.2338,-25.0617 618.9847,-25.0617 629.6708,-25.0617"/>
<polygon fill="#757575" stroke="#757575" points="629.8904,-28.5618 639.8903,-25.0617 629.8903,-21.5618 629.8904,-28.5618"/>
</g>
<!-- __mocks__/@azure/cosmos/Database.js&#45;&gt;__mocks__/@azure/cosmos/Error.js -->
<g id="edge4" class="edge">
<title>__mocks__/@azure/cosmos/Database.js&#45;&gt;__mocks__/@azure/cosmos/Error.js</title>
<path fill="none" stroke="#757575" d="M538.7269,-13.54C570.068,-9.7092 606.115,-5.9424 639,-4.0617 872.7844,9.3083 1147.1233,-14.4927 1293.9826,-30.4285"/>
<polygon fill="#757575" stroke="#757575" points="1294.0124,-33.9526 1304.3339,-31.5617 1294.7742,-26.9942 1294.0124,-33.9526"/>
</g>
<!-- __mocks__/@azure/cosmos/index.js -->
<g id="node5" class="node">
<title>__mocks__/@azure/cosmos/index.js</title>
<path fill="none" stroke="#c6c5fe" d="M256.3333,-76.5617C256.3333,-76.5617 16.6667,-76.5617 16.6667,-76.5617 12.8333,-76.5617 9,-72.7284 9,-68.8951 9,-68.8951 9,-61.2284 9,-61.2284 9,-57.3951 12.8333,-53.5617 16.6667,-53.5617 16.6667,-53.5617 256.3333,-53.5617 256.3333,-53.5617 260.1667,-53.5617 264,-57.3951 264,-61.2284 264,-61.2284 264,-68.8951 264,-68.8951 264,-72.7284 260.1667,-76.5617 256.3333,-76.5617"/>
<text text-anchor="middle" x="136.5" y="-61.3617" font-family="Arial" font-size="14.00" fill="#c6c5fe">__mocks__/@azure/cosmos/index.js</text>
</g>
<!-- __mocks__/@azure/cosmos/index.js&#45;&gt;__mocks__/@azure/cosmos/Error.js -->
<g id="edge7" class="edge">
<title>__mocks__/@azure/cosmos/index.js&#45;&gt;__mocks__/@azure/cosmos/Error.js</title>
<path fill="none" stroke="#757575" d="M264.0771,-76.4937C279.2076,-77.5303 294.4413,-78.427 309,-79.0617 721.5009,-97.0449 828.1459,-133.0622 1238,-83.0617 1277.7146,-78.2167 1321.7311,-66.9049 1353.7684,-57.5425"/>
<polygon fill="#757575" stroke="#757575" points="1355.1403,-60.7861 1363.7285,-54.5819 1353.1458,-54.0763 1355.1403,-60.7861"/>
</g>
<!-- __mocks__/@azure/cosmos/index.js&#45;&gt;__mocks__/@azure/cosmos/Offer.js -->
<g id="edge8" class="edge">
<title>__mocks__/@azure/cosmos/index.js&#45;&gt;__mocks__/@azure/cosmos/Offer.js</title>
<path fill="none" stroke="#757575" d="M264.2462,-64.7961C445.796,-64.4187 776.9852,-63.7301 962.7955,-63.3438"/>
<polygon fill="#757575" stroke="#757575" points="962.9095,-66.8437 972.9021,-63.3228 962.8948,-59.8437 962.9095,-66.8437"/>
</g>
<!-- __mocks__/@azure/cosmos/index.js&#45;&gt;__mocks__/@azure/cosmos/Database.js -->
<g id="edge6" class="edge">
<title>__mocks__/@azure/cosmos/index.js&#45;&gt;__mocks__/@azure/cosmos/Database.js</title>
<path fill="none" stroke="#757575" d="M228.484,-53.5457C267.7417,-48.6308 313.7016,-42.8769 353.9971,-37.832"/>
<polygon fill="#757575" stroke="#757575" points="354.6245,-41.2809 364.1122,-36.5657 353.7549,-34.3351 354.6245,-41.2809"/>
</g>
<!-- __mocks__/kth&#45;node&#45;log.js -->
<g id="node6" class="node">
<title>__mocks__/kth&#45;node&#45;log.js</title>
<path fill="none" stroke="#cfffac" d="M224.3333,-117.5617C224.3333,-117.5617 48.6667,-117.5617 48.6667,-117.5617 44.8333,-117.5617 41,-113.7284 41,-109.8951 41,-109.8951 41,-102.2284 41,-102.2284 41,-98.3951 44.8333,-94.5617 48.6667,-94.5617 48.6667,-94.5617 224.3333,-94.5617 224.3333,-94.5617 228.1667,-94.5617 232,-98.3951 232,-102.2284 232,-102.2284 232,-109.8951 232,-109.8951 232,-113.7284 228.1667,-117.5617 224.3333,-117.5617"/>
<text text-anchor="middle" x="136.5" y="-102.3617" font-family="Arial" font-size="14.00" fill="#cfffac">__mocks__/kth&#45;node&#45;log.js</text>
</g>
<!-- coverage/lcov&#45;report/block&#45;navigation.js -->
<g id="node7" class="node">
<title>coverage/lcov&#45;report/block&#45;navigation.js</title>
<path fill="none" stroke="#cfffac" d="M265.3333,-158.5617C265.3333,-158.5617 7.6667,-158.5617 7.6667,-158.5617 3.8333,-158.5617 0,-154.7284 0,-150.8951 0,-150.8951 0,-143.2284 0,-143.2284 0,-139.3951 3.8333,-135.5617 7.6667,-135.5617 7.6667,-135.5617 265.3333,-135.5617 265.3333,-135.5617 269.1667,-135.5617 273,-139.3951 273,-143.2284 273,-143.2284 273,-150.8951 273,-150.8951 273,-154.7284 269.1667,-158.5617 265.3333,-158.5617"/>
<text text-anchor="middle" x="136.5" y="-143.3617" font-family="Arial" font-size="14.00" fill="#cfffac">coverage/lcov&#45;report/block&#45;navigation.js</text>
</g>
<!-- coverage/lcov&#45;report/prettify.js -->
<g id="node8" class="node">
<title>coverage/lcov&#45;report/prettify.js</title>
<path fill="none" stroke="#cfffac" d="M233.3333,-199.5617C233.3333,-199.5617 39.6667,-199.5617 39.6667,-199.5617 35.8333,-199.5617 32,-195.7284 32,-191.8951 32,-191.8951 32,-184.2284 32,-184.2284 32,-180.3951 35.8333,-176.5617 39.6667,-176.5617 39.6667,-176.5617 233.3333,-176.5617 233.3333,-176.5617 237.1667,-176.5617 241,-180.3951 241,-184.2284 241,-184.2284 241,-191.8951 241,-191.8951 241,-195.7284 237.1667,-199.5617 233.3333,-199.5617"/>
<text text-anchor="middle" x="136.5" y="-184.3617" font-family="Arial" font-size="14.00" fill="#cfffac">coverage/lcov&#45;report/prettify.js</text>
</g>
<!-- coverage/lcov&#45;report/sorter.js -->
<g id="node9" class="node">
<title>coverage/lcov&#45;report/sorter.js</title>
<path fill="none" stroke="#cfffac" d="M230.3333,-240.5617C230.3333,-240.5617 42.6667,-240.5617 42.6667,-240.5617 38.8333,-240.5617 35,-236.7284 35,-232.8951 35,-232.8951 35,-225.2284 35,-225.2284 35,-221.3951 38.8333,-217.5617 42.6667,-217.5617 42.6667,-217.5617 230.3333,-217.5617 230.3333,-217.5617 234.1667,-217.5617 238,-221.3951 238,-225.2284 238,-225.2284 238,-232.8951 238,-232.8951 238,-236.7284 234.1667,-240.5617 230.3333,-240.5617"/>
<text text-anchor="middle" x="136.5" y="-225.3617" font-family="Arial" font-size="14.00" fill="#cfffac">coverage/lcov&#45;report/sorter.js</text>
</g>
<!-- jest.config.js -->
<g id="node10" class="node">
<title>jest.config.js</title>
<path fill="none" stroke="#cfffac" d="M176.8333,-281.5617C176.8333,-281.5617 96.1667,-281.5617 96.1667,-281.5617 92.3333,-281.5617 88.5,-277.7284 88.5,-273.8951 88.5,-273.8951 88.5,-266.2284 88.5,-266.2284 88.5,-262.3951 92.3333,-258.5617 96.1667,-258.5617 96.1667,-258.5617 176.8333,-258.5617 176.8333,-258.5617 180.6667,-258.5617 184.5,-262.3951 184.5,-266.2284 184.5,-266.2284 184.5,-273.8951 184.5,-273.8951 184.5,-277.7284 180.6667,-281.5617 176.8333,-281.5617"/>
<text text-anchor="middle" x="136.5" y="-266.3617" font-family="Arial" font-size="14.00" fill="#cfffac">jest.config.js</text>
</g>
<!-- jest.setup.js -->
<g id="node11" class="node">
<title>jest.setup.js</title>
<path fill="none" stroke="#cfffac" d="M175.3333,-322.5617C175.3333,-322.5617 97.6667,-322.5617 97.6667,-322.5617 93.8333,-322.5617 90,-318.7284 90,-314.8951 90,-314.8951 90,-307.2284 90,-307.2284 90,-303.3951 93.8333,-299.5617 97.6667,-299.5617 97.6667,-299.5617 175.3333,-299.5617 175.3333,-299.5617 179.1667,-299.5617 183,-303.3951 183,-307.2284 183,-307.2284 183,-314.8951 183,-314.8951 183,-318.7284 179.1667,-322.5617 175.3333,-322.5617"/>
<text text-anchor="middle" x="136.5" y="-307.3617" font-family="Arial" font-size="14.00" fill="#cfffac">jest.setup.js</text>
</g>
<!-- lib/client.js -->
<g id="node12" class="node">
<title>lib/client.js</title>
<path fill="none" stroke="#c6c5fe" d="M814.8333,-598.5617C814.8333,-598.5617 747.1667,-598.5617 747.1667,-598.5617 743.3333,-598.5617 739.5,-594.7284 739.5,-590.8951 739.5,-590.8951 739.5,-583.2284 739.5,-583.2284 739.5,-579.3951 743.3333,-575.5617 747.1667,-575.5617 747.1667,-575.5617 814.8333,-575.5617 814.8333,-575.5617 818.6667,-575.5617 822.5,-579.3951 822.5,-583.2284 822.5,-583.2284 822.5,-590.8951 822.5,-590.8951 822.5,-594.7284 818.6667,-598.5617 814.8333,-598.5617"/>
<text text-anchor="middle" x="781" y="-583.3617" font-family="Arial" font-size="14.00" fill="#c6c5fe">lib/client.js</text>
</g>
<!-- lib/utils/CosmosClientWrapper.js -->
<g id="node13" class="node">
<title>lib/utils/CosmosClientWrapper.js</title>
<path fill="none" stroke="#c6c5fe" d="M1202.8333,-638.5617C1202.8333,-638.5617 994.1667,-638.5617 994.1667,-638.5617 990.3333,-638.5617 986.5,-634.7284 986.5,-630.8951 986.5,-630.8951 986.5,-623.2284 986.5,-623.2284 986.5,-619.3951 990.3333,-615.5617 994.1667,-615.5617 994.1667,-615.5617 1202.8333,-615.5617 1202.8333,-615.5617 1206.6667,-615.5617 1210.5,-619.3951 1210.5,-623.2284 1210.5,-623.2284 1210.5,-630.8951 1210.5,-630.8951 1210.5,-634.7284 1206.6667,-638.5617 1202.8333,-638.5617"/>
<text text-anchor="middle" x="1098.5" y="-623.3617" font-family="Arial" font-size="14.00" fill="#c6c5fe">lib/utils/CosmosClientWrapper.js</text>
</g>
<!-- lib/client.js&#45;&gt;lib/utils/CosmosClientWrapper.js -->
<g id="edge9" class="edge">
<title>lib/client.js&#45;&gt;lib/utils/CosmosClientWrapper.js</title>
<path fill="none" stroke="#757575" d="M822.5076,-592.291C866.6017,-597.8462 937.9617,-606.8364 997.0732,-614.2835"/>
<polygon fill="#757575" stroke="#757575" points="996.8425,-617.7821 1007.2015,-615.5596 997.7175,-610.837 996.8425,-617.7821"/>
</g>
<!-- lib/utils/useMongoNative.js -->
<g id="node14" class="node">
<title>lib/utils/useMongoNative.js</title>
<path fill="none" stroke="#cfffac" d="M1184.8333,-579.5617C1184.8333,-579.5617 1012.1667,-579.5617 1012.1667,-579.5617 1008.3333,-579.5617 1004.5,-575.7284 1004.5,-571.8951 1004.5,-571.8951 1004.5,-564.2284 1004.5,-564.2284 1004.5,-560.3951 1008.3333,-556.5617 1012.1667,-556.5617 1012.1667,-556.5617 1184.8333,-556.5617 1184.8333,-556.5617 1188.6667,-556.5617 1192.5,-560.3951 1192.5,-564.2284 1192.5,-564.2284 1192.5,-571.8951 1192.5,-571.8951 1192.5,-575.7284 1188.6667,-579.5617 1184.8333,-579.5617"/>
<text text-anchor="middle" x="1098.5" y="-564.3617" font-family="Arial" font-size="14.00" fill="#cfffac">lib/utils/useMongoNative.js</text>
</g>
<!-- lib/client.js&#45;&gt;lib/utils/useMongoNative.js -->
<g id="edge10" class="edge">
<title>lib/client.js&#45;&gt;lib/utils/useMongoNative.js</title>
<path fill="none" stroke="#757575" d="M822.5076,-584.5778C865.8867,-581.9819 935.6545,-577.8068 994.188,-574.304"/>
<polygon fill="#757575" stroke="#757575" points="994.4536,-577.7945 1004.2266,-573.7033 994.0353,-570.807 994.4536,-577.7945"/>
</g>
<!-- lib/utils/adaptMongoose.js -->
<g id="node20" class="node">
<title>lib/utils/adaptMongoose.js</title>
<path fill="none" stroke="#c6c5fe" d="M1483.8333,-596.5617C1483.8333,-596.5617 1315.1667,-596.5617 1315.1667,-596.5617 1311.3333,-596.5617 1307.5,-592.7284 1307.5,-588.8951 1307.5,-588.8951 1307.5,-581.2284 1307.5,-581.2284 1307.5,-577.3951 1311.3333,-573.5617 1315.1667,-573.5617 1315.1667,-573.5617 1483.8333,-573.5617 1483.8333,-573.5617 1487.6667,-573.5617 1491.5,-577.3951 1491.5,-581.2284 1491.5,-581.2284 1491.5,-588.8951 1491.5,-588.8951 1491.5,-592.7284 1487.6667,-596.5617 1483.8333,-596.5617"/>
<text text-anchor="middle" x="1399.5" y="-581.3617" font-family="Arial" font-size="14.00" fill="#c6c5fe">lib/utils/adaptMongoose.js</text>
</g>
<!-- lib/utils/CosmosClientWrapper.js&#45;&gt;lib/utils/adaptMongoose.js -->
<g id="edge18" class="edge">
<title>lib/utils/CosmosClientWrapper.js&#45;&gt;lib/utils/adaptMongoose.js</title>
<path fill="none" stroke="#757575" d="M1181.1477,-615.5295C1220.1351,-610.0894 1266.806,-603.5772 1306.9734,-597.9724"/>
<polygon fill="#757575" stroke="#757575" points="1307.6163,-601.4167 1317.0367,-596.5682 1306.6489,-594.4839 1307.6163,-601.4167"/>
</g>
<!-- lib/utils/cosmosDb.js -->
<g id="node21" class="node">
<title>lib/utils/cosmosDb.js</title>
<path fill="none" stroke="#c6c5fe" d="M1465.8333,-794.5617C1465.8333,-794.5617 1333.1667,-794.5617 1333.1667,-794.5617 1329.3333,-794.5617 1325.5,-790.7284 1325.5,-786.8951 1325.5,-786.8951 1325.5,-779.2284 1325.5,-779.2284 1325.5,-775.3951 1329.3333,-771.5617 1333.1667,-771.5617 1333.1667,-771.5617 1465.8333,-771.5617 1465.8333,-771.5617 1469.6667,-771.5617 1473.5,-775.3951 1473.5,-779.2284 1473.5,-779.2284 1473.5,-786.8951 1473.5,-786.8951 1473.5,-790.7284 1469.6667,-794.5617 1465.8333,-794.5617"/>
<text text-anchor="middle" x="1399.5" y="-779.3617" font-family="Arial" font-size="14.00" fill="#c6c5fe">lib/utils/cosmosDb.js</text>
</g>
<!-- lib/utils/CosmosClientWrapper.js&#45;&gt;lib/utils/cosmosDb.js -->
<g id="edge19" class="edge">
<title>lib/utils/CosmosClientWrapper.js&#45;&gt;lib/utils/cosmosDb.js</title>
<path fill="none" stroke="#757575" d="M1139.7124,-638.6433C1169.8041,-648.7752 1210.0573,-666.0032 1238,-692.0617 1262.1514,-714.5846 1247.4065,-737.4823 1274,-757.0617 1286.1998,-766.0438 1300.7875,-772.0873 1315.63,-776.1198"/>
<polygon fill="#757575" stroke="#757575" points="1314.8546,-779.5332 1325.3979,-778.4901 1316.5053,-772.7306 1314.8546,-779.5332"/>
</g>
<!-- lib/utils/strategy.js -->
<g id="node22" class="node">
<title>lib/utils/strategy.js</title>
<path fill="none" stroke="#cfffac" d="M1884.3333,-723.5617C1884.3333,-723.5617 1770.6667,-723.5617 1770.6667,-723.5617 1766.8333,-723.5617 1763,-719.7284 1763,-715.8951 1763,-715.8951 1763,-708.2284 1763,-708.2284 1763,-704.3951 1766.8333,-700.5617 1770.6667,-700.5617 1770.6667,-700.5617 1884.3333,-700.5617 1884.3333,-700.5617 1888.1667,-700.5617 1892,-704.3951 1892,-708.2284 1892,-708.2284 1892,-715.8951 1892,-715.8951 1892,-719.7284 1888.1667,-723.5617 1884.3333,-723.5617"/>
<text text-anchor="middle" x="1827.5" y="-708.3617" font-family="Arial" font-size="14.00" fill="#cfffac">lib/utils/strategy.js</text>
</g>
<!-- lib/utils/CosmosClientWrapper.js&#45;&gt;lib/utils/strategy.js -->
<g id="edge20" class="edge">
<title>lib/utils/CosmosClientWrapper.js&#45;&gt;lib/utils/strategy.js</title>
<path fill="none" stroke="#757575" d="M1139.1953,-638.5694C1219.1873,-660.5235 1402.8919,-707.6602 1561,-724.0617 1634.384,-731.6743 1653.3524,-728.443 1727,-724.0617 1735.384,-723.563 1744.1406,-722.8321 1752.8385,-721.9733"/>
<polygon fill="#757575" stroke="#757575" points="1753.4139,-725.4323 1762.9963,-720.9125 1752.6868,-718.4702 1753.4139,-725.4323"/>
</g>
<!-- lib/utils/validity.js -->
<g id="node23" class="node">
<title>lib/utils/validity.js</title>
<path fill="none" stroke="#cfffac" d="M1880.8333,-664.5617C1880.8333,-664.5617 1774.1667,-664.5617 1774.1667,-664.5617 1770.3333,-664.5617 1766.5,-660.7284 1766.5,-656.8951 1766.5,-656.8951 1766.5,-649.2284 1766.5,-649.2284 1766.5,-645.3951 1770.3333,-641.5617 1774.1667,-641.5617 1774.1667,-641.5617 1880.8333,-641.5617 1880.8333,-641.5617 1884.6667,-641.5617 1888.5,-645.3951 1888.5,-649.2284 1888.5,-649.2284 1888.5,-656.8951 1888.5,-656.8951 1888.5,-660.7284 1884.6667,-664.5617 1880.8333,-664.5617"/>
<text text-anchor="middle" x="1827.5" y="-649.3617" font-family="Arial" font-size="14.00" fill="#cfffac">lib/utils/validity.js</text>
</g>
<!-- lib/utils/CosmosClientWrapper.js&#45;&gt;lib/utils/validity.js -->
<g id="edge21" class="edge">
<title>lib/utils/CosmosClientWrapper.js&#45;&gt;lib/utils/validity.js</title>
<path fill="none" stroke="#757575" d="M1210.8086,-631.0672C1362.6601,-636.4831 1629.0501,-645.9839 1756.1335,-650.5164"/>
<polygon fill="#757575" stroke="#757575" points="1756.0283,-654.0148 1766.1467,-650.8735 1756.2778,-647.0192 1756.0283,-654.0148"/>
</g>
<!-- lib/client.test.js -->
<g id="node15" class="node">
<title>lib/client.test.js</title>
<path fill="none" stroke="#c6c5fe" d="M503.3333,-635.5617C503.3333,-635.5617 408.6667,-635.5617 408.6667,-635.5617 404.8333,-635.5617 401,-631.7284 401,-627.8951 401,-627.8951 401,-620.2284 401,-620.2284 401,-616.3951 404.8333,-612.5617 408.6667,-612.5617 408.6667,-612.5617 503.3333,-612.5617 503.3333,-612.5617 507.1667,-612.5617 511,-616.3951 511,-620.2284 511,-620.2284 511,-627.8951 511,-627.8951 511,-631.7284 507.1667,-635.5617 503.3333,-635.5617"/>
<text text-anchor="middle" x="456" y="-620.3617" font-family="Arial" font-size="14.00" fill="#c6c5fe">lib/client.test.js</text>
</g>
<!-- lib/client.test.js&#45;&gt;lib/client.js -->
<g id="edge11" class="edge">
<title>lib/client.test.js&#45;&gt;lib/client.js</title>
<path fill="none" stroke="#757575" d="M511.1318,-617.7852C572.0781,-610.8467 669.4963,-599.756 729.1108,-592.9691"/>
<polygon fill="#757575" stroke="#757575" points="729.5233,-596.4448 739.0632,-591.8361 728.7315,-589.4898 729.5233,-596.4448"/>
</g>
<!-- lib/client.test.js&#45;&gt;lib/utils/CosmosClientWrapper.js -->
<g id="edge12" class="edge">
<title>lib/client.test.js&#45;&gt;lib/utils/CosmosClientWrapper.js</title>
<path fill="none" stroke="#757575" d="M511.0569,-624.3188C613.6487,-624.7978 836.3008,-625.8374 976.114,-626.4903"/>
<polygon fill="#757575" stroke="#757575" points="976.4354,-629.9917 986.4516,-626.5385 976.4681,-622.9918 976.4354,-629.9917"/>
</g>
<!-- lib/utils/CosmosClientWrapper.test&#45;data.js -->
<g id="node16" class="node">
<title>lib/utils/CosmosClientWrapper.test&#45;data.js</title>
<path fill="none" stroke="#c6c5fe" d="M915.3333,-678.5617C915.3333,-678.5617 646.6667,-678.5617 646.6667,-678.5617 642.8333,-678.5617 639,-674.7284 639,-670.8951 639,-670.8951 639,-663.2284 639,-663.2284 639,-659.3951 642.8333,-655.5617 646.6667,-655.5617 646.6667,-655.5617 915.3333,-655.5617 915.3333,-655.5617 919.1667,-655.5617 923,-659.3951 923,-663.2284 923,-663.2284 923,-670.8951 923,-670.8951 923,-674.7284 919.1667,-678.5617 915.3333,-678.5617"/>
<text text-anchor="middle" x="781" y="-663.3617" font-family="Arial" font-size="14.00" fill="#c6c5fe">lib/utils/CosmosClientWrapper.test&#45;data.js</text>
</g>
<!-- lib/client.test.js&#45;&gt;lib/utils/CosmosClientWrapper.test&#45;data.js -->
<g id="edge13" class="edge">
<title>lib/client.test.js&#45;&gt;lib/utils/CosmosClientWrapper.test&#45;data.js</title>
<path fill="none" stroke="#757575" d="M511.1318,-631.3561C558.3701,-637.6061 627.5189,-646.755 683.9932,-654.227"/>
<polygon fill="#757575" stroke="#757575" points="683.6484,-657.7118 694.0211,-655.5537 684.5666,-650.7722 683.6484,-657.7118"/>
</g>
<!-- test/lib/index.js -->
<g id="node17" class="node">
<title>test/lib/index.js</title>
<path fill="none" stroke="#c6c5fe" d="M828.8333,-400.5617C828.8333,-400.5617 733.1667,-400.5617 733.1667,-400.5617 729.3333,-400.5617 725.5,-396.7284 725.5,-392.8951 725.5,-392.8951 725.5,-385.2284 725.5,-385.2284 725.5,-381.3951 729.3333,-377.5617 733.1667,-377.5617 733.1667,-377.5617 828.8333,-377.5617 828.8333,-377.5617 832.6667,-377.5617 836.5,-381.3951 836.5,-385.2284 836.5,-385.2284 836.5,-392.8951 836.5,-392.8951 836.5,-396.7284 832.6667,-400.5617 828.8333,-400.5617"/>
<text text-anchor="middle" x="781" y="-385.3617" font-family="Arial" font-size="14.00" fill="#c6c5fe">test/lib/index.js</text>
</g>
<!-- lib/client.test.js&#45;&gt;test/lib/index.js -->
<g id="edge14" class="edge">
<title>lib/client.test.js&#45;&gt;test/lib/index.js</title>
<path fill="none" stroke="#757575" d="M511.0009,-628.5556C541.7766,-628.01 578.7194,-621.7999 603,-599.0617 653.358,-551.9027 594.2633,-500.5834 639,-448.0617 658.4257,-425.2555 688.1067,-411.1066 715.3193,-402.4074"/>
<polygon fill="#757575" stroke="#757575" points="716.6357,-405.6667 725.2098,-399.443 714.6259,-398.9614 716.6357,-405.6667"/>
</g>
<!-- lib/utils/CosmosClientWrapper.test&#45;data.js&#45;&gt;lib/utils/CosmosClientWrapper.js -->
<g id="edge22" class="edge">
<title>lib/utils/CosmosClientWrapper.test&#45;data.js&#45;&gt;lib/utils/CosmosClientWrapper.js</title>
<path fill="none" stroke="#757575" d="M872.4082,-655.5457C911.4201,-650.6308 957.0923,-644.8769 997.1357,-639.832"/>
<polygon fill="#757575" stroke="#757575" points="997.7034,-643.2883 1007.1874,-638.5657 996.8283,-636.3432 997.7034,-643.2883"/>
</g>
<!-- lib/utils/CosmosClientWrapper.test&#45;data.js&#45;&gt;lib/utils/cosmosDb.js -->
<g id="edge23" class="edge">
<title>lib/utils/CosmosClientWrapper.test&#45;data.js&#45;&gt;lib/utils/cosmosDb.js</title>
<path fill="none" stroke="#757575" d="M844.2795,-678.57C868.8624,-683.0612 897.2511,-688.2728 923,-693.0617 1067.3454,-719.908 1236.1583,-751.9442 1329.1151,-769.6404"/>
<polygon fill="#757575" stroke="#757575" points="1328.4911,-773.0844 1338.9693,-771.5168 1329.8005,-766.208 1328.4911,-773.0844"/>
</g>
<!-- test/lib/CosmosDb.js -->
<g id="node32" class="node">
<title>test/lib/CosmosDb.js</title>
<path fill="none" stroke="#cfffac" d="M1466.3333,-337.5617C1466.3333,-337.5617 1332.6667,-337.5617 1332.6667,-337.5617 1328.8333,-337.5617 1325,-333.7284 1325,-329.8951 1325,-329.8951 1325,-322.2284 1325,-322.2284 1325,-318.3951 1328.8333,-314.5617 1332.6667,-314.5617 1332.6667,-314.5617 1466.3333,-314.5617 1466.3333,-314.5617 1470.1667,-314.5617 1474,-318.3951 1474,-322.2284 1474,-322.2284 1474,-329.8951 1474,-329.8951 1474,-333.7284 1470.1667,-337.5617 1466.3333,-337.5617"/>
<text text-anchor="middle" x="1399.5" y="-322.3617" font-family="Arial" font-size="14.00" fill="#cfffac">test/lib/CosmosDb.js</text>
</g>
<!-- test/lib/index.js&#45;&gt;test/lib/CosmosDb.js -->
<g id="edge46" class="edge">
<title>test/lib/index.js&#45;&gt;test/lib/CosmosDb.js</title>
<path fill="none" stroke="#757575" d="M804.7481,-377.5225C838.2097,-361.9684 901.5756,-335.0715 959,-325.0617 1081.2367,-303.7543 1225.4691,-309.8569 1314.7171,-317.1844"/>
<polygon fill="#757575" stroke="#757575" points="1314.5271,-320.6808 1324.7864,-318.0356 1315.1167,-313.7056 1314.5271,-320.6808"/>
</g>
<!-- test/lib/Environment.js -->
<g id="node33" class="node">
<title>test/lib/Environment.js</title>
<path fill="none" stroke="#cfffac" d="M1169.8333,-398.5617C1169.8333,-398.5617 1027.1667,-398.5617 1027.1667,-398.5617 1023.3333,-398.5617 1019.5,-394.7284 1019.5,-390.8951 1019.5,-390.8951 1019.5,-383.2284 1019.5,-383.2284 1019.5,-379.3951 1023.3333,-375.5617 1027.1667,-375.5617 1027.1667,-375.5617 1169.8333,-375.5617 1169.8333,-375.5617 1173.6667,-375.5617 1177.5,-379.3951 1177.5,-383.2284 1177.5,-383.2284 1177.5,-390.8951 1177.5,-390.8951 1177.5,-394.7284 1173.6667,-398.5617 1169.8333,-398.5617"/>
<text text-anchor="middle" x="1098.5" y="-383.3617" font-family="Arial" font-size="14.00" fill="#cfffac">test/lib/Environment.js</text>
</g>
<!-- test/lib/index.js&#45;&gt;test/lib/Environment.js -->
<g id="edge47" class="edge">
<title>test/lib/index.js&#45;&gt;test/lib/Environment.js</title>
<path fill="none" stroke="#757575" d="M836.6676,-388.7111C884.3004,-388.411 953.7469,-387.9735 1009.1511,-387.6245"/>
<polygon fill="#757575" stroke="#757575" points="1009.3468,-391.1235 1019.3245,-387.5605 1009.3026,-384.1236 1009.3468,-391.1235"/>
</g>
<!-- test/lib/Mongoose.js -->
<g id="node34" class="node">
<title>test/lib/Mongoose.js</title>
<path fill="none" stroke="#c6c5fe" d="M1163.3333,-357.5617C1163.3333,-357.5617 1033.6667,-357.5617 1033.6667,-357.5617 1029.8333,-357.5617 1026,-353.7284 1026,-349.8951 1026,-349.8951 1026,-342.2284 1026,-342.2284 1026,-338.3951 1029.8333,-334.5617 1033.6667,-334.5617 1033.6667,-334.5617 1163.3333,-334.5617 1163.3333,-334.5617 1167.1667,-334.5617 1171,-338.3951 1171,-342.2284 1171,-342.2284 1171,-349.8951 1171,-349.8951 1171,-353.7284 1167.1667,-357.5617 1163.3333,-357.5617"/>
<text text-anchor="middle" x="1098.5" y="-342.3617" font-family="Arial" font-size="14.00" fill="#c6c5fe">test/lib/Mongoose.js</text>
</g>
<!-- test/lib/index.js&#45;&gt;test/lib/Mongoose.js -->
<g id="edge48" class="edge">
<title>test/lib/index.js&#45;&gt;test/lib/Mongoose.js</title>
<path fill="none" stroke="#757575" d="M836.6676,-381.5225C886.2447,-374.8081 959.4527,-364.8933 1015.8632,-357.2535"/>
<polygon fill="#757575" stroke="#757575" points="1016.3939,-360.7136 1025.8337,-355.9031 1015.4544,-353.777 1016.3939,-360.7136"/>
</g>
<!-- test/lib/removeCodeCoveragePollution.js -->
<g id="node35" class="node">
<title>test/lib/removeCodeCoveragePollution.js</title>
<path fill="none" stroke="#cfffac" d="M1230.3333,-480.5617C1230.3333,-480.5617 966.6667,-480.5617 966.6667,-480.5617 962.8333,-480.5617 959,-476.7284 959,-472.8951 959,-472.8951 959,-465.2284 959,-465.2284 959,-461.3951 962.8333,-457.5617 966.6667,-457.5617 966.6667,-457.5617 1230.3333,-457.5617 1230.3333,-457.5617 1234.1667,-457.5617 1238,-461.3951 1238,-465.2284 1238,-465.2284 1238,-472.8951 1238,-472.8951 1238,-476.7284 1234.1667,-480.5617 1230.3333,-480.5617"/>
<text text-anchor="middle" x="1098.5" y="-465.3617" font-family="Arial" font-size="14.00" fill="#cfffac">test/lib/removeCodeCoveragePollution.js</text>
</g>
<!-- test/lib/index.js&#45;&gt;test/lib/removeCodeCoveragePollution.js -->
<g id="edge49" class="edge">
<title>test/lib/index.js&#45;&gt;test/lib/removeCodeCoveragePollution.js</title>
<path fill="none" stroke="#757575" d="M836.5323,-392.0197C863.7349,-395.2287 896.2958,-401.7806 923,-415.0617 942.4342,-424.7272 939.4151,-438.7052 959,-448.0617 963.9033,-450.4042 969.0045,-452.4984 974.2325,-454.3697"/>
<polygon fill="#757575" stroke="#757575" points="973.1716,-457.7052 983.7645,-457.5029 975.3575,-451.0552 973.1716,-457.7052"/>
</g>
<!-- test/lib/testBasicFunctionExport.js -->
<g id="node36" class="node">
<title>test/lib/testBasicFunctionExport.js</title>
<path fill="none" stroke="#cfffac" d="M1207.3333,-439.5617C1207.3333,-439.5617 989.6667,-439.5617 989.6667,-439.5617 985.8333,-439.5617 982,-435.7284 982,-431.8951 982,-431.8951 982,-424.2284 982,-424.2284 982,-420.3951 985.8333,-416.5617 989.6667,-416.5617 989.6667,-416.5617 1207.3333,-416.5617 1207.3333,-416.5617 1211.1667,-416.5617 1215,-420.3951 1215,-424.2284 1215,-424.2284 1215,-431.8951 1215,-431.8951 1215,-435.7284 1211.1667,-439.5617 1207.3333,-439.5617"/>
<text text-anchor="middle" x="1098.5" y="-424.3617" font-family="Arial" font-size="14.00" fill="#cfffac">test/lib/testBasicFunctionExport.js</text>
</g>
<!-- test/lib/index.js&#45;&gt;test/lib/testBasicFunctionExport.js -->
<g id="edge50" class="edge">
<title>test/lib/index.js&#45;&gt;test/lib/testBasicFunctionExport.js</title>
<path fill="none" stroke="#757575" d="M836.6676,-395.8996C880.1916,-401.2459 941.9285,-408.8293 994.5235,-415.2898"/>
<polygon fill="#757575" stroke="#757575" points="994.2192,-418.7786 1004.5714,-416.524 995.0727,-411.8309 994.2192,-418.7786"/>
</g>
<!-- lib/index.js -->
<g id="node18" class="node">
<title>lib/index.js</title>
<path fill="none" stroke="#c6c5fe" d="M490.3333,-590.5617C490.3333,-590.5617 421.6667,-590.5617 421.6667,-590.5617 417.8333,-590.5617 414,-586.7284 414,-582.8951 414,-582.8951 414,-575.2284 414,-575.2284 414,-571.3951 417.8333,-567.5617 421.6667,-567.5617 421.6667,-567.5617 490.3333,-567.5617 490.3333,-567.5617 494.1667,-567.5617 498,-571.3951 498,-575.2284 498,-575.2284 498,-582.8951 498,-582.8951 498,-586.7284 494.1667,-590.5617 490.3333,-590.5617"/>
<text text-anchor="middle" x="456" y="-575.3617" font-family="Arial" font-size="14.00" fill="#c6c5fe">lib/index.js</text>
</g>
<!-- lib/index.js&#45;&gt;lib/client.js -->
<g id="edge15" class="edge">
<title>lib/index.js&#45;&gt;lib/client.js</title>
<path fill="none" stroke="#757575" d="M498.1549,-580.0994C557.3758,-581.5571 665.1113,-584.2091 729.159,-585.7856"/>
<polygon fill="#757575" stroke="#757575" points="729.3503,-589.2913 739.4335,-586.0385 729.5227,-582.2934 729.3503,-589.2913"/>
</g>
<!-- lib/index.test.js -->
<g id="node19" class="node">
<title>lib/index.test.js</title>
<path fill="none" stroke="#c6c5fe" d="M184.3333,-485.5617C184.3333,-485.5617 88.6667,-485.5617 88.6667,-485.5617 84.8333,-485.5617 81,-481.7284 81,-477.8951 81,-477.8951 81,-470.2284 81,-470.2284 81,-466.3951 84.8333,-462.5617 88.6667,-462.5617 88.6667,-462.5617 184.3333,-462.5617 184.3333,-462.5617 188.1667,-462.5617 192,-466.3951 192,-470.2284 192,-470.2284 192,-477.8951 192,-477.8951 192,-481.7284 188.1667,-485.5617 184.3333,-485.5617"/>
<text text-anchor="middle" x="136.5" y="-470.3617" font-family="Arial" font-size="14.00" fill="#c6c5fe">lib/index.test.js</text>
</g>
<!-- lib/index.test.js&#45;&gt;test/lib/index.js -->
<g id="edge17" class="edge">
<title>lib/index.test.js&#45;&gt;test/lib/index.js</title>
<path fill="none" stroke="#757575" d="M160.9514,-462.434C193.7755,-447.4598 254.2995,-422.0574 309,-411.0617 451.6834,-382.3802 623.2918,-382.8863 715.2069,-385.8999"/>
<polygon fill="#757575" stroke="#757575" points="715.3568,-389.4071 725.4727,-386.2579 715.6008,-382.4114 715.3568,-389.4071"/>
</g>
<!-- lib/index.test.js&#45;&gt;lib/index.js -->
<g id="edge16" class="edge">
<title>lib/index.test.js&#45;&gt;lib/index.js</title>
<path fill="none" stroke="#757575" d="M192.022,-471.8846C218.3867,-473.3065 249.2439,-478.7518 273,-494.0617 297.8707,-510.0899 284.5318,-533.4255 309,-550.0617 336.7094,-568.9018 373.7516,-576.1245 403.7189,-578.651"/>
<polygon fill="#757575" stroke="#757575" points="403.7795,-582.1634 413.9968,-579.3601 404.2614,-575.18 403.7795,-582.1634"/>
</g>
<!-- lib/utils/adaptMongoose.js&#45;&gt;lib/utils/validity.js -->
<g id="edge27" class="edge">
<title>lib/utils/adaptMongoose.js&#45;&gt;lib/utils/validity.js</title>
<path fill="none" stroke="#757575" d="M1491.7768,-584.6482C1558.0729,-586.2149 1649.1139,-592.2049 1727,-611.0617 1751.056,-616.8859 1776.7846,-627.7335 1796.187,-636.9453"/>
<polygon fill="#757575" stroke="#757575" points="1794.9168,-640.2194 1805.4409,-641.4421 1797.9763,-633.9234 1794.9168,-640.2194"/>
</g>
<!-- lib/utils/wrapCallback.js -->
<g id="node26" class="node">
<title>lib/utils/wrapCallback.js</title>
<path fill="none" stroke="#c6c5fe" d="M1719.3333,-714.5617C1719.3333,-714.5617 1568.6667,-714.5617 1568.6667,-714.5617 1564.8333,-714.5617 1561,-710.7284 1561,-706.8951 1561,-706.8951 1561,-699.2284 1561,-699.2284 1561,-695.3951 1564.8333,-691.5617 1568.6667,-691.5617 1568.6667,-691.5617 1719.3333,-691.5617 1719.3333,-691.5617 1723.1667,-691.5617 1727,-695.3951 1727,-699.2284 1727,-699.2284 1727,-706.8951 1727,-706.8951 1727,-710.7284 1723.1667,-714.5617 1719.3333,-714.5617"/>
<text text-anchor="middle" x="1644" y="-699.3617" font-family="Arial" font-size="14.00" fill="#c6c5fe">lib/utils/wrapCallback.js</text>
</g>
<!-- lib/utils/adaptMongoose.js&#45;&gt;lib/utils/wrapCallback.js -->
<g id="edge28" class="edge">
<title>lib/utils/adaptMongoose.js&#45;&gt;lib/utils/wrapCallback.js</title>
<path fill="none" stroke="#757575" d="M1423.3889,-596.5909C1467.3015,-617.7839 1560.92,-662.9658 1610.9161,-687.0949"/>
<polygon fill="#757575" stroke="#757575" points="1609.4869,-690.2913 1620.0142,-691.4857 1612.5294,-683.9871 1609.4869,-690.2913"/>
</g>
<!-- lib/utils/cosmosDb.js&#45;&gt;lib/utils/validity.js -->
<g id="edge33" class="edge">
<title>lib/utils/cosmosDb.js&#45;&gt;lib/utils/validity.js</title>
<path fill="none" stroke="#757575" d="M1413.5155,-771.3203C1440.2392,-749.668 1501.1658,-703.7743 1561,-683.0617 1624.5511,-661.0624 1701.2277,-654.3377 1755.9872,-652.6545"/>
<polygon fill="#757575" stroke="#757575" points="1756.3857,-656.1455 1766.2923,-652.3891 1756.2054,-649.1478 1756.3857,-656.1455"/>
</g>
<!-- lib/utils/CosmosClientWrapper.test.js -->
<g id="node24" class="node">
<title>lib/utils/CosmosClientWrapper.test.js</title>
<path fill="none" stroke="#c6c5fe" d="M573.8333,-756.5617C573.8333,-756.5617 338.1667,-756.5617 338.1667,-756.5617 334.3333,-756.5617 330.5,-752.7284 330.5,-748.8951 330.5,-748.8951 330.5,-741.2284 330.5,-741.2284 330.5,-737.3951 334.3333,-733.5617 338.1667,-733.5617 338.1667,-733.5617 573.8333,-733.5617 573.8333,-733.5617 577.6667,-733.5617 581.5,-737.3951 581.5,-741.2284 581.5,-741.2284 581.5,-748.8951 581.5,-748.8951 581.5,-752.7284 577.6667,-756.5617 573.8333,-756.5617"/>
<text text-anchor="middle" x="456" y="-741.3617" font-family="Arial" font-size="14.00" fill="#c6c5fe">lib/utils/CosmosClientWrapper.test.js</text>
</g>
<!-- lib/utils/CosmosClientWrapper.test.js&#45;&gt;lib/utils/CosmosClientWrapper.js -->
<g id="edge24" class="edge">
<title>lib/utils/CosmosClientWrapper.test.js&#45;&gt;lib/utils/CosmosClientWrapper.js</title>
<path fill="none" stroke="#757575" d="M581.6417,-737.02C676.3764,-729.2035 809.0238,-714.5064 923,-688.0617 972.1142,-676.6663 1026.6782,-656.446 1061.7278,-642.4252"/>
<polygon fill="#757575" stroke="#757575" points="1063.1153,-645.6396 1071.0753,-638.6475 1060.4924,-639.1495 1063.1153,-645.6396"/>
</g>
<!-- lib/utils/CosmosClientWrapper.test.js&#45;&gt;lib/utils/CosmosClientWrapper.test&#45;data.js -->
<g id="edge25" class="edge">
<title>lib/utils/CosmosClientWrapper.test.js&#45;&gt;lib/utils/CosmosClientWrapper.test&#45;data.js</title>
<path fill="none" stroke="#757575" d="M503.9549,-733.5525C562.1611,-719.583 660.261,-696.0391 722.7553,-681.0405"/>
<polygon fill="#757575" stroke="#757575" points="723.9413,-684.3553 732.8484,-678.6181 722.3077,-677.5486 723.9413,-684.3553"/>
</g>
<!-- lib/utils/CosmosClientWrapper.test.js&#45;&gt;lib/utils/cosmosDb.js -->
<g id="edge26" class="edge">
<title>lib/utils/CosmosClientWrapper.test.js&#45;&gt;lib/utils/cosmosDb.js</title>
<path fill="none" stroke="#757575" d="M581.7772,-750.1275C777.2383,-757.9998 1148.7031,-772.9607 1315.1477,-779.6644"/>
<polygon fill="#757575" stroke="#757575" points="1315.1965,-783.1691 1325.3293,-780.0744 1315.4782,-776.1748 1315.1965,-783.1691"/>
</g>
<!-- lib/utils/__mocks__/cosmosDb.js -->
<g id="node25" class="node">
<title>lib/utils/__mocks__/cosmosDb.js</title>
<path fill="none" stroke="#cfffac" d="M242.3333,-526.5617C242.3333,-526.5617 30.6667,-526.5617 30.6667,-526.5617 26.8333,-526.5617 23,-522.7284 23,-518.8951 23,-518.8951 23,-511.2284 23,-511.2284 23,-507.3951 26.8333,-503.5617 30.6667,-503.5617 30.6667,-503.5617 242.3333,-503.5617 242.3333,-503.5617 246.1667,-503.5617 250,-507.3951 250,-511.2284 250,-511.2284 250,-518.8951 250,-518.8951 250,-522.7284 246.1667,-526.5617 242.3333,-526.5617"/>
<text text-anchor="middle" x="136.5" y="-511.3617" font-family="Arial" font-size="14.00" fill="#cfffac">lib/utils/__mocks__/cosmosDb.js</text>
</g>
<!-- lib/utils/wrapCallback.js&#45;&gt;lib/utils/strategy.js -->
<g id="edge40" class="edge">
<title>lib/utils/wrapCallback.js&#45;&gt;lib/utils/strategy.js</title>
<path fill="none" stroke="#757575" d="M1727.1596,-707.1404C1735.6541,-707.557 1744.2477,-707.9785 1752.6457,-708.3904"/>
<polygon fill="#757575" stroke="#757575" points="1752.613,-711.8929 1762.7725,-708.8871 1752.956,-704.9013 1752.613,-711.8929"/>
</g>
<!-- lib/utils/wrapCallback.js&#45;&gt;lib/utils/validity.js -->
<g id="edge41" class="edge">
<title>lib/utils/wrapCallback.js&#45;&gt;lib/utils/validity.js</title>
<path fill="none" stroke="#757575" d="M1686.5598,-691.465C1713.0781,-684.2394 1747.3799,-674.8928 1775.5038,-667.2296"/>
<polygon fill="#757575" stroke="#757575" points="1776.4429,-670.6014 1785.171,-664.5955 1774.6026,-663.8476 1776.4429,-670.6014"/>
</g>
<!-- lib/utils/adaptMongoose.test.js -->
<g id="node27" class="node">
<title>lib/utils/adaptMongoose.test.js</title>
<path fill="none" stroke="#c6c5fe" d="M553.8333,-541.5617C553.8333,-541.5617 358.1667,-541.5617 358.1667,-541.5617 354.3333,-541.5617 350.5,-537.7284 350.5,-533.8951 350.5,-533.8951 350.5,-526.2284 350.5,-526.2284 350.5,-522.3951 354.3333,-518.5617 358.1667,-518.5617 358.1667,-518.5617 553.8333,-518.5617 553.8333,-518.5617 557.6667,-518.5617 561.5,-522.3951 561.5,-526.2284 561.5,-526.2284 561.5,-533.8951 561.5,-533.8951 561.5,-537.7284 557.6667,-541.5617 553.8333,-541.5617"/>
<text text-anchor="middle" x="456" y="-526.3617" font-family="Arial" font-size="14.00" fill="#c6c5fe">lib/utils/adaptMongoose.test.js</text>
</g>
<!-- lib/utils/adaptMongoose.test.js&#45;&gt;lib/utils/CosmosClientWrapper.js -->
<g id="edge29" class="edge">
<title>lib/utils/adaptMongoose.test.js&#45;&gt;lib/utils/CosmosClientWrapper.js</title>
<path fill="none" stroke="#757575" d="M561.648,-524.3226C658.1122,-522.298 803.4595,-527.4078 923,-566.0617 940.8416,-571.8309 941.8073,-580.5774 959,-588.0617 982.8117,-598.4274 1010.1135,-606.7767 1034.2145,-613.0495"/>
<polygon fill="#757575" stroke="#757575" points="1033.423,-616.4595 1043.9764,-615.5238 1035.1429,-609.6741 1033.423,-616.4595"/>
</g>
<!-- lib/utils/adaptMongoose.test.js&#45;&gt;lib/utils/CosmosClientWrapper.test&#45;data.js -->
<g id="edge30" class="edge">
<title>lib/utils/adaptMongoose.test.js&#45;&gt;lib/utils/CosmosClientWrapper.test&#45;data.js</title>
<path fill="none" stroke="#757575" d="M561.6766,-540.1949C576.2395,-544.3919 590.4747,-550.1619 603,-558.0617 625.8571,-572.4778 617.7928,-590.3129 639,-607.0617 665.2089,-627.7607 699.607,-642.5367 727.9832,-652.2458"/>
<polygon fill="#757575" stroke="#757575" points="727.1526,-655.6574 737.7458,-655.4701 729.3479,-649.0105 727.1526,-655.6574"/>
</g>
<!-- lib/utils/adaptMongoose.test.js&#45;&gt;test/lib/index.js -->
<g id="edge32" class="edge">
<title>lib/utils/adaptMongoose.test.js&#45;&gt;test/lib/index.js</title>
<path fill="none" stroke="#757575" d="M541.1062,-518.4885C562.4498,-513.0116 584.5152,-504.9442 603,-493.0617 624.545,-479.212 618.5319,-463.4583 639,-448.0617 665.7176,-427.9641 700.2774,-413.4104 728.6127,-403.7861"/>
<polygon fill="#757575" stroke="#757575" points="729.9445,-407.0327 738.3526,-400.5864 727.7597,-400.3823 729.9445,-407.0327"/>
</g>
<!-- lib/utils/adaptMongoose.test.js&#45;&gt;lib/utils/adaptMongoose.js -->
<g id="edge31" class="edge">
<title>lib/utils/adaptMongoose.test.js&#45;&gt;lib/utils/adaptMongoose.js</title>
<path fill="none" stroke="#757575" d="M561.9418,-525.3207C587.1889,-524.3815 614.0462,-523.5388 639,-523.0617 905.3871,-517.9687 974.6997,-506.3066 1238,-547.0617 1275.3719,-552.8464 1316.8889,-562.6924 1348.4697,-570.9126"/>
<polygon fill="#757575" stroke="#757575" points="1347.7945,-574.3541 1358.3562,-573.5171 1349.5778,-567.585 1347.7945,-574.3541"/>
</g>
<!-- lib/utils/cosmosDb.test&#45;data.js -->
<g id="node28" class="node">
<title>lib/utils/cosmosDb.test&#45;data.js</title>
<path fill="none" stroke="#c6c5fe" d="M552.3333,-363.5617C552.3333,-363.5617 359.6667,-363.5617 359.6667,-363.5617 355.8333,-363.5617 352,-359.7284 352,-355.8951 352,-355.8951 352,-348.2284 352,-348.2284 352,-344.3951 355.8333,-340.5617 359.6667,-340.5617 359.6667,-340.5617 552.3333,-340.5617 552.3333,-340.5617 556.1667,-340.5617 560,-344.3951 560,-348.2284 560,-348.2284 560,-355.8951 560,-355.8951 560,-359.7284 556.1667,-363.5617 552.3333,-363.5617"/>
<text text-anchor="middle" x="456" y="-348.3617" font-family="Arial" font-size="14.00" fill="#c6c5fe">lib/utils/cosmosDb.test&#45;data.js</text>
</g>
<!-- lib/utils/cosmosDb.test&#45;data.js&#45;&gt;test/lib/index.js -->
<g id="edge34" class="edge">
<title>lib/utils/cosmosDb.test&#45;data.js&#45;&gt;test/lib/index.js</title>
<path fill="none" stroke="#757575" d="M557.0505,-363.5659C608.6746,-369.4431 670.0021,-376.425 715.4164,-381.5953"/>
<polygon fill="#757575" stroke="#757575" points="715.1046,-385.0823 725.4364,-382.736 715.8965,-378.1272 715.1046,-385.0823"/>
</g>
<!-- lib/utils/cosmosDb.test.js -->
<g id="node29" class="node">
<title>lib/utils/cosmosDb.test.js</title>
<path fill="none" stroke="#c6c5fe" d="M216.3333,-363.5617C216.3333,-363.5617 56.6667,-363.5617 56.6667,-363.5617 52.8333,-363.5617 49,-359.7284 49,-355.8951 49,-355.8951 49,-348.2284 49,-348.2284 49,-344.3951 52.8333,-340.5617 56.6667,-340.5617 56.6667,-340.5617 216.3333,-340.5617 216.3333,-340.5617 220.1667,-340.5617 224,-344.3951 224,-348.2284 224,-348.2284 224,-355.8951 224,-355.8951 224,-359.7284 220.1667,-363.5617 216.3333,-363.5617"/>
<text text-anchor="middle" x="136.5" y="-348.3617" font-family="Arial" font-size="14.00" fill="#c6c5fe">lib/utils/cosmosDb.test.js</text>
</g>
<!-- lib/utils/cosmosDb.test.js&#45;&gt;test/lib/index.js -->
<g id="edge37" class="edge">
<title>lib/utils/cosmosDb.test.js&#45;&gt;test/lib/index.js</title>
<path fill="none" stroke="#757575" d="M204.1895,-340.5182C295.3832,-326.8964 462.4803,-308.7455 603,-331.0617 653.7601,-339.123 709.7284,-359.3558 745.1025,-373.6474"/>
<polygon fill="#757575" stroke="#757575" points="743.9321,-376.9503 754.5123,-377.5058 746.5878,-370.4736 743.9321,-376.9503"/>
</g>
<!-- lib/utils/cosmosDb.test.js&#45;&gt;lib/utils/cosmosDb.js -->
<g id="edge35" class="edge">
<title>lib/utils/cosmosDb.test.js&#45;&gt;lib/utils/cosmosDb.js</title>
<path fill="none" stroke="#757575" d="M163.3081,-363.6375C195.3425,-379.0156 247.771,-409.4187 273,-453.0617 308.0401,-513.6767 257.3906,-718.7495 309,-766.0617 616.9738,-1048.3921 1204.2077,-856.6516 1360.4903,-798.3244"/>
<polygon fill="#757575" stroke="#757575" points="1362.0309,-801.4842 1370.1536,-794.6819 1359.5618,-794.9341 1362.0309,-801.4842"/>
</g>
<!-- lib/utils/cosmosDb.test.js&#45;&gt;lib/utils/cosmosDb.test&#45;data.js -->
<g id="edge36" class="edge">
<title>lib/utils/cosmosDb.test.js&#45;&gt;lib/utils/cosmosDb.test&#45;data.js</title>
<path fill="none" stroke="#757575" d="M224.2274,-352.0617C260.433,-352.0617 302.8812,-352.0617 341.4876,-352.0617"/>
<polygon fill="#757575" stroke="#757575" points="341.7383,-355.5618 351.7382,-352.0617 341.7382,-348.5618 341.7383,-355.5618"/>
</g>
<!-- lib/utils/useMongoNative.test.js -->
<g id="node30" class="node">
<title>lib/utils/useMongoNative.test.js</title>
<path fill="none" stroke="#c6c5fe" d="M555.8333,-443.5617C555.8333,-443.5617 356.1667,-443.5617 356.1667,-443.5617 352.3333,-443.5617 348.5,-439.7284 348.5,-435.8951 348.5,-435.8951 348.5,-428.2284 348.5,-428.2284 348.5,-424.3951 352.3333,-420.5617 356.1667,-420.5617 356.1667,-420.5617 555.8333,-420.5617 555.8333,-420.5617 559.6667,-420.5617 563.5,-424.3951 563.5,-428.2284 563.5,-428.2284 563.5,-435.8951 563.5,-435.8951 563.5,-439.7284 559.6667,-443.5617 555.8333,-443.5617"/>
<text text-anchor="middle" x="456" y="-428.3617" font-family="Arial" font-size="14.00" fill="#c6c5fe">lib/utils/useMongoNative.test.js</text>
</g>
<!-- lib/utils/useMongoNative.test.js&#45;&gt;lib/utils/useMongoNative.js -->
<g id="edge38" class="edge">
<title>lib/utils/useMongoNative.test.js&#45;&gt;lib/utils/useMongoNative.js</title>
<path fill="none" stroke="#757575" d="M563.6225,-426.018C681.4293,-421.0988 861.7326,-419.05 923,-448.0617 944.9167,-458.4399 940.1862,-473.7617 959,-489.0617 991.3447,-515.3656 1033.5977,-537.9343 1063.0906,-552.1334"/>
<polygon fill="#757575" stroke="#757575" points="1061.6534,-555.3254 1072.1891,-556.4435 1064.6502,-548.9993 1061.6534,-555.3254"/>
</g>
<!-- lib/utils/useMongoNative.test.js&#45;&gt;test/lib/index.js -->
<g id="edge39" class="edge">
<title>lib/utils/useMongoNative.test.js&#45;&gt;test/lib/index.js</title>
<path fill="none" stroke="#757575" d="M543.094,-420.5385C597.2732,-413.3702 665.822,-404.3007 715.4059,-397.7403"/>
<polygon fill="#757575" stroke="#757575" points="715.9184,-401.2031 725.3729,-396.4216 715.0002,-394.2636 715.9184,-401.2031"/>
</g>
<!-- lib/utils/wrapCallback.test.js -->
<g id="node31" class="node">
<title>lib/utils/wrapCallback.test.js</title>
<path fill="none" stroke="#c6c5fe" d="M544.8333,-678.5617C544.8333,-678.5617 367.1667,-678.5617 367.1667,-678.5617 363.3333,-678.5617 359.5,-674.7284 359.5,-670.8951 359.5,-670.8951 359.5,-663.2284 359.5,-663.2284 359.5,-659.3951 363.3333,-655.5617 367.1667,-655.5617 367.1667,-655.5617 544.8333,-655.5617 544.8333,-655.5617 548.6667,-655.5617 552.5,-659.3951 552.5,-663.2284 552.5,-663.2284 552.5,-670.8951 552.5,-670.8951 552.5,-674.7284 548.6667,-678.5617 544.8333,-678.5617"/>
<text text-anchor="middle" x="456" y="-663.3617" font-family="Arial" font-size="14.00" fill="#c6c5fe">lib/utils/wrapCallback.test.js</text>
</g>
<!-- lib/utils/wrapCallback.test.js&#45;&gt;lib/client.js -->
<g id="edge42" class="edge">
<title>lib/utils/wrapCallback.test.js&#45;&gt;lib/client.js</title>
<path fill="none" stroke="#757575" d="M548.9793,-655.542C567.0037,-652.6352 585.6706,-649.1517 603,-645.0617 651.4316,-633.631 705.6004,-615.1272 741.3207,-602.0993"/>
<polygon fill="#757575" stroke="#757575" points="742.7096,-605.3178 750.8863,-598.5804 740.2928,-598.7482 742.7096,-605.3178"/>
</g>
<!-- lib/utils/wrapCallback.test.js&#45;&gt;lib/utils/CosmosClientWrapper.test&#45;data.js -->
<g id="edge43" class="edge">
<title>lib/utils/wrapCallback.test.js&#45;&gt;lib/utils/CosmosClientWrapper.test&#45;data.js</title>
<path fill="none" stroke="#757575" d="M552.6308,-667.0617C576.4999,-667.0617 602.6515,-667.0617 628.4664,-667.0617"/>
<polygon fill="#757575" stroke="#757575" points="628.7227,-670.5618 638.7227,-667.0617 628.7227,-663.5618 628.7227,-670.5618"/>
</g>
<!-- lib/utils/wrapCallback.test.js&#45;&gt;lib/utils/wrapCallback.js -->
<g id="edge44" class="edge">
<title>lib/utils/wrapCallback.test.js&#45;&gt;lib/utils/wrapCallback.js</title>
<path fill="none" stroke="#757575" d="M506.8352,-678.6054C634.7921,-706.9977 980.9084,-779.6877 1274,-804.0617 1385.1718,-813.307 1420.2799,-842.5109 1525,-804.0617 1569.1438,-787.8538 1608.1228,-747.2076 1628.6538,-722.7039"/>
<polygon fill="#757575" stroke="#757575" points="1631.5126,-724.7364 1635.1247,-714.7763 1626.0898,-720.31 1631.5126,-724.7364"/>
</g>
<!-- test/lib/Mongoose.js&#45;&gt;test/lib/CosmosDb.js -->
<g id="edge45" class="edge">
<title>test/lib/Mongoose.js&#45;&gt;test/lib/CosmosDb.js</title>
<path fill="none" stroke="#757575" d="M1171.3637,-341.2203C1214.633,-338.3452 1269.6923,-334.6868 1314.8797,-331.6843"/>
<polygon fill="#757575" stroke="#757575" points="1315.2076,-335.1704 1324.9536,-331.015 1314.7435,-328.1858 1315.2076,-335.1704"/>
</g>
<!-- test/throughputSimulation.integration&#45;test.js -->
<g id="node37" class="node">
<title>test/throughputSimulation.integration&#45;test.js</title>
<path fill="none" stroke="#c6c5fe" d="M595.3333,-484.5617C595.3333,-484.5617 316.6667,-484.5617 316.6667,-484.5617 312.8333,-484.5617 309,-480.7284 309,-476.8951 309,-476.8951 309,-469.2284 309,-469.2284 309,-465.3951 312.8333,-461.5617 316.6667,-461.5617 316.6667,-461.5617 595.3333,-461.5617 595.3333,-461.5617 599.1667,-461.5617 603,-465.3951 603,-469.2284 603,-469.2284 603,-476.8951 603,-476.8951 603,-480.7284 599.1667,-484.5617 595.3333,-484.5617"/>
<text text-anchor="middle" x="456" y="-469.3617" font-family="Arial" font-size="14.00" fill="#c6c5fe">test/throughputSimulation.integration&#45;test.js</text>
</g>
<!-- test/throughputSimulation.integration&#45;test.js&#45;&gt;lib/client.js -->
<g id="edge51" class="edge">
<title>test/throughputSimulation.integration&#45;test.js&#45;&gt;lib/client.js</title>
<path fill="none" stroke="#757575" d="M512.8471,-484.5746C540.392,-490.7608 573.7587,-499.1573 603,-509.0617 655.4319,-526.8211 713.7724,-553.8562 748.9102,-570.9821"/>
<polygon fill="#757575" stroke="#757575" points="747.6623,-574.2684 758.1813,-575.5337 750.7473,-567.9849 747.6623,-574.2684"/>
</g>
<!-- test/throughputSimulation.integration&#45;test.js&#45;&gt;test/lib/index.js -->
<g id="edge52" class="edge">
<title>test/throughputSimulation.integration&#45;test.js&#45;&gt;test/lib/index.js</title>
<path fill="none" stroke="#757575" d="M555.7511,-461.5398C571.6568,-458.921 587.854,-455.7848 603,-452.0617 653.0484,-439.7591 708.7587,-418.8062 744.3002,-404.468"/>
<polygon fill="#757575" stroke="#757575" points="745.8272,-407.6253 753.7684,-400.612 743.1869,-401.1423 745.8272,-407.6253"/>
</g>
<!-- test/throughputSimulation.test&#45;data.js -->
<g id="node38" class="node">
<title>test/throughputSimulation.test&#45;data.js</title>
<path fill="none" stroke="#cfffac" d="M900.8333,-480.5617C900.8333,-480.5617 661.1667,-480.5617 661.1667,-480.5617 657.3333,-480.5617 653.5,-476.7284 653.5,-472.8951 653.5,-472.8951 653.5,-465.2284 653.5,-465.2284 653.5,-461.3951 657.3333,-457.5617 661.1667,-457.5617 661.1667,-457.5617 900.8333,-457.5617 900.8333,-457.5617 904.6667,-457.5617 908.5,-461.3951 908.5,-465.2284 908.5,-465.2284 908.5,-472.8951 908.5,-472.8951 908.5,-476.7284 904.6667,-480.5617 900.8333,-480.5617"/>
<text text-anchor="middle" x="781" y="-465.3617" font-family="Arial" font-size="14.00" fill="#cfffac">test/throughputSimulation.test&#45;data.js</text>
</g>
<!-- test/throughputSimulation.integration&#45;test.js&#45;&gt;test/throughputSimulation.test&#45;data.js -->
<g id="edge53" class="edge">
<title>test/throughputSimulation.integration&#45;test.js&#45;&gt;test/throughputSimulation.test&#45;data.js</title>
<path fill="none" stroke="#757575" d="M603.2855,-471.249C616.5352,-471.0859 629.9211,-470.9212 643.0865,-470.7591"/>
<polygon fill="#757575" stroke="#757575" points="643.1492,-474.2587 653.1054,-470.6358 643.063,-467.2592 643.1492,-474.2587"/>
</g>
</g>
</svg>
