<?xml version="1.0" encoding="UTF-8" standalone="no"?>
<!DOCTYPE svg PUBLIC "-//W3C//DTD SVG 1.1//EN"
 "http://www.w3.org/Graphics/SVG/1.1/DTD/svg11.dtd">
<!-- Generated by graphviz version 2.40.1 (20161225.0304)
 -->
<!-- Title: G Pages: 1 -->
<svg width="1811pt" height="749pt"
 viewBox="0.00 0.00 1811.20 748.73" xmlns="http://www.w3.org/2000/svg" xmlns:xlink="http://www.w3.org/1999/xlink">
<g id="graph0" class="graph" transform="scale(1 1) rotate(0) translate(21.6 727.1251)">
<title>G</title>
<polygon fill="#111111" stroke="transparent" points="-21.6,21.6 -21.6,-727.1251 1789.6,-727.1251 1789.6,21.6 -21.6,21.6"/>
<!-- __mocks__/@azure/cosmos/Container.js -->
<g id="node1" class="node">
<title>__mocks__/@azure/cosmos/Container.js</title>
<path fill="none" stroke="#c6c5fe" d="M914.3333,-36.5251C914.3333,-36.5251 647.6667,-36.5251 647.6667,-36.5251 643.8333,-36.5251 640,-32.6918 640,-28.8584 640,-28.8584 640,-21.1918 640,-21.1918 640,-17.3584 643.8333,-13.5251 647.6667,-13.5251 647.6667,-13.5251 914.3333,-13.5251 914.3333,-13.5251 918.1667,-13.5251 922,-17.3584 922,-21.1918 922,-21.1918 922,-28.8584 922,-28.8584 922,-32.6918 918.1667,-36.5251 914.3333,-36.5251"/>
<text text-anchor="middle" x="781" y="-21.3251" font-family="Arial" font-size="14.00" fill="#c6c5fe">__mocks__/@azure/cosmos/Container.js</text>
</g>
<!-- __mocks__/@azure/cosmos/Error.js -->
<g id="node2" class="node">
<title>__mocks__/@azure/cosmos/Error.js</title>
<path fill="none" stroke="#cfffac" d="M1512.8333,-54.5251C1512.8333,-54.5251 1277.1667,-54.5251 1277.1667,-54.5251 1273.3333,-54.5251 1269.5,-50.6918 1269.5,-46.8584 1269.5,-46.8584 1269.5,-39.1918 1269.5,-39.1918 1269.5,-35.3584 1273.3333,-31.5251 1277.1667,-31.5251 1277.1667,-31.5251 1512.8333,-31.5251 1512.8333,-31.5251 1516.6667,-31.5251 1520.5,-35.3584 1520.5,-39.1918 1520.5,-39.1918 1520.5,-46.8584 1520.5,-46.8584 1520.5,-50.6918 1516.6667,-54.5251 1512.8333,-54.5251"/>
<text text-anchor="middle" x="1395" y="-39.3251" font-family="Arial" font-size="14.00" fill="#cfffac">__mocks__/@azure/cosmos/Error.js</text>
</g>
<!-- __mocks__/@azure/cosmos/Container.js&#45;&gt;__mocks__/@azure/cosmos/Error.js -->
<g id="edge1" class="edge">
<title>__mocks__/@azure/cosmos/Container.js&#45;&gt;__mocks__/@azure/cosmos/Error.js</title>
<path fill="none" stroke="#757575" d="M922.2493,-29.166C1023.4986,-32.1342 1159.1,-36.1095 1259.1081,-39.0413"/>
<polygon fill="#757575" stroke="#757575" points="1259.1849,-42.545 1269.2832,-39.3396 1259.3901,-35.548 1259.1849,-42.545"/>
</g>
<!-- __mocks__/@azure/cosmos/Offer.js -->
<g id="node3" class="node">
<title>__mocks__/@azure/cosmos/Offer.js</title>
<path fill="none" stroke="#c6c5fe" d="M1202.3333,-74.5251C1202.3333,-74.5251 966.6667,-74.5251 966.6667,-74.5251 962.8333,-74.5251 959,-70.6918 959,-66.8584 959,-66.8584 959,-59.1918 959,-59.1918 959,-55.3584 962.8333,-51.5251 966.6667,-51.5251 966.6667,-51.5251 1202.3333,-51.5251 1202.3333,-51.5251 1206.1667,-51.5251 1210,-55.3584 1210,-59.1918 1210,-59.1918 1210,-66.8584 1210,-66.8584 1210,-70.6918 1206.1667,-74.5251 1202.3333,-74.5251"/>
<text text-anchor="middle" x="1084.5" y="-59.3251" font-family="Arial" font-size="14.00" fill="#c6c5fe">__mocks__/@azure/cosmos/Offer.js</text>
</g>
<!-- __mocks__/@azure/cosmos/Container.js&#45;&gt;__mocks__/@azure/cosmos/Offer.js -->
<g id="edge2" class="edge">
<title>__mocks__/@azure/cosmos/Container.js&#45;&gt;__mocks__/@azure/cosmos/Offer.js</title>
<path fill="none" stroke="#757575" d="M872.8836,-36.5295C907.3419,-40.8438 946.7047,-45.7723 982.0608,-50.1991"/>
<polygon fill="#757575" stroke="#757575" points="982.048,-53.7247 992.4053,-51.4943 982.9177,-46.779 982.048,-53.7247"/>
</g>
<!-- __mocks__/@azure/cosmos/Offer.js&#45;&gt;__mocks__/@azure/cosmos/Error.js -->
<g id="edge5" class="edge">
<title>__mocks__/@azure/cosmos/Offer.js&#45;&gt;__mocks__/@azure/cosmos/Error.js</title>
<path fill="none" stroke="#757575" d="M1210.3446,-54.9192C1226.4932,-53.879 1243.0824,-52.8105 1259.3784,-51.7608"/>
<polygon fill="#757575" stroke="#757575" points="1259.7261,-55.2457 1269.4805,-51.1101 1259.2761,-48.2602 1259.7261,-55.2457"/>
</g>
<!-- __mocks__/@azure/cosmos/Database.js -->
<g id="node4" class="node">
<title>__mocks__/@azure/cosmos/Database.js</title>
<path fill="none" stroke="#c6c5fe" d="M589.8333,-36.5251C589.8333,-36.5251 322.1667,-36.5251 322.1667,-36.5251 318.3333,-36.5251 314.5,-32.6918 314.5,-28.8584 314.5,-28.8584 314.5,-21.1918 314.5,-21.1918 314.5,-17.3584 318.3333,-13.5251 322.1667,-13.5251 322.1667,-13.5251 589.8333,-13.5251 589.8333,-13.5251 593.6667,-13.5251 597.5,-17.3584 597.5,-21.1918 597.5,-21.1918 597.5,-28.8584 597.5,-28.8584 597.5,-32.6918 593.6667,-36.5251 589.8333,-36.5251"/>
<text text-anchor="middle" x="456" y="-21.3251" font-family="Arial" font-size="14.00" fill="#c6c5fe">__mocks__/@azure/cosmos/Database.js</text>
</g>
<!-- __mocks__/@azure/cosmos/Database.js&#45;&gt;__mocks__/@azure/cosmos/Container.js -->
<g id="edge3" class="edge">
<title>__mocks__/@azure/cosmos/Database.js&#45;&gt;__mocks__/@azure/cosmos/Container.js</title>
<path fill="none" stroke="#757575" d="M597.6043,-25.0251C608.2338,-25.0251 618.9847,-25.0251 629.6708,-25.0251"/>
<polygon fill="#757575" stroke="#757575" points="629.8904,-28.5252 639.8903,-25.0251 629.8903,-21.5252 629.8904,-28.5252"/>
</g>
<!-- __mocks__/@azure/cosmos/Database.js&#45;&gt;__mocks__/@azure/cosmos/Error.js -->
<g id="edge4" class="edge">
<title>__mocks__/@azure/cosmos/Database.js&#45;&gt;__mocks__/@azure/cosmos/Error.js</title>
<path fill="none" stroke="#757575" d="M538.7269,-13.5033C570.068,-9.6726 606.115,-5.9058 639,-4.0251 871.2445,9.2568 1143.743,-14.4719 1289.806,-30.3814"/>
<polygon fill="#757575" stroke="#757575" points="1289.7793,-33.8995 1300.1018,-31.5128 1290.5439,-26.9414 1289.7793,-33.8995"/>
</g>
<!-- __mocks__/@azure/cosmos/index.js -->
<g id="node5" class="node">
<title>__mocks__/@azure/cosmos/index.js</title>
<path fill="none" stroke="#c6c5fe" d="M256.3333,-76.5251C256.3333,-76.5251 16.6667,-76.5251 16.6667,-76.5251 12.8333,-76.5251 9,-72.6918 9,-68.8584 9,-68.8584 9,-61.1918 9,-61.1918 9,-57.3584 12.8333,-53.5251 16.6667,-53.5251 16.6667,-53.5251 256.3333,-53.5251 256.3333,-53.5251 260.1667,-53.5251 264,-57.3584 264,-61.1918 264,-61.1918 264,-68.8584 264,-68.8584 264,-72.6918 260.1667,-76.5251 256.3333,-76.5251"/>
<text text-anchor="middle" x="136.5" y="-61.3251" font-family="Arial" font-size="14.00" fill="#c6c5fe">__mocks__/@azure/cosmos/index.js</text>
</g>
<!-- __mocks__/@azure/cosmos/index.js&#45;&gt;__mocks__/@azure/cosmos/Error.js -->
<g id="edge7" class="edge">
<title>__mocks__/@azure/cosmos/index.js&#45;&gt;__mocks__/@azure/cosmos/Error.js</title>
<path fill="none" stroke="#757575" d="M255.6702,-76.5562C454.2272,-93.6364 865.0317,-119.893 1210,-83.0251 1255.8447,-78.1255 1307.0087,-66.581 1343.8899,-57.1472"/>
<polygon fill="#757575" stroke="#757575" points="1345.0974,-60.4499 1353.8973,-54.5497 1343.3387,-53.6744 1345.0974,-60.4499"/>
</g>
<!-- __mocks__/@azure/cosmos/index.js&#45;&gt;__mocks__/@azure/cosmos/Offer.js -->
<g id="edge8" class="edge">
<title>__mocks__/@azure/cosmos/index.js&#45;&gt;__mocks__/@azure/cosmos/Offer.js</title>
<path fill="none" stroke="#757575" d="M264.3515,-64.7554C442.9186,-64.3786 765.5968,-63.6979 948.4549,-63.3121"/>
<polygon fill="#757575" stroke="#757575" points="948.6816,-66.8117 958.6741,-63.2906 948.6667,-59.8118 948.6816,-66.8117"/>
</g>
<!-- __mocks__/@azure/cosmos/index.js&#45;&gt;__mocks__/@azure/cosmos/Database.js -->
<g id="edge6" class="edge">
<title>__mocks__/@azure/cosmos/index.js&#45;&gt;__mocks__/@azure/cosmos/Database.js</title>
<path fill="none" stroke="#757575" d="M228.484,-53.5091C267.7417,-48.5942 313.7016,-42.8402 353.9971,-37.7954"/>
<polygon fill="#757575" stroke="#757575" points="354.6245,-41.2443 364.1122,-36.529 353.7549,-34.2985 354.6245,-41.2443"/>
</g>
<!-- __mocks__/kth&#45;node&#45;log.js -->
<g id="node6" class="node">
<title>__mocks__/kth&#45;node&#45;log.js</title>
<path fill="none" stroke="#cfffac" d="M224.3333,-118.5251C224.3333,-118.5251 48.6667,-118.5251 48.6667,-118.5251 44.8333,-118.5251 41,-114.6918 41,-110.8584 41,-110.8584 41,-103.1918 41,-103.1918 41,-99.3584 44.8333,-95.5251 48.6667,-95.5251 48.6667,-95.5251 224.3333,-95.5251 224.3333,-95.5251 228.1667,-95.5251 232,-99.3584 232,-103.1918 232,-103.1918 232,-110.8584 232,-110.8584 232,-114.6918 228.1667,-118.5251 224.3333,-118.5251"/>
<text text-anchor="middle" x="136.5" y="-103.3251" font-family="Arial" font-size="14.00" fill="#cfffac">__mocks__/kth&#45;node&#45;log.js</text>
</g>
<!-- coverage/lcov&#45;report/block&#45;navigation.js -->
<g id="node7" class="node">
<title>coverage/lcov&#45;report/block&#45;navigation.js</title>
<path fill="none" stroke="#cfffac" d="M265.3333,-232.5251C265.3333,-232.5251 7.6667,-232.5251 7.6667,-232.5251 3.8333,-232.5251 0,-228.6918 0,-224.8584 0,-224.8584 0,-217.1918 0,-217.1918 0,-213.3584 3.8333,-209.5251 7.6667,-209.5251 7.6667,-209.5251 265.3333,-209.5251 265.3333,-209.5251 269.1667,-209.5251 273,-213.3584 273,-217.1918 273,-217.1918 273,-224.8584 273,-224.8584 273,-228.6918 269.1667,-232.5251 265.3333,-232.5251"/>
<text text-anchor="middle" x="136.5" y="-217.3251" font-family="Arial" font-size="14.00" fill="#cfffac">coverage/lcov&#45;report/block&#45;navigation.js</text>
</g>
<!-- coverage/lcov&#45;report/prettify.js -->
<g id="node8" class="node">
<title>coverage/lcov&#45;report/prettify.js</title>
<path fill="none" stroke="#cfffac" d="M233.3333,-309.5251C233.3333,-309.5251 39.6667,-309.5251 39.6667,-309.5251 35.8333,-309.5251 32,-305.6918 32,-301.8584 32,-301.8584 32,-294.1918 32,-294.1918 32,-290.3584 35.8333,-286.5251 39.6667,-286.5251 39.6667,-286.5251 233.3333,-286.5251 233.3333,-286.5251 237.1667,-286.5251 241,-290.3584 241,-294.1918 241,-294.1918 241,-301.8584 241,-301.8584 241,-305.6918 237.1667,-309.5251 233.3333,-309.5251"/>
<text text-anchor="middle" x="136.5" y="-294.3251" font-family="Arial" font-size="14.00" fill="#cfffac">coverage/lcov&#45;report/prettify.js</text>
</g>
<!-- coverage/lcov&#45;report/sorter.js -->
<g id="node9" class="node">
<title>coverage/lcov&#45;report/sorter.js</title>
<path fill="none" stroke="#cfffac" d="M230.3333,-368.5251C230.3333,-368.5251 42.6667,-368.5251 42.6667,-368.5251 38.8333,-368.5251 35,-364.6918 35,-360.8584 35,-360.8584 35,-353.1918 35,-353.1918 35,-349.3584 38.8333,-345.5251 42.6667,-345.5251 42.6667,-345.5251 230.3333,-345.5251 230.3333,-345.5251 234.1667,-345.5251 238,-349.3584 238,-353.1918 238,-353.1918 238,-360.8584 238,-360.8584 238,-364.6918 234.1667,-368.5251 230.3333,-368.5251"/>
<text text-anchor="middle" x="136.5" y="-353.3251" font-family="Arial" font-size="14.00" fill="#cfffac">coverage/lcov&#45;report/sorter.js</text>
</g>
<!-- jest.config.js -->
<g id="node10" class="node">
<title>jest.config.js</title>
<path fill="none" stroke="#cfffac" d="M176.8333,-418.5251C176.8333,-418.5251 96.1667,-418.5251 96.1667,-418.5251 92.3333,-418.5251 88.5,-414.6918 88.5,-410.8584 88.5,-410.8584 88.5,-403.1918 88.5,-403.1918 88.5,-399.3584 92.3333,-395.5251 96.1667,-395.5251 96.1667,-395.5251 176.8333,-395.5251 176.8333,-395.5251 180.6667,-395.5251 184.5,-399.3584 184.5,-403.1918 184.5,-403.1918 184.5,-410.8584 184.5,-410.8584 184.5,-414.6918 180.6667,-418.5251 176.8333,-418.5251"/>
<text text-anchor="middle" x="136.5" y="-403.3251" font-family="Arial" font-size="14.00" fill="#cfffac">jest.config.js</text>
</g>
<!-- jest.setup.js -->
<g id="node11" class="node">
<title>jest.setup.js</title>
<path fill="none" stroke="#cfffac" d="M175.3333,-464.5251C175.3333,-464.5251 97.6667,-464.5251 97.6667,-464.5251 93.8333,-464.5251 90,-460.6918 90,-456.8584 90,-456.8584 90,-449.1918 90,-449.1918 90,-445.3584 93.8333,-441.5251 97.6667,-441.5251 97.6667,-441.5251 175.3333,-441.5251 175.3333,-441.5251 179.1667,-441.5251 183,-445.3584 183,-449.1918 183,-449.1918 183,-456.8584 183,-456.8584 183,-460.6918 179.1667,-464.5251 175.3333,-464.5251"/>
<text text-anchor="middle" x="136.5" y="-449.3251" font-family="Arial" font-size="14.00" fill="#cfffac">jest.setup.js</text>
</g>
<!-- lib/client.js -->
<g id="node12" class="node">
<title>lib/client.js</title>
<path fill="none" stroke="#c6c5fe" d="M814.8333,-509.5251C814.8333,-509.5251 747.1667,-509.5251 747.1667,-509.5251 743.3333,-509.5251 739.5,-505.6918 739.5,-501.8584 739.5,-501.8584 739.5,-494.1918 739.5,-494.1918 739.5,-490.3584 743.3333,-486.5251 747.1667,-486.5251 747.1667,-486.5251 814.8333,-486.5251 814.8333,-486.5251 818.6667,-486.5251 822.5,-490.3584 822.5,-494.1918 822.5,-494.1918 822.5,-501.8584 822.5,-501.8584 822.5,-505.6918 818.6667,-509.5251 814.8333,-509.5251"/>
<text text-anchor="middle" x="781" y="-494.3251" font-family="Arial" font-size="14.00" fill="#c6c5fe">lib/client.js</text>
</g>
<!-- lib/utils/CosmosClientWrapper.js -->
<g id="node13" class="node">
<title>lib/utils/CosmosClientWrapper.js</title>
<path fill="none" stroke="#c6c5fe" d="M1188.8333,-625.5251C1188.8333,-625.5251 980.1667,-625.5251 980.1667,-625.5251 976.3333,-625.5251 972.5,-621.6918 972.5,-617.8584 972.5,-617.8584 972.5,-610.1918 972.5,-610.1918 972.5,-606.3584 976.3333,-602.5251 980.1667,-602.5251 980.1667,-602.5251 1188.8333,-602.5251 1188.8333,-602.5251 1192.6667,-602.5251 1196.5,-606.3584 1196.5,-610.1918 1196.5,-610.1918 1196.5,-617.8584 1196.5,-617.8584 1196.5,-621.6918 1192.6667,-625.5251 1188.8333,-625.5251"/>
<text text-anchor="middle" x="1084.5" y="-610.3251" font-family="Arial" font-size="14.00" fill="#c6c5fe">lib/utils/CosmosClientWrapper.js</text>
</g>
<!-- lib/client.js&#45;&gt;lib/utils/CosmosClientWrapper.js -->
<g id="edge9" class="edge">
<title>lib/client.js&#45;&gt;lib/utils/CosmosClientWrapper.js</title>
<path fill="none" stroke="#757575" d="M822.6363,-502.0149C851.4475,-505.646 890.3307,-512.2938 923,-524.0251 974.416,-542.4882 1028.8502,-576.1825 1059.5629,-596.6943"/>
<polygon fill="#757575" stroke="#757575" points="1057.6939,-599.6556 1067.9389,-602.356 1061.614,-593.8562 1057.6939,-599.6556"/>
</g>
<!-- lib/utils/useMongoNative.js -->
<g id="node14" class="node">
<title>lib/utils/useMongoNative.js</title>
<path fill="none" stroke="#cfffac" d="M1760.3333,-507.5251C1760.3333,-507.5251 1587.6667,-507.5251 1587.6667,-507.5251 1583.8333,-507.5251 1580,-503.6918 1580,-499.8584 1580,-499.8584 1580,-492.1918 1580,-492.1918 1580,-488.3584 1583.8333,-484.5251 1587.6667,-484.5251 1587.6667,-484.5251 1760.3333,-484.5251 1760.3333,-484.5251 1764.1667,-484.5251 1768,-488.3584 1768,-492.1918 1768,-492.1918 1768,-499.8584 1768,-499.8584 1768,-503.6918 1764.1667,-507.5251 1760.3333,-507.5251"/>
<text text-anchor="middle" x="1674" y="-492.3251" font-family="Arial" font-size="14.00" fill="#cfffac">lib/utils/useMongoNative.js</text>
</g>
<!-- lib/client.js&#45;&gt;lib/utils/useMongoNative.js -->
<g id="edge10" class="edge">
<title>lib/client.js&#45;&gt;lib/utils/useMongoNative.js</title>
<path fill="none" stroke="#757575" d="M822.5764,-497.932C955.5126,-497.6343 1372.987,-496.6993 1569.6159,-496.2589"/>
<polygon fill="#757575" stroke="#757575" points="1569.6772,-499.7589 1579.6693,-496.2364 1569.6615,-492.7589 1569.6772,-499.7589"/>
</g>
<!-- lib/utils/adaptMongooseModel.js -->
<g id="node21" class="node">
<title>lib/utils/adaptMongooseModel.js</title>
<path fill="none" stroke="#c6c5fe" d="M1499.3333,-547.5251C1499.3333,-547.5251 1290.6667,-547.5251 1290.6667,-547.5251 1286.8333,-547.5251 1283,-543.6918 1283,-539.8584 1283,-539.8584 1283,-532.1918 1283,-532.1918 1283,-528.3584 1286.8333,-524.5251 1290.6667,-524.5251 1290.6667,-524.5251 1499.3333,-524.5251 1499.3333,-524.5251 1503.1667,-524.5251 1507,-528.3584 1507,-532.1918 1507,-532.1918 1507,-539.8584 1507,-539.8584 1507,-543.6918 1503.1667,-547.5251 1499.3333,-547.5251"/>
<text text-anchor="middle" x="1395" y="-532.3251" font-family="Arial" font-size="14.00" fill="#c6c5fe">lib/utils/adaptMongooseModel.js</text>
</g>
<!-- lib/utils/CosmosClientWrapper.js&#45;&gt;lib/utils/adaptMongooseModel.js -->
<g id="edge20" class="edge">
<title>lib/utils/CosmosClientWrapper.js&#45;&gt;lib/utils/adaptMongooseModel.js</title>
<path fill="none" stroke="#757575" d="M1115.9947,-602.4471C1148.2754,-590.9221 1200.1026,-573.3605 1246,-562.0251 1265.5185,-557.2045 1286.6897,-552.9418 1306.7791,-549.3343"/>
<polygon fill="#757575" stroke="#757575" points="1307.6129,-552.7415 1316.8556,-547.5625 1306.4006,-545.8473 1307.6129,-552.7415"/>
</g>
<!-- lib/utils/cosmosDb.js -->
<g id="node22" class="node">
<title>lib/utils/cosmosDb.js</title>
<path fill="none" stroke="#cfffac" d="M1461.3333,-668.5251C1461.3333,-668.5251 1328.6667,-668.5251 1328.6667,-668.5251 1324.8333,-668.5251 1321,-664.6918 1321,-660.8584 1321,-660.8584 1321,-653.1918 1321,-653.1918 1321,-649.3584 1324.8333,-645.5251 1328.6667,-645.5251 1328.6667,-645.5251 1461.3333,-645.5251 1461.3333,-645.5251 1465.1667,-645.5251 1469,-649.3584 1469,-653.1918 1469,-653.1918 1469,-660.8584 1469,-660.8584 1469,-664.6918 1465.1667,-668.5251 1461.3333,-668.5251"/>
<text text-anchor="middle" x="1395" y="-653.3251" font-family="Arial" font-size="14.00" fill="#cfffac">lib/utils/cosmosDb.js</text>
</g>
<!-- lib/utils/CosmosClientWrapper.js&#45;&gt;lib/utils/cosmosDb.js -->
<g id="edge21" class="edge">
<title>lib/utils/CosmosClientWrapper.js&#45;&gt;lib/utils/cosmosDb.js</title>
<path fill="none" stroke="#757575" d="M1164.574,-625.5585C1190.5438,-629.2643 1219.489,-633.3581 1246,-637.0251 1266.98,-639.927 1289.6309,-642.9988 1310.7852,-645.8412"/>
<polygon fill="#757575" stroke="#757575" points="1310.334,-649.312 1320.7107,-647.1728 1311.2649,-642.3741 1310.334,-649.312"/>
</g>
<!-- lib/utils/strategy.js -->
<g id="node23" class="node">
<title>lib/utils/strategy.js</title>
<path fill="none" stroke="#cfffac" d="M1730.8333,-567.5251C1730.8333,-567.5251 1617.1667,-567.5251 1617.1667,-567.5251 1613.3333,-567.5251 1609.5,-563.6918 1609.5,-559.8584 1609.5,-559.8584 1609.5,-552.1918 1609.5,-552.1918 1609.5,-548.3584 1613.3333,-544.5251 1617.1667,-544.5251 1617.1667,-544.5251 1730.8333,-544.5251 1730.8333,-544.5251 1734.6667,-544.5251 1738.5,-548.3584 1738.5,-552.1918 1738.5,-552.1918 1738.5,-559.8584 1738.5,-559.8584 1738.5,-563.6918 1734.6667,-567.5251 1730.8333,-567.5251"/>
<text text-anchor="middle" x="1674" y="-552.3251" font-family="Arial" font-size="14.00" fill="#cfffac">lib/utils/strategy.js</text>
</g>
<!-- lib/utils/CosmosClientWrapper.js&#45;&gt;lib/utils/strategy.js -->
<g id="edge22" class="edge">
<title>lib/utils/CosmosClientWrapper.js&#45;&gt;lib/utils/strategy.js</title>
<path fill="none" stroke="#757575" d="M1185.2663,-602.514C1205.3777,-600.2955 1226.3546,-598.0377 1246,-596.0251 1369.7762,-583.3444 1513.8633,-570.215 1599.3075,-562.5997"/>
<polygon fill="#757575" stroke="#757575" points="1599.7811,-566.0715 1609.4315,-561.6987 1599.1605,-559.099 1599.7811,-566.0715"/>
</g>
<!-- lib/utils/validity.js -->
<g id="node24" class="node">
<title>lib/utils/validity.js</title>
<path fill="none" stroke="#cfffac" d="M1448.3333,-627.5251C1448.3333,-627.5251 1341.6667,-627.5251 1341.6667,-627.5251 1337.8333,-627.5251 1334,-623.6918 1334,-619.8584 1334,-619.8584 1334,-612.1918 1334,-612.1918 1334,-608.3584 1337.8333,-604.5251 1341.6667,-604.5251 1341.6667,-604.5251 1448.3333,-604.5251 1448.3333,-604.5251 1452.1667,-604.5251 1456,-608.3584 1456,-612.1918 1456,-612.1918 1456,-619.8584 1456,-619.8584 1456,-623.6918 1452.1667,-627.5251 1448.3333,-627.5251"/>
<text text-anchor="middle" x="1395" y="-612.3251" font-family="Arial" font-size="14.00" fill="#cfffac">lib/utils/validity.js</text>
</g>
<!-- lib/utils/CosmosClientWrapper.js&#45;&gt;lib/utils/validity.js -->
<g id="edge23" class="edge">
<title>lib/utils/CosmosClientWrapper.js&#45;&gt;lib/utils/validity.js</title>
<path fill="none" stroke="#757575" d="M1196.5976,-614.7471C1238.8333,-615.0192 1285.6976,-615.3211 1323.2696,-615.5631"/>
<polygon fill="#757575" stroke="#757575" points="1323.5865,-619.0651 1333.6088,-615.6297 1323.6316,-612.0652 1323.5865,-619.0651"/>
</g>
<!-- lib/client.test.js -->
<g id="node15" class="node">
<title>lib/client.test.js</title>
<path fill="none" stroke="#c6c5fe" d="M503.3333,-608.5251C503.3333,-608.5251 408.6667,-608.5251 408.6667,-608.5251 404.8333,-608.5251 401,-604.6918 401,-600.8584 401,-600.8584 401,-593.1918 401,-593.1918 401,-589.3584 404.8333,-585.5251 408.6667,-585.5251 408.6667,-585.5251 503.3333,-585.5251 503.3333,-585.5251 507.1667,-585.5251 511,-589.3584 511,-593.1918 511,-593.1918 511,-600.8584 511,-600.8584 511,-604.6918 507.1667,-608.5251 503.3333,-608.5251"/>
<text text-anchor="middle" x="456" y="-593.3251" font-family="Arial" font-size="14.00" fill="#c6c5fe">lib/client.test.js</text>
</g>
<!-- lib/client.test.js&#45;&gt;lib/client.js -->
<g id="edge11" class="edge">
<title>lib/client.test.js&#45;&gt;lib/client.js</title>
<path fill="none" stroke="#757575" d="M504.5921,-585.4644C533.359,-578.3721 570.431,-568.7995 603,-559.0251 650.4752,-544.7772 704.205,-525.9893 740.0965,-513.0487"/>
<polygon fill="#757575" stroke="#757575" points="741.5153,-516.2574 749.7268,-509.5624 739.1325,-509.6754 741.5153,-516.2574"/>
</g>
<!-- lib/client.test.js&#45;&gt;lib/utils/CosmosClientWrapper.js -->
<g id="edge12" class="edge">
<title>lib/client.test.js&#45;&gt;lib/utils/CosmosClientWrapper.js</title>
<path fill="none" stroke="#757575" d="M511.2243,-598.5188C611.532,-601.232 825.8599,-607.0293 962.151,-610.7157"/>
<polygon fill="#757575" stroke="#757575" points="962.1424,-614.2167 972.2334,-610.9885 962.3318,-607.2193 962.1424,-614.2167"/>
</g>
<!-- lib/utils/CosmosClientWrapper.test&#45;data.js -->
<g id="node16" class="node">
<title>lib/utils/CosmosClientWrapper.test&#45;data.js</title>
<path fill="none" stroke="#c6c5fe" d="M915.3333,-665.5251C915.3333,-665.5251 646.6667,-665.5251 646.6667,-665.5251 642.8333,-665.5251 639,-661.6918 639,-657.8584 639,-657.8584 639,-650.1918 639,-650.1918 639,-646.3584 642.8333,-642.5251 646.6667,-642.5251 646.6667,-642.5251 915.3333,-642.5251 915.3333,-642.5251 919.1667,-642.5251 923,-646.3584 923,-650.1918 923,-650.1918 923,-657.8584 923,-657.8584 923,-661.6918 919.1667,-665.5251 915.3333,-665.5251"/>
<text text-anchor="middle" x="781" y="-650.3251" font-family="Arial" font-size="14.00" fill="#c6c5fe">lib/utils/CosmosClientWrapper.test&#45;data.js</text>
</g>
<!-- lib/client.test.js&#45;&gt;lib/utils/CosmosClientWrapper.test&#45;data.js -->
<g id="edge13" class="edge">
<title>lib/client.test.js&#45;&gt;lib/utils/CosmosClientWrapper.test&#45;data.js</title>
<path fill="none" stroke="#757575" d="M511.1318,-606.6944C564.4598,-616.0473 645.7116,-630.2976 705.1284,-640.7184"/>
<polygon fill="#757575" stroke="#757575" points="704.7572,-644.2066 715.2115,-642.4868 705.9665,-637.3119 704.7572,-644.2066"/>
</g>
<!-- test/lib/index.js -->
<g id="node17" class="node">
<title>test/lib/index.js</title>
<path fill="none" stroke="#c6c5fe" d="M1132.3333,-275.5251C1132.3333,-275.5251 1036.6667,-275.5251 1036.6667,-275.5251 1032.8333,-275.5251 1029,-271.6918 1029,-267.8584 1029,-267.8584 1029,-260.1918 1029,-260.1918 1029,-256.3584 1032.8333,-252.5251 1036.6667,-252.5251 1036.6667,-252.5251 1132.3333,-252.5251 1132.3333,-252.5251 1136.1667,-252.5251 1140,-256.3584 1140,-260.1918 1140,-260.1918 1140,-267.8584 1140,-267.8584 1140,-271.6918 1136.1667,-275.5251 1132.3333,-275.5251"/>
<text text-anchor="middle" x="1084.5" y="-260.3251" font-family="Arial" font-size="14.00" fill="#c6c5fe">test/lib/index.js</text>
</g>
<!-- lib/client.test.js&#45;&gt;test/lib/index.js -->
<g id="edge14" class="edge">
<title>lib/client.test.js&#45;&gt;test/lib/index.js</title>
<path fill="none" stroke="#757575" d="M511.1148,-593.2905C619.6016,-585.0504 856.1184,-562.4209 923,-518.0251 1011.0176,-459.5992 1060.7367,-335.047 1077.7552,-285.2468"/>
<polygon fill="#757575" stroke="#757575" points="1081.1461,-286.141 1080.9754,-275.5475 1074.5027,-283.9352 1081.1461,-286.141"/>
</g>
<!-- lib/utils/CosmosClientWrapper.test&#45;data.js&#45;&gt;lib/utils/CosmosClientWrapper.js -->
<g id="edge24" class="edge">
<title>lib/utils/CosmosClientWrapper.test&#45;data.js&#45;&gt;lib/utils/CosmosClientWrapper.js</title>
<path fill="none" stroke="#757575" d="M868.3776,-642.5091C905.5113,-637.615 948.9577,-631.889 987.1184,-626.8596"/>
<polygon fill="#757575" stroke="#757575" points="987.7569,-630.3058 997.2138,-625.529 986.8422,-623.3658 987.7569,-630.3058"/>
</g>
<!-- lib/utils/CosmosClientWrapper.test&#45;data.js&#45;&gt;lib/utils/cosmosDb.js -->
<g id="edge25" class="edge">
<title>lib/utils/CosmosClientWrapper.test&#45;data.js&#45;&gt;lib/utils/cosmosDb.js</title>
<path fill="none" stroke="#757575" d="M923.0209,-654.719C1043.0495,-655.3055 1210.9408,-656.1258 1310.7635,-656.6135"/>
<polygon fill="#757575" stroke="#757575" points="1310.7857,-660.1136 1320.8027,-656.6626 1310.8199,-653.1137 1310.7857,-660.1136"/>
</g>
<!-- test/lib/CosmosDb.js -->
<g id="node32" class="node">
<title>test/lib/CosmosDb.js</title>
<path fill="none" stroke="#cfffac" d="M1461.8333,-398.5251C1461.8333,-398.5251 1328.1667,-398.5251 1328.1667,-398.5251 1324.3333,-398.5251 1320.5,-394.6918 1320.5,-390.8584 1320.5,-390.8584 1320.5,-383.1918 1320.5,-383.1918 1320.5,-379.3584 1324.3333,-375.5251 1328.1667,-375.5251 1328.1667,-375.5251 1461.8333,-375.5251 1461.8333,-375.5251 1465.6667,-375.5251 1469.5,-379.3584 1469.5,-383.1918 1469.5,-383.1918 1469.5,-390.8584 1469.5,-390.8584 1469.5,-394.6918 1465.6667,-398.5251 1461.8333,-398.5251"/>
<text text-anchor="middle" x="1395" y="-383.3251" font-family="Arial" font-size="14.00" fill="#cfffac">test/lib/CosmosDb.js</text>
</g>
<!-- test/lib/index.js&#45;&gt;test/lib/CosmosDb.js -->
<g id="edge43" class="edge">
<title>test/lib/index.js&#45;&gt;test/lib/CosmosDb.js</title>
<path fill="none" stroke="#757575" d="M1140.0436,-264.7895C1163.7034,-267.6574 1190.3226,-274.5521 1210,-290.0251 1239.3803,-313.1278 1215.8926,-343.8782 1246,-366.0251 1264.4226,-379.5767 1287.6699,-386.3156 1310.2878,-389.3165"/>
<polygon fill="#757575" stroke="#757575" points="1309.9474,-392.8001 1320.2698,-390.4131 1310.7119,-385.842 1309.9474,-392.8001"/>
</g>
<!-- test/lib/Environment.js -->
<g id="node33" class="node">
<title>test/lib/Environment.js</title>
<path fill="none" stroke="#cfffac" d="M1466.3333,-357.5251C1466.3333,-357.5251 1323.6667,-357.5251 1323.6667,-357.5251 1319.8333,-357.5251 1316,-353.6918 1316,-349.8584 1316,-349.8584 1316,-342.1918 1316,-342.1918 1316,-338.3584 1319.8333,-334.5251 1323.6667,-334.5251 1323.6667,-334.5251 1466.3333,-334.5251 1466.3333,-334.5251 1470.1667,-334.5251 1474,-338.3584 1474,-342.1918 1474,-342.1918 1474,-349.8584 1474,-349.8584 1474,-353.6918 1470.1667,-357.5251 1466.3333,-357.5251"/>
<text text-anchor="middle" x="1395" y="-342.3251" font-family="Arial" font-size="14.00" fill="#cfffac">test/lib/Environment.js</text>
</g>
<!-- test/lib/index.js&#45;&gt;test/lib/Environment.js -->
<g id="edge44" class="edge">
<title>test/lib/index.js&#45;&gt;test/lib/Environment.js</title>
<path fill="none" stroke="#757575" d="M1140.239,-268.704C1162.8811,-272.3159 1188.6736,-278.7101 1210,-290.0251 1229.7127,-300.4839 1225.9615,-315.205 1246,-325.0251 1264.3451,-334.0153 1285.3865,-339.4726 1305.765,-342.7164"/>
<polygon fill="#757575" stroke="#757575" points="1305.3062,-346.1863 1315.7009,-344.1368 1306.2969,-339.2568 1305.3062,-346.1863"/>
</g>
<!-- test/lib/Mongoose.js -->
<g id="node34" class="node">
<title>test/lib/Mongoose.js</title>
<path fill="none" stroke="#cfffac" d="M1459.8333,-316.5251C1459.8333,-316.5251 1330.1667,-316.5251 1330.1667,-316.5251 1326.3333,-316.5251 1322.5,-312.6918 1322.5,-308.8584 1322.5,-308.8584 1322.5,-301.1918 1322.5,-301.1918 1322.5,-297.3584 1326.3333,-293.5251 1330.1667,-293.5251 1330.1667,-293.5251 1459.8333,-293.5251 1459.8333,-293.5251 1463.6667,-293.5251 1467.5,-297.3584 1467.5,-301.1918 1467.5,-301.1918 1467.5,-308.8584 1467.5,-308.8584 1467.5,-312.6918 1463.6667,-316.5251 1459.8333,-316.5251"/>
<text text-anchor="middle" x="1395" y="-301.3251" font-family="Arial" font-size="14.00" fill="#cfffac">test/lib/Mongoose.js</text>
</g>
<!-- test/lib/index.js&#45;&gt;test/lib/Mongoose.js -->
<g id="edge45" class="edge">
<title>test/lib/index.js&#45;&gt;test/lib/Mongoose.js</title>
<path fill="none" stroke="#757575" d="M1140.0112,-271.3551C1187.9618,-277.6867 1257.9257,-286.9251 1312.4432,-294.1239"/>
<polygon fill="#757575" stroke="#757575" points="1312.0621,-297.6039 1322.4343,-295.4432 1312.9786,-290.6641 1312.0621,-297.6039"/>
</g>
<!-- test/lib/collectAllInternalMethods.js -->
<g id="node35" class="node">
<title>test/lib/collectAllInternalMethods.js</title>
<path fill="none" stroke="#cfffac" d="M1505.8333,-275.5251C1505.8333,-275.5251 1284.1667,-275.5251 1284.1667,-275.5251 1280.3333,-275.5251 1276.5,-271.6918 1276.5,-267.8584 1276.5,-267.8584 1276.5,-260.1918 1276.5,-260.1918 1276.5,-256.3584 1280.3333,-252.5251 1284.1667,-252.5251 1284.1667,-252.5251 1505.8333,-252.5251 1505.8333,-252.5251 1509.6667,-252.5251 1513.5,-256.3584 1513.5,-260.1918 1513.5,-260.1918 1513.5,-267.8584 1513.5,-267.8584 1513.5,-271.6918 1509.6667,-275.5251 1505.8333,-275.5251"/>
<text text-anchor="middle" x="1395" y="-260.3251" font-family="Arial" font-size="14.00" fill="#cfffac">test/lib/collectAllInternalMethods.js</text>
</g>
<!-- test/lib/index.js&#45;&gt;test/lib/collectAllInternalMethods.js -->
<g id="edge46" class="edge">
<title>test/lib/index.js&#45;&gt;test/lib/collectAllInternalMethods.js</title>
<path fill="none" stroke="#757575" d="M1140.0112,-264.0251C1175.1282,-264.0251 1222.052,-264.0251 1266.0685,-264.0251"/>
<polygon fill="#757575" stroke="#757575" points="1266.2946,-267.5252 1276.2946,-264.0251 1266.2946,-260.5252 1266.2946,-267.5252"/>
</g>
<!-- test/lib/getObjectKeysWithDifferentValues.js -->
<g id="node36" class="node">
<title>test/lib/getObjectKeysWithDifferentValues.js</title>
<path fill="none" stroke="#cfffac" d="M1536.3333,-234.5251C1536.3333,-234.5251 1253.6667,-234.5251 1253.6667,-234.5251 1249.8333,-234.5251 1246,-230.6918 1246,-226.8584 1246,-226.8584 1246,-219.1918 1246,-219.1918 1246,-215.3584 1249.8333,-211.5251 1253.6667,-211.5251 1253.6667,-211.5251 1536.3333,-211.5251 1536.3333,-211.5251 1540.1667,-211.5251 1544,-215.3584 1544,-219.1918 1544,-219.1918 1544,-226.8584 1544,-226.8584 1544,-230.6918 1540.1667,-234.5251 1536.3333,-234.5251"/>
<text text-anchor="middle" x="1395" y="-219.3251" font-family="Arial" font-size="14.00" fill="#cfffac">test/lib/getObjectKeysWithDifferentValues.js</text>
</g>
<!-- test/lib/index.js&#45;&gt;test/lib/getObjectKeysWithDifferentValues.js -->
<g id="edge47" class="edge">
<title>test/lib/index.js&#45;&gt;test/lib/getObjectKeysWithDifferentValues.js</title>
<path fill="none" stroke="#757575" d="M1140.0112,-256.6951C1183.6745,-250.9296 1245.5907,-242.7539 1297.4762,-235.9026"/>
<polygon fill="#757575" stroke="#757575" points="1298.2555,-239.3302 1307.7112,-234.5512 1297.3391,-232.3904 1298.2555,-239.3302"/>
</g>
<!-- test/lib/removeCodeCoveragePollution.js -->
<g id="node37" class="node">
<title>test/lib/removeCodeCoveragePollution.js</title>
<path fill="none" stroke="#cfffac" d="M1526.8333,-193.5251C1526.8333,-193.5251 1263.1667,-193.5251 1263.1667,-193.5251 1259.3333,-193.5251 1255.5,-189.6918 1255.5,-185.8584 1255.5,-185.8584 1255.5,-178.1918 1255.5,-178.1918 1255.5,-174.3584 1259.3333,-170.5251 1263.1667,-170.5251 1263.1667,-170.5251 1526.8333,-170.5251 1526.8333,-170.5251 1530.6667,-170.5251 1534.5,-174.3584 1534.5,-178.1918 1534.5,-178.1918 1534.5,-185.8584 1534.5,-185.8584 1534.5,-189.6918 1530.6667,-193.5251 1526.8333,-193.5251"/>
<text text-anchor="middle" x="1395" y="-178.3251" font-family="Arial" font-size="14.00" fill="#cfffac">test/lib/removeCodeCoveragePollution.js</text>
</g>
<!-- test/lib/index.js&#45;&gt;test/lib/removeCodeCoveragePollution.js -->
<g id="edge48" class="edge">
<title>test/lib/index.js&#45;&gt;test/lib/removeCodeCoveragePollution.js</title>
<path fill="none" stroke="#757575" d="M1109.0867,-252.5077C1140.25,-238.3996 1195.9484,-214.8049 1246,-202.0251 1255.8695,-199.5051 1266.1927,-197.2886 1276.602,-195.3417"/>
<polygon fill="#757575" stroke="#757575" points="1277.3675,-198.7604 1286.5963,-193.5565 1276.1366,-191.8695 1277.3675,-198.7604"/>
</g>
<!-- test/lib/testBasicFunctionExport.js -->
<g id="node38" class="node">
<title>test/lib/testBasicFunctionExport.js</title>
<path fill="none" stroke="#cfffac" d="M1503.8333,-439.5251C1503.8333,-439.5251 1286.1667,-439.5251 1286.1667,-439.5251 1282.3333,-439.5251 1278.5,-435.6918 1278.5,-431.8584 1278.5,-431.8584 1278.5,-424.1918 1278.5,-424.1918 1278.5,-420.3584 1282.3333,-416.5251 1286.1667,-416.5251 1286.1667,-416.5251 1503.8333,-416.5251 1503.8333,-416.5251 1507.6667,-416.5251 1511.5,-420.3584 1511.5,-424.1918 1511.5,-424.1918 1511.5,-431.8584 1511.5,-431.8584 1511.5,-435.6918 1507.6667,-439.5251 1503.8333,-439.5251"/>
<text text-anchor="middle" x="1395" y="-424.3251" font-family="Arial" font-size="14.00" fill="#cfffac">test/lib/testBasicFunctionExport.js</text>
</g>
<!-- test/lib/index.js&#45;&gt;test/lib/testBasicFunctionExport.js -->
<g id="edge49" class="edge">
<title>test/lib/index.js&#45;&gt;test/lib/testBasicFunctionExport.js</title>
<path fill="none" stroke="#757575" d="M1140.1866,-263.3914C1164.2997,-265.9301 1191.2388,-272.9532 1210,-290.0251 1250.2397,-326.6415 1204.6047,-371.7203 1246,-407.0251 1252.8597,-412.8755 1260.5779,-417.5302 1268.7983,-421.2052"/>
<polygon fill="#757575" stroke="#757575" points="1267.6873,-424.5296 1278.2738,-424.9497 1270.26,-418.0194 1267.6873,-424.5296"/>
</g>
<!-- lib/createModel.draft.js -->
<g id="node18" class="node">
<title>lib/createModel.draft.js</title>
<path fill="none" stroke="#c6c5fe" d="M528.8333,-549.5251C528.8333,-549.5251 383.1667,-549.5251 383.1667,-549.5251 379.3333,-549.5251 375.5,-545.6918 375.5,-541.8584 375.5,-541.8584 375.5,-534.1918 375.5,-534.1918 375.5,-530.3584 379.3333,-526.5251 383.1667,-526.5251 383.1667,-526.5251 528.8333,-526.5251 528.8333,-526.5251 532.6667,-526.5251 536.5,-530.3584 536.5,-534.1918 536.5,-534.1918 536.5,-541.8584 536.5,-541.8584 536.5,-545.6918 532.6667,-549.5251 528.8333,-549.5251"/>
<text text-anchor="middle" x="456" y="-534.3251" font-family="Arial" font-size="14.00" fill="#c6c5fe">lib/createModel.draft.js</text>
</g>
<!-- lib/createModel.draft.js&#45;&gt;lib/client.js -->
<g id="edge15" class="edge">
<title>lib/createModel.draft.js&#45;&gt;lib/client.js</title>
<path fill="none" stroke="#757575" d="M536.7547,-528.0861C597.0302,-520.6675 677.5956,-510.7518 729.4017,-504.3757"/>
<polygon fill="#757575" stroke="#757575" points="729.8674,-507.8448 739.365,-503.1494 729.0123,-500.8973 729.8674,-507.8448"/>
</g>
<!-- lib/createModel.draft.js&#45;&gt;lib/utils/CosmosClientWrapper.js -->
<g id="edge16" class="edge">
<title>lib/createModel.draft.js&#45;&gt;lib/utils/CosmosClientWrapper.js</title>
<path fill="none" stroke="#757575" d="M536.5583,-547.7664C649.353,-561.4059 854.4915,-586.2118 979.2445,-601.2973"/>
<polygon fill="#757575" stroke="#757575" points="978.8517,-604.7752 989.1996,-602.5011 979.6921,-597.8258 978.8517,-604.7752"/>
</g>
<!-- lib/index.js -->
<g id="node19" class="node">
<title>lib/index.js</title>
<path fill="none" stroke="#c6c5fe" d="M490.3333,-508.5251C490.3333,-508.5251 421.6667,-508.5251 421.6667,-508.5251 417.8333,-508.5251 414,-504.6918 414,-500.8584 414,-500.8584 414,-493.1918 414,-493.1918 414,-489.3584 417.8333,-485.5251 421.6667,-485.5251 421.6667,-485.5251 490.3333,-485.5251 490.3333,-485.5251 494.1667,-485.5251 498,-489.3584 498,-493.1918 498,-493.1918 498,-500.8584 498,-500.8584 498,-504.6918 494.1667,-508.5251 490.3333,-508.5251"/>
<text text-anchor="middle" x="456" y="-493.3251" font-family="Arial" font-size="14.00" fill="#c6c5fe">lib/index.js</text>
</g>
<!-- lib/index.js&#45;&gt;lib/client.js -->
<g id="edge17" class="edge">
<title>lib/index.js&#45;&gt;lib/client.js</title>
<path fill="none" stroke="#757575" d="M498.1549,-497.1548C557.3758,-497.337 665.1113,-497.6685 729.159,-497.8656"/>
<polygon fill="#757575" stroke="#757575" points="729.4227,-501.3663 739.4335,-497.8972 729.4443,-494.3664 729.4227,-501.3663"/>
</g>
<!-- lib/index.test.js -->
<g id="node20" class="node">
<title>lib/index.test.js</title>
<path fill="none" stroke="#c6c5fe" d="M184.3333,-507.5251C184.3333,-507.5251 88.6667,-507.5251 88.6667,-507.5251 84.8333,-507.5251 81,-503.6918 81,-499.8584 81,-499.8584 81,-492.1918 81,-492.1918 81,-488.3584 84.8333,-484.5251 88.6667,-484.5251 88.6667,-484.5251 184.3333,-484.5251 184.3333,-484.5251 188.1667,-484.5251 192,-488.3584 192,-492.1918 192,-492.1918 192,-499.8584 192,-499.8584 192,-503.6918 188.1667,-507.5251 184.3333,-507.5251"/>
<text text-anchor="middle" x="136.5" y="-492.3251" font-family="Arial" font-size="14.00" fill="#c6c5fe">lib/index.test.js</text>
</g>
<!-- lib/index.test.js&#45;&gt;test/lib/index.js -->
<g id="edge19" class="edge">
<title>lib/index.test.js&#45;&gt;test/lib/index.js</title>
<path fill="none" stroke="#757575" d="M192.2626,-500.8661C220.1605,-500.129 252.3052,-493.9628 273,-473.0251 345.734,-399.4374 234.5818,-314.9092 309,-243.0251 407.3452,-148.0287 788.4895,-178.4688 923,-203.0251 969.7602,-211.5617 1020.5657,-232.9324 1052.4584,-247.9594"/>
<polygon fill="#757575" stroke="#757575" points="1051.1928,-251.234 1061.7235,-252.398 1054.2172,-244.921 1051.1928,-251.234"/>
</g>
<!-- lib/index.test.js&#45;&gt;lib/index.js -->
<g id="edge18" class="edge">
<title>lib/index.test.js&#45;&gt;lib/index.js</title>
<path fill="none" stroke="#757575" d="M192.1527,-496.1993C251.6897,-496.3856 345.3942,-496.6789 403.6354,-496.8612"/>
<polygon fill="#757575" stroke="#757575" points="403.7165,-500.3614 413.7275,-496.8928 403.7385,-493.3614 403.7165,-500.3614"/>
</g>
<!-- lib/utils/adaptMongooseModel.js&#45;&gt;lib/utils/useMongoNative.js -->
<g id="edge30" class="edge">
<title>lib/utils/adaptMongooseModel.js&#45;&gt;lib/utils/useMongoNative.js</title>
<path fill="none" stroke="#757575" d="M1475.324,-524.5091C1509.1696,-519.6567 1548.72,-513.9864 1583.5828,-508.9881"/>
<polygon fill="#757575" stroke="#757575" points="1584.3579,-512.4129 1593.76,-507.529 1583.3644,-505.4837 1584.3579,-512.4129"/>
</g>
<!-- lib/utils/adaptMongooseModel.js&#45;&gt;lib/utils/strategy.js -->
<g id="edge29" class="edge">
<title>lib/utils/adaptMongooseModel.js&#45;&gt;lib/utils/strategy.js</title>
<path fill="none" stroke="#757575" d="M1507.274,-544.0734C1538.1564,-546.2872 1570.8911,-548.6338 1599.1019,-550.6561"/>
<polygon fill="#757575" stroke="#757575" points="1599.0542,-554.1615 1609.2789,-551.3856 1599.5547,-547.1794 1599.0542,-554.1615"/>
</g>
<!-- lib/utils/CosmosClientWrapper.test.js -->
<g id="node25" class="node">
<title>lib/utils/CosmosClientWrapper.test.js</title>
<path fill="none" stroke="#c6c5fe" d="M573.8333,-705.5251C573.8333,-705.5251 338.1667,-705.5251 338.1667,-705.5251 334.3333,-705.5251 330.5,-701.6918 330.5,-697.8584 330.5,-697.8584 330.5,-690.1918 330.5,-690.1918 330.5,-686.3584 334.3333,-682.5251 338.1667,-682.5251 338.1667,-682.5251 573.8333,-682.5251 573.8333,-682.5251 577.6667,-682.5251 581.5,-686.3584 581.5,-690.1918 581.5,-690.1918 581.5,-697.8584 581.5,-697.8584 581.5,-701.6918 577.6667,-705.5251 573.8333,-705.5251"/>
<text text-anchor="middle" x="456" y="-690.3251" font-family="Arial" font-size="14.00" fill="#c6c5fe">lib/utils/CosmosClientWrapper.test.js</text>
</g>
<!-- lib/utils/CosmosClientWrapper.test.js&#45;&gt;lib/utils/CosmosClientWrapper.js -->
<g id="edge26" class="edge">
<title>lib/utils/CosmosClientWrapper.test.js&#45;&gt;lib/utils/CosmosClientWrapper.js</title>
<path fill="none" stroke="#757575" d="M581.686,-699.7133C676.4435,-701.4066 809.0999,-698.2209 923,-675.0251 969.3108,-665.5939 1019.8453,-644.637 1051.8292,-629.9316"/>
<polygon fill="#757575" stroke="#757575" points="1053.5533,-632.9894 1061.1344,-625.5883 1050.5926,-626.6464 1053.5533,-632.9894"/>
</g>
<!-- lib/utils/CosmosClientWrapper.test.js&#45;&gt;lib/utils/CosmosClientWrapper.test&#45;data.js -->
<g id="edge27" class="edge">
<title>lib/utils/CosmosClientWrapper.test.js&#45;&gt;lib/utils/CosmosClientWrapper.test&#45;data.js</title>
<path fill="none" stroke="#757575" d="M549.5674,-682.5091C589.5855,-677.5838 636.4501,-671.8159 677.5017,-666.7634"/>
<polygon fill="#757575" stroke="#757575" points="678.0329,-670.2245 687.5304,-665.529 677.1777,-663.2769 678.0329,-670.2245"/>
</g>
<!-- lib/utils/CosmosClientWrapper.test.js&#45;&gt;lib/utils/cosmosDb.js -->
<g id="edge28" class="edge">
<title>lib/utils/CosmosClientWrapper.test.js&#45;&gt;lib/utils/cosmosDb.js</title>
<path fill="none" stroke="#757575" d="M581.9883,-699.4774C601.0865,-700.1205 620.5628,-700.6726 639,-701.0251 765.1992,-703.4379 796.9141,-706.8893 923,-701.0251 1059.0349,-694.6982 1216.4109,-678.1674 1310.7049,-667.267"/>
<polygon fill="#757575" stroke="#757575" points="1311.228,-670.7299 1320.757,-666.0987 1310.4197,-663.7767 1311.228,-670.7299"/>
</g>
<!-- lib/utils/__mocks__/cosmosDb.js -->
<g id="node26" class="node">
<title>lib/utils/__mocks__/cosmosDb.js</title>
<path fill="none" stroke="#cfffac" d="M242.3333,-548.5251C242.3333,-548.5251 30.6667,-548.5251 30.6667,-548.5251 26.8333,-548.5251 23,-544.6918 23,-540.8584 23,-540.8584 23,-533.1918 23,-533.1918 23,-529.3584 26.8333,-525.5251 30.6667,-525.5251 30.6667,-525.5251 242.3333,-525.5251 242.3333,-525.5251 246.1667,-525.5251 250,-529.3584 250,-533.1918 250,-533.1918 250,-540.8584 250,-540.8584 250,-544.6918 246.1667,-548.5251 242.3333,-548.5251"/>
<text text-anchor="middle" x="136.5" y="-533.3251" font-family="Arial" font-size="14.00" fill="#cfffac">lib/utils/__mocks__/cosmosDb.js</text>
</g>
<!-- lib/utils/adaptMongooseModel.test&#45;data.js -->
<g id="node27" class="node">
<title>lib/utils/adaptMongooseModel.test&#45;data.js</title>
<path fill="none" stroke="#c6c5fe" d="M915.3333,-429.5251C915.3333,-429.5251 646.6667,-429.5251 646.6667,-429.5251 642.8333,-429.5251 639,-425.6918 639,-421.8584 639,-421.8584 639,-414.1918 639,-414.1918 639,-410.3584 642.8333,-406.5251 646.6667,-406.5251 646.6667,-406.5251 915.3333,-406.5251 915.3333,-406.5251 919.1667,-406.5251 923,-410.3584 923,-414.1918 923,-414.1918 923,-421.8584 923,-421.8584 923,-425.6918 919.1667,-429.5251 915.3333,-429.5251"/>
<text text-anchor="middle" x="781" y="-414.3251" font-family="Arial" font-size="14.00" fill="#c6c5fe">lib/utils/adaptMongooseModel.test&#45;data.js</text>
</g>
<!-- lib/utils/adaptMongooseModel.test&#45;data.js&#45;&gt;test/lib/index.js -->
<g id="edge31" class="edge">
<title>lib/utils/adaptMongooseModel.test&#45;data.js&#45;&gt;test/lib/index.js</title>
<path fill="none" stroke="#757575" d="M879.5472,-406.4691C894.4792,-402.8821 909.4183,-398.1825 923,-392.0251 982.2705,-365.1543 1038.849,-311.846 1066.6373,-283.2362"/>
<polygon fill="#757575" stroke="#757575" points="1069.3061,-285.5096 1073.6898,-275.8642 1064.2479,-280.6706 1069.3061,-285.5096"/>
</g>
<!-- lib/utils/adaptMongooseModel.test.js -->
<g id="node28" class="node">
<title>lib/utils/adaptMongooseModel.test.js</title>
<path fill="none" stroke="#c6c5fe" d="M573.8333,-467.5251C573.8333,-467.5251 338.1667,-467.5251 338.1667,-467.5251 334.3333,-467.5251 330.5,-463.6918 330.5,-459.8584 330.5,-459.8584 330.5,-452.1918 330.5,-452.1918 330.5,-448.3584 334.3333,-444.5251 338.1667,-444.5251 338.1667,-444.5251 573.8333,-444.5251 573.8333,-444.5251 577.6667,-444.5251 581.5,-448.3584 581.5,-452.1918 581.5,-452.1918 581.5,-459.8584 581.5,-459.8584 581.5,-463.6918 577.6667,-467.5251 573.8333,-467.5251"/>
<text text-anchor="middle" x="456" y="-452.3251" font-family="Arial" font-size="14.00" fill="#c6c5fe">lib/utils/adaptMongooseModel.test.js</text>
</g>
<!-- lib/utils/adaptMongooseModel.test.js&#45;&gt;lib/client.js -->
<g id="edge32" class="edge">
<title>lib/utils/adaptMongooseModel.test.js&#45;&gt;lib/client.js</title>
<path fill="none" stroke="#757575" d="M545.2376,-467.5573C604.3598,-475.1978 679.8462,-484.9529 729.2606,-491.3388"/>
<polygon fill="#757575" stroke="#757575" points="729.0279,-494.8377 739.3941,-492.6483 729.9251,-487.8955 729.0279,-494.8377"/>
</g>
<!-- lib/utils/adaptMongooseModel.test.js&#45;&gt;lib/utils/CosmosClientWrapper.test&#45;data.js -->
<g id="edge33" class="edge">
<title>lib/utils/adaptMongooseModel.test.js&#45;&gt;lib/utils/CosmosClientWrapper.test&#45;data.js</title>
<path fill="none" stroke="#757575" d="M581.5514,-466.625C589.0002,-469.2254 596.2143,-472.3295 603,-476.0251 624.5911,-487.7839 622.1018,-500.1675 639,-518.0251 680.4275,-561.8046 732.2605,-609.8908 760.437,-635.5157"/>
<polygon fill="#757575" stroke="#757575" points="758.2968,-638.2996 768.0568,-642.4219 762.9977,-633.113 758.2968,-638.2996"/>
</g>
<!-- lib/utils/adaptMongooseModel.test.js&#45;&gt;test/lib/index.js -->
<g id="edge36" class="edge">
<title>lib/utils/adaptMongooseModel.test.js&#45;&gt;test/lib/index.js</title>
<path fill="none" stroke="#757575" d="M488.7907,-444.4638C525.2054,-431.8574 585.8692,-411.5447 639,-397.0251 763.8109,-362.9168 799.8873,-372.8297 923,-333.0251 968.8787,-318.1917 1019.7037,-295.3542 1051.8567,-280.062"/>
<polygon fill="#757575" stroke="#757575" points="1053.707,-283.0563 1061.2096,-275.5755 1050.6795,-276.7448 1053.707,-283.0563"/>
</g>
<!-- lib/utils/adaptMongooseModel.test.js&#45;&gt;lib/utils/adaptMongooseModel.js -->
<g id="edge34" class="edge">
<title>lib/utils/adaptMongooseModel.test.js&#45;&gt;lib/utils/adaptMongooseModel.js</title>
<path fill="none" stroke="#757575" d="M581.5429,-458.9676C675.6563,-461.8293 807.5613,-467.2302 923,-477.0251 1057.7706,-488.4603 1213.2906,-509.4129 1307.8469,-523.0245"/>
<polygon fill="#757575" stroke="#757575" points="1307.5385,-526.5162 1317.9363,-524.4823 1308.5396,-519.5881 1307.5385,-526.5162"/>
</g>
<!-- lib/utils/adaptMongooseModel.test.js&#45;&gt;lib/utils/adaptMongooseModel.test&#45;data.js -->
<g id="edge35" class="edge">
<title>lib/utils/adaptMongooseModel.test.js&#45;&gt;lib/utils/adaptMongooseModel.test&#45;data.js</title>
<path fill="none" stroke="#757575" d="M554.3927,-444.5207C591.6087,-440.1693 634.1673,-435.1932 672.278,-430.7372"/>
<polygon fill="#757575" stroke="#757575" points="672.8555,-434.1936 682.3813,-429.5559 672.0425,-427.241 672.8555,-434.1936"/>
</g>
<!-- lib/utils/cosmosDb.test&#45;data.js -->
<g id="node29" class="node">
<title>lib/utils/cosmosDb.test&#45;data.js</title>
<path fill="none" stroke="#c6c5fe" d="M877.3333,-235.5251C877.3333,-235.5251 684.6667,-235.5251 684.6667,-235.5251 680.8333,-235.5251 677,-231.6918 677,-227.8584 677,-227.8584 677,-220.1918 677,-220.1918 677,-216.3584 680.8333,-212.5251 684.6667,-212.5251 684.6667,-212.5251 877.3333,-212.5251 877.3333,-212.5251 881.1667,-212.5251 885,-216.3584 885,-220.1918 885,-220.1918 885,-227.8584 885,-227.8584 885,-231.6918 881.1667,-235.5251 877.3333,-235.5251"/>
<text text-anchor="middle" x="781" y="-220.3251" font-family="Arial" font-size="14.00" fill="#c6c5fe">lib/utils/cosmosDb.test&#45;data.js</text>
</g>
<!-- lib/utils/cosmosDb.test&#45;data.js&#45;&gt;test/lib/index.js -->
<g id="edge37" class="edge">
<title>lib/utils/cosmosDb.test&#45;data.js&#45;&gt;test/lib/index.js</title>
<path fill="none" stroke="#757575" d="M868.3776,-235.5411C916.3039,-241.8576 974.7457,-249.56 1018.7674,-255.3618"/>
<polygon fill="#757575" stroke="#757575" points="1018.4087,-258.8447 1028.7803,-256.6815 1019.3234,-251.9047 1018.4087,-258.8447"/>
</g>
<!-- lib/utils/cosmosDb.test.js -->
<g id="node30" class="node">
<title>lib/utils/cosmosDb.test.js</title>
<path fill="none" stroke="#c6c5fe" d="M535.8333,-275.5251C535.8333,-275.5251 376.1667,-275.5251 376.1667,-275.5251 372.3333,-275.5251 368.5,-271.6918 368.5,-267.8584 368.5,-267.8584 368.5,-260.1918 368.5,-260.1918 368.5,-256.3584 372.3333,-252.5251 376.1667,-252.5251 376.1667,-252.5251 535.8333,-252.5251 535.8333,-252.5251 539.6667,-252.5251 543.5,-256.3584 543.5,-260.1918 543.5,-260.1918 543.5,-267.8584 543.5,-267.8584 543.5,-271.6918 539.6667,-275.5251 535.8333,-275.5251"/>
<text text-anchor="middle" x="456" y="-260.3251" font-family="Arial" font-size="14.00" fill="#c6c5fe">lib/utils/cosmosDb.test.js</text>
</g>
<!-- lib/utils/cosmosDb.test.js&#45;&gt;test/lib/index.js -->
<g id="edge40" class="edge">
<title>lib/utils/cosmosDb.test.js&#45;&gt;test/lib/index.js</title>
<path fill="none" stroke="#757575" d="M543.7209,-264.0251C671.0587,-264.0251 904.3075,-264.0251 1018.2825,-264.0251"/>
<polygon fill="#757575" stroke="#757575" points="1018.6014,-267.5252 1028.6013,-264.0251 1018.6013,-260.5252 1018.6014,-267.5252"/>
</g>
<!-- lib/utils/cosmosDb.test.js&#45;&gt;lib/utils/cosmosDb.js -->
<g id="edge38" class="edge">
<title>lib/utils/cosmosDb.test.js&#45;&gt;lib/utils/cosmosDb.js</title>
<path fill="none" stroke="#757575" d="M520.6564,-275.5336C613.0187,-293.4875 786.6337,-332.9099 923,-397.0251 1063.0106,-462.8538 1095.505,-489.9709 1210,-594.0251 1228.4453,-610.7883 1224.1698,-624.9969 1246,-637.0251 1265.5263,-647.7839 1288.6106,-653.5897 1310.7046,-656.5499"/>
<polygon fill="#757575" stroke="#757575" points="1310.4332,-660.0418 1320.7699,-657.7174 1311.2397,-653.0885 1310.4332,-660.0418"/>
</g>
<!-- lib/utils/cosmosDb.test.js&#45;&gt;lib/utils/cosmosDb.test&#45;data.js -->
<g id="edge39" class="edge">
<title>lib/utils/cosmosDb.test.js&#45;&gt;lib/utils/cosmosDb.test&#45;data.js</title>
<path fill="none" stroke="#757575" d="M543.5216,-253.2532C584.7723,-248.1762 634.2791,-242.0831 677.3907,-236.777"/>
<polygon fill="#757575" stroke="#757575" points="677.8444,-240.2477 687.3419,-235.5522 676.9892,-233.3001 677.8444,-240.2477"/>
</g>
<!-- lib/utils/useMongoNative.test.js -->
<g id="node31" class="node">
<title>lib/utils/useMongoNative.test.js</title>
<path fill="none" stroke="#c6c5fe" d="M880.8333,-154.5251C880.8333,-154.5251 681.1667,-154.5251 681.1667,-154.5251 677.3333,-154.5251 673.5,-150.6918 673.5,-146.8584 673.5,-146.8584 673.5,-139.1918 673.5,-139.1918 673.5,-135.3584 677.3333,-131.5251 681.1667,-131.5251 681.1667,-131.5251 880.8333,-131.5251 880.8333,-131.5251 884.6667,-131.5251 888.5,-135.3584 888.5,-139.1918 888.5,-139.1918 888.5,-146.8584 888.5,-146.8584 888.5,-150.6918 884.6667,-154.5251 880.8333,-154.5251"/>
<text text-anchor="middle" x="781" y="-139.3251" font-family="Arial" font-size="14.00" fill="#c6c5fe">lib/utils/useMongoNative.test.js</text>
</g>
<!-- lib/utils/useMongoNative.test.js&#45;&gt;lib/utils/useMongoNative.js -->
<g id="edge41" class="edge">
<title>lib/utils/useMongoNative.test.js&#45;&gt;lib/utils/useMongoNative.js</title>
<path fill="none" stroke="#757575" d="M888.5284,-139.0475C1086.1572,-132.6813 1491.777,-124.3615 1544,-161.0251 1598.4119,-199.2254 1652.3315,-406.0238 1668.8628,-474.2064"/>
<polygon fill="#757575" stroke="#757575" points="1665.5359,-475.3426 1671.2697,-484.2518 1672.3432,-473.7115 1665.5359,-475.3426"/>
</g>
<!-- lib/utils/useMongoNative.test.js&#45;&gt;test/lib/index.js -->
<g id="edge42" class="edge">
<title>lib/utils/useMongoNative.test.js&#45;&gt;test/lib/index.js</title>
<path fill="none" stroke="#757575" d="M867.1369,-154.5536C885.8809,-158.3945 905.3691,-163.439 923,-170.0251 975.2776,-189.5538 1030.2195,-225.2805 1060.6407,-246.6192"/>
<polygon fill="#757575" stroke="#757575" points="1058.7267,-249.5527 1068.9067,-252.4884 1062.7793,-243.8451 1058.7267,-249.5527"/>
</g>
<!-- test/throughputSimulation.integration&#45;test.js -->
<g id="node39" class="node">
<title>test/throughputSimulation.integration&#45;test.js</title>
<path fill="none" stroke="#c6c5fe" d="M595.3333,-388.5251C595.3333,-388.5251 316.6667,-388.5251 316.6667,-388.5251 312.8333,-388.5251 309,-384.6918 309,-380.8584 309,-380.8584 309,-373.1918 309,-373.1918 309,-369.3584 312.8333,-365.5251 316.6667,-365.5251 316.6667,-365.5251 595.3333,-365.5251 595.3333,-365.5251 599.1667,-365.5251 603,-369.3584 603,-373.1918 603,-373.1918 603,-380.8584 603,-380.8584 603,-384.6918 599.1667,-388.5251 595.3333,-388.5251"/>
<text text-anchor="middle" x="456" y="-373.3251" font-family="Arial" font-size="14.00" fill="#c6c5fe">test/throughputSimulation.integration&#45;test.js</text>
</g>
<!-- test/throughputSimulation.integration&#45;test.js&#45;&gt;lib/client.js -->
<g id="edge50" class="edge">
<title>test/throughputSimulation.integration&#45;test.js&#45;&gt;lib/client.js</title>
<path fill="none" stroke="#757575" d="M487.1624,-388.6271C546.2499,-410.6258 674.5354,-458.3875 740.3138,-482.8773"/>
<polygon fill="#757575" stroke="#757575" points="739.3392,-486.2491 749.932,-486.4582 741.7816,-479.689 739.3392,-486.2491"/>
</g>
<!-- test/throughputSimulation.integration&#45;test.js&#45;&gt;test/lib/index.js -->
<g id="edge51" class="edge">
<title>test/throughputSimulation.integration&#45;test.js&#45;&gt;test/lib/index.js</title>
<path fill="none" stroke="#757575" d="M520.0145,-365.5157C640.0645,-343.9316 897.7987,-297.5927 1018.9855,-275.8042"/>
<polygon fill="#757575" stroke="#757575" points="1019.6534,-279.2403 1028.8762,-274.0259 1018.4146,-272.3508 1019.6534,-279.2403"/>
</g>
</g>
</svg>
