<?xml version="1.0" encoding="UTF-8" standalone="no"?>
<!DOCTYPE svg PUBLIC "-//W3C//DTD SVG 1.1//EN"
 "http://www.w3.org/Graphics/SVG/1.1/DTD/svg11.dtd">
<!-- Generated by graphviz version 2.40.1 (20161225.0304)
 -->
<!-- Title: G Pages: 1 -->
<svg width="844pt" height="188pt"
 viewBox="0.00 0.00 844.20 188.20" xmlns="http://www.w3.org/2000/svg" xmlns:xlink="http://www.w3.org/1999/xlink">
<g id="graph0" class="graph" transform="scale(1 1) rotate(0) translate(21.6 166.6)">
<title>G</title>
<polygon fill="#111111" stroke="transparent" points="-21.6,21.6 -21.6,-166.6 822.6,-166.6 822.6,21.6 -21.6,21.6"/>
<!-- client.js -->
<g id="node1" class="node">
<title>client.js</title>
<path fill="none" stroke="#c6c5fe" d="M159.3333,-43C159.3333,-43 109.6667,-43 109.6667,-43 105.8333,-43 102,-39.1667 102,-35.3333 102,-35.3333 102,-27.6667 102,-27.6667 102,-23.8333 105.8333,-20 109.6667,-20 109.6667,-20 159.3333,-20 159.3333,-20 163.1667,-20 167,-23.8333 167,-27.6667 167,-27.6667 167,-35.3333 167,-35.3333 167,-39.1667 163.1667,-43 159.3333,-43"/>
<text text-anchor="middle" x="134.5" y="-27.8" font-family="Arial" font-size="14.00" fill="#c6c5fe">client.js</text>
</g>
<!-- utils/CosmosClientWrapper.js -->
<g id="node2" class="node">
<title>utils/CosmosClientWrapper.js</title>
<path fill="none" stroke="#c6c5fe" d="M401.3333,-83C401.3333,-83 210.6667,-83 210.6667,-83 206.8333,-83 203,-79.1667 203,-75.3333 203,-75.3333 203,-67.6667 203,-67.6667 203,-63.8333 206.8333,-60 210.6667,-60 210.6667,-60 401.3333,-60 401.3333,-60 405.1667,-60 409,-63.8333 409,-67.6667 409,-67.6667 409,-75.3333 409,-75.3333 409,-79.1667 405.1667,-83 401.3333,-83"/>
<text text-anchor="middle" x="306" y="-67.8" font-family="Arial" font-size="14.00" fill="#c6c5fe">utils/CosmosClientWrapper.js</text>
</g>
<!-- client.js&#45;&gt;utils/CosmosClientWrapper.js -->
<g id="edge1" class="edge">
<title>client.js&#45;&gt;utils/CosmosClientWrapper.js</title>
<path fill="none" stroke="#757575" d="M167.1615,-39.1178C189.5674,-44.3437 219.9458,-51.429 246.5739,-57.6397"/>
<polygon fill="#757575" stroke="#757575" points="246.0376,-61.1085 256.5713,-59.9714 247.6277,-54.2914 246.0376,-61.1085"/>
</g>
<!-- utils/useMongoNative.js -->
<g id="node3" class="node">
<title>utils/useMongoNative.js</title>
<path fill="none" stroke="#cfffac" d="M793.3333,-23C793.3333,-23 638.6667,-23 638.6667,-23 634.8333,-23 631,-19.1667 631,-15.3333 631,-15.3333 631,-7.6667 631,-7.6667 631,-3.8333 634.8333,0 638.6667,0 638.6667,0 793.3333,0 793.3333,0 797.1667,0 801,-3.8333 801,-7.6667 801,-7.6667 801,-15.3333 801,-15.3333 801,-19.1667 797.1667,-23 793.3333,-23"/>
<text text-anchor="middle" x="716" y="-7.8" font-family="Arial" font-size="14.00" fill="#cfffac">utils/useMongoNative.js</text>
</g>
<!-- client.js&#45;&gt;utils/useMongoNative.js -->
<g id="edge2" class="edge">
<title>client.js&#45;&gt;utils/useMongoNative.js</title>
<path fill="none" stroke="#757575" d="M167.01,-30.3819C252.7354,-27.4334 487.465,-19.3602 620.5772,-14.782"/>
<polygon fill="#757575" stroke="#757575" points="620.8957,-18.2732 630.7695,-14.4314 620.655,-11.2773 620.8957,-18.2732"/>
</g>
<!-- utils/cosmosDb.js -->
<g id="node5" class="node">
<title>utils/cosmosDb.js</title>
<path fill="none" stroke="#cfffac" d="M577.3333,-145C577.3333,-145 462.6667,-145 462.6667,-145 458.8333,-145 455,-141.1667 455,-137.3333 455,-137.3333 455,-129.6667 455,-129.6667 455,-125.8333 458.8333,-122 462.6667,-122 462.6667,-122 577.3333,-122 577.3333,-122 581.1667,-122 585,-125.8333 585,-129.6667 585,-129.6667 585,-137.3333 585,-137.3333 585,-141.1667 581.1667,-145 577.3333,-145"/>
<text text-anchor="middle" x="520" y="-129.8" font-family="Arial" font-size="14.00" fill="#cfffac">utils/cosmosDb.js</text>
</g>
<!-- utils/CosmosClientWrapper.js&#45;&gt;utils/cosmosDb.js -->
<g id="edge4" class="edge">
<title>utils/CosmosClientWrapper.js&#45;&gt;utils/cosmosDb.js</title>
<path fill="none" stroke="#757575" d="M343.0708,-83.0626C371.0165,-91.6911 410.3248,-103.6408 445,-113.5 451.6188,-115.3819 458.581,-117.3088 465.4865,-119.1878"/>
<polygon fill="#757575" stroke="#757575" points="464.9498,-122.6682 475.5164,-121.8958 466.7744,-115.9101 464.9498,-122.6682"/>
</g>
<!-- utils/ensureValidity.js -->
<g id="node6" class="node">
<title>utils/ensureValidity.js</title>
<path fill="none" stroke="#cfffac" d="M587.3333,-104C587.3333,-104 452.6667,-104 452.6667,-104 448.8333,-104 445,-100.1667 445,-96.3333 445,-96.3333 445,-88.6667 445,-88.6667 445,-84.8333 448.8333,-81 452.6667,-81 452.6667,-81 587.3333,-81 587.3333,-81 591.1667,-81 595,-84.8333 595,-88.6667 595,-88.6667 595,-96.3333 595,-96.3333 595,-100.1667 591.1667,-104 587.3333,-104"/>
<text text-anchor="middle" x="520" y="-88.8" font-family="Arial" font-size="14.00" fill="#cfffac">utils/ensureValidity.js</text>
</g>
<!-- utils/CosmosClientWrapper.js&#45;&gt;utils/ensureValidity.js -->
<g id="edge5" class="edge">
<title>utils/CosmosClientWrapper.js&#45;&gt;utils/ensureValidity.js</title>
<path fill="none" stroke="#757575" d="M409.239,-81.6309C417.7495,-82.4661 426.2918,-83.3043 434.6501,-84.1245"/>
<polygon fill="#757575" stroke="#757575" points="434.4457,-87.6212 444.7397,-85.1146 435.1294,-80.6547 434.4457,-87.6212"/>
</g>
<!-- utils/wrap.js -->
<g id="node7" class="node">
<title>utils/wrap.js</title>
<path fill="none" stroke="#c6c5fe" d="M558.3333,-63C558.3333,-63 481.6667,-63 481.6667,-63 477.8333,-63 474,-59.1667 474,-55.3333 474,-55.3333 474,-47.6667 474,-47.6667 474,-43.8333 477.8333,-40 481.6667,-40 481.6667,-40 558.3333,-40 558.3333,-40 562.1667,-40 566,-43.8333 566,-47.6667 566,-47.6667 566,-55.3333 566,-55.3333 566,-59.1667 562.1667,-63 558.3333,-63"/>
<text text-anchor="middle" x="520" y="-47.8" font-family="Arial" font-size="14.00" fill="#c6c5fe">utils/wrap.js</text>
</g>
<!-- utils/CosmosClientWrapper.js&#45;&gt;utils/wrap.js -->
<g id="edge6" class="edge">
<title>utils/CosmosClientWrapper.js&#45;&gt;utils/wrap.js</title>
<path fill="none" stroke="#757575" d="M409.239,-61.8515C428.0035,-60.0978 446.9225,-58.3297 463.6837,-56.7632"/>
<polygon fill="#757575" stroke="#757575" points="464.1895,-60.2313 473.8204,-55.8158 463.5381,-53.2616 464.1895,-60.2313"/>
</g>
<!-- index.js -->
<g id="node4" class="node">
<title>index.js</title>
<path fill="none" stroke="#c6c5fe" d="M58.3333,-43C58.3333,-43 7.6667,-43 7.6667,-43 3.8333,-43 0,-39.1667 0,-35.3333 0,-35.3333 0,-27.6667 0,-27.6667 0,-23.8333 3.8333,-20 7.6667,-20 7.6667,-20 58.3333,-20 58.3333,-20 62.1667,-20 66,-23.8333 66,-27.6667 66,-27.6667 66,-35.3333 66,-35.3333 66,-39.1667 62.1667,-43 58.3333,-43"/>
<text text-anchor="middle" x="33" y="-27.8" font-family="Arial" font-size="14.00" fill="#c6c5fe">index.js</text>
</g>
<!-- index.js&#45;&gt;client.js -->
<g id="edge3" class="edge">
<title>index.js&#45;&gt;client.js</title>
<path fill="none" stroke="#757575" d="M66.2349,-31.5C74.3734,-31.5 83.1968,-31.5 91.7134,-31.5"/>
<polygon fill="#757575" stroke="#757575" points="91.8829,-35.0001 101.8829,-31.5 91.8829,-28.0001 91.8829,-35.0001"/>
</g>
<!-- utils/wrap.js&#45;&gt;utils/useMongoNative.js -->
<g id="edge8" class="edge">
<title>utils/wrap.js&#45;&gt;utils/useMongoNative.js</title>
<path fill="none" stroke="#757575" d="M566.4493,-42.0206C591.2513,-36.9589 622.2116,-30.6405 649.5182,-25.0677"/>
<polygon fill="#757575" stroke="#757575" points="650.2968,-28.481 659.395,-23.052 648.8971,-21.6224 650.2968,-28.481"/>
</g>
<!-- utils/mongoose.js -->
<g id="node8" class="node">
<title>utils/mongoose.js</title>
<path fill="none" stroke="#cfffac" d="M772.8333,-64C772.8333,-64 659.1667,-64 659.1667,-64 655.3333,-64 651.5,-60.1667 651.5,-56.3333 651.5,-56.3333 651.5,-48.6667 651.5,-48.6667 651.5,-44.8333 655.3333,-41 659.1667,-41 659.1667,-41 772.8333,-41 772.8333,-41 776.6667,-41 780.5,-44.8333 780.5,-48.6667 780.5,-48.6667 780.5,-56.3333 780.5,-56.3333 780.5,-60.1667 776.6667,-64 772.8333,-64"/>
<text text-anchor="middle" x="716" y="-48.8" font-family="Arial" font-size="14.00" fill="#cfffac">utils/mongoose.js</text>
</g>
<!-- utils/wrap.js&#45;&gt;utils/mongoose.js -->
<g id="edge7" class="edge">
<title>utils/wrap.js&#45;&gt;utils/mongoose.js</title>
<path fill="none" stroke="#757575" d="M566.4493,-51.737C588.7361,-51.8507 615.9955,-51.9898 641.108,-52.1179"/>
<polygon fill="#757575" stroke="#757575" points="641.3293,-55.619 651.347,-52.1701 641.365,-48.6191 641.3293,-55.619"/>
</g>
</g>
</svg>
